<?xml version="1.0" encoding="UTF-8" standalone="no"?>
<svg
   viewBox="0 0 36 36"
   version="1.1"
   id="svg20172"
   sodipodi:docname="aguiana.svg"
   inkscape:version="1.2.1 (9c6d41e410, 2022-07-14)"
   xmlns:inkscape="http://www.inkscape.org/namespaces/inkscape"
   xmlns:sodipodi="http://sodipodi.sourceforge.net/DTD/sodipodi-0.dtd"
   xmlns="http://www.w3.org/2000/svg"
   xmlns:svg="http://www.w3.org/2000/svg">
  <defs
     id="defs20176" />
  <sodipodi:namedview
     id="namedview20174"
     pagecolor="#ffffff"
     bordercolor="#000000"
     borderopacity="0.25"
     inkscape:showpageshadow="2"
     inkscape:pageopacity="0.0"
     inkscape:pagecheckerboard="0"
     inkscape:deskcolor="#d1d1d1"
     showgrid="false"
     inkscape:zoom="9.6161913"
     inkscape:cx="-11.491036"
     inkscape:cy="-11.231058"
     inkscape:window-width="1920"
     inkscape:window-height="1021"
     inkscape:window-x="-8"
     inkscape:window-y="-8"
     inkscape:window-maximized="1"
     inkscape:current-layer="svg20172" />
  <path
     fill="#E41E20"
     d="M32 5H4C1.791 5 0 6.791 0 9v18c0 2.209 1.791 4 4 4h28c2.209 0 4-1.791 4-4V9c0-2.209-1.791-4-4-4z"
     id="path20166" />
  <g
     id="g14243"
     transform="matrix(0.11329078,0,0,0.1159632,-27.08264,2.2417205)"
     style="display:inline">
    <g
       id="g13984">
      <path
         id="path9487-8-8-6-9-9-8"
         style="display:inline;fill:#e4c900;fill-opacity:1;stroke:#806600;stroke-width:1.5;stroke-linecap:butt;stroke-linejoin:miter;stroke-miterlimit:4;stroke-dasharray:none;stroke-opacity:1"
         d="m 336.78996,106.81585 c 1.29046,5.54436 5.78712,10.01618 9.34662,12.23417 8.69271,5.41659 29.78466,-3.69611 29.78466,-3.69611 l 1.33252,29.1059 c 0,0 -22.86059,8.22923 -34.6891,7.03164 -11.14849,-2.8193 -9.79485,-4.7727 -14.21884,-11.51345 -2.61947,0.92826 -4.79235,-0.13195 -7.84461,6.43414 -1.87784,-7.01523 0.73461,-11.0772 2.5837,-15.37185 -3.63181,0.2074 -4.88556,1.14222 -7.36405,4.05417 -1.22348,-5.06522 1.23353,-8.87554 3.77067,-14.99255 -2.56226,0.0258 -4.02752,0.27474 -6.77841,3.2319 -2.08384,-5.03523 2.48209,-11.53408 3.80786,-15.10983 -3.84195,0.29846 -3.51448,2.56905 -6.04428,5.27605 -0.73676,-12.56947 2.66688,-18.359449 5.19929,-22.156608 l 0.75979,-6.494089 c -3.55887,-0.770221 -5.0613,-0.498129 -7.10198,-3.743586 -1.90701,-3.03281 -3.05399,-7.326114 3.25861,-11.767016 0,0 -1.27744,-4.857537 0.0894,-7.887107 1.28795,-2.854716 5.63757,-4.958939 5.5718,-4.921931 0,0 0.61164,-8.000151 4.07887,-8.910366 16.15666,-4.241433 9.59774,19.741252 10.12641,23.800135 0.65548,3.397888 2.02856,4.632349 2.39546,7.992034 1.1739,10.749648 0.41822,20.885284 1.93556,27.404354 z" />
      <path
         style="fill:#fee46e;fill-opacity:1;stroke:none;stroke-width:3;stroke-miterlimit:4;stroke-dasharray:none"
         d="m 351.24112,145.57642 2.27839,-14.90315 -2.17516,-6.35818 c 0,0 -5.56624,-1.4631 -8.22984,-3.39045 -3.87245,-2.80208 -7.00222,-4.94886 -9.03745,-9.27306 -1.49933,-3.18558 -1.92689,-7.43204 -2.38415,-10.92282 -0.92293,-7.04571 1.40905,-15.359813 0.0541,-22.335369 -0.55203,-2.841867 -3.59188,-7.907787 -3.59188,-7.907787 0,0 3.0187,-9.594784 1.74121,-14.878571 -0.41529,-1.717658 -1.32195,-3.635467 -2.89489,-4.441754 -1.03676,-0.531444 -2.60029,-0.590274 -3.49168,0.159758 -1.84628,1.55348 -1.97321,3.337931 -1.62198,5.724703 0.26251,1.783895 2.63859,4.722551 2.63859,4.722551 0,0 -2.3695,-1.636892 -4.37122,-1.414425 -1.31518,0.146163 -2.77972,0.873778 -3.40564,2.039318 -0.97501,1.815623 -0.68133,4.354236 0.28274,6.175696 0.9231,1.744064 3.37061,3.074632 3.37061,3.074632 0,0 -4.83344,-0.651988 -7.21509,1.137331 -1.05785,0.794757 -1.79748,2.256008 -1.72033,3.576634 0.0843,1.442242 1.139,2.829381 2.32083,3.660807 1.67138,1.175811 3.09187,0.125205 5.12782,0.303526 1.33923,0.117298 2.57712,3.380009 2.57712,3.380009 l -2.26795,9.252179 c -2.6245,2.48705 -4.40241,6.634462 -6.14931,12.658622 2.75809,-1.1184 4.57114,-4.69086 8.78976,-2.01659 l -6.33186,14.55047 c 3.50443,-1.841 7.03093,-3.19992 10.63301,-2.90814 -3.03545,2.13903 -4.24321,7.2009 -6.44248,12.13389 3.5368,-1.29783 5.31639,-2.09884 9.65699,-0.71092 -2.42082,1.99398 -4.70889,6.88732 -6.96737,12.42698 l 8.42281,-4.15237 c 0,0 4.48062,6.06417 6.83955,8.29733 1.45513,1.37756 3.57142,1.87644 5.49476,2.43931 2.63153,0.77012 8.07003,-0.10016 8.07003,-0.10016 z"
         id="path6549-8" />
      <path
         style="fill:#fff1a1;fill-opacity:1;stroke:none;stroke-width:3;stroke-miterlimit:4;stroke-dasharray:none"
         d="m 325.28325,73.253056 c 0,0 2.71625,4.687379 3.36344,7.281298 2.10895,8.452681 -0.6492,17.643482 1.47007,26.093586 0.94033,3.74937 2.54957,7.43826 4.88883,10.51603 2.35566,3.09935 5.63762,5.43365 8.88632,7.57936 1.57585,1.04083 5.07377,2.52163 5.07377,2.52163 l 0.28936,6.32044 c 0,0 -8.2383,-3.9203 -11.61002,-6.90399 -3.10592,-2.74846 -5.5908,-6.21989 -7.61254,-9.84065 -1.88038,-3.36758 -3.43755,-7.02517 -4.07676,-10.82857 -1.46287,-8.704234 1.55776,-17.682938 0.71643,-26.469002 -0.20405,-2.130934 -1.3889,-6.270132 -1.3889,-6.270132 z"
         id="path6551-9" />
      <path
         style="display:inline;fill:#377bc8;fill-opacity:1;stroke:#2c5aa0;stroke-width:1.5;stroke-linecap:butt;stroke-linejoin:miter;stroke-miterlimit:4;stroke-dasharray:none;stroke-opacity:1"
         d="m 320.0115,46.585939 c -1.01025,-0.01102 -2.18456,0.07946 -3.56836,0.314453 4.06942,2.252985 4.998,3.657026 5.95508,7.787109 1.82484,0.813353 3.1889,0.644172 4.12695,-0.09766 1.88772,-1.492469 2.20521,-3.574965 0.75586,-5.716797 -1.62092,-0.290655 -2.89177,-2.239344 -7.26953,-2.287109 z m -7.26953,12.21875 c -1.20794,0.04303 -2.66468,0.270041 -4.45703,0.796874 4.3052,1.766626 5.39479,3.053981 6.83789,7.050782 1.90698,0.59629 3.2405,0.271141 4.08203,-0.576172 1.69373,-1.704785 1.7579,-3.815749 0.0644,-5.777344 -1.51598,-0.09241 -2.90351,-1.623232 -6.52734,-1.49414 z m 0.55078,14.240234 c -1.90101,0.672744 -4.60202,-1.111087 -10.34179,3.628906 4.64203,-0.04136 6.14864,0.727521 9.04687,3.863281 1.98276,-0.19061 3.07649,-1.01167 3.51367,-2.123047 0.88025,-2.236381 0.10653,-4.213576 -2.21875,-5.36914 z"
         id="path4318-6-3-4-84-00-3-37" />
    </g>
    <g
       id="g14003">
      <path
         id="path9487-8-8-7-1"
         style="display:inline;fill:#e4c900;fill-opacity:1;stroke:#806600;stroke-width:1.5;stroke-linecap:butt;stroke-linejoin:miter;stroke-miterlimit:4;stroke-dasharray:none;stroke-opacity:1"
         d="m 457.88497,141.63078 -30.60787,-0.70637 c 0,0 -11.26496,11.741 -15.50364,21.43307 -3.47256,7.94023 -1.07685,12.98561 1.23294,17.35454 3.85757,10.03812 -2.08241,20.03752 -9.02271,25.82947 -4.69278,3.89028 -13.687,3.48471 -16.69723,8.87099 -1.61246,2.88526 -1.29194,6.61367 1.0743,8.88443 2.61368,2.50814 9.3836,-0.64603 9.3836,-0.64603 -0.0575,-0.0501 3.41782,3.38241 6.54238,3.61214 3.31588,0.24378 7.43674,-2.69449 7.43674,-2.69449 6.34605,4.49262 10.59874,1.01867 12.78926,-1.88048 2.34404,-3.10245 1.25071,-5.69922 -0.0106,-12.04649 1.94542,-3.4229 3.83695,-5.26125 5.16178,-10.00046 2.52456,1.04457 4.78462,0.27201 7.22943,6.40094 2.5057,-6.12979 0.27201,-9.98031 -1.18045,-13.9771 3.5981,0.48146 4.762,1.42072 6.96652,4.23043 1.67733,-4.43672 -0.4244,-8.04926 -2.39696,-13.73408 2.54934,0.23166 3.9861,0.57395 6.45773,3.44628 2.53144,-4.33979 -0.98268,-10.69957 -2.4234,-13.84215 -5.28895,-11.5366 12.61751,-21.56678 13.56819,-30.53464 z" />
      <path
         id="path5636-3-3-2-8-2-5"
         d="m 445.2045,144.4622 c 0,0 1.88436,11.37379 -0.18209,14.02833 -0.88979,1.14311 -2.36733,2.01383 -3.75882,1.93279 -1.34785,-0.0785 -2.61186,-1.15048 -3.45559,-2.2857 -0.54014,-0.72673 -1.65457,-2.6369 -1.65457,-2.6369 0,0 -3.88202,0.053 -6.07101,0.67298 -3.22238,0.91268 -11.58636,7.07609 -11.58636,7.07609 -0.0611,-3.89629 1.74367,-7.78691 3.83067,-11.68282 l 12.36799,-5.21549 z"
         style="display:inline;fill:#efd300;fill-opacity:1;stroke:#806600;stroke-width:1.5;stroke-linecap:butt;stroke-linejoin:miter;stroke-miterlimit:4;stroke-dasharray:none;stroke-opacity:1" />
      <path
         style="fill:#fee46e;fill-opacity:1;stroke:none;stroke-width:3;stroke-miterlimit:4;stroke-dasharray:none"
         d="m 390.17755,217.62842 c 0.13213,1.01122 0.9548,2.19379 1.94411,2.32746 2.96162,0.40013 6.88993,-4.62181 6.88993,-4.62181 0,0 0.5913,1.85581 1.71782,3.14419 1.18108,1.3508 2.8212,2.64839 4.5911,2.74105 1.88283,0.0986 3.9448,-0.9084 5.14987,-2.39068 1.57538,-1.9378 2.10857,-5.74167 2.10857,-5.74167 0,0 0.60071,5.22223 2.93507,6.84926 1.15706,0.80645 3.01681,0.57467 4.19675,-0.19612 1.61907,-1.058 2.00286,-2.44379 2.1686,-4.40092 0.23438,-2.76778 -2.1722,-7.42237 -2.1722,-7.42237 l 8.67435,-13.00024 c 5.33658,0.88315 4.06592,2.03816 6.20087,3.05305 l -4.01009,-11.65017 c 6.22567,0.84656 6.40996,1.94171 8.03694,2.9775 1.35535,-2.3352 -1.7136,-7.56435 -3.77179,-12.13236 2.61766,-0.21204 5.2995,0.83658 8.01294,2.5059 -4.79978,-9.20524 -3.26641,-7.43671 -2.87868,-15.24099 0,0 -3.23612,-0.42088 -4.53105,-1.23135 -1.39471,-0.8729 -3.07734,-3.65416 -3.07734,-3.65416 0,0 -5.0563,0.66437 -7.27226,1.71701 -2.36879,1.12523 -7.70232,6.45814 -7.70232,6.45814 0,0 -3.95173,3.84833 -1.32637,8.42871 1.7613,3.07289 2.67823,6.73062 2.17318,10.24304 -0.76997,5.35491 -2.09955,8.82278 -4.30253,13.84591 -1.36579,3.11424 -2.50412,3.54141 -5.06403,6.30589 -1.69549,1.83097 -4.13474,2.7991 -6.40135,3.7928 -3.39468,1.48826 -7.82646,0.73105 -10.63409,3.18472 -1.27971,1.11837 -1.87893,2.40222 -1.656,4.10821 z"
         id="path6539-4" />
      <path
         style="fill:#fff1a1;fill-opacity:1;stroke:none;stroke-width:3;stroke-miterlimit:4;stroke-dasharray:none"
         d="m 412.89505,207.56318 c 5.69352,-8.16558 7.75591,-16.88573 8.49177,-25.38745 0.46578,-5.38138 -0.29022,-7.88709 -2.49411,-12.38688 l 3.08327,-2.64063 c 3.33873,6.9292 3.6564,10.44813 3.46317,15.38806 -0.32337,8.26684 -2.59085,14.53778 -12.5441,25.0269 z"
         id="path6541-2" />
      <path
         style="display:inline;fill:#377bc8;fill-opacity:1;stroke:#2c5aa0;stroke-width:1.5;stroke-linecap:butt;stroke-linejoin:miter;stroke-miterlimit:4;stroke-dasharray:none;stroke-opacity:1"
         d="m 390.49393,214.08984 c -0.29316,-0.0117 -0.59927,-7.5e-4 -0.91992,0.0352 -1.22656,1.61309 -4.44398,1.57141 -6.68945,8.75 3.85702,-2.57427 5.52896,-2.74318 9.63867,-1.65625 1.55444,-1.24697 2.02575,-2.54413 1.79297,-3.73047 -0.40969,-2.08861 -1.77014,-3.3166 -3.82227,-3.39844 z m 11.91407,2.50196 c -0.5377,0.0247 -1.11078,0.1507 -1.71094,0.38476 -0.78185,1.87004 -3.89194,2.65803 -4.27539,10.1543 3.07822,-3.47262 4.64718,-4.06552 8.87695,-4.07422 1.18857,-1.60144 1.32119,-2.97496 0.80274,-4.05859 -0.78238,-1.63526 -2.08029,-2.48035 -3.69336,-2.40625 z m 14.17382,0.72461 c -0.53769,0.0247 -1.11077,0.1507 -1.71093,0.38476 -0.78185,1.87004 -3.89182,2.65802 -4.27539,10.1543 3.07821,-3.47262 4.64731,-4.06748 8.87695,-4.07617 1.1887,-1.60146 1.32119,-2.97301 0.80273,-4.05664 -0.78237,-1.63527 -2.08028,-2.48035 -3.69336,-2.40625 z"
         id="path4318-6-3-4-84-00-3-3-5-9" />
    </g>
    <g
       id="g14041">
      <path
         id="path9487-8-8-08"
         style="display:inline;fill:#e4c900;fill-opacity:1;stroke:none;stroke-width:3;stroke-miterlimit:4;stroke-dasharray:none"
         d="m 463.78494,119.07218 c -12.59759,-4.13745 -29.90168,-1.75529 -42.63249,-2.6656 -4.70609,-0.33651 -11.47755,-1.61858 -17.15998,-3.30234 -5.68242,-1.68376 -13.27244,-5.77387 -13.27244,-5.77387 l -24.09784,3.83519 c 0,0 -8.54384,17.99094 -10.50859,29.56457 -2.21009,13.0188 1.6741,40.63467 -2.40756,51.91653 -2.38951,6.60476 -4.55263,10.39621 -10.6888,15.10773 -4.83096,3.70932 -13.80414,2.96236 -17.00808,8.23058 -1.71625,2.82202 -1.5315,6.56002 0.75063,8.91911 2.52068,2.6057 9.4006,-0.28913 9.4006,-0.28913 -0.0553,-0.0522 3.2925,3.50991 6.4066,3.85817 3.3047,0.36959 7.52949,-2.41011 7.52949,-2.41011 6.1784,4.73058 10.55443,1.42058 12.84876,-1.39335 2.45519,-3.01127 1.45706,-5.64778 0.42727,-12.03859 2.06848,-3.3466 4.14569,-5.4885 5.66544,-10.18018 2.47963,1.12817 4.77009,0.43166 6.95985,6.63804 2.75738,-6.04188 0.68435,-9.96436 -0.60188,-14.0069 3.57573,0.60131 4.69999,1.57881 6.78687,4.46022 1.85959,-4.37762 -0.0915,-8.05787 -1.82769,-13.80466 2.53799,0.31666 3.95962,0.70672 6.31082,3.65963 2.70916,-4.25224 -0.9907,-10.57221 -1.84952,-13.91355 3.7725,0.70662 3.15814,2.69434 5.32196,5.39877 2.33396,-11.12673 -0.97753,-16.43872 -2.33075,-20.35833 0,0 7.107,0.9775 10.72184,0.91997 10.07498,-0.16035 41.99633,-18.23466 44.27453,-14.09605 -0.10073,8.05551 8.44288,22.43573 16.58042,25.90164 11.70674,4.67948 0.0204,26.26908 -4.47913,31.21435 -4.14211,4.51371 -12.04683,3.92864 -14.32747,9.68905 -1.22171,3.08572 -0.46067,5.80167 2.17895,7.72038 2.91545,2.11933 7.28195,0.23119 7.28195,0.23119 -0.0629,-0.0417 3.82589,2.87303 6.95098,2.66256 3.31634,-0.2234 7.01581,-3.71333 7.01581,-3.71333 6.87102,3.5627 10.63133,-0.47617 12.42377,-3.65714 1.91797,-3.40349 0.35488,-3.94476 -1.72087,-10.05859 1.06407,-3.78772 2.15086,-1.70505 3.74812,-6.16309 2.4026,0.49879 4.37739,-0.76522 8.42744,4.61323 0.74034,-6.50895 -2.47932,-9.72879 -4.98314,-13.26857 3.61417,-0.35468 4.99861,0.28944 7.90407,2.50782 0.40395,-4.68006 -2.62268,-7.69948 -6.09366,-12.75557 2.53059,-0.35742 4.01504,-0.35365 7.19613,1.86444 1.25725,-4.78114 -4.275,-9.87528 -6.14883,-12.85425 3.8358,-0.30503 3.87273,1.76011 6.7962,3.78881 -1.26499,-11.27245 -4.9943,-11.21915 -7.52363,-14.62364 0,0 -8.70555,-4.78556 -10.47664,-9.41545 -0.77449,-2.02468 -2.32657,-6.1061 -2.15333,-9.9632 0.17325,-3.85711 -0.32855,-9.73075 -1.62596,-12.14337 -0.89459,-1.66355 5.5159,-2.99387 4.4168,-4.2437 0,0 13.04299,-5.9783 17.05736,-13.3408 4.24306,-7.78194 4.15025,-15.930409 -0.8545,-23.29367 -7.67163,-11.286916 -25.07808,-11.846091 -37.64245,-15.984598 -12.8578,-4.235163 -3.04331,-14.094954 2.07112,-12.857456 7.22378,1.747875 10.73427,10.513945 10.73427,10.513945 1.80882,-4.502481 5.5145,-8.205598 -1.71347,-13.203817 6.78313,-6.779894 17.6841,4.89783 26.86575,-12.146681 -6.42959,2.843512 -9.65887,3.452784 -13.59474,3.390057 -10.53175,-0.167848 -17.32165,-6.591734 -28.64874,-3.548039 -4.33127,1.16385 -9.45012,2.993023 -14.9727,8.004887 0,0 2.01247,-5.446477 0.42466,-7.934304 -1.9966,-3.128332 -9.58439,-3.414064 -9.58439,-3.414064 0,0 4.13565,5.550223 2.52963,7.806016 -7.2301,8.973158 -17.00778,16.18142 -5.74178,28.082525 7.26238,7.671796 28.55687,4.122309 28.55687,4.122309 -3.03816,1.275405 -5.36165,3.273985 -6.58265,5.162099 -2.44143,3.775371 -1.73131,8.950629 1.59643,11.569747 1.99169,1.56758 4.83806,2.497514 8.32527,2.274441 0,0 -4.71278,-6.507148 -1.5168,-9.126751 7.45889,-6.113714 15.07464,-6.857749 23.09156,-3.516465 3.49599,1.45706 6.72119,4.642269 8.01542,6.761989 1.70704,2.795816 2.06505,7.53846 0.77707,10.52951 -3.17523,7.37369 -19.60018,14.5397 -19.60018,14.5397 z" />
      <path
         style="fill:#fee46e;fill-opacity:1;stroke:none;stroke-width:3;stroke-miterlimit:4;stroke-dasharray:none"
         d="m 366.84185,197.0193 c 0,0 -1.77133,5.0239 -3.46138,8.26813 -1.01487,1.94814 -3.71022,5.42751 -3.71022,5.42751 0,0 2.84465,6.85788 1.22232,9.64233 -1.06513,1.82808 -3.77231,2.63196 -5.82713,2.29338 -1.74841,-0.28808 -4.98668,-5.42473 -4.98668,-5.42473 0,0 -2.79007,5.94645 -5.23404,6.71125 -1.26498,0.39588 -2.94846,0.64928 -3.96299,-0.21871 -1.64332,-1.40596 -1.47234,-6.39746 -1.47234,-6.39746 0,0 -5.05172,4.66899 -8.10382,4.42065 -1.02486,-0.0834 -2.14421,-0.90461 -2.45724,-1.90577 -0.4691,-1.50038 -0.0533,-1.7864 1.0571,-2.87849 3.49828,-3.44084 10.06596,-2.70245 14.37959,-5.52258 2.98397,-1.95084 5.6959,-4.55272 7.56488,-7.62859 6.67378,-11.32159 6.98786,-16.8693 7.87898,-28.62317 0.99909,-13.17807 -1.92815,-29.28667 2.81622,-40.27286 0,0 1.66513,2.77241 2.89462,4.80334 2.10041,3.46958 8.21255,6.68736 8.21255,6.68736 0,0 -0.54484,-5.457 0.82935,-7.60557 2.09271,-3.27204 9.9865,-6.00651 9.9865,-6.00651 l 1.1916,3.98154 c 0,0 11.76166,-5.27716 14.8382,-10.26455 1.81365,-2.94012 3.1411,-8.55219 3.1411,-8.55219 0,0 7.60564,2.09694 12.40045,2.62785 9.95003,1.10173 23.7449,-0.63291 33.67377,0.6455 4.13698,0.53266 7.05841,0.8264 10.0426,2.56756 2.57133,1.50028 4.82666,3.79424 6.18275,6.44389 1.133,2.21378 0.93439,4.88536 1.34527,7.3379 0.88383,5.27571 0.30745,10.82804 2.40858,15.25208 1.07397,2.26129 3.05786,4.11897 5.00767,5.84321 2.83779,2.50952 6.81891,3.83228 9.57856,6.41129 1.32546,1.23872 3.24445,4.25221 3.24445,4.25221 -4.2545,-1.80846 -7.51063,-2.39551 -9.85167,-1.86312 l 9.86282,11.99516 -9.5916,-0.0591 8.28285,10.69909 -8.5767,0.0504 5.33687,9.00551 -6.47891,-1.69943 -7.54183,11.40495 c 0,0 3.0975,2.79615 3.0689,4.67176 -0.0211,1.3861 -1.18011,2.71762 -2.37205,3.37856 -0.98476,0.54606 -2.35623,0.67109 -3.35741,0.15669 -2.11194,-1.08424 -3.96971,-6.00543 -3.96971,-6.00543 0,0 -0.16349,3.82242 -1.10478,5.38299 -1.0527,1.74526 -2.71978,3.55365 -4.70688,3.83175 -1.41491,0.19804 -3.07227,-0.55189 -3.94551,-1.70714 -1.03267,-1.36615 -0.73411,-5.12497 -0.73411,-5.12497 0,0 -2.0153,3.88933 -3.82141,4.82219 -1.14993,0.59394 -2.81033,0.94291 -3.861,0.18076 -0.94175,-0.68324 -1.21245,-2.23403 -0.99301,-3.3931 0.22631,-1.19529 1.27641,-2.12282 2.22724,-2.85584 3.14092,-2.42138 7.93268,-1.99106 10.895,-4.63723 4.42261,-3.95063 8.89246,-11.15263 8.89246,-11.15263 1.97445,-3.03617 4.02018,-9.33918 3.11285,-14.85422 0,0 0.0634,-6.03137 -2.03379,-8.97129 -2.64339,-3.70565 -6.16342,-3.94476 -9.62671,-7.77039 -2.07532,-2.29244 -5.0184,-8.56143 -6.0874,-11.35652 -0.97912,-2.56007 -0.99762,-7.62763 -2.68171,-10.12322 -1.56633,-2.32109 -6.38787,-3.57563 -6.38787,-3.57563 0,0 -21.37497,9.95828 -32.15833,13.42918 -3.68403,1.18578 -7.78803,1.57975 -11.67402,1.99265 -4.46724,0.47465 -8.71985,-0.29646 -13.00279,-0.97732 -0.78977,-0.12554 -2.32103,-0.56991 -2.32103,-0.56991 0,0 2.37051,7.16742 3.46296,10.77453 0.76669,2.53146 2.16926,7.62542 2.16926,7.62542 -2.11024,-1.46144 -3.42511,-3.04569 -8.7853,-4.00533 l 5.84444,16.20781 c -3.11222,-2.82481 -6.15137,-4.21456 -9.14542,-4.71831 l 3.58867,13.24387 c -1.88428,-2.97401 -4.77985,-4.95164 -8.71985,-5.9003 l 4.03754,15.69993 c -2.71756,-3.29238 -5.30605,-4.04938 -7.93234,-5.54896 z"
         id="path5673-55" />
      <path
         style="fill:#fee46e;fill-opacity:1;stroke:none;stroke-width:3;stroke-miterlimit:4;stroke-dasharray:none"
         d="m 469.01995,116.80522 c 0,0 8.81549,-1.46353 12.5231,-3.6532 2.57977,-1.52358 4.63929,-3.85159 6.25079,-6.29589 1.45805,-2.21158 2.46693,-4.74521 2.92425,-7.317474 0.64675,-3.637728 -0.32883,-11.062957 -0.32883,-11.062957 l -5.61375,-5.975028 -11.53198,-5.5237 c 0,0 -16.26855,-0.131342 -23.69304,-2.857906 -3.53686,-1.298875 -6.8542,-2.687848 -8.67974,-5.841891 -1.3132,-2.268862 -1.78079,-5.636577 -1.00611,-8.118486 0.81366,-2.606742 2.67353,-5.050936 5.00567,-6.630501 2.51767,-1.705229 5.79941,-2.416011 8.89068,-2.523781 5.50568,-0.191938 16.13962,3.380243 16.13962,3.380243 l 8.98423,-0.584468 4.45937,-0.970993 5.30363,-4.700065 2.68385,-3.808956 -9.06701,3.11445 -6.74519,0.292901 -8.69704,-1.954391 -8.92951,-2.527308 -9.81118,0.426035 -9.02959,3.890175 -5.91682,4.726693 1.57765,-5.509957 -1.62725,-4.010425 -8.71575,-2.342254 c 0,0 4.34102,2.839267 5.36257,5.014248 0.88839,1.891457 1.00604,4.246588 0.2994,6.205799 -0.90623,2.512481 -4.05187,3.761913 -5.44254,6.066459 -1.45995,2.419379 -2.79672,5.113008 -2.8962,7.899265 -0.0947,2.651648 0.24827,3.697903 2.11704,5.671638 3.95298,4.175069 11.10125,6.325492 15.90857,7.082689 2.64383,0.416428 9.936,2.161483 9.936,2.161483 l -7.26342,6.534204 -0.73201,6.056249 2.91914,5.314689 3.32652,1.021575 c 0,0 -1.2066,-3.568231 -1.07954,-5.394571 0.16353,-2.350417 0.55318,-4.46426 2.33913,-6.709049 1.62973,-2.048443 4.01895,-3.627447 6.53938,-4.55939 2.99289,-1.106639 6.39738,-1.419995 9.57871,-0.998957 2.90153,0.384007 5.70069,1.605187 8.13998,3.144606 3.37691,2.131152 8.5876,8.177942 8.5876,8.177942 l 1.88777,5.165137 -0.12814,5.835688 -4.60623,6.41882 z"
         id="path6474-95" />
      <path
         style="fill:#ffefa7;fill-opacity:1;stroke:none;stroke-width:3;stroke-miterlimit:4;stroke-dasharray:none"
         d="m 450.5308,77.407351 c 0,0 -8.64445,-1.703049 -11.72151,-5.305314 -2.60977,-3.05522 -4.45391,-7.27218 -3.70027,-11.139249 0.66791,-3.427042 2.67007,-6.117878 5.52985,-8.305131 2.86851,-2.193918 6.99869,-3.985444 10.66245,-4.355297 5.41745,-0.546883 10.28146,1.234888 15.70166,1.756431 3.02388,0.290963 6.11311,0.832338 9.11051,0.35462 3.22298,-0.513671 9.12719,-3.397271 9.12719,-3.397271 l -11.03805,0.666873 -16.62617,-4.529658 -6.50987,0.282688 -6.82317,1.984312 -4.81436,2.647315 -6.34739,3.651678 c 0,0 -5.3095,6.495546 -6.02233,10.389658 -0.4988,2.724873 -0.20156,5.87151 1.38361,8.192483 1.5896,2.327473 4.62174,3.529449 7.33643,4.557938 4.64158,1.758516 14.75142,2.547928 14.75142,2.547928 z"
         id="path6513-77" />
      <path
         id="path9487-8-8-0-3"
         style="display:inline;fill:none;stroke:#806600;stroke-width:1.5;stroke-linecap:butt;stroke-linejoin:miter;stroke-miterlimit:4;stroke-dasharray:none;stroke-opacity:1"
         d="m 463.78493,119.07218 c -12.59759,-4.13745 -29.90163,-1.75529 -42.63252,-2.6656 -4.70607,-0.33651 -11.47755,-1.61858 -17.15991,-3.30234 -5.68246,-1.68376 -13.2725,-5.77387 -13.2725,-5.77387 l -24.09779,3.83519 c 0,0 -8.54382,17.99094 -10.50857,29.56457 -2.21014,13.0188 1.67407,40.63467 -2.40758,51.91653 -2.38951,6.60476 -4.55267,10.39621 -10.68882,15.10773 -4.83093,3.70933 -13.80419,2.96236 -17.00812,8.23057 -1.71621,2.82202 -1.53143,6.56002 0.75066,8.91911 2.5207,2.6057 9.40058,-0.28912 9.40058,-0.28912 -0.0556,-0.0522 3.29253,3.5099 6.40658,3.85816 3.30473,0.36958 7.52954,-2.41011 7.52954,-2.41011 6.17836,4.73058 10.5544,1.42058 12.84877,-1.39335 2.45518,-3.01127 1.45699,-5.64778 0.42725,-12.03859 2.06849,-3.3466 4.14566,-5.4885 5.66545,-10.18018 2.47964,1.12818 4.77008,0.43166 6.95987,6.63803 2.75733,-6.04186 0.68433,-9.96434 -0.60188,-14.00688 3.57571,0.60131 4.69996,1.57881 6.78684,4.46022 1.85956,-4.37762 -0.0915,-8.05787 -1.82764,-13.80467 2.538,0.31666 3.95961,0.70673 6.31083,3.65962 2.70907,-4.25222 -0.99071,-10.57221 -1.8496,-13.91354 3.77255,0.70662 3.1582,2.69434 5.322,5.39877 2.33397,-11.12672 -0.97749,-16.43872 -2.3308,-20.35832 0,0 7.10704,0.97751 10.72193,0.91996 10.07496,-0.16034 41.99628,-18.23465 44.27448,-14.09604 -0.10073,8.0555 8.44288,22.43572 16.58042,25.90163 11.70674,4.67948 0.0204,26.26908 -4.47913,31.21434 -4.14211,4.51371 -12.04683,3.92864 -14.32744,9.68907 -1.22178,3.08571 -0.46074,5.80165 2.17894,7.72037 2.91543,2.11933 7.28193,0.2312 7.28193,0.2312 -0.0629,-0.0417 3.82589,2.87302 6.95098,2.66254 3.31634,-0.2234 7.01581,-3.71332 7.01581,-3.71332 6.87102,3.5627 10.63133,-0.47617 12.42377,-3.65715 1.91797,-3.40348 0.35488,-3.94474 -1.72087,-10.05858 1.06407,-3.78772 2.15086,-1.70505 3.74812,-6.16309 2.4026,0.49879 4.37739,-0.76522 8.42744,4.61323 0.74033,-6.50895 -2.47932,-9.72879 -4.98314,-13.26857 3.61417,-0.35468 4.99861,0.28945 7.90407,2.50782 0.40395,-4.68005 -2.62268,-7.69948 -6.09366,-12.75557 2.53058,-0.35742 4.01504,-0.35364 7.19612,1.86444 1.25726,-4.78114 -4.27499,-9.87528 -6.14882,-12.85425 3.8358,-0.30502 3.87273,1.76011 6.7962,3.78882 0.95854,-12.8594 -15.46474,-18.07165 -18.00027,-24.03909 -0.77449,-2.02469 -2.32657,-6.1061 -2.15333,-9.96321 0.17325,-3.8571 -0.32855,-9.73075 -1.62596,-12.14336 -0.89459,-1.66355 2.647,-2.688 4.4168,-4.24371 1.5335,-1.34798 13.04299,-5.97829 17.05736,-13.34079 4.24306,-7.78194 4.15025,-15.930411 -0.8545,-23.293672 -7.67163,-11.286917 -25.07808,-11.846091 -37.64245,-15.984598 -12.8578,-4.235163 -3.04331,-14.094955 2.07112,-12.857456 7.22378,1.747874 10.73427,10.513944 10.73427,10.513944 1.80882,-4.50248 5.5145,-8.205598 -1.71347,-13.203816 6.78313,-6.779894 17.6841,4.897829 26.86575,-12.146682 -6.42959,2.843512 -9.65887,3.452785 -13.59474,3.390058 -10.53175,-0.167849 -17.32165,-6.591734 -28.64874,-3.54804 -4.33127,1.163851 -9.45012,2.993024 -14.97264,8.004885 0,0 2.01243,-5.446476 0.42459,-7.9343 -1.99661,-3.128332 -9.58432,-3.414068 -9.58432,-3.414068 0,0 4.1356,5.550225 2.52962,7.806017 -7.23016,8.97316 -17.00787,16.181423 -5.74183,28.082526 7.26235,7.671798 28.55687,4.12231 28.55687,4.12231 -1.5693,1.31105 -5.33293,3.869308 -6.55393,5.757423 -2.44144,3.775371 -1.76003,8.355305 1.56771,10.974422 1.99169,1.567581 4.83806,2.497517 8.32527,2.274441 0,0 -4.71278,-6.507147 -1.5168,-9.12675 7.45889,-6.113714 15.07464,-6.857749 23.09156,-3.516465 3.49599,1.45706 6.72119,4.642269 8.01542,6.761989 1.70704,2.795816 2.06505,7.538462 0.77707,10.529512 -3.17523,7.37369 -19.60018,14.5397 -19.60018,14.5397 z" />
      <path
         style="fill:#fff1a1;fill-opacity:1;stroke-width:3;stroke-miterlimit:4;stroke-dasharray:none"
         d="m 382.24917,149.90361 c 12.5663,3.8254 34.25097,3.45242 47.78036,-15.38019 -23.6878,14.51047 -29.73746,10.87625 -40.57505,9.81166 z"
         id="path6476-7" />
      <path
         style="fill:#fff1a1;fill-opacity:1;stroke:none;stroke-width:3;stroke-miterlimit:4;stroke-dasharray:none"
         d="m 366.15795,147.65153 c 0,0 -2.77387,6.36897 -3.65005,9.91972 -2.14805,8.70509 -0.4465,22.01126 -1.94651,30.82541 -1.14018,6.69977 -6.35784,19.51333 -6.35784,19.51333 0,0 7.53072,-8.3615 9.54955,-13.3232 1.89345,-4.6535 1.89687,-9.79102 2.12609,-14.74178 0.22131,-4.77984 -0.76268,-9.55305 -0.72991,-14.33693 0.0316,-4.61738 1.00865,-17.85654 1.00865,-17.85654 z"
         id="path6478-6" />
      <path
         style="fill:#fff1a1;fill-opacity:1;stroke:none;stroke-width:3;stroke-miterlimit:4;stroke-dasharray:none"
         d="m 445.2194,135.13838 7.36714,5.67498 c -0.43234,12.06791 1.29276,19.98928 15.07517,28.29923 l 6.48636,3.91088 c -2.68302,-3.92318 -7.96613,-7.98732 -11.35299,-12.18544 -2.64449,-3.27791 -3.60539,-6.75516 -4.73188,-9.53876 -2.05822,-5.08593 0.72875,-11.44095 -4.51036,-13.26288 z"
         id="path6491-4" />
      <path
         style="fill:#fff1a1;fill-opacity:1;stroke:none;stroke-width:3;stroke-miterlimit:4;stroke-dasharray:none"
         d="m 460.65729,208.72092 c 5.43378,-7.97824 8.30593,-16.68319 10.71672,-25.75328 2.03881,9.32723 -0.98694,21.30886 -10.71672,25.75328 z"
         id="path6493-3" />
      <path
         style="display:inline;fill:#377bc8;fill-opacity:1;stroke:#2c5aa0;stroke-width:1.5;stroke-linecap:butt;stroke-linejoin:miter;stroke-miterlimit:4;stroke-dasharray:none;stroke-opacity:1"
         d="m 328.46267,215.85742 c -0.29316,-0.0117 -0.59927,0.001 -0.91992,0.0371 -1.22659,1.61309 -4.44398,1.57142 -6.68944,8.75 3.85704,-2.57427 5.52891,-2.74513 9.63867,-1.6582 1.5544,-1.24698 2.02573,-2.54413 1.79296,-3.73047 -0.40963,-2.08862 -1.77013,-3.3166 -3.82227,-3.39844 z m 11.91408,2.50391 c -0.53769,0.0247 -1.11079,0.1507 -1.71094,0.38476 -0.7819,1.87005 -3.89184,2.65608 -4.27539,10.15235 3.07827,-3.47263 4.64726,-4.06553 8.87695,-4.07422 1.18863,-1.60145 1.32124,-2.97302 0.80273,-4.05664 -0.78235,-1.63527 -2.08029,-2.48035 -3.69335,-2.40625 z m 14.17187,0.72265 c -0.53769,0.0247 -1.10882,0.15266 -1.70898,0.38672 -0.78185,1.87004 -3.89181,2.65606 -4.27539,10.15235 3.07821,-3.47262 4.64535,-4.06553 8.875,-4.07422 1.18869,-1.60146 1.32312,-2.97301 0.80468,-4.05664 -0.78238,-1.63527 -2.08223,-2.48231 -3.69531,-2.40821 z"
         id="path4318-6-3-4-84-00-3-3-4" />
      <path
         style="display:inline;fill:#377bc8;fill-opacity:1;stroke:#2c5aa0;stroke-width:1.5;stroke-linecap:butt;stroke-linejoin:miter;stroke-miterlimit:4;stroke-dasharray:none;stroke-opacity:1"
         d="m 443.3494,213.1543 c -0.29316,-0.0117 -0.60123,-7.6e-4 -0.92188,0.0351 -1.22656,1.61309 -4.44202,1.57142 -6.6875,8.75 3.85702,-2.57427 5.52702,-2.74318 9.63673,-1.65625 1.55443,-1.24697 2.02769,-2.54414 1.79492,-3.73047 -0.4097,-2.08862 -1.77015,-3.3166 -3.82227,-3.39843 z m 25.24414,0.82226 c -0.76014,-0.005 -1.57522,0.22636 -2.41798,0.70313 -0.51366,1.96066 -3.4837,3.18559 -2.81835,10.64843 2.56482,-3.87547 4.03624,-4.68803 8.2246,-5.30664 0.95412,-1.75393 0.89511,-3.12896 0.23048,-4.125 -0.83583,-1.25252 -1.95184,-1.91192 -3.21875,-1.91992 z m -13.34179,1.4336 c -0.5377,0.0247 -1.11078,0.1507 -1.71094,0.38476 -0.78185,1.87004 -3.89194,2.65803 -4.27539,10.1543 3.07821,-3.47262 4.64717,-4.06748 8.87695,-4.07617 1.18857,-1.60145 1.32119,-2.97301 0.80273,-4.05664 -0.78237,-1.63526 -2.08028,-2.48036 -3.69335,-2.40625 z"
         id="path4318-6-3-4-84-00-3-3-5-2-4" />
    </g>
    <g
       id="g14185">
      <path
         id="path14997-8-0-1-79-2-8-3-77-7-5-7"
         style="display:inline;fill:#fee46e;fill-opacity:1;stroke:none;stroke-width:3;stroke-miterlimit:4;stroke-dasharray:none"
         d="m 399.72836,98.220511 c 4.0798,1.796489 7.76105,-1.841042 8.56447,-2.272918 0,0 -1.97248,-0.995823 -3.61517,-3.829397 -1.1043,-1.904929 -1.89565,-5.43593 -2.20945,-7.099241 -1.16588,-6.178207 1.17972,-7.49564 1.32757,-7.036604 0,0 3.92258,-1.99851 5.4452,-3.557828 1.44364,-1.476223 1.88427,-3.745888 2.04749,-5.802106 0.24477,-3.084194 -1.55996,-7.307844 -1.55996,-7.307844 -6.0412,0.50603 -7.45183,1.514956 -8.59434,3.547002 0,0 -0.55907,-3.036646 -1.78912,-5.707605 -0.61313,-1.331331 -1.86646,-3.265084 -3.03978,-4.465494 -1.20594,-1.233839 -2.3239,-1.716281 -2.3239,-1.716281 0.18883,1.591566 -1.03175,3.243592 -1.60384,4.453952 0,0 -1.47344,-5.988328 -3.30872,-7.950383 -1.4156,-1.513436 -4.98082,-3.289584 -4.95602,-3.286018 0.0251,0.0042 -3.659,0.736567 -5.44463,1.789238 -2.31489,1.364856 -5.42048,6.694172 -5.42048,6.694172 -0.2069,-1.322433 -0.911,-3.251504 -0.28017,-4.725092 0,0 -1.20885,0.147537 -2.71431,0.991235 -1.46476,0.820758 -3.21358,2.322481 -4.17782,3.426783 -1.93462,2.215553 -3.32898,4.971066 -3.32898,4.971066 -0.44092,-2.386601 -1.45625,-3.652573 -7.24279,-5.826122 0,0 -2.92462,3.543057 -3.56107,6.570884 -0.42451,2.018655 -0.64102,4.320556 0.32499,6.143523 1.02012,1.925238 4.21863,4.948586 4.21863,4.948586 0.27137,-0.398727 2.14943,1.526556 -0.71449,7.124835 -0.77097,1.507186 -2.5277,4.671473 -4.12536,6.187559 -2.37641,2.255195 -4.55008,2.65433 -4.55008,2.65433 1.8292,3.279451 2.39545,4.647409 7.57411,4.595435 -10.40181,9.953402 -9.82872,23.391382 0.67412,33.414542 0.38657,-1.43791 1.93406,-4.79819 2.93895,-6.14709 -0.13884,-0.0801 1.07883,6.50179 4.86596,9.40327 1.22883,0.94139 2.61813,6.95458 4.4412,8.64879 1.66307,1.54558 3.92053,3.16291 3.92053,3.16291 0,0 0.85387,-5.04713 3.00757,-6.12098 2.16884,-1.08153 6.24822,-2.90107 7.58809,-3.54255 2.69661,-1.29103 6.86861,-8.01606 6.86861,-8.01606 l 0.16363,7.47511 c 14.47287,-7.56529 16.47876,-18.39857 10.58928,-31.7936 z" />
      <path
         id="path14997-8-0-1-79-2-8-3-7-0-4-5-8-4"
         style="display:inline;fill:#e4c900;fill-opacity:1;stroke:none;stroke-width:3;stroke-miterlimit:4;stroke-dasharray:none"
         d="m 357.67022,73.240356 c -0.77097,1.507186 -4.42626,9.730029 -6.02391,11.246116 -2.37642,2.255194 -4.55009,2.654329 -4.55009,2.654329 1.8292,3.279451 2.39545,4.647409 7.57411,4.595435 -10.40181,9.953404 -9.82872,23.391384 0.67412,33.414544 0.38657,-1.43791 1.93407,-4.79819 2.93895,-6.14709 -0.13883,-0.0801 1.07883,6.50179 4.86596,9.40327 1.22883,0.94139 2.61813,6.95458 4.4412,8.64879 1.66307,1.54558 3.92053,3.16291 3.92053,3.16291 0,0 0.85388,-5.04713 3.00757,-6.12098 2.16884,-1.08153 6.24822,-2.90108 7.5881,-3.54255 2.6966,-1.29103 6.86861,-8.01607 6.86861,-8.01607 l 0.16362,7.47512 c 14.47287,-7.56529 16.47876,-18.39858 10.58928,-31.793601 l 8e-5,-9e-6 c 4.07981,1.79649 7.76105,-1.841043 8.56448,-2.272918 0,0 -1.97249,-0.995823 -3.61518,-3.829397 -1.1043,-1.90493 -1.83932,-5.447538 -2.20945,-7.099241 l -1.01402,-4.524974 c 0,0 -0.9909,5.384169 -1.19583,6.873154 -0.20494,1.489004 1.07305,6.498489 1.07305,6.498489 -2.59924,-0.520275 -5.20718,-0.977464 -7.66006,-2.561131 0,0 4.08843,9.950938 5.07122,14.828948 0.53105,2.6358 0.29852,7.48379 -0.37735,10.08628 -0.71626,2.75802 -5.43943,7.50341 -5.43943,7.50341 0,0 0.32966,-6.78702 -0.018,-9.04983 -0.4938,-3.21386 -2.9352,-11.20798 -2.9352,-11.20798 0,0 -0.63523,8.63975 -1.73305,11.34382 -1.24916,3.07682 -3.56932,8.51772 -3.56932,8.51772 -0.29121,-8.13475 -1.62256,-11.61794 -3.08804,-14.50124 0,0 0.36072,13.32366 -2.5537,18.10896 -0.72742,1.19437 -3.94637,2.52529 -5.71297,3.79 -1.96098,1.40385 -2.44549,2.68306 -2.44549,2.68306 0,0 -2.7922,-5.29307 -3.5314,-6.5028 -1.63682,-2.6787 -4.5061,-5.32902 -5.76529,-8.20424 -1.85041,-4.22521 2.70571,-14.524 2.70571,-14.524 -2.17972,0.35043 -4.00252,3.22728 -5.95648,6.38909 -1.5964,2.5832 -3.44848,5.33348 -4.25946,7.24317 0,0 -2.86612,-6.60549 -3.12561,-8.64823 -0.36788,-2.89598 0.30781,-5.9479 1.44165,-8.6384 1.84011,-4.366342 11.27273,-14.135866 11.27273,-14.135866 -2.80864,1.200424 -5.30368,2.615312 -11.07049,1.792688 0,0 3.65114,-5.758261 4.19667,-7.066611 1.67332,-4.013138 0.6442,-5.297943 0.89222,-7.872142 z" />
      <path
         style="fill:#504416;stroke:none;stroke-width:3;stroke-miterlimit:4;stroke-dasharray:none"
         d="m 367.50682,83.665469 c 1.28449,4.259893 0.4254,13.178032 -0.88537,15.764095 l 10.47329,2.560476 9.9383,-0.26337 c -1.368,-3.886595 1.43645,-12.259755 3.00979,-15.195194 l -7.16433,1.176381 -3.66455,-2.747075 -5.68416,2.136013 z"
         id="path5211-9-2-2-7" />
      <path
         id="path5213-9-7-5-4-07-2"
         d="m 368.10233,102.09485 c 0.71029,-4.855639 1.75003,-5.352159 2.72722,-6.964728 l 0.15023,6.816338 z"
         style="fill:#ffffff;stroke:none;stroke-width:3;stroke-miterlimit:4;stroke-dasharray:none" />
      <path
         id="path5213-9-7-9-5-47-0-5"
         d="m 384.54546,104.35355 c 0.62787,-4.866966 -0.23915,-5.625404 -0.74442,-7.441608 l -1.98616,6.522878 z"
         style="fill:#ffffff;stroke:none;stroke-width:3;stroke-miterlimit:4;stroke-dasharray:none" />
      <path
         id="path5160-2-5-95-76-4"
         style="fill:#e4c900;fill-opacity:1;stroke:none;stroke-width:3;stroke-miterlimit:4;stroke-dasharray:none"
         d="m 367.12678,99.52574 c -3.48882,13.61198 18.02083,17.18716 19.01626,2.61213 -5.58023,0.39891 -11.50792,0.21624 -19.01626,-2.61213 z" />
      <path
         style="color:#000000;font-style:normal;font-variant:normal;font-weight:normal;font-stretch:normal;font-size:medium;line-height:normal;font-family:'Bitstream Vera Sans';-inkscape-font-specification:'Bitstream Vera Sans';text-indent:0;text-align:start;text-decoration:none;text-decoration-line:none;letter-spacing:normal;word-spacing:normal;text-transform:none;writing-mode:lr-tb;direction:ltr;text-anchor:start;display:inline;overflow:visible;visibility:visible;fill:#806600;fill-opacity:1;fill-rule:nonzero;stroke:none;stroke-width:3;stroke-miterlimit:4;stroke-dasharray:none;marker:none;enable-background:accumulate"
         d="m 366.44453,98.281502 -0.27315,1.080871 c -0.93517,3.648607 -0.16409,6.781897 1.55501,9.036467 1.71909,2.25457 4.33746,3.59806 7.09668,4.01933 2.75921,0.42136 5.67567,-0.0849 8.01609,-1.757 2.34042,-1.67209 4.00352,-4.53605 4.26898,-8.42286 l 0.0901,-1.10602 -1.13229,0.093 c -5.50928,0.39385 -11.25607,0.21563 -18.61724,-2.557316 l -1.00411,-0.386458 z m 0.82325,2.080678 c 7.03811,2.41689 12.96088,2.87267 18.35561,2.58898 -0.47938,2.97975 -1.67701,5.1579 -3.46168,6.43295 -2.03143,1.45135 -4.67772,1.90196 -7.19202,1.5181 -2.51428,-0.38394 -4.86777,-1.63226 -6.35446,-3.58206 -1.31218,-1.72094 -1.80947,-4.08682 -1.34743,-6.95811 z"
         id="path5160-2-3-8-56-8-2" />
      <path
         id="path5010-2-2-15-239-15"
         style="fill:#377bc8;fill-opacity:1;stroke:#2c5aa0;stroke-width:3;stroke-linecap:butt;stroke-linejoin:miter;stroke-miterlimit:4;stroke-dasharray:none;stroke-opacity:1"
         d="m 373.98845,87.068079 c -1.3586,8.822704 -2.22697,18.699321 0.76369,27.257821 5.19185,-7.43453 7.01232,-17.094171 8.08769,-25.955779 -0.0383,-0.346035 -1.84145,-0.867377 -2.09647,-1.108827 -0.62684,-0.593527 -1.75266,-2.047376 -1.75266,-2.047376 0,0 -1.55807,1.323893 -2.49309,1.690013 -0.79723,0.312158 -2.50916,0.164148 -2.50916,0.164148 z" />
      <path
         style="fill:#ffffff;stroke:none;stroke-width:3;stroke-miterlimit:4;stroke-dasharray:none"
         d="m 369.80977,85.86075 c -0.62786,4.866966 0.23915,5.625404 0.74443,7.441608 l 1.98615,-6.52288 z"
         id="path5213-8-3-38-6" />
      <path
         style="fill:#ffffff;stroke:none;stroke-width:3;stroke-miterlimit:4;stroke-dasharray:none"
         d="m 387.20125,88.249692 c -0.7103,4.855644 -1.75004,5.352164 -2.72723,6.964733 l -0.15022,-6.81634 z"
         id="path5213-9-2-88-3-0" />
      <path
         style="fill:#ffefa7;fill-opacity:1;stroke:none;stroke-width:3;stroke-miterlimit:4;stroke-dasharray:none"
         d="m 377.81821,71.669168 c 0,0 1.42823,1.785494 2.46418,1.978793 1.03307,0.192805 3.00468,-0.954192 3.00468,-0.954192 l -1.86495,-8.32096 z"
         id="path4962-4-95-08-2" />
      <path
         style="fill:#ffffff;fill-opacity:1;stroke:none;stroke-width:3.43768;stroke-miterlimit:4;stroke-dasharray:none"
         d="m 375.04361,69.522416 c -0.28128,2.043684 -2.90441,3.929977 -5.93506,3.513679 -3.03067,-0.416302 -4.71073,-2.335118 -4.42945,-4.378801 0.28128,-2.043684 2.34193,-2.890091 5.3726,-2.473789 3.03065,0.416298 5.27319,1.295227 4.99191,3.338911 z"
         id="path4045-83-5-61-5" />
      <ellipse
         ry="2.0751615"
         rx="2.0771325"
         cy="18.252768"
         cx="376.03537"
         style="fill:#2b2200;fill-opacity:1;stroke:none;stroke-width:3.33333;stroke-miterlimit:4;stroke-dasharray:none"
         id="path4827-06-1-61-0"
         transform="matrix(0.99069717,0.13608495,-0.13634855,0.99066093,0,0)" />
      <path
         style="color:#000000;font-style:normal;font-variant:normal;font-weight:normal;font-stretch:normal;font-size:medium;line-height:normal;font-family:'Bitstream Vera Sans';-inkscape-font-specification:'Bitstream Vera Sans';text-indent:0;text-align:start;text-decoration:none;text-decoration-line:none;letter-spacing:normal;word-spacing:normal;text-transform:none;writing-mode:lr-tb;direction:ltr;text-anchor:start;display:inline;overflow:visible;visibility:visible;fill:#d1b948;fill-opacity:1;fill-rule:nonzero;stroke:none;stroke-width:3;stroke-miterlimit:4;stroke-dasharray:none;marker:none;enable-background:accumulate"
         d="m 370.13878,65.675607 c -1.57493,-0.216337 -2.97915,-0.0924 -4.03246,0.378083 -1.05331,0.470479 -1.74217,1.360974 -1.90368,2.534483 -0.16152,1.173508 0.25958,2.316121 1.11475,3.197635 0.85517,0.881514 2.13432,1.535834 3.73871,1.756217 3.26774,0.448867 6.12142,-1.547412 6.45346,-3.959897 0.16602,-1.206233 -0.47856,-2.16372 -1.4871,-2.751719 -1.00853,-0.587999 -2.33822,-0.942513 -3.88368,-1.154802 z m -0.13428,0.97568 c 1.4852,0.204011 2.72576,0.577061 3.52583,1.043514 0.80007,0.466453 1.11785,0.915727 1.00259,1.753172 -0.23053,1.674911 -2.54897,3.502105 -5.34254,3.118372 -1.42626,-0.195916 -2.48968,-0.735563 -3.16188,-1.42845 -0.6722,-0.692887 -0.96899,-1.545398 -0.84922,-2.415568 0.11976,-0.87017 0.5623,-1.44087 1.3673,-1.800436 0.80499,-0.359566 2.00219,-0.470566 3.45792,-0.270604 z"
         id="path4045-8-2-46-4-5" />
      <path
         style="fill:#ffffff;fill-opacity:1;stroke:none;stroke-width:3.43768;stroke-miterlimit:4;stroke-dasharray:none"
         d="m 386.57572,71.106439 c -0.28128,2.043684 1.7349,4.567245 4.76555,4.983544 3.03067,0.416301 5.16677,-0.978316 5.44805,-3.022 0.28128,-2.043684 -1.47423,-3.414289 -4.5049,-3.83059 -3.03065,-0.416299 -5.42742,-0.174638 -5.7087,1.869046 z"
         id="path4045-9-52-2-6-4" />
      <ellipse
         ry="2.0751615"
         rx="2.0771325"
         cy="18.252806"
         cx="-397.64569"
         style="fill:#2b2200;fill-opacity:1;stroke:none;stroke-width:3.33333;stroke-miterlimit:4;stroke-dasharray:none"
         id="path4827-0-2-21-4-8"
         transform="matrix(-0.99069717,-0.13608495,-0.13634855,0.99066093,0,0)" />
      <path
         style="color:#000000;font-style:normal;font-variant:normal;font-weight:normal;font-stretch:normal;font-size:medium;line-height:normal;font-family:'Bitstream Vera Sans';-inkscape-font-specification:'Bitstream Vera Sans';text-indent:0;text-align:start;text-decoration:none;text-decoration-line:none;letter-spacing:normal;word-spacing:normal;text-transform:none;writing-mode:lr-tb;direction:ltr;text-anchor:start;display:inline;overflow:visible;visibility:visible;fill:#d1b948;fill-opacity:1;fill-rule:nonzero;stroke:none;stroke-width:3;stroke-miterlimit:4;stroke-dasharray:none;marker:none;enable-background:accumulate"
         d="m 392.33771,68.724908 c 1.57493,0.216337 2.89356,0.714294 3.78067,1.451317 0.88712,0.737022 1.30984,1.780206 1.14833,2.953715 -0.16152,1.173509 -0.87567,2.16018 -1.93726,2.778403 -1.06159,0.618223 -2.47004,0.903366 -4.07443,0.682983 -3.26774,-0.448867 -5.4762,-3.140495 -5.14416,-5.55298 0.16602,-1.206233 1.04535,-1.954391 2.17531,-2.24864 1.12996,-0.29425 2.50608,-0.277087 4.05154,-0.0648 z m -0.13429,0.975679 c -1.4852,-0.204011 -2.7805,-0.179295 -3.6769,0.05413 -0.8964,0.233422 -1.32376,0.580341 -1.43902,1.417787 -0.23052,1.67491 1.50824,4.059413 4.30181,4.443146 1.42627,0.195916 2.59601,-0.03698 3.43045,-0.522909 0.83445,-0.48593 1.35054,-1.226782 1.4703,-2.096951 0.11977,-0.87017 -0.15217,-1.539012 -0.83014,-2.102283 -0.67798,-0.563272 -1.80077,-0.992953 -3.2565,-1.192916 z"
         id="path4045-8-5-7-4-2-0" />
      <path
         style="fill:#e4c900;fill-opacity:1;stroke:none;stroke-width:3;stroke-miterlimit:4;stroke-dasharray:none"
         d="m 362.30144,71.355001 -0.0963,3.864821 1.07803,1.288761 c -2.77439,-0.800281 3.61137,1.466454 4.94046,1.942308 l -0.37811,4.346829 2.42673,3.96232 4.5861,1.06984 3.99999,-1.869874 2.79137,2.912725 4.24308,0.362901 4.85618,-3.291829 0.62389,-4.533009 3.9861,0.237574 2.48385,-1.658197 0.47535,-3.453711 c -2.22674,2.127032 -4.42789,4.21175 -9.74745,2.83989 0.23451,2.677999 -0.18021,4.420339 -0.96682,5.492793 -0.93902,1.280267 -2.40797,1.605911 -3.93497,1.429143 -1.9046,-0.220465 -3.77175,-2.070604 -4.65527,-3.066161 -1.66114,1.345362 -3.09626,2.391206 -4.27166,2.184696 -2.45647,-0.431671 -3.97073,-1.640241 -4.58421,-3.195598 -0.64983,-1.647516 -0.28897,-3.68406 1.0333,-5.598106 -9.64864,-1.131709 -6.66478,-4.079656 -8.88966,-5.268116 z"
         id="path4902-1-77-8-6" />
      <path
         id="path4402-2-5-0-4-05"
         d="m 362.30218,70.424601 c -1.29303,2.382619 -1.21495,4.723892 -0.0328,6.375649 0.98615,1.377919 2.68092,2.097859 4.58773,2.441323 -0.0638,0.307017 -0.0851,0.357674 -0.15163,0.802426 -0.14513,0.967689 -0.2781,2.092847 -0.0182,3.125834 0.53375,2.116146 1.97794,3.671943 3.711,4.770059 1.51236,0.958268 3.399,1.184855 5.073,0.861469 1.03147,-0.19926 1.89554,-0.727069 2.57693,-1.210203 0.24293,-0.172236 0.26748,-0.210238 0.46277,-0.368638 0.52958,0.780681 1.29171,1.713117 2.56101,2.34817 1.52451,0.762722 3.38214,1.050458 5.09726,0.535547 1.96541,-0.590084 3.77633,-1.69875 4.86197,-3.592453 0.52998,-0.924487 0.7051,-2.043856 0.82696,-3.01474 0.0436,-0.346064 0.0241,-0.35765 0.0457,-0.631745 2.03881,0.305903 3.86473,-0.131715 5.12229,-1.292752 1.496,-1.38119 2.09679,-3.604796 1.68247,-6.087316 -1.32731,0.928214 0.10831,2.772285 -2.83762,5.232534 -0.94731,0.874618 -2.36752,1.238829 -4.46343,0.635931 l -1.24262,-0.358183 -0.0312,1.286392 c 0,0 -0.0253,0.71009 -0.13749,1.604839 -0.11318,0.894635 -0.36164,1.916109 -0.58926,2.313032 -0.81163,1.415749 -2.05454,2.203018 -3.7489,2.711695 -1.13588,0.341015 -2.55286,0.146236 -3.69246,-0.423898 -1.09206,-0.546367 -2.29128,-2.340587 -2.3838,-2.513251 l -0.56319,-1.05576 -0.93616,0.74574 c -0.30095,0.240675 -0.64693,0.591059 -1.22091,0.998024 -0.57399,0.407004 -1.23394,0.758003 -1.82882,0.872925 -1.25137,0.241746 -2.68883,0.04443 -3.6904,-0.59023 -1.49406,-0.946648 -2.47818,-2.039829 -2.87721,-3.621875 -0.1119,-0.443561 -0.0761,-1.494243 0.0575,-2.386074 0.13271,-0.891932 0.30118,-1.582355 0.30118,-1.582355 l 0.30346,-1.144904 -1.19741,-0.08117 c -2.04225,-0.139165 -3.50533,-0.889988 -4.2551,-1.937637 -2.47372,-2.056752 -1.04052,-4.055808 -1.37252,-5.768482 z"
         style="color:#000000;font-style:normal;font-variant:normal;font-weight:normal;font-stretch:normal;font-size:medium;line-height:normal;font-family:'Bitstream Vera Sans';-inkscape-font-specification:'Bitstream Vera Sans';text-indent:0;text-align:start;text-decoration:none;text-decoration-line:none;letter-spacing:normal;word-spacing:normal;text-transform:none;writing-mode:lr-tb;direction:ltr;text-anchor:start;display:inline;overflow:visible;visibility:visible;fill:#806600;fill-opacity:1;stroke:none;stroke-width:3;stroke-miterlimit:4;stroke-dasharray:none;marker:none;enable-background:accumulate" />
      <ellipse
         style="fill:#ffefa7;fill-opacity:1;stroke:none;stroke-width:3;stroke-miterlimit:4;stroke-dasharray:none"
         id="path4904-1-57-81-2"
         transform="matrix(0.99069717,0.13608495,-0.13634855,0.99066093,0,0)"
         cx="381.89835"
         cy="29.178907"
         rx="3.1726589"
         ry="3.1062555" />
      <ellipse
         style="fill:#ffefa7;fill-opacity:1;stroke:none;stroke-width:3;stroke-miterlimit:4;stroke-dasharray:none"
         id="path4904-2-1-2-03-8"
         transform="matrix(0.99069717,0.13608495,-0.13634855,0.99066093,0,0)"
         cx="391.78259"
         cy="29.178909"
         rx="3.1726589"
         ry="3.1062555" />
      <path
         style="fill:#e4c900;fill-opacity:1;stroke:none;stroke-width:3;stroke-miterlimit:4;stroke-dasharray:none"
         d="m 374.05313,75.662811 c 0,0 3.90507,-1.268722 5.89859,-1.103445 2.11972,0.175653 5.99257,2.19008 5.99257,2.19008 l -0.27696,2.01232 -5.50915,2.250458 -4.36769,-3.0604 -1.17167,-0.434328 z"
         id="path4928-0-9-74-3" />
      <path
         style="fill:#e4c900;fill-opacity:1;stroke:none;stroke-width:3;stroke-miterlimit:4;stroke-dasharray:none"
         d="m 367.47025,61.719317 c -1.35621,0.0097 -2.92428,0.464375 -3.75625,1.534415 -0.49892,0.641671 -0.33572,2.439199 -0.33572,2.439199 l 2.08987,-0.272126 2.4416,0.335386 5.3845,1.547357 5.50124,-1.10832 c 0,0 -3.20692,-0.80806 -4.80871,-1.435579 -2.16297,-0.847359 -4.19325,-3.057095 -6.51653,-3.040332 z m 27.65118,3.798244 c -1.98503,-0.217198 -4.03508,1.109459 -6.05774,1.313095 -1.71188,0.172344 -5.14083,0.06888 -5.14083,0.06888 l 4.99767,2.550479 5.60272,-0.03812 2.38056,0.327001 1.93879,0.825513 c 0,0 0.64277,-1.686819 0.33572,-2.4392 -0.51201,-1.254653 -1.89907,-2.115164 -3.20232,-2.490264 -0.27907,-0.08029 -0.57099,-0.08638 -0.85457,-0.117385 z"
         id="path4930-1-76-3-7" />
      <path
         id="path3477-9-0-5-8-82-48-6"
         d="m 379.24448,64.622281 -1.05469,0.328489 c 0,0 -3.57922,1.082526 -6.62077,0.654728 -1.23525,-0.173653 -3.00725,-1.176671 -4.74771,-1.578326 -0.87024,-0.200858 -1.85465,-0.246806 -2.70281,0.3285 -0.8482,0.575499 -1.33392,1.616952 -1.52832,3.021312 1.09452,-0.338684 1.82012,-1.372198 2.68054,-1.914425 0.20505,-0.139244 0.54126,-0.189274 1.1601,-0.04645 1.23766,0.285526 3.05345,1.359972 4.9269,1.623499 2.68261,0.376443 5.5475,0.0201 6.83977,-0.307999 -0.0651,0.559425 -0.22038,1.280184 -0.67255,2.192137 -0.23058,0.464953 -1.14404,1.61337 -1.99767,2.689282 -0.42679,0.53797 -0.84164,1.083047 -1.18659,1.586411 -0.34494,0.503343 -0.63762,0.908349 -0.76277,1.500557 -0.2523,1.194023 0.14809,2.366578 0.14809,2.366578 l 0.13903,0.63655 0.64422,0.108971 c 2.37699,0.417372 2.24535,1.073884 3.06188,2.75891 l 0.12837,0.264614 0.22875,0.134215 c 0.2705,0.177329 0.47164,0.32129 0.70362,0.425966 0.23199,0.104636 0.52746,0.175046 0.78022,0.168808 0.50554,-0.01247 0.58521,-0.124563 1.05266,-0.164119 l 0.39529,-0.02802 0.26967,-0.312851 c 1.5333,-0.935449 1.67021,-1.364497 3.83822,-1.767452 l 0.62956,0.066 0.32604,-0.572646 c 0,0 0.68219,-1.023848 0.76175,-2.24162 0.0395,-0.603948 -0.13292,-1.072866 -0.32908,-1.650536 -0.19615,-0.577671 -0.44835,-1.214395 -0.71398,-1.847478 -0.53126,-1.266146 -1.10057,-2.61824 -1.19698,-3.128108 -0.18909,-0.999939 -0.12411,-1.733227 -0.0351,-2.289327 1.16381,0.667266 3.68772,1.71921 6.35807,2.077229 1.8751,0.251604 3.91375,-0.293525 5.18269,-0.234817 0.63447,0.02929 0.94456,0.168121 1.10446,0.357516 l 2.09117,2.569881 c 0.19202,-1.404687 0.0261,-2.535631 -0.63515,-3.318493 -0.66123,-0.782839 -1.64177,-1.006562 -2.53397,-1.047819 -1.7844,-0.08247 -3.76159,0.40535 -4.99793,0.239619 -3.04424,-0.408225 -6.19819,-2.415579 -6.19819,-2.415579 l -0.92681,-0.600672 -0.48828,1.003145 c 0,0 -0.8839,1.858883 -0.37735,4.537766 0.19596,1.036214 0.78402,2.290278 1.30591,3.534121 0.26096,0.621923 0.50403,1.229081 0.67002,1.717947 0.16601,0.48887 0.20596,0.904971 0.20676,0.892813 -0.0145,0.235134 -0.18588,0.582655 -0.33287,0.921581 -2.23714,-0.0083 -3.75101,0.8945 -4.95319,2.159833 -0.23828,0.03825 -0.56527,0.06511 -0.54518,0.06926 -0.0326,-0.0164 -0.13134,-0.08544 -0.20849,-0.13163 -0.81669,-1.565973 -2.05977,-2.861837 -4.24098,-3.463928 -0.0499,-0.365977 -0.12024,-0.7467 -0.0715,-0.977131 -0.002,0.01162 0.16866,-0.375178 0.4605,-0.801156 0.2919,-0.42597 0.68998,-0.945058 1.10927,-1.47354 0.83857,-1.056966 1.7436,-2.105935 2.21223,-3.050859 1.21152,-2.442884 0.8626,-4.471111 0.8626,-4.471111 l -0.21939,-1.100352 -10e-6,3.9e-5 z"
         style="color:#000000;font-style:normal;font-variant:normal;font-weight:normal;font-stretch:normal;font-size:medium;line-height:normal;font-family:'Bitstream Vera Sans';-inkscape-font-specification:'Bitstream Vera Sans';text-indent:0;text-align:start;text-decoration:none;text-decoration-line:none;letter-spacing:normal;word-spacing:normal;text-transform:none;writing-mode:lr-tb;direction:ltr;text-anchor:start;display:inline;overflow:visible;visibility:visible;fill:#806600;fill-opacity:1;stroke:none;stroke-width:3;stroke-miterlimit:4;stroke-dasharray:none;marker:none;enable-background:accumulate" />
      <path
         id="path14997-8-0-1-79-2-8-3-7-7-76-99-12-29"
         style="display:inline;fill:#e4c900;fill-opacity:1;stroke:none;stroke-width:3;stroke-miterlimit:4;stroke-dasharray:none"
         d="m 400.94459,64.835594 c 0,0 -0.55906,-3.036646 -1.78911,-5.707604 -0.61313,-1.331332 -1.86647,-3.265085 -3.03979,-4.465495 -1.20593,-1.233839 -2.32389,-1.716281 -2.32389,-1.716281 0.18882,1.591566 -1.03175,3.243593 -1.60384,4.453952 0,0 -1.47345,-5.988327 -3.30873,-7.950383 -1.41559,-1.513436 -4.98082,-3.289584 -4.95601,-3.286018 0.0251,0.0042 -3.659,0.736567 -5.44464,1.789238 -2.31489,1.364856 -5.42048,6.694172 -5.42048,6.694172 -0.20689,-1.322433 -0.911,-3.251504 -0.28017,-4.725092 0,0 -1.20884,0.147537 -2.71431,0.991235 -1.46475,0.820758 -3.21358,2.322481 -4.17781,3.426783 -1.93462,2.215554 -3.32898,4.971066 -3.32898,4.971066 1.93395,-0.344322 5.70153,-4.852759 7.42705,-4.712425 1.4641,0.118999 1.02006,4.048425 2.41388,4.02722 1.90077,-0.02891 3.14602,-3.18482 5.17752,-5.557778 1.80158,-2.104412 4.46603,-3.888869 5.89809,-3.636446 1.44122,0.254038 3.53485,2.699673 4.63673,5.222835 1.30193,2.981278 2.41319,6.234801 3.93906,6.729057 1.51555,0.49091 2.19769,-3.530693 3.70972,-3.252234 1.7956,0.330752 3.42572,6.077574 5.18571,6.704198 z" />
      <path
         id="path14997-8-0-1-79-2-8-3-7-00-83-83-8"
         style="display:inline;fill:none;stroke:#806600;stroke-width:1.5;stroke-linecap:butt;stroke-linejoin:miter;stroke-miterlimit:4;stroke-dasharray:none;stroke-opacity:1"
         d="m 399.72835,98.22057 c 4.07981,1.79649 7.76105,-1.841043 8.56448,-2.272918 0,0 -1.97249,-0.995823 -3.61518,-3.829397 -1.1043,-1.90493 -1.89565,-5.43593 -2.20945,-7.099241 -1.16588,-6.178207 1.17972,-7.495641 1.32757,-7.036605 0,0 3.92258,-1.998509 5.4452,-3.557828 1.44364,-1.476223 1.88428,-3.745887 2.04749,-5.802105 0.24477,-3.084194 -1.55996,-7.307844 -1.55996,-7.307844 -6.0412,0.50603 -7.45182,1.514955 -8.59434,3.547001 0,0 -0.55907,-3.036645 -1.78912,-5.707604 -0.61312,-1.331332 -1.86646,-3.265085 -3.03978,-4.465494 -1.20594,-1.233839 -2.32389,-1.716281 -2.32389,-1.716281 0.18882,1.591565 -1.03175,3.243592 -1.60385,4.453951 0,0 -1.47344,-5.988327 -3.30872,-7.950382 -1.41559,-1.513437 -4.98082,-3.289585 -4.95602,-3.286018 0.0251,0.0042 -3.659,0.736567 -5.44463,1.789237 -2.31489,1.364857 -5.42048,6.694173 -5.42048,6.694173 -0.2069,-1.322434 -0.911,-3.251504 -0.28017,-4.725092 0,0 -1.20884,0.147537 -2.71431,0.991234 -1.46476,0.820758 -3.21358,2.322482 -4.17782,3.426784 -1.93462,2.215553 -3.32898,4.971066 -3.32898,4.971066 -0.44092,-2.386602 -1.45625,-3.652574 -7.24278,-5.826122 0,0 -2.92462,3.543056 -3.56108,6.570883 -0.42451,2.018655 -0.64102,4.320557 0.32499,6.143523 1.02012,1.925239 4.21863,4.948586 4.21863,4.948586 0.27138,-0.398727 2.14943,1.526557 -0.71449,7.124836 -0.77097,1.507186 -2.5277,4.671472 -4.12535,6.187559 -2.37642,2.255194 -4.55009,2.654329 -4.55009,2.654329 1.8292,3.279451 2.39545,4.647409 7.57411,4.595435 -10.40181,9.953404 -9.82872,23.391384 0.67412,33.414544 0.38657,-1.43791 1.93407,-4.79819 2.93895,-6.14709 -0.13883,-0.0801 1.07883,6.50179 4.86596,9.40327 1.22883,0.94139 2.61813,6.95458 4.4412,8.64879 1.66307,1.54558 3.92053,3.16291 3.92053,3.16291 0,0 0.85388,-5.04713 3.00757,-6.12098 2.16884,-1.08153 6.24822,-2.90108 7.5881,-3.54255 2.6966,-1.29103 6.86861,-8.01607 6.86861,-8.01607 l 0.16362,7.47512 c 14.47287,-7.56529 16.47876,-18.39858 10.58928,-31.793601 z" />
      <path
         style="fill:#806600;fill-opacity:1;stroke:none;stroke-width:3;stroke-miterlimit:4;stroke-dasharray:none"
         d="m 356.09841,57.665805 c 0,0 3.36512,1.647201 3.85114,3.351605 0.66266,2.323852 -0.49438,8.994143 -0.49438,8.994143 0,0 -3.98569,-3.91455 -4.55167,-5.824766 -0.71203,-2.403203 1.19491,-6.520982 1.19491,-6.520982 z"
         id="path5110-5-2-9-2" />
      <path
         style="fill:#806600;fill-opacity:1;stroke:none;stroke-width:3;stroke-miterlimit:4;stroke-dasharray:none"
         d="m 407.64181,64.745952 c 0,0 -3.68526,0.678741 -4.61369,2.188851 -1.26589,2.058941 -1.95384,8.793669 -1.95384,8.793669 0,0 4.89535,-2.694626 5.95638,-4.381351 1.33486,-2.122038 0.61115,-6.601169 0.61115,-6.601169 z"
         id="path5110-9-6-61-9-5" />
      <path
         style="fill:#fff1a1;fill-opacity:1;stroke:none;stroke-width:3;stroke-miterlimit:4;stroke-dasharray:none"
         d="m 366.55474,91.412233 c -6.95566,0.403322 -13.59579,10.309767 -12.03848,20.656257 3.83635,-7.24262 12.79846,-16.274638 12.03848,-20.656257 z"
         id="path5269-2-7-6-5" />
      <path
         style="fill:#fff1a1;fill-opacity:1;stroke:none;stroke-width:3;stroke-miterlimit:4;stroke-dasharray:none"
         d="m 390.10974,97.082984 c 4.81421,1.050335 7.54883,9.796056 4.52742,20.209476 -0.0961,-7.78279 -4.79253,-15.96867 -4.52742,-20.209476 z"
         id="path5269-9-85-6-1-9" />
      <path
         style="fill:#fff1a1;fill-opacity:1;stroke:none;stroke-width:3;stroke-miterlimit:4;stroke-dasharray:none"
         d="m 365.25355,107.81943 c 0,0 -1.24785,3.81247 -0.92451,6.71206 0.21639,1.94023 0.56188,3.95719 1.52752,5.65443 0.999,1.75586 6.14421,4.61333 6.14421,4.61333 l -0.62932,4.52904 c 0,0 4.68181,-2.86363 5.4739,-4.6946 0.60476,-1.39796 2.23254,-7.03489 2.23254,-7.03489 l -4.6515,4.81133 c 0,0 -5.87228,-3.41884 -7.0597,-5.57672 -1.82675,-3.31969 -2.11252,-9.01389 -2.11252,-9.01389 z"
         id="path5293-9-5-7-1" />
      <path
         style="fill:#ffefa7;fill-opacity:1;stroke-width:3;stroke-miterlimit:4;stroke-dasharray:none"
         d="m 364.80842,61.826458 c 0,0 -0.0591,-1.511389 3.43941,-2.590892 3.68742,-1.13779 11.00751,-1.839632 13.6898,-1.547833 3.2155,0.349833 10.00019,3.057545 13.43442,5.362129 2.88797,1.938012 2.73561,3.560075 2.73561,3.560075 -5.55965,-1.741531 -11.33661,-1.904119 -17.27321,-0.906838 -4.41797,-2.826886 -9.44408,-4.64377 -16.02603,-3.876641 z"
         id="path5295-43-04-39-1" />
    </g>
  </g>
  <path
     fill-rule="evenodd"
     clip-rule="evenodd"
     fill="#E41E20"
     d="M20.308 10.618c.086-.053.183-.059.28-.059.09 0 .18.008.261.055.097.055.099.133.008.198-.124.089-.427.092-.556.005-.089-.06-.086-.143.007-.199zm-4.732.204c-.175.085-.355.083-.531-.004-.043-.021-.079-.056-.078-.108.002-.054.042-.082.084-.103.08-.04.167-.05.221-.048.128 0 .221.006.305.055.102.06.105.157-.001.208z"
     id="path20170" />
</svg>
