<?xml version="1.0" encoding="UTF-8" standalone="no"?>
<svg
   viewBox="0 0 36 36"
   version="1.1"
   id="svg61456"
   sodipodi:docname="aurenja.svg"
   inkscape:version="1.2.1 (9c6d41e410, 2022-07-14)"
   xmlns:inkscape="http://www.inkscape.org/namespaces/inkscape"
   xmlns:sodipodi="http://sodipodi.sourceforge.net/DTD/sodipodi-0.dtd"
   xmlns="http://www.w3.org/2000/svg"
   xmlns:svg="http://www.w3.org/2000/svg">
  <defs
     id="defs61460" />
  <sodipodi:namedview
     id="namedview61458"
     pagecolor="#ffffff"
     bordercolor="#000000"
     borderopacity="0.25"
     inkscape:showpageshadow="2"
     inkscape:pageopacity="0.0"
     inkscape:pagecheckerboard="0"
     inkscape:deskcolor="#d1d1d1"
     showgrid="false"
     inkscape:zoom="6.2090162"
     inkscape:cx="1.3689769"
     inkscape:cy="-35.915513"
     inkscape:window-width="1536"
     inkscape:window-height="1039"
     inkscape:window-x="252"
     inkscape:window-y="0"
     inkscape:window-maximized="0"
     inkscape:current-layer="svg61456" />
  <path
     id="path61452"
     style="font-variation-settings:normal;opacity:1;vector-effect:none;fill:#ffd42a;fill-opacity:1;stroke-width:3.03051213;stroke-linecap:butt;stroke-linejoin:miter;stroke-miterlimit:4;stroke-dasharray:none;stroke-dashoffset:0;stroke-opacity:1;-inkscape-stroke:none;stop-color:#000000;stop-opacity:1;stroke:none;marker:none;marker-start:none;marker-mid:none;marker-end:none"
     d="M 4 5 C 1.7910022 5 0 6.7910022 0 9 L 0 18 L 0 27 C 0 29.208998 1.7910022 31 4 31 L 32 31 C 34.208998 31 36 29.208998 36 27 L 36 18 L 36 9 C 36 6.7910022 34.208998 5 32 5 L 4 5 z " />
  <g
     transform="matrix(0.08267064,0,0,0.08422415,-70.967299,-3.0520381)"
     style="display:inline"
     id="g2306-3-4">
    <path
       inkscape:connector-curvature="0"
       style="color:#000000;font-style:normal;font-variant:normal;font-weight:normal;font-stretch:normal;font-size:medium;line-height:normal;font-family:Sans;-inkscape-font-specification:Sans;text-indent:0;text-align:start;text-decoration:none;text-decoration-line:none;letter-spacing:normal;word-spacing:normal;text-transform:none;writing-mode:lr-tb;direction:ltr;baseline-shift:baseline;text-anchor:start;display:inline;overflow:visible;visibility:visible;fill:#d30707;fill-opacity:1;stroke:none;stroke-width:1.80249;stroke-miterlimit:4;stroke-dasharray:none;marker:none;enable-background:accumulate"
       id="path8725-7-4"
       d="m 1082.016,114.32596 c -16.6399,-0.22872 -29.3805,2.86223 -38.6547,9.20432 -9.2743,6.34209 -14.4155,16.05993 -15.6928,26.50551 -2.5527,20.87591 7.8197,44.96041 23.0325,67.43029 l -9e-4,0.0689 c 5.8886,8.6927 12.7168,17.27203 19.8777,25.68252 -12.2563,12.46014 -17.6093,18.01605 -30.1859,28.15522 -2.8706,2.3143 -9.6951,17.47145 -12.8752,19.90511 -15.0362,11.50684 -28.63312,10.68134 -37.40672,14.26459 l 4.3772,11.43029 c 11.08142,-4.5258 20.69362,-16.65449 37.10422,-28.34404 2.7544,-1.96196 15.5337,-3.54738 18.0444,-5.47122 12.8941,-9.88026 18.2462,-16.58544 30.4597,-29.10684 22.0493,23.88597 44.8554,42.98546 65.4252,55.35416 5.497,3.30537 11.1751,-1.63384 15.8638,0.43325 l -0.034,-1.09452 c -2.3051,-1.01626 -5.8409,-7.95364 -8.3494,-9.53585 -17.669,-11.14433 -39.029,-29.87496 -63.0936,-55.72444 7.3893,-8.21051 14.4509,-16.59892 20.5761,-25.12649 15.8432,-22.05681 26.9265,-45.88637 24.9471,-66.83987 -0.9897,-10.47673 -5.8619,-20.3322 -14.9583,-26.9268 -9.0965,-6.59459 -21.8164,-10.03549 -38.4562,-10.2642 z m -0.1935,14.08293 c 14.7942,0.20334 24.5519,3.27917 30.4153,7.5299 5.8633,4.25072 8.4669,9.58865 9.158,16.9043 1.3822,14.63129 -7.5913,36.75921 -22.33,57.2783 -5.4718,7.61782 -11.8985,15.24214 -18.679,22.73592 -6.566,-7.67148 -12.7908,-15.48151 -18.047,-23.24072 -14.1692,-20.91641 -22.5311,-43.28261 -20.7473,-57.87038 0.8919,-7.29389 3.7103,-12.5573 9.6882,-16.64527 5.978,-4.08796 15.7475,-6.8954 30.5418,-6.69205 z" />
    <path
       inkscape:connector-curvature="0"
       style="color:#000000;font-style:normal;font-variant:normal;font-weight:normal;font-stretch:normal;font-size:medium;line-height:normal;font-family:Sans;-inkscape-font-specification:Sans;text-indent:0;text-align:start;text-decoration:none;text-decoration-line:none;letter-spacing:normal;word-spacing:normal;text-transform:none;writing-mode:lr-tb;direction:ltr;baseline-shift:baseline;text-anchor:start;display:inline;overflow:visible;visibility:visible;fill:#f22e2e;fill-opacity:1;stroke:none;stroke-width:1.80249;stroke-miterlimit:4;stroke-dasharray:none;marker:none;enable-background:accumulate"
       id="path8727-0-5"
       d="m 1081.9657,117.98476 c -16.1624,-0.22215 -28.1527,2.78351 -36.5742,8.54245 -8.4215,5.75895 -12.9604,14.27287 -14.138,23.90309 -2.3551,19.26047 7.4872,42.9962 22.4435,65.07459 6.4152,9.47009 14.004,18.84046 21.9865,27.99006 -10.5583,10.97576 -21.9216,21.39934 -33.0841,30.61528 -2.9335,2.42195 -5.1036,7.75855 -7.9911,10.00178 -16.2285,12.6077 -32.1914,19.20697 -43.14832,23.68188 l 2.60693,6.25007 c 11.65199,-4.75882 24.92729,-17.52233 40.91439,-29.78077 3.1972,-2.45147 8.3016,-1.64482 11.5446,-4.31155 11.3688,-9.34896 22.8882,-19.9341 33.6417,-31.14748 20.6091,22.71374 44.2924,43.04699 64.1022,56.1565 11.9078,2.32624 -0.1168,-0.24242 11.2478,1.68227 l 0.4601,-0.18082 c -6.811,-6.54023 0.1007,0.32675 -7.3793,-6.86773 -19.2018,-12.80728 -43.1082,-33.31802 -63.7334,-55.97321 8.2277,-8.92385 16.0078,-18.08921 22.6785,-27.37615 15.5575,-21.65898 26.0485,-45.11523 24.2235,-64.43316 -0.9124,-9.65895 -5.2156,-18.2944 -13.4756,-24.28263 -8.26,-5.98823 -20.1632,-9.3223 -36.3257,-9.54445 z m -0.093,6.76533 c 15.2718,0.20991 25.7771,3.39162 32.4769,8.2487 6.6997,4.85708 9.9423,11.34695 10.7107,19.48038 1.5367,16.26686 -7.961,38.8381 -22.9854,59.75499 -6.3205,8.79933 -13.7904,17.59418 -21.695,26.14682 -7.678,-8.77749 -14.9528,-17.75267 -21.0371,-26.73417 -14.4438,-21.32192 -23.3176,-44.14567 -21.3344,-60.36415 0.9916,-8.10924 4.4114,-14.50754 11.2421,-19.17864 6.8307,-4.67111 17.3505,-7.56384 32.6222,-7.35393 z" />
    <path
       inkscape:connector-curvature="0"
       style="color:#000000;font-style:normal;font-variant:normal;font-weight:normal;font-stretch:normal;font-size:medium;line-height:normal;font-family:Sans;-inkscape-font-specification:Sans;text-indent:0;text-align:start;text-decoration:none;text-decoration-line:none;letter-spacing:normal;word-spacing:normal;text-transform:none;writing-mode:lr-tb;direction:ltr;baseline-shift:baseline;text-anchor:start;display:inline;overflow:visible;visibility:visible;fill:#d30707;fill-opacity:1;stroke:none;stroke-width:1.80249;stroke-miterlimit:4;stroke-dasharray:none;marker:none;enable-background:accumulate"
       id="path8729-4-7"
       d="m 1085.8061,226.92471 c -6.754,7.86812 -14.1555,15.57725 -21.7893,22.96936 l 2.4454,2.93358 c 7.8212,-7.58996 15.353,-15.53857 22.282,-23.65305 z m 8.2668,6.3969 c -7.2328,8.53428 -15.1226,16.82748 -23.2637,24.74432 l 2.4453,2.93358 c 8.318,-8.10589 16.3547,-16.65198 23.7565,-25.42801 z" />
    <path
       inkscape:connector-curvature="0"
       style="color:#000000;font-style:normal;font-variant:normal;font-weight:normal;font-stretch:normal;font-size:medium;line-height:normal;font-family:Sans;-inkscape-font-specification:Sans;text-indent:0;text-align:start;text-decoration:none;text-decoration-line:none;letter-spacing:normal;word-spacing:normal;text-transform:none;writing-mode:lr-tb;direction:ltr;baseline-shift:baseline;text-anchor:start;display:inline;overflow:visible;visibility:visible;fill:none;stroke:#820401;stroke-width:1.80249;stroke-miterlimit:4;stroke-dasharray:none;stroke-opacity:1;marker:none;enable-background:accumulate"
       id="path8731-1-4"
       d="m 1082.016,114.32596 c -16.6399,-0.22872 -29.3805,2.86223 -38.6547,9.20432 -9.2743,6.34209 -14.4155,16.05993 -15.6928,26.50551 -2.5527,20.87591 7.8197,44.96041 23.0325,67.43029 l -9e-4,0.0689 c 5.8886,8.6927 12.7168,17.27203 19.8777,25.68252 -10.4579,10.63179 -20.5935,20.24208 -30.5432,28.75407 -9.9721,15.28548 0.7095,-0.40705 -9.9428,15.49901 -12.0522,9.16058 -28.0434,12.48384 -39.98182,18.07184 l 4.3772,11.43029 c 11.79542,-4.81737 20.10672,-17.14984 35.90862,-28.83468 17.5334,-5.33513 0.2542,-0.32382 17.8364,-5.18529 10.8058,-8.68782 21.6848,-18.46705 31.8633,-28.90213 21.6767,23.48237 46.39,43.61921 66.7635,56.04526 14.8825,-0.53101 0.5461,-0.20704 14.9003,-0.25789 l 0.3406,0.40454 c -8.4808,-11.0608 -0.8818,-1.66063 -8.8438,-11.237 -21.5117,-13.86151 -41.0042,-31.52049 -63.3487,-55.52234 7.3893,-8.2105 14.4508,-16.59891 20.5761,-25.12649 15.8432,-22.05681 26.9265,-45.88637 24.9471,-66.83986 -0.9897,-10.47674 -5.8619,-20.33221 -14.9584,-26.9268 -9.0964,-6.59459 -21.8163,-10.03549 -38.4562,-10.2642 z m -0.1935,14.08293 c 14.7942,0.20334 24.5519,3.27917 30.4153,7.5299 5.8633,4.25072 8.4669,9.58865 9.158,16.9043 1.3822,14.63129 -7.5913,36.75921 -22.33,57.2783 -5.4718,7.61782 -11.8985,15.24214 -18.679,22.73592 -6.566,-7.67148 -12.7908,-15.48151 -18.047,-23.24072 -14.1692,-20.91641 -22.5311,-43.28261 -20.7473,-57.87038 0.8919,-7.29389 3.7103,-12.5573 9.6882,-16.64527 5.978,-4.08796 15.7475,-6.8954 30.5418,-6.69205 z" />
    <path
       inkscape:connector-curvature="0"
       style="color:#000000;font-style:normal;font-variant:normal;font-weight:normal;font-stretch:normal;font-size:medium;line-height:normal;font-family:Sans;-inkscape-font-specification:Sans;text-indent:0;text-align:start;text-decoration:none;text-decoration-line:none;letter-spacing:normal;word-spacing:normal;text-transform:none;writing-mode:lr-tb;direction:ltr;baseline-shift:baseline;text-anchor:start;display:inline;overflow:visible;visibility:visible;fill:#800000;fill-opacity:1;stroke:#820401;stroke-width:1.802;stroke-miterlimit:4;stroke-dasharray:none;stroke-opacity:1;marker:none;enable-background:accumulate"
       id="path8733-6-17"
       d="m 1085.746,226.80013 c -6.7541,7.86812 -14.1555,15.57725 -21.7894,22.96935 m 9.1124,11.22748 c 8.3179,-8.10589 16.3546,-16.65198 23.7564,-25.42801" />
    <g
       transform="matrix(2.2347887,-0.6294419,0.66081115,2.1177553,-185.89553,-351.99023)"
       id="g8721-3-8"
       style="display:inline;stroke-width:0.815867;stroke-miterlimit:4;stroke-dasharray:none">
      <g
         transform="matrix(1.0123227,0.00366256,0.00364373,1.001083,-6.5746306,-3.1310451)"
         id="g8735-4-1"
         style="stroke-width:0.815867;stroke-miterlimit:4;stroke-dasharray:none">
        <path
           d="m 379.96783,414.74344 c 1.03638,35.05404 27.72015,63.12294 60.53251,63.12294 29.40503,0 53.88746,-22.55339 59.40107,-52.4635 h -6.96735 c -5.67228,18.52196 -20.11982,30.48957 -36.65298,30.48957 -19.52255,0 -38.03791,-16.68921 -40.73216,-41.14901 z"
           id="path8737-3-9"
           style="fill:#134fc3;fill-opacity:1;stroke:none"
           inkscape:connector-curvature="0" />
        <path
           d="m 390.87752,414.74344 h -10.90969 c 1.03638,35.05404 27.72015,63.12294 60.53251,63.12294 29.40503,0 53.88746,-22.55339 59.40107,-52.4635 h -2.58836 c -2.82141,16.24524 -19.90112,42.93474 -43.19948,45.20337 -45.15769,4.39714 -59.93371,-32.11454 -63.23605,-55.86281 z"
           id="path8739-4-4"
           style="display:inline;fill:#1248b3;fill-opacity:1;stroke:none"
           inkscape:connector-curvature="0" />
        <path
           d="m 181.96863,84.687325 c 1.86043,11.200237 5.07429,20.959495 13.84387,31.343925 9.3759,11.1024 23.62619,19.64897 45.53125,16.65625 18.45132,-2.52086 31.86517,-18.33276 36.6875,-37.03125 h -0.21875 c -6.21546,18.36162 -21.03025,31.99984 -38.09375,31.99984 -20.17824,0 -40.95975,-13.74958 -45.06223,-42.968765 z"
           transform="translate(216.57206,331.84375)"
           id="path8741-8-7"
           style="fill:#2356b7;fill-opacity:1;stroke:none"
           inkscape:connector-curvature="0" />
        <path
           d="m 379.96783,414.74344 c 1.03638,35.05404 27.72015,63.12294 60.53251,63.12294 29.40503,0 53.88746,-22.55339 59.40107,-52.4635 h -6.96735 c -5.67228,18.52196 -20.11982,30.48957 -36.65298,30.48957 -19.52255,0 -38.03791,-16.68921 -40.73216,-41.14901 z"
           id="path8749-6-3"
           style="display:inline;fill:none;stroke:#0c2c6d;stroke-width:0.938895;stroke-miterlimit:4;stroke-dasharray:none;stroke-opacity:1"
           inkscape:connector-curvature="0" />
      </g>
      <g
         transform="matrix(0.34232358,0,0,0.34232358,341.65366,274.71316)"
         id="g8751-2-22"
         style="stroke-width:2.38332;stroke-miterlimit:4;stroke-dasharray:none">
        <path
           d="m 470.07549,450.77377 c 0,3.92923 -9.07464,7.11449 -19.97268,7.11449 -10.89805,0 -19.61099,-3.18526 -19.61099,-7.11449 V 440.3564 h 39.58367 z"
           id="path8753-7-5"
           style="display:inline;fill:#134fc3;fill-opacity:1;stroke:#0c2c6d;stroke-width:2.38332;stroke-miterlimit:4;stroke-dasharray:none;stroke-opacity:1"
           inkscape:connector-curvature="0" />
        <path
           d="m 201.98291,84.314262 c 0,4.123879 -9.22507,7.466943 -20.66299,7.466943 -11.43793,0 -20.88164,-3.343064 -20.88164,-7.466943 0,-4.123878 9.44371,-7.466942 20.88164,-7.466942 11.43792,0 20.66299,3.343064 20.66299,7.466942 z"
           transform="matrix(0.95279902,0,0,0.95279902,277.62638,360.02185)"
           id="path8755-4-9"
           style="display:inline;fill:#376acb;fill-opacity:1;stroke:#0c2c6d;stroke-width:2.50139;stroke-miterlimit:4;stroke-dasharray:none;stroke-opacity:1"
           inkscape:connector-curvature="0" />
        <path
           d="m 193.37446,84.314262 a 12.054545,3.7573768 0 1 1 -24.10909,0 12.054545,3.7573768 0 1 1 24.10909,0 z"
           transform="matrix(0.95279902,0,0,0.95279902,277.62638,359.56142)"
           id="path8757-4-6"
           style="display:inline;fill:#001c82;fill-opacity:1;stroke:none"
           inkscape:connector-curvature="0" />
      </g>
      <g
         transform="translate(-2.0445289,-0.60767745)"
         id="g8759-1-4"
         style="stroke-width:0.815867;stroke-miterlimit:4;stroke-dasharray:none">
        <g
           transform="translate(1.1463212,-0.8362141)"
           id="g8761-5-1"
           style="stroke-width:0.815867;stroke-miterlimit:4;stroke-dasharray:none">
          <path
             d="m 419.70256,421.18417 c 0,4.07124 -9.20445,7.37164 -20.49638,7.37164 -11.29194,0 -20.46747,-3.3004 -20.46747,-7.37164 v -6.21686 c 8.03107,-5.85057 31.17793,-6.57129 40.96385,0 z"
             id="path8763-1-4"
             style="fill:#134fc3;fill-opacity:1;stroke:#0c2c6d;stroke-width:0.815867;stroke-miterlimit:4;stroke-dasharray:none;stroke-opacity:1"
             inkscape:connector-curvature="0" />
          <path
             d="m 419.70257,414.96731 c 0,4.07123 -9.20446,7.37163 -20.49639,7.37163 -11.29194,0 -20.46745,-3.3004 -20.46745,-7.37163 0,-4.07125 9.17551,-7.37165 20.46745,-7.37165 11.29193,0 20.49639,3.3004 20.49639,7.37165 z"
             id="path8765-7-9"
             style="fill:#134fc3;fill-opacity:1;stroke:#0c2c6d;stroke-width:0.815867;stroke-miterlimit:4;stroke-dasharray:none;stroke-opacity:1"
             inkscape:connector-curvature="0" />
          <path
             d="m 202.03012,84.314262 a 20.7102,7.4669432 0 1 1 -41.4204,0 20.7102,7.4669432 0 1 1 41.4204,0 z"
             transform="matrix(0.79050912,0,0,0.61207795,255.87113,362.58441)"
             id="path8767-9-0"
             style="fill:#002255;fill-opacity:1;stroke:none"
             inkscape:connector-curvature="0" />
        </g>
        <path
           d="m 409.73385,417.1192 c 2.87503,-0.52052 5.70548,-1.0162 7.14211,-3.70091 -1.31725,-3.42396 -9.09989,-4.31269 -13.69073,-4.53721 0,0 -6.55288,0.85262 -9.61854,2.005 -0.90713,0.34099 -2.5322,1.42842 -2.5322,1.42842 0,0 2.10711,-0.51812 3.18149,-0.64928 2.58023,-0.315 7.7914,-0.32464 7.7914,-0.32464 0,0 -4.18027,0.71521 -6.10327,1.55828 -0.94563,0.41458 -2.59713,1.68813 -2.59713,1.68813 0,0 2.09748,-0.6351 3.18149,-0.71421 2.01312,-0.14691 6.03833,0.4545 6.03833,0.4545 0,0 -3.24084,0.21629 -4.73977,0.77914 -0.69156,0.25968 -1.88292,1.16871 -1.88292,1.16871 l 7.3369,1.42843 z"
           id="path8769-8-1"
           style="fill:#001c82;fill-opacity:1;stroke:none"
           inkscape:connector-curvature="0" />
        <path
           d="m 202.03012,84.314262 a 20.7102,7.4669432 0 1 1 -41.4204,0 20.7102,7.4669432 0 1 1 41.4204,0 z"
           transform="matrix(0.79050912,0,0,0.61207795,257.01745,361.7482)"
           id="path8771-5-1"
           style="display:inline;fill:none;stroke:#0c2c6d;stroke-width:1.1729;stroke-miterlimit:4;stroke-dasharray:none;stroke-opacity:1"
           inkscape:connector-curvature="0" />
      </g>
    </g>
    <g
       transform="matrix(0.95834832,0,0,0.95834832,43.388716,11.739801)"
       id="g2272-2-0">
      <path
         inkscape:connector-curvature="0"
         style="fill:#d30707;fill-opacity:1;fill-rule:evenodd;stroke:#800000;stroke-width:1.802;stroke-linecap:butt;stroke-linejoin:miter;stroke-miterlimit:4;stroke-dasharray:none;stroke-opacity:1"
         id="path2789-78-9"
         d="m 1028.9964,283.63481 c 2.1524,32.33027 -36.16138,59.76951 -72.33326,48.3122 0.46023,0.92524 11.7689,15.52014 14.33996,16.75762 21.85387,9.78551 72.1535,-21.15397 69.713,-50.19998 -0.5066,-2.39245 -10.2118,-13.85033 -11.7197,-14.86984 z" />
      <path
         inkscape:connector-curvature="0"
         style="fill:#f22e2e;fill-opacity:1;fill-rule:evenodd;stroke:none;stroke-width:0.715275"
         id="path2789-7-8-7"
         d="m 1032.6233,289.81198 c -0.8826,30.05402 -37.28129,54.61985 -68.58567,46.81317 0.46023,0.92524 5.77275,8.02494 8.34381,9.26242 20.39286,5.40249 67.24856,-19.37923 65.21596,-47.20191 -0.5067,-2.39245 -3.4662,-7.85417 -4.9741,-8.87368 z" />
    </g>
    <g
       transform="matrix(0.94012366,0,0,0.94012366,69.075742,18.207819)"
       id="g2276-6-9">
      <path
         inkscape:connector-curvature="0"
         style="fill:#d30707;fill-opacity:1;fill-rule:evenodd;stroke:#800000;stroke-width:1.802;stroke-linecap:butt;stroke-linejoin:miter;stroke-miterlimit:4;stroke-dasharray:none;stroke-opacity:1"
         id="path8141-2-7"
         d="m 1166.5028,305.13946 c -3.7304,3.6038 -7.1325,6.98496 -10.955,10.1562 14.7271,4.0306 21.8122,12.66068 21.5095,31.65654 3.6138,-4.08079 8.2956,-7.59725 11.7637,-12.06291 -2.013,-13.75289 -8.13,-24.22316 -22.3182,-29.74983 z" />
      <path
         inkscape:connector-curvature="0"
         style="fill:#f22e2e;fill-opacity:1;fill-rule:evenodd;stroke:none;stroke-width:0.715275"
         id="path8141-9-0-9"
         d="m 1167.143,309.56721 c -3.7304,3.6038 -1.1326,0.98497 -4.9551,4.1562 12.7271,3.0306 19.8123,18.66068 17.5096,27.15654 3.6137,-4.08079 1.7955,-2.09725 5.2636,-6.5629 -2.013,-13.7529 -3.6299,-19.22316 -17.8181,-24.74984 z" />
    </g>
  </g>
</svg>
