<?xml version="1.0" encoding="UTF-8" standalone="no"?>
<svg
   viewBox="0 0 36 36"
   version="1.1"
   id="svg61456"
   sodipodi:docname="barbones.svg"
   inkscape:version="1.2.1 (9c6d41e410, 2022-07-14)"
   xmlns:inkscape="http://www.inkscape.org/namespaces/inkscape"
   xmlns:sodipodi="http://sodipodi.sourceforge.net/DTD/sodipodi-0.dtd"
   xmlns:xlink="http://www.w3.org/1999/xlink"
   xmlns="http://www.w3.org/2000/svg"
   xmlns:svg="http://www.w3.org/2000/svg">
  <defs
     id="defs61460" />
  <sodipodi:namedview
     id="namedview61458"
     pagecolor="#ffffff"
     bordercolor="#000000"
     borderopacity="0.25"
     inkscape:showpageshadow="2"
     inkscape:pageopacity="0.0"
     inkscape:pagecheckerboard="0"
     inkscape:deskcolor="#d1d1d1"
     showgrid="false"
     inkscape:zoom="7.246858"
     inkscape:cx="-15.66196"
     inkscape:cy="-26.218259"
     inkscape:window-width="1536"
     inkscape:window-height="1039"
     inkscape:window-x="252"
     inkscape:window-y="0"
     inkscape:window-maximized="0"
     inkscape:current-layer="g46823" />
  <path
     id="path61452"
     style="font-variation-settings:normal;opacity:1;vector-effect:none;fill:#ffd42a;fill-opacity:1;stroke-width:3.03051213;stroke-linecap:butt;stroke-linejoin:miter;stroke-miterlimit:4;stroke-dasharray:none;stroke-dashoffset:0;stroke-opacity:1;-inkscape-stroke:none;stop-color:#000000;stop-opacity:1;stroke:none;marker:none;marker-start:none;marker-mid:none;marker-end:none"
     d="M 4 5 C 1.7910022 5 0 6.7910022 0 9 L 0 18 L 0 27 C 0 29.208998 1.7910022 31 4 31 L 32 31 C 34.208998 31 36 29.208998 36 27 L 36 18 L 36 9 C 36 6.7910022 34.208998 5 32 5 L 4 5 z " />
  <g
     id="g46823"
     transform="matrix(0.03591927,0,0,0.03676657,7.2242176,6.1106827)"
     style="display:inline">
    <g
       id="b"
       fill="#2b5df2"
       stroke="#000000"
       stroke-linecap="round"
       stroke-linejoin="round"
       stroke-width="4.25613"
       transform="matrix(0.58740778,0,0,0.58736894,136.14998,473.746)">
      <path
         d="m 230.408,136.85466 c -12.08109,23.97055 48.51917,64.38002 48.51917,64.38002 0,0 60.62007,-40.40464 48.53958,-64.38002 -7.24118,-14.37112 -48.53958,0 -48.53958,0 0,0 -41.27958,-14.36434 -48.51917,0 z"
         style="fill:#2b5df2;fill-rule:evenodd;stroke:#000000;stroke-width:4.25613;stroke-linecap:round;stroke-linejoin:round"
         id="path46137" />
      <path
         d="m 279.3125,265.21875 c 21.42445,13.52876 34.75095,7.49254 44.6875,-14.03125 -2.82406,-14.78068 -17.73504,-45.1755 -24.472,-53.35701 6.89115,7.62289 21.50841,38.38407 24.4095,52.79451 17.98659,1.55285 31.61242,-7.79829 25.28125,-31.0625 0.16073,-3.25382 -31.4811,-33.65757 -35.88474,-35.2868 3.69425,1.14809 35.32483,31.6871 35.97849,35.2243 17.24441,-6.99771 16.6669,-25.82556 -0.8413,-37.98955 -15.03893,-10.44843 -35.72834,-16.41691 -45.25353,-27.29837 -7.92567,-9.05418 -5.88094,-19.06356 -18.88504,-27.10607 l -5.39513,-2.66496 -5.39513,2.66496 c -13.0041,8.04251 -10.95937,18.05189 -18.88504,27.10607 -9.52519,10.88146 -30.2146,16.84994 -45.25353,27.29837 -17.5082,12.16399 -18.08571,30.99184 -0.8413,37.98955 0.65366,-3.5372 32.28424,-34.07621 35.97849,-35.2243 -4.40364,1.62923 -36.04547,32.03298 -35.88474,35.2868 -6.33117,23.26421 7.29466,32.61535 25.28125,31.0625 2.90109,-14.41044 17.51835,-45.17162 24.4095,-52.79451 -6.73696,8.18151 -21.64794,38.57633 -24.472,53.35701 9.93655,21.52379 23.26305,27.56001 44.6875,14.03125 l 0.375,-61.99013 z"
         style="fill:#2b5df2;fill-rule:evenodd;stroke:#000000;stroke-width:4.25613;stroke-linecap:round;stroke-linejoin:round"
         id="path46139" />
      <path
         d="m 223.7848,191.38621 c 0,0 15.41794,40.2137 55.1527,40.2137 39.73475,0 55.15271,-40.2137 55.15271,-40.2137"
         fill="none"
         stroke="#000000"
         stroke-linecap="round"
         stroke-linejoin="round"
         stroke-width="4.25613"
         id="path46141" />
      <path
         d="m 248.31954,171.96159 c 0,0 8.55925,18.88567 30.61796,18.88567 22.0587,0 30.61797,-18.88567 30.61797,-18.88567"
         fill="none"
         stroke="#000000"
         stroke-linecap="round"
         stroke-linejoin="round"
         stroke-width="4.25613"
         id="path46143" />
    </g>
    <use
       height="660"
       transform="translate(4e-6,-535)"
       width="600"
       xlink:href="#b"
       id="use46146"
       x="0"
       y="0" />
    <use
       height="660"
       transform="translate(-407.04126,-535)"
       width="600"
       xlink:href="#b"
       id="use46148"
       x="0"
       y="0" />
    <use
       height="660"
       transform="translate(407.04126,-535)"
       width="600"
       xlink:href="#b"
       id="use46150"
       x="0"
       y="0" />
    <use
       height="660"
       transform="translate(-407.04126,-268.07861)"
       width="600"
       xlink:href="#b"
       id="use46152"
       x="0"
       y="0" />
    <use
       height="660"
       transform="translate(407.04126,-268.07861)"
       width="600"
       xlink:href="#b"
       id="use46154"
       x="0"
       y="0" />
    <use
       height="660"
       transform="translate(-403.75867,-1.1572014)"
       width="600"
       xlink:href="#b"
       id="use46156"
       x="0"
       y="0" />
    <use
       height="660"
       transform="translate(405.3016,1.1572015)"
       width="600"
       xlink:href="#b"
       id="use46158"
       x="0"
       y="0" />
    <g
       fill="#e20909"
       stroke="#000000"
       stroke-linecap="round"
       stroke-linejoin="round"
       stroke-width="3.39064"
       transform="matrix(0.73730808,0,0,0.73733967,23.521411,-90.337112)"
       id="g46210">
      <g
         fill-rule="evenodd"
         id="g46176">
        <path
           d="m 513.41168,608.58465 c 7.44178,-0.31418 15.48357,-8.5507 28.25933,5.76503 2.65795,-5.35981 2.39143,-12.27186 -3.50558,-16.42049 8.67772,-5.63218 17.99338,-20.17639 20.6105,-28.9045 3.41002,-11.37244 5.56748,-24.66605 14.58985,-27.95596 4.78675,-1.74548 9.26813,1.69463 8.85606,7.57927 -0.89447,12.77349 -5.32241,10.02586 -10.01454,27.26987 -1.76179,6.47475 1.71644,16.63251 16.69407,14.39093 -6.33998,-2.92583 -6.67509,-6.7902 -5.99075,-11.89758 1.1881,-8.86717 16.61773,-19.25156 18.23136,-33.81778 1.89806,-17.13365 -12.10051,-24.84308 -19.04675,-25.5053 -9.30094,-0.88671 -20.63428,4.96871 -27.48325,16.58892 -3.61897,-16.92251 8.21935,-33.38198 21.05557,-41.254 10.75545,-6.59597 22.97091,-12.36926 28.95655,-21.87147 6.74863,-10.71352 5.39091,-24.19448 -1.53251,-30.83599 -0.35355,6.40809 -4.84112,17.17118 -18.27866,24.06171 -16.31202,8.36462 -32.08182,13.16456 -45.2538,37.00218 -2.76393,-42.64828 42.96851,-59.27094 61.96887,-72.47447 23.58219,-16.38756 15.87991,-52.09645 8.72205,-56.97138 0.41431,5.97983 0.66186,15.34189 -6.4631,26.41451 -8.24138,12.80773 -22.65155,18.61379 -40.03945,28.18159 -17.29236,9.51526 -31.64803,24.71613 -38.45632,40.66719 -1.87709,-10.76557 6.09491,-26.35977 16.13609,-37.28036 10.40033,-11.31115 22.82493,-21.22726 29.89086,-27.21748 14.07384,-11.93133 34.57669,-28.44665 36.7047,-64.66093 1.50178,-25.46925 -11.17136,-43.30419 -28.93824,-50.74816 -10.41978,-4.36556 -25.69505,-5.01936 -36.21395,-2.66055 -5.27752,1.18344 -10.53867,3.00398 -15.47873,5.97313 -3.47827,2.09055 -9.47957,0.80402 -8.8759,-5.26669 0.71134,-7.15379 10.92547,-7.68136 12.01335,-16.06494 0.89742,-6.91594 -4.3595,-12.47604 -9.92251,-15.2266 1.39234,4.23625 -0.11741,9.15148 -3.03635,14.05438 -3.80445,6.39032 -12.42016,5.70973 -13.54203,17.80092 -0.55593,6.04755 3.47731,12.8652 9.20015,14.55762 0.67842,0.4149 1.81624,1.32915 1.33266,1.99276 -6.3161,8.6678 -7.45819,20.13495 -6.8184,28.08741 1.06856,13.28013 5.6613,17.96105 5.72057,30.25952 0.0186,3.83334 0.0132,14.8871 -4.59827,22.17358 -5.68453,8.98203 -10.55054,12.54123 -15.96783,15.37081 7.643,0.47959 15.81348,-1.29359 21.53229,-3.51267 10.57067,-4.10171 19.54133,-17.16129 21.3252,-25.81949 1.18781,-5.76506 0.9201,-11.1544 0.16274,-16.40466 5.17446,1.75032 14.18531,2.00002 20.48892,-2.17585 6.47284,-4.28797 10.05703,-13.55229 5.2966,-21.63188 -1.64412,8.1883 -7.11614,11.15854 -15.33057,11.48449 -7.81695,0.31019 -14.06495,-4.57279 -14.74735,-13.06258 -1.00585,-12.51308 9.6323,-21.62964 24.25544,-21.80341 19.37149,-0.23021 29.89592,13.99524 28.86799,32.60918 -1.03033,18.65773 -10.27015,32.39101 -23.33416,43.49622 -11.22378,9.54089 -23.03466,18.80896 -34.71486,30.40316 -9.10976,9.04269 -27.05546,28.21263 -27.65722,53.63025 -0.44628,18.83526 5.0321,34.06611 13.60335,47.78861 8.57119,13.72258 13.64843,25.15507 17.30492,35.79589 4.39492,12.79026 2.33555,30.24448 -10.05154,35.13943 -12.83058,5.07025 -30.24839,-2.61161 -36.43087,-19.35145 -3.73003,10.6019 -18.27818,23.60169 7.18678,36.58644 7.49976,2.58311 14.25528,6.03057 22.75669,5.67162 z"
           stroke-width="3.39064"
           id="path46160" />
        <g
           stroke-width="2.87714"
           transform="matrix(1.1746892,0.09537056,-0.09537538,1.1745339,111.23181,225.77518)"
           id="g46166">
          <path
             d="m 100.40625,63.09375 c -10.113654,0.19203 -15.591483,8.078624 -17.03125,10.9375 17.97155,-2.722417 16.410522,2.559702 19.71875,13.25 L 118.6875,80.75 C 117.27496,75.131415 114.79897,66.010727 106.5,63.84375 c -2.19593,-0.573387 -4.22085,-0.785561 -6.09375,-0.75 z m 37.90625,0.4375 c -3.39928,-0.06703 -6.72918,0.90733 -9.125,2.65625 7.04417,2.51379 10.92766,5.505854 7.40625,17.15625 l 13.34375,8.875 c 3.32775,-4.026231 6.82371,-13.231177 0.125,-22.71875 -2.86723,-4.06094 -7.3795,-5.882574 -11.75,-5.96875 z M 78.625,87.5625 C 72.58623,87.380704 65.348445,91.266274 62.375,106.03125 78.096325,94.1617 78.159406,105.60542 86.03125,113.25 l 10.625,-18.09375 c 0,0 -6.036136,-4.281416 -14.09375,-6.90625 -1.198377,-0.390381 -2.543938,-0.645547 -3.9375,-0.6875 z m 32.65625,58.5625 c -6.58244,10.64902 -15.364088,11.32903 -26.8125,5.84375 7.306985,21.35304 23.8677,21.13198 38.875,9.1875 z"
             stroke-width="3.27259"
             transform="matrix(0.8777261,-0.04922101,0.04922749,0.87784181,-31.86506,-17.783938)"
             id="path46162" />
          <path
             d="m 98.500709,125.34746 c 0.88889,5.2289 4.910771,12.55632 3.959011,18.97791 3.50256,-3.89576 6.61747,-8.7125 6.65116,-13.63794 6.55475,9.62818 0.39257,24.3043 1.84003,35.24775 2.62357,-4.04816 9.27731,-10.23654 10.46505,-15.43766 6.78129,12.0134 -6.142,15.90635 2.69376,40.02754 1.65378,-9.10276 7.09173,-16.96108 9.13492,-23.27594 3.32446,16.80134 20.52506,26.67692 29.47706,23.12148 23.27955,25.7437 47.76019,12.99651 44.11117,-16.76576 0,0 -23.47244,-42.40815 -28.92659,-45.78872 -5.92248,-3.67085 -13.33339,-6.81712 -21.86029,-11.33419 -9.62392,-5.09821 -17.514,-9.17816 -25.14265,-15.16679 -7.62865,-5.988662 -11.52232,-11.601098 -16.54382,-15.833403 -7.06935,-5.958319 -11.99981,-12.81212 -12.41068,-16.147276 -0.50275,-4.080989 3.37322,-5.50043 4.31579,-12.122321 1.12156,-7.879327 -7.502758,-15.531612 -14.804024,-13.781373 -4.162382,0.997795 -3.978014,8.880724 -6.125479,10.644356 -0.506187,0.415712 -1.138493,0.596782 -1.982763,0.422568 -4.426031,-0.913308 -1.888526,-13.769181 -8.913975,-13.698927 -7.025459,0.07025 -12.420462,2.647279 -15.639818,9.805612 -2.587905,5.754282 8.236187,8.657286 8.895094,11.860954 0.147688,0.718075 -1.291513,1.893496 -2.031211,1.935404 -0.488313,0.02766 -8.665811,-7.470167 -14.389728,-5.030714 -4.460463,1.900987 -8.996275,7.679584 -6.823204,15.007294 1.879055,6.336273 10.44943,6.103221 14.582211,6.208524 4.90019,0.124857 16.887848,13.111791 16.518836,19.431152 0.140507,5.05833 -7.503884,3.68389 -8.609232,9.58684 -1.417445,7.56966 5.048929,15.39893 11.485448,13.88352 4.81575,-1.13382 9.536236,-7.90739 11.73672,-8.29539 5.372736,-0.46635 7.351603,4.3497 8.337204,10.1555 z"
             stroke-width="2.87714"
             id="path46164" />
        </g>
        <path
           d="m 229.61656,641.27273 c -7.3425,-1.05819 -13.37574,3.63072 -14.14302,4.60742 13.34995,2.87946 13.20346,8.28041 15.42701,18.25812 5.69318,-2.97366 10.70408,-5.50307 13.92919,-6.78065 0.58326,-2.14019 -1.71372,-9.05051 -8.83737,-13.62941 -2.17843,-1.40022 -4.31992,-2.15918 -6.37581,-2.45548 z m -19.65291,19.29243 c -1.4938,-0.25012 -3.04147,-0.33124 -4.64055,-0.14927 -11.70139,1.33133 -12.80742,9.92874 -13.39041,12.7567 13.36189,-4.21381 17.04416,2.52615 23.37571,9.58362 l 8.3849,-14.77685 c -1.99499,-1.88299 -7.25682,-6.32829 -13.72965,-7.4142 z m 10.92407,33.56093 c 0,0 -9.2625,-5.51876 -17.08111,-2.47612 -8.42929,3.2803 -9.37557,13.79728 -8.43155,17.59804 8.03903,-8.69034 16.40462,-5.55062 22.18507,-0.0507 z m 24.69069,24.15757 c 0.15177,12.97413 -5.1762,14.25719 -14.01305,13.50292 2.56753,3.16705 11.84653,9.18172 18.95121,6.67857 7.80619,-2.75027 11.33081,-13.82324 10.65393,-14.21819 z"
           stroke-width="3.39064"
           id="path46168" />
        <path
           d="m 350.54534,561.98631 c -23.02985,-3.42102 -39.58533,9.84154 -45.07892,26.56243 -2.35786,7.17662 -4.30156,12.0388 -8.17362,14.42729 -9.49776,5.85871 -23.29413,5.35273 -24.48872,4.6915 6.67899,10.86571 13.37449,15.16421 24.54027,14.42047 -4.01613,11.56298 4.74259,27.94324 8.59099,40.96326 1.29931,4.39592 -8.72047,5.87406 -20.54002,6.14496 -3.84643,0.0882 -11.88863,3.61822 -15.6422,4.08902 -3.8876,0.48761 -9.47195,-0.71087 -11.43888,-2.36991 -2.03317,-1.71494 -8.75885,-12.01375 -14.59435,-14.9376 -5.43025,-2.72082 -12.73584,-2.70474 -14.75213,1.74811 -3.21356,7.10542 6.2097,11.53392 7.13619,14.35167 0.89602,2.72515 -1.59149,4.43113 -3.28312,3.09284 -2.00698,-1.58775 -7.91629,-10.4945 -12.49323,-9.75391 -3.44876,0.55802 -6.59856,3.11079 -8.64013,11.17173 -1.73044,6.83251 9.3051,10.63239 13.54845,11.59616 3.45465,0.78463 2.48689,4.17667 0.28399,4.52202 -2.37005,0.37156 -11.38927,-7.02396 -12.64824,-2.40707 -1.25897,4.61691 -3.51331,14.75179 2.16372,19.26753 4.46338,3.55032 23.61316,0.90116 25.79394,0.68293 2.59666,-0.25984 5.1497,-0.63305 5.85257,0.24078 4.7776,5.93965 -6.8198,6.08941 -3.68879,11.41106 3.32715,5.65502 9.14916,6.9927 14.44867,8.69238 10.88904,3.49231 8.36032,-18.49812 10.84775,-18.262 5.436,0.0491 7.64223,-0.45631 11.42239,3.64547 3.78016,4.10181 8.64298,15.77317 17.26892,19.90614 0.42576,-8.30945 2.16626,-15.58222 5.75025,-20.67834 1.74702,9.86828 12.37504,16.20525 23.42576,20.9039 -4.75669,-7.57594 -4.52096,-20.00866 -2.40424,-21.59729 6.30887,9.5362 12.95952,13.65299 27.29272,15.35901 -3.78134,-3.78483 -4.58961,-13.31444 -3.26746,-15.76538 2.02826,-3.75987 4.11716,3.62018 9.14011,-3.88527 3.1664,-4.73129 0.18302,-11.44143 -0.96018,-14.85167 -5.24282,-15.63973 -1.37231,-49.48093 33.97377,-52.37129 19.22356,-1.57197 48.9048,-8.20908 51.78852,-10.90606 22.98259,-21.49443 8.14791,-44.73103 -0.0974,-58.0245 -27.07508,8.32149 -62.07116,-7.36784 -91.07738,-12.08037 z"
           stroke-width="3.39064"
           id="path46170" />
        <path
           d="m 368.12437,555.52099 c 15.17041,5.69924 28.03896,19.75064 29.70305,29.84924 -8.74164,17.42545 -2.97443,25.21626 9.51898,23.13147 10.19595,-1.69622 10.2128,-9.837 7.52724,-19.22928 -2.39599,-8.37952 -6.04209,-14.04004 -13.80464,-20.03355 -10.13587,-7.82599 -28.58771,-14.48447 -32.94463,-13.71788 z"
           stroke-width="3.39064"
           id="path46172" />
        <path
           d="m 419.1872,743.99623 c -1.04771,0.017 -2.09447,0.12268 -3.16878,0.36257 -7.82212,1.74746 -12.52045,11.23099 -12.92982,15.02066 7.43286,-5.17345 12.53163,-5.73196 20.97866,2.36581 2.48158,-3.1484 6.19286,-7.48828 9.92465,-11.8754 -1.07359,-1.24484 -7.47083,-5.99246 -14.80472,-5.87368 z m -16.19847,23.09086 c -2.32826,-0.0267 -4.96305,0.52475 -7.5839,2.06805 -9.77021,5.75326 -8.22262,18.5213 -7.65442,20.10443 8.45577,-10.79069 14.34775,-10.92809 22.20941,-2.89479 l 0.89813,-16.55705 c -0.92212,-1.05924 -3.98877,-2.6762 -7.86922,-2.72064 z m 11.3811,25.08441 c 0,0 -9.95826,1.58625 -12.42848,13.65458 -2.46753,12.05518 5.66709,17.19067 7.80016,18.23138 -0.0256,-9.19537 4.25321,-17.01408 15.10499,-19.8395 z m 22.85696,12.96337 c -2.33642,1.82415 -7.19251,4.58193 -6.63416,13.51883 0.60054,9.61201 9.11704,13.93235 12.76948,14.18783 -3.69401,-8.88139 -0.67555,-15.67706 5.06561,-19.97557 z"
           stroke-width="3.39064"
           id="path46174" />
      </g>
      <g
         stroke-width="2.87714"
         transform="matrix(0.95264942,-0.69376859,-0.69386632,-0.95252839,678.01386,1047.303)"
         id="g46186">
        <path
           d="m 105.90625,278.78125 c -6.828431,0.2331 -12.953471,7.03572 -14.3125,11.03125 7.304105,-3.11394 12.38895,-1.87681 16.78125,2.5 l 10.75,-7.96875 c 0,0 -5.95545,-4.9459 -11.84375,-5.53125 -0.46019,-0.0457 -0.91977,-0.0468 -1.375,-0.0312 z m -19.75,32.125 c -3.715187,0.11288 -9.544646,0.88171 -14.21875,4.15625 -7.326686,5.13286 -9.126767,16.42079 -8.34375,18.65625 7.147459,-7.80637 12.639727,-10.20329 26.3125,-7.6875 L 89.84375,311 c 0,0 -1.458388,-0.16148 -3.6875,-0.0937 z m 4.125,27.34375 c 0,0 -11.843736,4.1126 -14.5,13.65625 -2.833267,10.17961 3.805128,17.97719 6.8125,19.46875 1.139976,-7.10136 2.444261,-17.26899 16.25,-20.40625 z m 17.9375,18.84375 c -2.02261,4.17195 -5.75276,10.44675 -3.1875,17.78125 3.12487,8.93448 14.49128,10.79798 17.6875,10.9375 -5.74324,-9.26002 -4.15425,-15.85987 0.0625,-25.0625 z"
           fill-rule="evenodd"
           stroke-width="3.27259"
           transform="matrix(0.6974409,-0.53516523,-0.53523586,-0.69753299,9.157139,880.92038)"
           id="path46178" />
        <g
           stroke-width="2.87714"
           id="g46184">
          <path
             d="m -12.768409,284.35666 c 12.60547278,10.25404 20.495577,-7.94875 34.757748,-2.28114 -4.179655,3.22423 -7.26666,9.89997 -5.569722,15.58023 11.170927,-8.01109 18.722915,-7.90202 27.930696,-6.86705 -4.608458,3.06121 -10.612227,8.76453 -7.11307,16.04067 5.562573,-3.58417 17.09113,-11.27185 29.993021,-5.73758 -12.398805,5.63907 -15.331131,12.99059 -12.663271,15.84672 7.886057,8.44264 13.90902,-0.346 12.586303,11.88884 -0.371649,3.43769 -7.124951,12.11175 -2.643215,15.90824 2.376919,2.01349 12.724378,0.3023 17.577303,-0.7471 -1.895073,2.06049 -4.796954,9.46314 -10.832129,12.3435 -6.035176,2.88034 -10.64515,-5.5808 -8.974466,8.20769 0.783383,6.35245 0.350718,8.81282 5.39686,19.78387 1.014356,2.20535 11.784805,18.14602 12.692713,16.50277 10.662669,0.58623 24.511568,16.61493 27.099728,26.97568 3.06236,10.8326 6.55186,21.48997 6.89676,34.91565 0.26492,10.31267 -3.80547,31.23448 2.20923,40.91612 7.78848,12.55471 16.82351,25.43219 22.07145,31.09055 14.37997,15.50454 17.43941,18.21142 5.34554,35.38303 -7.14949,10.15126 -33.98241,42.66691 -62.197822,36.75925 -14.416538,-3.01848 -22.578198,3.83243 -38.11342,-2.90574 -15.535222,-6.73817 -12.958155,-2.86995 -23.071322,-4.11801 -10.113167,-1.24806 -18.7394769,-1.64977 -21.27498082,-1.51182 -5.07100778,0.27589 -6.60918938,0.71366 -15.61323718,0.53134 -9.004048,-0.18232 -17.178626,-0.52783 -18.931764,-0.90474 -3.506274,-0.75382 -16.809,2.71799 -18.922408,4.66041 -1.303968,1.19847 -0.263755,11.13537 -2.888899,13.91238 -3.290448,3.48082 -14.210818,7.32524 -17.840188,2.56414 -1.944108,-2.55033 3.22972,-10.08399 0.01152,-12.18729 -2.190584,-1.43168 -9.103602,0.60761 -11.129777,2.94057 -1.158089,1.33344 -3.472983,6.59078 -7.41377,8.1063 -7.363122,2.83166 -15.718852,-4.69431 -14.593102,-10.81838 0.57223,-3.11292 9.368664,-6.21141 9.993794,-7.63247 0.70847,-1.61051 1.085935,-2.74649 -0.58593,-3.6566 -1.813654,-0.98732 -10.460544,5.92665 -13.018994,4.78358 -8.71122,-3.89203 -10.19344,-17.40915 -0.98938,-19.4608 3.09154,-0.68912 6.58517,-0.61083 8.98907,-0.61294 2.13311,-0.002 2.50495,-2.22024 2.08861,-3.08802 -0.94772,-1.97539 -10.36244,-1.35243 -11.42421,-4.62276 -2.04219,-6.29008 7.79178,-15.48154 13.507954,-13.15171 4.435932,1.80802 14.269547,6.59547 15.821461,7.08747 0.775961,0.24599 2.246325,0.99256 8.019547,-1.23413 14.169073,-5.87903 14.371153,-14.06079 11.323567,-27.44606 6.339547,0.45822 19.664819,5.74221 20.404512,13.41051 1.028241,-8.00323 4.634499,-18.89239 10.619708,-24.29033 2.626627,9.09022 10.397854,12.69454 13.226937,14.4021 1.013131,-7.30873 8.861215,-20.02531 18.1102102,-24.1453 -3.7446505,9.32539 -2.0017732,19.97292 8.3535445,17.99259 10.3553173,-1.98033 13.8454023,-1.31637 20.5884743,4.22253 6.743072,5.5389 14.050577,-3.0559 13.901823,-10.32803 -0.148754,-7.27213 -0.09857,-10.03634 0.604814,-17.272 0.756799,-7.78518 3.018253,-16.5485 4.629847,-22.09706 1.821095,-6.26979 3.127942,-12.63703 2.915363,-20.2983 -0.272312,-9.81381 -0.381837,-7.8827 -9.187601,-14.70564 C 30.796539,449.18286 26.480883,439.46927 17.370764,434.09694 13.687463,432.32997 5.8387556,432.85337 1.2447492,422.39355 -3.3492574,411.93374 -18.701156,397.50345 -28.868137,398.18489 -16.553264,384.56366 0.49544985,388.61868 9.308586,399.60707 4.6403306,381.66345 2.598292,357.04012 7.0214636,343.50728 3.9775982,333.76027 -5.0172583,320.57586 -15.49362,320.62801 c -3.181338,0.12474 -0.107615,6.05113 -2.992894,7.34813 -3.816706,1.71571 -14.235973,1.27203 -15.528077,-2.65499 -1.256959,-3.8202 7.539003,-7.97775 3.505453,-7.62647 l -5.157454,0.44916 c -3.170451,0.27611 -1.828714,3.90622 -7.224632,6.442 -6.631233,3.11633 -13.233133,-3.21673 -12.653675,-9.44235 0.381207,-4.09564 6.122372,-5.53394 6.122372,-5.53394 5.927809,-2.26785 6.44791,-5.29516 -1.154134,-2.62028 0,0 -7.423095,2.45341 -9.97584,-3.02454 -1.741246,-3.73656 0.533845,-10.45176 3.369322,-11.73407 3.763049,-1.70178 8.987291,-2.10716 11.382679,-0.92402 4.492758,2.2191 4.741197,-1.0983 1.356034,-2.99325 -1.923229,-1.07658 -5.690249,-3.60468 -4.555186,-6.93376 1.383406,-4.05744 9.006984,-7.40161 12.507366,-6.77648 5.359619,0.95712 8.271108,6.29471 8.443417,8.26548 6.500325,-1.95937 11.612628,-0.53187 15.280452,1.48806 z"
             fill-rule="evenodd"
             id="path46180" />
          <path
             d="m -55.234597,566.94421 c 0,0 18.521825,-6.13732 43.594674,-9.22479 17.0698314,-2.10198 37.176072,-2.79035 56.541262,0.83396"
             id="path46182" />
        </g>
      </g>
      <g
         stroke-width="3.1769"
         transform="matrix(1.0549297,0.16124557,-0.16122501,1.0551313,93.590196,156.54643)"
         id="g46204">
        <g
           fill-rule="evenodd"
           id="g46194">
          <path
             d="m 318.73852,150.2645 c -7.93442,0.23895 -15.58694,0.48326 -22.24297,-1.62967 -6.20014,-1.96821 -14.92829,-0.94152 -21.61337,2.34223 -10.75456,5.28269 -17.63205,9.15348 -29.36013,9.38071 -9.87627,0.19136 -13.65969,-5.13279 -13.46928,-15.96275 2.91738,5.46765 6.72038,7.44433 10.06341,7.46167 4.30082,0.0223 11.6565,-2.0068 17.09386,-5.60432 28.14959,-18.62465 48.98279,-15.29393 59.52848,4.01213 z"
             stroke-width="3.1769"
             transform="matrix(1,0.12462422,0,1,4e-6,-34.32054)"
             id="path46188" />
          <path
             d="m 246.65625,96.875 c -1.23904,3.21457 -0.77199,13.10696 5.625,16.09375 0.86096,-5.64452 3.42933,-12.22234 5.375,-15.59375 z m 10.51251,36.50062 c -0.71633,3.47468 0.37801,7.84627 2.03125,10.5 l 7.5625,-1.9375 c -3.92913,-2.0289 -7.45461,-5.09122 -9.59375,-8.5625 z"
             stroke-width="3.39064"
             transform="matrix(0.92954474,-0.11836362,0.11834116,0.92936829,2.50126,63.179982)"
             id="path46190" />
          <path
             d="m 371.21891,274.33981 c -3.63616,-3.97595 -4.20247,-10.72779 -3.31996,-16.50133 1.20339,-7.8727 5.73826,-14.84059 6.23408,-23.44866 0.57067,-10.06872 -4.70956,-11.67356 -4.67522,-16.59978 5.17561,6.62108 16.99273,5.38232 19.13052,-4.26509 -5.33275,0.0595 -10.57868,-2.68627 -13.00792,-7.31658 -4.37481,-8.33865 2.63385,-12.52387 2.5388,-21.23391 -0.11061,-10.2752 -6.74169,-13.74636 -7.77303,-17.94628 5.23451,0.76199 10.87845,-2.97213 10.7996,-8.34095 -2.50511,1.39032 -5.33214,1.12164 -7.45386,-1.5469 -2.54437,-3.20012 -1.64188,-8.06218 -2.89951,-11.7715 -2.33526,-6.88761 -7.87838,-6.9293 -9.24575,-11.23207 5.68115,1.86232 12.11869,-3.04907 11.21199,-9.83616 -1.76068,1.56755 -4.26936,2.12464 -6.57527,1.13479 -4.14726,-1.78027 -2.81917,-6.61393 -4.86526,-10.54379 -1.48187,-2.8462 -8.05979,-5.38481 -8.89896,-8.61272 4.7476,0.54446 8.68359,-2.7944 7.9079,-8.40936 -2.21438,1.4199 -7.70876,1.474255 -9.80819,-0.357165 -9.82575,-8.57145 -16.92602,-15.822536 -27.79367,-21.249275 -8.8104,-4.399458 -29.95373,-5.082891 -46.03153,-3.604527 -11.84919,1.089541 -21.0464,7.687984 -27.68585,12.480591 -5.78662,4.176991 -1.37012,6.835454 0.73105,9.659047 -5.46779,0.159383 -10.19241,-0.06064 -14.96713,2.689186 -2.75446,1.586327 -6.19406,4.654123 -5.63309,6.253993 0.32419,0.92462 2.88209,3.70087 4.48972,2.29694 0.44884,3.70995 0.0346,5.91932 0.73007,9.73321 0.91465,5.01603 4.50233,9.1898 8.76379,9.60822 11.30044,1.10956 21.19388,-0.98531 30.62876,-6.34067 12.77404,-7.25071 18.21971,-0.22613 20.56751,7.88964 2.36704,8.18234 1.20076,18.94612 -5.32201,26.56498 -3.38632,3.95536 -10.03439,8.36356 -17.03916,9.11664 -3.93175,0.42269 -7.99927,-0.94473 -11.19253,1.07919 -1.62809,1.0319 -1.20348,6.84454 -1.24855,10.06893 -0.0353,2.51693 2.05727,3.57598 4.76113,3.81103 6.26755,0.54487 5.66526,7.09181 9.42397,7.54546 -0.011,-1.68603 0.57753,-8.55774 2.05515,-8.82724 5.93891,-1.08316 19.38978,-4.87515 19.31098,-2.55611 -0.20178,5.83357 -6.26036,9.60332 -20.59093,14.52177 -11.11721,3.81558 -34.25219,0.54006 -35.03739,-26.1383 -13.70286,10.44207 -14.69237,35.72095 -1.38178,41.42041 -4.4644,0.0723 -9.25155,1.14191 -14.41604,2.81956 -7.6738,2.49278 -17.03563,-2.61207 -23.06444,-8.07249 0.50846,19.00014 5.47419,29.0394 15.8261,33.71717 12.30163,5.55879 19.8832,3.08788 27.68272,3.29605 -5.88819,4.22165 -9.56886,10.88357 -14.59537,17.12956 -5.64782,7.01802 -14.41539,13.28069 -25.06249,13.48325 5.74028,8.32916 14.99901,12.56877 25.51747,12.75811 14.19297,0.25802 25.1358,-5.2541 33.68466,-13.6164 -0.28951,9.11278 -8.97024,13.61576 -9.1422,24.60333 -0.15365,9.81864 5.46127,17.78262 15.42757,18.61396 -4.94154,-14.9571 9.83001,-21.53613 18.45193,-26.10019 8.15941,-4.31922 15.02143,-9.71544 20.17096,-17.77925 2.27399,8.93812 -8.88267,17.05111 -1.37227,29.56367 5.05031,8.41396 14.83049,11.01093 24.85395,9.56454 -7.04672,-3.39664 -9.85378,-12.0941 -6.56321,-20.68333 4.72525,-12.33415 12.60485,-14.08366 19.02673,-28.55501 1.70365,-3.83906 2.40406,-9.89684 2.83351,-15.65585 4.40015,5.82673 3.17654,11.87196 2.67147,17.10813 -0.94882,9.83655 8.48631,21.43075 21.23048,18.60953 z"
             stroke-width="3.1769"
             id="path46192" />
        </g>
        <g
           stroke-width="3.1769"
           id="g46202">
          <path
             d="m 306.52204,78.102415 c -3.74068,-14.827748 9.99923,-18.072256 19.94382,-23.831648 -0.26946,9.856206 2.07809,22.369124 -4.05954,26.268137"
             fill="#e20909"
             fill-rule="evenodd"
             stroke-width="3.1769"
             id="path46196" />
          <path
             d="m 256.20209,98.498357 c 4.75692,2.206803 7.54349,2.917203 11.43802,1.157714 6.3616,-2.64824 7.92319,-6.705822 11.02026,-6.816354 -0.57021,-2.616057 -1.40149,-5.082494 -5.80282,-5.50368 -4.64493,0.423531 -6.41225,2.530851 -8.05895,4.19009 -0.49674,0.410448 1.44887,3.578317 3.09512,6.241107 -1.10307,0.10996 -4.53702,-0.971598 -5.31837,-4.213659 -1.57631,1.508782 -3.29043,3.134453 -6.37326,4.944782 z"
             fill="#e20909"
             fill-rule="evenodd"
             stroke-width="3.1769"
             id="path46198" />
          <path
             d="m 239.2893,76.031606 c 0,0 1.76183,4.164338 4.64484,1.761835 m 12.78928,-9.666821 c 4.78105,6.825992 8.85285,2.305507 13.08008,0.272246 14.80237,-10.173189 18.21867,-2.325649 25.57688,2.212118 m -3.70588,87.078046 c 17.46552,1.10666 25.43733,-19.50581 25.43733,-19.50581 0,0 7.90245,10.32513 3.33442,18.74416 9.80362,-6.8894 15.18842,-20.65394 5.98986,-39.20038 5.70077,0.87138 11.35181,6.8408 12.28693,10.26593 3.70875,-13.3728 0.46185,-31.657453 -12.23585,-41.62147 m 16.72687,-38.077501 c 0,0 -14.05902,-2.796631 -16.24411,12.740202"
             fill="none"
             stroke-width="3.39064"
             transform="matrix(0.92629627,-0.14155695,0.1415389,0.9261193,1.772611,68.284775)"
             id="path46200" />
        </g>
      </g>
      <path
         d="m 340.15523,681.55389 c 0,0 4.92629,9.57468 -1.13756,17.99529 -6.32318,8.78074 -16.78306,1.52757 -16.78306,1.52757"
         stroke-width="3.39064"
         id="path46206" />
      <path
         d="m 489.08884,687.4297 c 0,0 9.9431,1.58704 13.01634,12.08874 3.20468,10.95082 -7.99779,15.64154 -7.99779,15.64154"
         stroke-width="3.39064"
         id="path46208" />
    </g>
  </g>
</svg>
