<?xml version="1.0" encoding="UTF-8" standalone="no"?>
<svg
   viewBox="0 0 36 36"
   version="1.1"
   id="svg61456"
   sodipodi:docname="corsica.svg"
   inkscape:version="1.2.1 (9c6d41e410, 2022-07-14)"
   inkscape:export-filename="corsica.png"
   inkscape:export-xdpi="96"
   inkscape:export-ydpi="96"
   xmlns:inkscape="http://www.inkscape.org/namespaces/inkscape"
   xmlns:sodipodi="http://sodipodi.sourceforge.net/DTD/sodipodi-0.dtd"
   xmlns="http://www.w3.org/2000/svg"
   xmlns:svg="http://www.w3.org/2000/svg">
  <defs
     id="defs61460" />
  <sodipodi:namedview
     id="namedview61458"
     pagecolor="#ffffff"
     bordercolor="#000000"
     borderopacity="0.25"
     inkscape:showpageshadow="2"
     inkscape:pageopacity="0.0"
     inkscape:pagecheckerboard="0"
     inkscape:deskcolor="#d1d1d1"
     showgrid="false"
     inkscape:zoom="25.027778"
     inkscape:cx="18"
     inkscape:cy="18.019978"
     inkscape:window-width="1536"
     inkscape:window-height="1039"
     inkscape:window-x="252"
     inkscape:window-y="0"
     inkscape:window-maximized="0"
     inkscape:current-layer="svg61456" />
  <path
     id="path61452"
     style="font-variation-settings:normal;opacity:1;vector-effect:none;fill:#eeeeee;fill-opacity:1;stroke-width:1;stroke-linecap:butt;stroke-linejoin:miter;stroke-miterlimit:4;stroke-dasharray:none;stroke-dashoffset:0;stroke-opacity:1;-inkscape-stroke:none;stop-color:#000000;stop-opacity:1"
     d="M 4 5 C 1.7910022 5 0 6.7910022 0 9 L 0 18 L 0 27 C 0 29.208998 1.7910022 31 4 31 L 32 31 C 34.208998 31 36 29.208998 36 27 L 36 18 L 36 9 C 36 6.7910022 34.208998 5 32 5 L 4 5 z " />
  <g
     id="g116228"
     transform="matrix(0.05099761,0,0,0.05099761,16.439381,18.008161)">
    <g
       transform="matrix(2.08,0,0,2.08,-9.77,-0.15)"
       id="path809">
      <path
         style="opacity:1;fill:#000000;fill-rule:evenodd;stroke:#000000;stroke-width:1;stroke-linecap:butt;stroke-linejoin:miter;stroke-miterlimit:4;stroke-dasharray:none;stroke-dashoffset:0"
         transform="translate(-152.92,-336.75)"
         d="m 215.3682,385.6029 c -16.0068,7.4032 -19.9189,17.1522 -26.9876,24.9278 -7.0687,7.7756 -17.6079,24.5028 -38.107,18.8478 -0.643,-4.1892 -3.2908,-15.7428 -11.0204,-20.9684 -4.7763,-2.9093 -10.603,-7.0687 -11.6633,-14.1374 -8.4824,2.1206 -29.72354,3.8167 -30.74885,-7.4221 -0.35344,-3.8878 2.97713,-9.8442 -0.58492,-13.945 -0.80455,0.0256 -5.31245,0.1159 -6.49424,-0.4355 -1.23658,-1.4609 -0.01583,-6.776 0.88047,-7.9563 l -0.0096,-0.0492 c -2.11599,-0.1929 -7.57564,-5.1819 -0.86042,-8.7162 1.77092,-2.0817 1.46078,-3.7827 1.45496,-5.7013 -1.10957,0.0151 -3.8363,-0.0162 -4.23518,-0.0429 -7.07827,-0.0263 -6.16907,-4.5929 -4.13034,-9.4535 1.41373,-3.1809 9.38461,-18.3786 10.79834,-20.4992 1.41374,-2.1206 1.41374,-3.1809 0.35347,-5.3015 -1.06034,-2.1207 -0.70691,-5.655 0,-8.129 0.70684,-2.4741 2.12059,-6.3619 1.06027,-7.4222 -1.06027,-1.0603 -0.70687,-4.5946 -0.35343,-5.3015 0.35343,-0.7069 0.35343,-2.474 0.35343,-3.1809 0,-0.7069 0.35343,-2.474 1.41374,-3.1809 1.0603,-0.7069 1.76717,-3.1809 1.0603,-3.8878 -0.70686,-0.7069 0.35343,-5.6549 1.41373,-6.0084 1.06036,-0.3534 3.18096,-1.0603 4.24126,-3.5343 -0.1253,-3.4904 2.6163,-7.4515 4.2412,-9.1893 1.0603,-1.0603 0.7069,-4.5947 0.7069,-4.5947 l 3.1097,0.0712 c 0.3388,-0.1129 2.8986,-3.6055 5.3727,-4.3124 2.474,-0.7068 8.129,-3.5343 8.129,-3.5343 l 3.8878,-4.2412 3.5343,1.7671 c 0,0 2.8275,-1.0603 5.3015,-1.4137 2.4741,-0.3534 7.7756,-2.1206 9.5428,-4.9481 1.7671,-2.8275 1.4137,3.365 1.4702,3.7038 0.2258,0.0564 3.1244,-1.5832 8.0725,-1.2297 4.9481,0.3534 10.603,2.474 12.3702,1.7671 1.7672,-0.7068 3.5343,1.4138 3.5343,1.4138 0,0 3.5344,2.1206 6.3619,2.1206 2.8274,0 5.3015,0 5.3015,0 l 0.3534,2.474 c 0,0 5.3015,1.8237 7.7756,2.884 2.474,1.0602 4.5946,2.4175 7.7755,2.771 3.1809,0.3534 4.2412,1.4137 4.2412,1.4137 l -1.4137,2.8275 c 0,0 3.8167,0.778 4.9481,4.5946 2.1206,2.8275 4.9481,7.4222 7.0687,7.7756 2.1206,0.3534 3.5343,1.4137 3.5343,1.4137 l -2.8274,3.5344 c 0,0 0.7068,1.0603 2.1206,2.474 1.4137,1.4138 4.2412,3.8878 4.2412,3.8878 l -1.7672,3.1809 c 0,0 0,0.7069 0.3534,2.474 0.3535,1.7672 0.3535,4.9481 2.1206,5.655 1.7672,0.7069 1.7672,2.8275 1.7672,2.8275 0,0 0.3535,0.3534 -1.7672,1.0603 -2.1206,0.7069 -3.5343,0.7069 -2.474,2.1206 1.0603,1.4137 2.8275,3.8878 2.8275,3.8878 0,0 -1.7672,1.0603 -3.5344,1.4137 -1.7671,0.3534 -3.5343,0.3534 -3.5343,0.3534 0,0 1.4137,6.7153 2.8275,7.7756 1.4137,1.0603 -2.1207,1.7672 -4.2413,0.7069 -2.1206,-1.0603 -0.7955,3.1809 0.6183,3.5343 1.4138,0.3534 -0.5131,0.848 -2.1742,0.8655 -1.4137,-0.3534 -3.2334,-0.1061 -2.4205,1.9795 1.0604,2.8274 2.2093,4.2237 -0.6182,5.6374 -2.8275,1.4138 -5.3902,7.7756 -3.9764,9.8962 1.4138,2.1206 2.2092,5.3015 2.2092,5.3015 l -6.7152,0.3535 c 0,0 -0.4596,1.0603 1.3076,2.8274 1.7671,1.7672 3.5343,3.7817 3.287,4.2763 0.0534,0.7649 -5.3189,0.4546 -5.2655,1.2194 4.5705,22.5925 15.4261,28.929 15.441,30.119 l -0.8596,0.6017 v 0 0 0 0 0 0 0 0 0 0 0 0 0 0 0 0 0 z"
         stroke-linecap="round"
         id="path115884" />
    </g>
    <g
       transform="matrix(2.08,0,0,2.08,-9.71,-53.42)"
       id="path792"
       style="font-variation-settings:normal;opacity:1;fill:#eeeeee;fill-opacity:1;stroke-width:0.480769;stroke-linecap:butt;stroke-linejoin:miter;stroke-miterlimit:4;stroke-dasharray:none;stroke-dashoffset:0;stroke-opacity:1;stop-color:#000000;stop-opacity:1">
      <path
         style="font-variation-settings:normal;opacity:1;fill:#eeeeee;fill-opacity:1;fill-rule:evenodd;stroke:#000000;stroke-width:0.480769;stroke-linecap:butt;stroke-linejoin:miter;stroke-miterlimit:4;stroke-dasharray:none;stroke-dashoffset:0;stroke-opacity:1;stop-color:#000000;stop-opacity:1"
         transform="translate(-152.95,-311.16)"
         d="m 102.7557,277.3829 c -2.3554,1.7666 -4.41645,4.7109 -2.3554,6.4775 2.6498,2.3554 3.8275,3.2387 3.8275,3.2387 0,0 -4.71084,-1.4722 -5.59412,0.2944 -0.88328,1.7666 -1.91408,4.4535 0,5.0053 1.47212,0.8833 4.71082,2.6499 4.71082,2.6499 0,0 -7.36068,-0.8833 -5.5941,-0.5889 -0.88328,2.3554 -1.76658,6.4774 2.9443,8.244 4.7109,1.7666 19.4323,7.0663 22.0822,8.5385 2.6498,1.4721 8.5384,2.3554 11.4827,2.3554 2.9443,0 13.8394,0.5888 12.0716,0.5888 l -6.4775,1.7666 c -1.1048,0.1105 13.3969,4.9307 15.5319,4.4899 1.1407,-2.6505 15.972,-16.5615 24.216,0.5154 0.8833,3.8276 -2.061,9.7162 -5.0053,10.8939 -2.9442,1.1777 -4.4164,2.6498 -5.5941,5.8886 -1.1777,3.2387 -4.1931,9.0161 -7.433,8.539 -4.4553,-2.9078 -6.4052,-2.6505 -4.3442,-0.295 2.282,3.2393 7.6181,3.3868 10.305,-0.5889 2.245,-2.7603 4.2678,-9.8995 8.8329,-11.7771 2.3554,-0.8833 5.2997,-6.4775 5.2997,-6.4775 0,0 4.122,-0.2944 5.8886,1.4722 1.7666,1.7665 6.183,1.7665 8.8329,1.4721 2.6498,-0.2944 7.1034,-1.2876 5.6312,-1.2876 -1.4721,0 4.0862,-0.1839 5.8527,0.1105 1.7666,0.2944 1.1765,-4.417 -1.7678,-6.7725 -2.9442,-2.3554 -11.1882,-6.183 -12.9548,-8.5384 -1.7666,-2.3554 -14.427,-9.4217 -17.9602,-9.7162 -3.5331,-0.2944 -7.9496,-2.6498 -7.9496,-2.6498 0,0 6.6255,-0.1099 3.3868,-0.6988 -3.2387,-0.5888 -9.5698,-3.1288 -12.8085,-4.3065 -3.2387,-1.1777 -5.8886,-1.1777 -9.4217,-1.1777 -3.5332,0 -26.9884,-5.7447 -32.8411,-9.3161 -4.4164,-1.4721 20.9534,5.8934 23.8977,6.1879 5.0053,0.7361 6.588,-0.2577 -1.6561,-4.2326 -3.5331,-2.061 -19.268,-10.3125 -31.8613,-13.76 -1.2891,1.2891 -0.8203,1.6885 -3.1757,3.455 z"
         stroke-linecap="round"
         id="path115887" />
    </g>
    <g
       transform="matrix(2.08,0,0,2.08,14.39,-9.95)"
       id="path817"
       style="font-variation-settings:normal;opacity:1;fill:#eeeeee;fill-opacity:1;stroke-width:0.480769;stroke-linecap:butt;stroke-linejoin:miter;stroke-miterlimit:4;stroke-dasharray:none;stroke-dashoffset:0;stroke-opacity:1;stop-color:#000000;stop-opacity:1">
      <path
         style="font-variation-settings:normal;opacity:1;fill:#eeeeee;fill-opacity:1;fill-rule:evenodd;stroke:#ffffff;stroke-width:0.480769;stroke-linecap:butt;stroke-linejoin:miter;stroke-miterlimit:4;stroke-dasharray:none;stroke-dashoffset:0;stroke-opacity:1;stop-color:#000000;stop-opacity:1"
         transform="translate(-164.53,-332.04)"
         d="m 167.0477,325.8538 c 0.1147,0.0133 0.5895,0.0972 0.8941,0.416 0.3378,0.4358 0.6241,0.8269 0.7947,1.2478 0.1252,0.5615 0.2899,1.0254 0.1987,1.5598 -0.1905,0.5235 -0.4462,0.8957 -0.7948,1.2478 -0.3935,0.4858 -0.6796,0.7319 -1.0927,1.0399 -0.4606,0.2181 -0.9021,0.6428 -1.2916,0.8318 -0.1865,0.2527 -0.6657,0.4391 -0.8941,0.7279 -0.2647,0.355 -0.4691,0.5314 -0.4967,1.0399 -0.1719,0.505 -0.2293,1.1271 -0.2981,1.6638 -0.0976,0.5902 -0.236,1.1441 -0.298,1.6638 -0.248,0.4451 -0.519,0.6735 -1.0928,0.8319 -0.4748,0.0842 -0.9659,0.104 -1.4901,0.104 -0.2969,-0.284 -0.8029,-0.6048 -1.0929,-0.9359 0,-0.2773 0,-0.5546 0,-0.832"
         stroke-linecap="round"
         id="path115890" />
    </g>
    <g
       transform="matrix(2.08,0,0,2.08,18.61,-29.97)"
       id="path818"
       style="font-variation-settings:normal;opacity:1;fill:#eeeeee;fill-opacity:1;stroke-width:0.480769;stroke-linecap:butt;stroke-linejoin:miter;stroke-miterlimit:4;stroke-dasharray:none;stroke-dashoffset:0;stroke-opacity:1;stop-color:#000000;stop-opacity:1">
      <path
         style="font-variation-settings:normal;opacity:1;fill:#eeeeee;fill-opacity:1;fill-rule:evenodd;stroke:#ffffff;stroke-width:0.480769;stroke-linecap:butt;stroke-linejoin:miter;stroke-miterlimit:4;stroke-dasharray:none;stroke-dashoffset:0;stroke-opacity:1;stop-color:#000000;stop-opacity:1"
         transform="translate(-166.55,-322.43)"
         d="m 158.7676,323.5336 c 2.5412,-4.088 18.4511,-11.601 14.5841,2.9831 -0.8839,1.5468 0.7734,2.2097 1.2154,1.1049 4.088,-17.2357 -13.4793,-10.0542 -16.2414,-5.5243 -1.1049,1.8783 0.4419,1.5468 0.4419,1.4363 z"
         stroke-linecap="round"
         id="path115893" />
    </g>
    <g
       transform="matrix(2.08,0,0,2.08,-76.04,-71.73)"
       id="path823"
       style="font-variation-settings:normal;opacity:1;fill:#eeeeee;fill-opacity:1;stroke-width:0.480769;stroke-linecap:butt;stroke-linejoin:miter;stroke-miterlimit:4;stroke-dasharray:none;stroke-dashoffset:0;stroke-opacity:1;stop-color:#000000;stop-opacity:1">
      <path
         style="font-variation-settings:normal;opacity:1;fill:#eeeeee;fill-opacity:1;fill-rule:evenodd;stroke:#000000;stroke-width:0.480769;stroke-linecap:butt;stroke-linejoin:miter;stroke-miterlimit:4;stroke-dasharray:none;stroke-dashoffset:0;stroke-opacity:1;stop-color:#000000;stop-opacity:1"
         transform="translate(-121.09,-302.37)"
         d="m 101.4257,298.6744 c 5.9662,-0.1105 12.2639,0.2209 17.1252,3.3145 4.8614,3.0936 9.1703,3.9775 14.3631,3.9775 5.1929,0 7.8445,0.1105 7.8445,0.1105 v 0"
         stroke-linecap="round"
         id="path115896" />
    </g>
    <g
       transform="matrix(2.08,0,0,2.08,49.55,-47.05)"
       id="path824"
       style="font-variation-settings:normal;opacity:1;fill:#eeeeee;fill-opacity:1;stroke-width:0.480769;stroke-linecap:butt;stroke-linejoin:miter;stroke-miterlimit:4;stroke-dasharray:none;stroke-dashoffset:0;stroke-opacity:1;stop-color:#000000;stop-opacity:1">
      <path
         style="font-variation-settings:normal;opacity:1;fill:#eeeeee;fill-opacity:1;fill-rule:evenodd;stroke:#000000;stroke-width:0.480769;stroke-linecap:butt;stroke-linejoin:miter;stroke-miterlimit:4;stroke-dasharray:none;stroke-dashoffset:0;stroke-opacity:1;stop-color:#000000;stop-opacity:1"
         transform="translate(-181.41,-314.22)"
         d="m 174.8498,307.6306 c 9.9703,3.8593 11.7373,4.9945 15.947,7.7187 4.2097,2.7242 5.7661,3.1782 9.3111,5.4484 2.6369,1.5891 4.2097,3.4053 4.2097,3.4053 2.2702,1.8162 -9.8503,-7.0376 -17.725,-5.2214 -2.8803,0 -3.3235,0 -5.9822,-2.9513 -2.6587,-2.9512 -5.7606,-5.4484 -10.1919,-7.2646 -4.4312,-1.8162 -12.1859,-4.7674 -12.1859,-4.7674"
         stroke-linecap="round"
         id="path115899" />
    </g>
    <g
       transform="matrix(2.08,0,0,2.08,75.72,-21.32)"
       id="path826"
       style="font-variation-settings:normal;opacity:1;fill:#eeeeee;fill-opacity:1;stroke-width:0.480769;stroke-linecap:butt;stroke-linejoin:miter;stroke-miterlimit:4;stroke-dasharray:none;stroke-dashoffset:0;stroke-opacity:1;stop-color:#000000;stop-opacity:1">
      <path
         style="font-variation-settings:normal;opacity:1;fill:#eeeeee;fill-opacity:1;fill-rule:evenodd;stroke:#000000;stroke-width:0.480769;stroke-linecap:butt;stroke-linejoin:miter;stroke-miterlimit:4;stroke-dasharray:none;stroke-dashoffset:0;stroke-opacity:1;stop-color:#000000;stop-opacity:1"
         transform="translate(-193.99,-326.58)"
         d="m 185.929,324.8841 c 0.6043,0 3.1193,-0.0954 4.0864,0.227 0.8438,0.114 2.194,0.2236 2.9512,0.4541 1.2838,0.1528 2.4672,0.42 3.8593,0.454 1.4974,0.0135 2.0298,0.4707 3.4053,0.681 0.43,0.5375 1.2423,1.1832 1.8162,1.5892"
         stroke-linecap="round"
         id="path115902" />
    </g>
    <g
       transform="matrix(2.08,0,0,2.08,-96.52,-27.54)"
       id="path808"
       style="font-variation-settings:normal;opacity:1;fill:#eeeeee;fill-opacity:1;stroke-width:0.480769;stroke-linecap:butt;stroke-linejoin:miter;stroke-miterlimit:4;stroke-dasharray:none;stroke-dashoffset:0;stroke-opacity:1;stop-color:#000000;stop-opacity:1">
      <path
         style="font-variation-settings:normal;opacity:1;fill:#eeeeee;fill-opacity:1;fill-rule:evenodd;stroke:#ffffff;stroke-width:0.480769;stroke-linecap:butt;stroke-linejoin:miter;stroke-miterlimit:4;stroke-dasharray:none;stroke-dashoffset:0;stroke-opacity:1;stop-color:#000000;stop-opacity:1"
         transform="translate(-111.26,-323.59)"
         d="m 103.5563,316.5171 c 3.6608,5.0488 9.2712,7.8171 15.4034,9.1303 -0.1549,1.4838 -7.4424,1.5786 -10.1584,5.0195"
         stroke-linecap="round"
         id="path115905" />
    </g>
    <g
       transform="matrix(2.08,0,0,2.08,150.9,-147.84)"
       id="path865"
       style="font-variation-settings:normal;opacity:1;fill:#eeeeee;fill-opacity:1;stroke-width:0.480769;stroke-linecap:butt;stroke-linejoin:miter;stroke-miterlimit:4;stroke-dasharray:none;stroke-dashoffset:0;stroke-opacity:1;stop-color:#000000;stop-opacity:1">
      <path
         style="font-variation-settings:normal;opacity:1;fill:#eeeeee;fill-opacity:1;fill-rule:evenodd;stroke:#000000;stroke-width:0.480769;stroke-linecap:butt;stroke-linejoin:miter;stroke-miterlimit:4;stroke-dasharray:none;stroke-dashoffset:0;stroke-opacity:1;stop-color:#000000;stop-opacity:1"
         transform="translate(-230.1,-265.81)"
         d="m 240.4991,258.3674 c 0.1171,1.2891 0.522,6.9181 -0.0391,6.9815 -3.1782,0.454 -5.3702,0.9862 -8.0945,3.7104 -2.7242,2.7242 -8.9586,7.3626 -12.4934,0.9959 -1.8162,-3.6323 2.607,-5.3313 4.8772,-5.3313 2.2311,-0.0781 5.7366,-1.8014 9.3689,-2.7096 3.6324,-0.908 5.1066,-3.2416 5.5606,-2.7875 z"
         stroke-linecap="round"
         id="path115908" />
    </g>
    <g
       transform="matrix(2.08,0,0,2.08,210.54,-142.34)"
       id="path863">
      <path
         style="opacity:1;fill:none;fill-rule:evenodd;stroke:#000000;stroke-width:2;stroke-linecap:butt;stroke-linejoin:miter;stroke-miterlimit:4;stroke-dasharray:none;stroke-dashoffset:0"
         transform="translate(-258.74,-268.45)"
         d="m 254.8137,272.274 c 0.4976,-0.2737 2.853,-3.4211 1.6339,-7.2571 -1.7666,-2.6498 7.9993,2.8531 5.9383,5.7974 -2.6084,2.0319 -7.7755,2.0071 -7.5722,1.4597 z"
         stroke-linecap="round"
         id="path115911" />
    </g>
    <g
       transform="matrix(2.08,0,0,2.08,163.51,-165.47)"
       id="path864"
       style="font-variation-settings:normal;opacity:1;fill:#eeeeee;fill-opacity:1;stroke-width:0.480769;stroke-linecap:butt;stroke-linejoin:miter;stroke-miterlimit:4;stroke-dasharray:none;stroke-dashoffset:0;stroke-opacity:1;stop-color:#000000;stop-opacity:1">
      <path
         style="font-variation-settings:normal;opacity:1;fill:#eeeeee;fill-opacity:1;fill-rule:evenodd;stroke:#000000;stroke-width:0.480769;stroke-linecap:butt;stroke-linejoin:miter;stroke-miterlimit:4;stroke-dasharray:none;stroke-dashoffset:0;stroke-opacity:1;stop-color:#000000;stop-opacity:1"
         transform="translate(-236.15,-257.35)"
         d="m 231.5564,259.9836 c -0.0419,-0.6005 -0.1146,-5.9725 -0.0234,-7.1586 1.8247,-0.2737 7.2281,-1.0574 8.4058,0.7092 4.1885,6.3284 -8.0098,9.4812 -8.3043,8.5979 z"
         stroke-linecap="round"
         id="path115914" />
    </g>
    <g
       transform="matrix(2.08,0,0,2.08,168.1,-77.75)"
       id="path862"
       style="font-variation-settings:normal;opacity:1;fill:#eeeeee;fill-opacity:1;stroke-width:0.480769;stroke-linecap:butt;stroke-linejoin:miter;stroke-miterlimit:4;stroke-dasharray:none;stroke-dashoffset:0;stroke-opacity:1;stop-color:#000000;stop-opacity:1">
      <path
         style="font-variation-settings:normal;opacity:1;fill:#eeeeee;fill-opacity:1;fill-rule:evenodd;stroke:#000000;stroke-width:0.480769;stroke-linecap:butt;stroke-linejoin:miter;stroke-miterlimit:4;stroke-dasharray:none;stroke-dashoffset:0;stroke-opacity:1;stop-color:#000000;stop-opacity:1"
         transform="translate(-238.35,-299.48)"
         d="m 221.705,272.6721 7.6551,26.4986 c 0,0 4.3215,18.81 -8.8329,23.8487 -4.122,0.2945 -5.5941,-0.2944 -5.5941,-0.2944 l 1.1777,6.4774 c 5.8391,6.0215 9.6043,4.599 14.6095,2.538 5.0053,-2.061 5.2085,-2.2228 7.8583,-3.695 2.6499,-1.4721 6.3033,-9.7703 6.7097,-12.1297 1.1362,-6.1002 4.9717,-18.0834 16.4881,-43.5381 -2.0778,-0.1824 -15.6255,1.1861 -16.5379,1.1861 -0.4562,0.7298 -2.5868,4.2106 -5.8678,5.5858 -3.6036,1.4721 -8.7943,-2.7715 -3.5331,-6.183 2.5711,-1.6387 11.1024,0.2925 10.9436,-4.1635 -0.2172,-3.8717 -5.9384,-3.4916 -8.2938,-3.1972 -2.3554,0.2944 -5.5941,2.9443 -7.0663,4.4164 -3.2968,3.2969 -7.9496,3.8276 -9.7161,2.6499 z"
         stroke-linecap="round"
         id="path115917" />
    </g>
    <g
       transform="matrix(2.08,0,0,2.08,146.21,34.89)"
       id="path859"
       style="font-variation-settings:normal;opacity:1;fill:#eeeeee;fill-opacity:1;stroke-width:0.480769;stroke-linecap:butt;stroke-linejoin:miter;stroke-miterlimit:4;stroke-dasharray:none;stroke-dashoffset:0;stroke-opacity:1;stop-color:#000000;stop-opacity:1">
      <path
         style="font-variation-settings:normal;opacity:1;fill:#eeeeee;fill-opacity:1;fill-rule:evenodd;stroke:#000000;stroke-width:0.480769;stroke-linecap:butt;stroke-linejoin:miter;stroke-miterlimit:4;stroke-dasharray:none;stroke-dashoffset:0;stroke-opacity:1;stop-color:#000000;stop-opacity:1"
         transform="translate(-227.84,-353.58)"
         d="m 209.9278,335.6799 c 1.7666,2.9442 3.5332,6.4774 4.4165,11.1883 0.8832,4.7108 3.4335,11.3002 10.0105,12.9548 5.2997,1.4722 10.0106,3.8276 11.1883,7.9496 1.1777,4.122 2.0196,9.3803 2.0196,9.2891 l 8.1942,-11.5948 c -0.0913,-1.5509 -0.1535,-5.3287 -0.1535,-9.7451 -0.0912,-6.4237 -4.8518,-7.9911 -9.5626,-9.7577 -4.7109,-1.7665 -9.9899,-3.9602 -11.462,-6.6101 -1.4722,-2.6498 -5.2293,-7.2073 -7.2903,-8.9739 -2.061,-1.7665 -7.3607,5.2998 -7.3607,5.2998 z"
         stroke-linecap="round"
         id="path115920" />
    </g>
    <g
       transform="matrix(2.08,0,0,2.08,157.46,113.7)"
       id="path860"
       style="font-variation-settings:normal;opacity:1;fill:#eeeeee;fill-opacity:1;stroke-width:0.480769;stroke-linecap:butt;stroke-linejoin:miter;stroke-miterlimit:4;stroke-dasharray:none;stroke-dashoffset:0;stroke-opacity:1;stop-color:#000000;stop-opacity:1">
      <path
         style="font-variation-settings:normal;opacity:1;fill:#eeeeee;fill-opacity:1;fill-rule:evenodd;stroke:#000000;stroke-width:0.480769;stroke-linecap:butt;stroke-linejoin:miter;stroke-miterlimit:4;stroke-dasharray:none;stroke-dashoffset:0;stroke-opacity:1;stop-color:#000000;stop-opacity:1"
         transform="translate(-233.24,-391.43)"
         d="m 218.5882,390.3364 c 4.5512,8.1837 5.5931,18.6918 7.4648,26.5211 3.2475,-6.1683 8.3033,-10.5656 13.6328,-14.0273 0.3123,-6.1417 1.8678,-14.6201 3.6343,-17.27 8.5328,-12.435 2.5279,-19.5543 2.5279,-19.5543 -8.5265,10.0136 -8.8207,17.1778 -27.2451,24.3156 z"
         stroke-linecap="round"
         id="path115923" />
    </g>
    <g
       transform="matrix(2.08,0,0,2.08,125.7,161.95)"
       id="path866"
       style="font-variation-settings:normal;opacity:1;fill:#eeeeee;fill-opacity:1;stroke-width:0.480769;stroke-linecap:butt;stroke-linejoin:miter;stroke-miterlimit:4;stroke-dasharray:none;stroke-dashoffset:0;stroke-opacity:1;stop-color:#000000;stop-opacity:1">
      <path
         style="font-variation-settings:normal;opacity:1;fill:#eeeeee;fill-opacity:1;fill-rule:evenodd;stroke:#000000;stroke-width:0.480769;stroke-linecap:butt;stroke-linejoin:miter;stroke-miterlimit:4;stroke-dasharray:none;stroke-dashoffset:0;stroke-opacity:1;stop-color:#000000;stop-opacity:1"
         transform="translate(-217.99,-414.61)"
         d="m 210.4789,415.6306 c -0.2344,2.0311 2.4835,9.0927 7.0839,9.408 4.5194,0.3097 7.1267,-3.1668 7.953,-7.2306 l -2.2645,-13.6473 z"
         stroke-linecap="round"
         id="path115926" />
    </g>
    <g
       transform="matrix(2.08,0,0,2.08,112.06,-17.08)"
       id="path912"
       style="font-variation-settings:normal;opacity:1;fill:#eeeeee;fill-opacity:1;stroke-width:0.480769;stroke-linecap:butt;stroke-linejoin:miter;stroke-miterlimit:4;stroke-dasharray:none;stroke-dashoffset:0;stroke-opacity:1;stop-color:#000000;stop-opacity:1">
      <path
         style="font-variation-settings:normal;opacity:1;fill:#eeeeee;fill-opacity:1;fill-rule:evenodd;stroke:#000000;stroke-width:0.480769;stroke-linecap:butt;stroke-linejoin:miter;stroke-miterlimit:4;stroke-dasharray:none;stroke-dashoffset:0;stroke-opacity:1;stop-color:#000000;stop-opacity:1"
         transform="translate(-211.44,-328.62)"
         d="m 210.4471,325.1111 c -0.9081,-2.4972 0.454,-2.4973 2.9513,-1.3622 4.0863,2.4973 1.135,8.8538 -3.4053,10.2159 -2.4973,1.1351 -3.8594,-1.8161 -0.227,-3.1782 3.4053,-0.9081 0.681,-5.9025 0.681,-5.6755 h 0.227 z"
         stroke-linecap="round"
         id="path115929" />
    </g>
    <g
       transform="matrix(2.08,0,0,2.08,171.91,66.33)"
       id="path955"
       style="font-variation-settings:normal;opacity:1;fill:#eeeeee;fill-opacity:1;stroke-width:0.480769;stroke-linecap:butt;stroke-linejoin:miter;stroke-miterlimit:4;stroke-dasharray:none;stroke-dashoffset:0;stroke-opacity:1;stop-color:#000000;stop-opacity:1">
      <path
         style="font-variation-settings:normal;opacity:1;fill:#eeeeee;fill-opacity:1;fill-rule:evenodd;stroke:#000000;stroke-width:0.480769;stroke-linecap:butt;stroke-linejoin:miter;stroke-miterlimit:4;stroke-dasharray:none;stroke-dashoffset:0;stroke-opacity:1;stop-color:#000000;stop-opacity:1"
         transform="translate(-240.19,-368.68)"
         d="m 239.9597,363.9593 c 0,0.1027 0,0.2054 0,0.3081 0,-0.8313 -0.0149,-0.4087 0.227,1.2315 0,1.666 0.1247,3.0652 0.227,4.6187 0,1.2868 -0.1525,2.2085 -0.227,3.3871"
         stroke-linecap="round"
         id="path115932" />
    </g>
    <g
       transform="matrix(2.08,0,0,2.08,167.42,69.6)"
       id="path956"
       style="font-variation-settings:normal;opacity:1;fill:#eeeeee;fill-opacity:1;stroke-width:0.480769;stroke-linecap:butt;stroke-linejoin:miter;stroke-miterlimit:4;stroke-dasharray:none;stroke-dashoffset:0;stroke-opacity:1;stop-color:#000000;stop-opacity:1">
      <path
         style="font-variation-settings:normal;opacity:1;fill:#eeeeee;fill-opacity:1;fill-rule:evenodd;stroke:#000000;stroke-width:0.480769;stroke-linecap:butt;stroke-linejoin:miter;stroke-miterlimit:4;stroke-dasharray:none;stroke-dashoffset:0;stroke-opacity:1;stop-color:#000000;stop-opacity:1"
         transform="translate(-238.03,-370.25)"
         d="m 237.6895,365.4969 c 0,0.1874 0,0.3748 0,0.5622 0,-1.04 -0.0298,-0.7463 0.227,0.8434 0.0914,1.5842 0.409,2.4118 0.454,3.9358 0,1.5465 -0.1846,2.7472 -0.227,4.217"
         stroke-linecap="round"
         id="path115935" />
    </g>
    <g
       transform="matrix(2.08,0,0,2.08,164.58,135.85)"
       id="path957"
       style="font-variation-settings:normal;opacity:1;fill:#eeeeee;fill-opacity:1;stroke-width:0.480769;stroke-linecap:butt;stroke-linejoin:miter;stroke-miterlimit:4;stroke-dasharray:none;stroke-dashoffset:0;stroke-opacity:1;stop-color:#000000;stop-opacity:1">
      <path
         style="font-variation-settings:normal;opacity:1;fill:#eeeeee;fill-opacity:1;fill-rule:evenodd;stroke:#000000;stroke-width:0.480769;stroke-linecap:butt;stroke-linejoin:miter;stroke-miterlimit:4;stroke-dasharray:none;stroke-dashoffset:0;stroke-opacity:1;stop-color:#000000;stop-opacity:1"
         transform="translate(-236.67,-402.07)"
         d="m 236.5544,399.3465 c 0.0756,0 0.1513,0 0.227,0 -0.0605,0.2135 0,1.4304 0,2.2434 0,1.2236 -0.0231,2.4183 -0.227,3.205"
         stroke-linecap="round"
         id="path115938" />
    </g>
    <g
       transform="matrix(2.08,0,0,2.08,159.4,138.21)"
       id="path958"
       style="font-variation-settings:normal;opacity:1;fill:#eeeeee;fill-opacity:1;stroke-width:0.480769;stroke-linecap:butt;stroke-linejoin:miter;stroke-miterlimit:4;stroke-dasharray:none;stroke-dashoffset:0;stroke-opacity:1;stop-color:#000000;stop-opacity:1">
      <path
         style="font-variation-settings:normal;opacity:1;fill:#eeeeee;fill-opacity:1;fill-rule:evenodd;stroke:#000000;stroke-width:0.480769;stroke-linecap:butt;stroke-linejoin:miter;stroke-miterlimit:4;stroke-dasharray:none;stroke-dashoffset:0;stroke-opacity:1;stop-color:#000000;stop-opacity:1"
         transform="translate(-234.18,-403.21)"
         d="m 234.0571,400.4816 c 0,0.1513 0,0.3027 0,0.454 v -0.454 c 0,0.1513 0,0.3027 0,0.454 v -0.454 c 0.0491,1.6775 0.2271,2.6056 0.2271,4.3134 0,0.522 0.0982,0.9182 -0.2271,1.1351"
         stroke-linecap="round"
         id="path115941" />
    </g>
    <g
       transform="matrix(2.08,0,0,2.08,154.89,142.46)"
       id="path960"
       style="font-variation-settings:normal;opacity:1;fill:#eeeeee;fill-opacity:1;stroke-width:0.480769;stroke-linecap:butt;stroke-linejoin:miter;stroke-miterlimit:4;stroke-dasharray:none;stroke-dashoffset:0;stroke-opacity:1;stop-color:#000000;stop-opacity:1">
      <path
         style="font-variation-settings:normal;opacity:1;fill:#eeeeee;fill-opacity:1;fill-rule:evenodd;stroke:#000000;stroke-width:0.480769;stroke-linecap:butt;stroke-linejoin:miter;stroke-miterlimit:4;stroke-dasharray:none;stroke-dashoffset:0;stroke-opacity:1;stop-color:#000000;stop-opacity:1"
         transform="translate(-232.01,-405.25)"
         d="m 231.787,401.8437 c 0.0923,1.8282 0.3981,3.0248 0.454,4.9036 0,0.9436 -0.1894,1.0488 -0.227,1.907"
         stroke-linecap="round"
         id="path115944" />
    </g>
    <g
       transform="matrix(2.08,0,0,2.08,149.22,147.11)"
       id="path961"
       style="font-variation-settings:normal;opacity:1;fill:#eeeeee;fill-opacity:1;stroke-width:0.480769;stroke-linecap:butt;stroke-linejoin:miter;stroke-miterlimit:4;stroke-dasharray:none;stroke-dashoffset:0;stroke-opacity:1;stop-color:#000000;stop-opacity:1">
      <path
         style="font-variation-settings:normal;opacity:1;fill:#eeeeee;fill-opacity:1;fill-rule:evenodd;stroke:#000000;stroke-width:0.480769;stroke-linecap:butt;stroke-linejoin:miter;stroke-miterlimit:4;stroke-dasharray:none;stroke-dashoffset:0;stroke-opacity:1;stop-color:#000000;stop-opacity:1"
         transform="translate(-229.29,-407.48)"
         d="m 229.0627,403.2265 c 0,0.0956 0,0.1913 0,0.2868 0,-0.7744 -0.0148,-0.3803 0.227,1.1475 0.0414,1.4096 0.2271,2.1692 0.2271,3.7294 -0.0424,1.4986 -0.3738,2.1231 -0.4541,3.4423"
         stroke-linecap="round"
         id="path115947" />
    </g>
    <g
       transform="matrix(2.08,0,0,2.08,144.26,150.26)"
       id="path963"
       style="font-variation-settings:normal;opacity:1;fill:#eeeeee;fill-opacity:1;stroke-width:0.480769;stroke-linecap:butt;stroke-linejoin:miter;stroke-miterlimit:4;stroke-dasharray:none;stroke-dashoffset:0;stroke-opacity:1;stop-color:#000000;stop-opacity:1">
      <path
         style="font-variation-settings:normal;opacity:1;fill:#eeeeee;fill-opacity:1;fill-rule:evenodd;stroke:#000000;stroke-width:0.480769;stroke-linecap:butt;stroke-linejoin:miter;stroke-miterlimit:4;stroke-dasharray:none;stroke-dashoffset:0;stroke-opacity:1;stop-color:#000000;stop-opacity:1"
         transform="translate(-226.91,-408.99)"
         d="m 227.0195,404.1139 c 0,0.4056 0.1229,1.9795 0.2271,2.9512 0,1.0595 0,2.1189 0,3.1783 -0.126,1.0579 -0.3569,2.1949 -0.6811,2.9513 0,0.227 0,0.454 0,0.681"
         stroke-linecap="round"
         id="path115950" />
    </g>
    <g
       transform="matrix(2.08,0,0,2.08,176.12,62.92)"
       id="path977"
       style="font-variation-settings:normal;opacity:1;fill:#eeeeee;fill-opacity:1;stroke-width:0.480769;stroke-linecap:butt;stroke-linejoin:miter;stroke-miterlimit:4;stroke-dasharray:none;stroke-dashoffset:0;stroke-opacity:1;stop-color:#000000;stop-opacity:1">
      <path
         style="font-variation-settings:normal;opacity:1;fill:#eeeeee;fill-opacity:1;fill-rule:evenodd;stroke:#000000;stroke-width:0.480769;stroke-linecap:butt;stroke-linejoin:miter;stroke-miterlimit:4;stroke-dasharray:none;stroke-dashoffset:0;stroke-opacity:1;stop-color:#000000;stop-opacity:1"
         transform="translate(-242.21,-367.04)"
         d="m 242.2298,364.4592 c 0.0577,0.4264 0.3941,2.0547 0,3.1013 0,0.9252 -0.1056,1.3997 -0.227,2.0676"
         stroke-linecap="round"
         id="path115953" />
    </g>
    <g
       transform="matrix(2.08,0,0,2.08,138.66,-28.5)"
       id="path978"
       style="font-variation-settings:normal;opacity:1;fill:#eeeeee;fill-opacity:1;stroke-width:0.480769;stroke-linecap:butt;stroke-linejoin:miter;stroke-miterlimit:4;stroke-dasharray:none;stroke-dashoffset:0;stroke-opacity:1;stop-color:#000000;stop-opacity:1">
      <path
         style="font-variation-settings:normal;opacity:1;fill:#eeeeee;fill-opacity:1;fill-rule:evenodd;stroke:#000000;stroke-width:0.480769;stroke-linecap:butt;stroke-linejoin:miter;stroke-miterlimit:4;stroke-dasharray:none;stroke-dashoffset:0;stroke-opacity:1;stop-color:#000000;stop-opacity:1"
         transform="translate(-224.22,-323.13)"
         d="m 216.0156,325.2041 c 3.0469,0.625 10.4688,0 13.4375,-2.1875 2.9688,-2.1875 2.9688,-2.1875 2.9688,-2.1875"
         stroke-linecap="round"
         id="path115956" />
    </g>
    <g
       transform="matrix(2.08,0,0,2.08,139.19,-21.81)"
       id="path979"
       style="font-variation-settings:normal;opacity:1;fill:#eeeeee;fill-opacity:1;stroke-width:0.480769;stroke-linecap:butt;stroke-linejoin:miter;stroke-miterlimit:4;stroke-dasharray:none;stroke-dashoffset:0;stroke-opacity:1;stop-color:#000000;stop-opacity:1">
      <path
         style="font-variation-settings:normal;opacity:1;fill:#eeeeee;fill-opacity:1;fill-rule:evenodd;stroke:#000000;stroke-width:0.480769;stroke-linecap:butt;stroke-linejoin:miter;stroke-miterlimit:4;stroke-dasharray:none;stroke-dashoffset:0;stroke-opacity:1;stop-color:#000000;stop-opacity:1"
         transform="translate(-224.47,-326.35)"
         d="m 216.0259,326.6981 c 2.9103,1.0973 10.338,1.6496 13.6143,-0.0428 3.2764,-1.6924 3.2764,-1.6924 3.2764,-1.6924"
         stroke-linecap="round"
         id="path115959" />
    </g>
    <g
       transform="matrix(2.08,0,0,2.08,124.84,-4.67)"
       id="path980"
       style="font-variation-settings:normal;opacity:1;fill:#eeeeee;fill-opacity:1;stroke-width:0.480769;stroke-linecap:butt;stroke-linejoin:miter;stroke-miterlimit:4;stroke-dasharray:none;stroke-dashoffset:0;stroke-opacity:1;stop-color:#000000;stop-opacity:1">
      <path
         style="font-variation-settings:normal;opacity:1;fill:#eeeeee;fill-opacity:1;fill-rule:evenodd;stroke:#000000;stroke-width:0.480769;stroke-linecap:butt;stroke-linejoin:miter;stroke-miterlimit:4;stroke-dasharray:none;stroke-dashoffset:0;stroke-opacity:1;stop-color:#000000;stop-opacity:1"
         transform="translate(-217.58,-334.58)"
         d="m 215.7813,330.673 c 1.5625,1.875 2.6563,2.8125 3.125,5.3125 0.4688,2.5 0.4688,2.5 0.4688,2.5"
         stroke-linecap="round"
         id="path115962" />
    </g>
    <g
       transform="matrix(2.08,0,0,2.08,121.75,-1.58)"
       id="path981"
       style="font-variation-settings:normal;opacity:1;fill:#eeeeee;fill-opacity:1;stroke-width:0.480769;stroke-linecap:butt;stroke-linejoin:miter;stroke-miterlimit:4;stroke-dasharray:none;stroke-dashoffset:0;stroke-opacity:1;stop-color:#000000;stop-opacity:1">
      <path
         style="font-variation-settings:normal;opacity:1;fill:#eeeeee;fill-opacity:1;fill-rule:evenodd;stroke:#000000;stroke-width:0.480769;stroke-linecap:butt;stroke-linejoin:miter;stroke-miterlimit:4;stroke-dasharray:none;stroke-dashoffset:0;stroke-opacity:1;stop-color:#000000;stop-opacity:1"
         transform="translate(-216.09,-336.06)"
         d="m 213.9063,331.6105 c 1.875,2.6563 3.125,3.5938 3.75,6.25 0.625,2.6563 0.625,2.6563 0.625,2.6563"
         stroke-linecap="round"
         id="path115965" />
    </g>
    <g
       transform="matrix(2.08,0,0,2.08,122.89,10.13)"
       id="path982"
       style="font-variation-settings:normal;opacity:1;fill:#eeeeee;fill-opacity:1;stroke-width:0.480769;stroke-linecap:butt;stroke-linejoin:miter;stroke-miterlimit:4;stroke-dasharray:none;stroke-dashoffset:0;stroke-opacity:1;stop-color:#000000;stop-opacity:1">
      <path
         style="font-variation-settings:normal;opacity:1;fill:#eeeeee;fill-opacity:1;fill-rule:evenodd;stroke:#000000;stroke-width:0.480769;stroke-linecap:butt;stroke-linejoin:miter;stroke-miterlimit:4;stroke-dasharray:none;stroke-dashoffset:0;stroke-opacity:1;stop-color:#000000;stop-opacity:1"
         transform="translate(-216.64,-341.69)"
         d="m 212.3438,333.3293 c 0.7813,4.0625 3.9063,11.7187 6.25,14.2187 2.3438,2.5 2.3438,2.5 2.3438,2.5"
         stroke-linecap="round"
         id="path115968" />
    </g>
    <g
       transform="matrix(2.08,0,0,2.08,132.01,167.23)"
       id="path983"
       style="font-variation-settings:normal;opacity:1;fill:#eeeeee;fill-opacity:1;stroke-width:0.480769;stroke-linecap:butt;stroke-linejoin:miter;stroke-miterlimit:4;stroke-dasharray:none;stroke-dashoffset:0;stroke-opacity:1;stop-color:#000000;stop-opacity:1">
      <path
         style="font-variation-settings:normal;opacity:1;fill:#eeeeee;fill-opacity:1;fill-rule:evenodd;stroke:#000000;stroke-width:0.480769;stroke-linecap:butt;stroke-linejoin:miter;stroke-miterlimit:4;stroke-dasharray:none;stroke-dashoffset:0;stroke-opacity:1;stop-color:#000000;stop-opacity:1"
         transform="translate(-221.02,-417.15)"
         d="m 224.0598,419.6288 c -1.5767,-0.204 -4.6437,-2.7505 -5.332,-3.6652 -0.6883,-0.915 -0.7388,-1.3003 -0.7388,-1.3003"
         stroke-linecap="round"
         id="path115971" />
    </g>
    <g
       transform="matrix(2.08,0,0,2.08,129.13,171.15)"
       id="path984"
       style="font-variation-settings:normal;opacity:1;fill:#eeeeee;fill-opacity:1;stroke-width:0.480769;stroke-linecap:butt;stroke-linejoin:miter;stroke-miterlimit:4;stroke-dasharray:none;stroke-dashoffset:0;stroke-opacity:1;stop-color:#000000;stop-opacity:1">
      <path
         style="font-variation-settings:normal;opacity:1;fill:#eeeeee;fill-opacity:1;fill-rule:evenodd;stroke:#000000;stroke-width:0.480769;stroke-linecap:butt;stroke-linejoin:miter;stroke-miterlimit:4;stroke-dasharray:none;stroke-dashoffset:0;stroke-opacity:1;stop-color:#000000;stop-opacity:1"
         transform="translate(-219.64,-419.03)"
         d="m 222.9696,421.6972 c -1.7047,-0.4129 -5.0234,-3.2051 -5.7686,-4.1493 -0.7455,-0.9445 -0.8959,-1.1908 -0.8959,-1.1908"
         stroke-linecap="round"
         id="path115974" />
    </g>
    <g
       transform="matrix(2.08,0,0,2.08,126.55,175.41)"
       id="path985"
       style="font-variation-settings:normal;opacity:1;fill:#eeeeee;fill-opacity:1;stroke-width:0.480769;stroke-linecap:butt;stroke-linejoin:miter;stroke-miterlimit:4;stroke-dasharray:none;stroke-dashoffset:0;stroke-opacity:1;stop-color:#000000;stop-opacity:1">
      <path
         style="font-variation-settings:normal;opacity:1;fill:#eeeeee;fill-opacity:1;fill-rule:evenodd;stroke:#000000;stroke-width:0.480769;stroke-linecap:butt;stroke-linejoin:miter;stroke-miterlimit:4;stroke-dasharray:none;stroke-dashoffset:0;stroke-opacity:1;stop-color:#000000;stop-opacity:1"
         transform="translate(-218.4,-421.07)"
         d="m 222.034,423.6018 c -1.8001,-0.1981 -5.5241,-3.0168 -6.3953,-4.0379 -0.8713,-1.0214 -0.8713,-1.0214 -0.8713,-1.0214"
         stroke-linecap="round"
         id="path115977" />
    </g>
    <g
       transform="matrix(2.08,0,0,2.08,181.57,-103.29)"
       id="path986"
       style="font-variation-settings:normal;opacity:1;fill:#eeeeee;fill-opacity:1;stroke-width:0.480769;stroke-linecap:butt;stroke-linejoin:miter;stroke-miterlimit:4;stroke-dasharray:none;stroke-dashoffset:0;stroke-opacity:1;stop-color:#000000;stop-opacity:1">
      <path
         style="font-variation-settings:normal;opacity:1;fill:#eeeeee;fill-opacity:1;fill-rule:evenodd;stroke:#000000;stroke-width:0.480769;stroke-linecap:butt;stroke-linejoin:miter;stroke-miterlimit:4;stroke-dasharray:none;stroke-dashoffset:0;stroke-opacity:1;stop-color:#000000;stop-opacity:1"
         transform="translate(-244.83,-287.21)"
         d="m 244.3976,282.0383 c -0.2298,1.8959 -0.3447,5.6302 0.3447,7.9857 0.6894,2.3555 0.6894,2.3555 0.6894,2.3555"
         stroke-linecap="round"
         id="path115980" />
    </g>
    <g
       transform="matrix(2.08,0,0,2.08,187.43,-123.15)"
       id="path987"
       style="font-variation-settings:normal;opacity:1;fill:#eeeeee;fill-opacity:1;stroke-width:0.480769;stroke-linecap:butt;stroke-linejoin:miter;stroke-miterlimit:4;stroke-dasharray:none;stroke-dashoffset:0;stroke-opacity:1;stop-color:#000000;stop-opacity:1">
      <path
         style="font-variation-settings:normal;opacity:1;fill:#eeeeee;fill-opacity:1;fill-rule:evenodd;stroke:#000000;stroke-width:0.480769;stroke-linecap:butt;stroke-linejoin:miter;stroke-miterlimit:4;stroke-dasharray:none;stroke-dashoffset:0;stroke-opacity:1;stop-color:#000000;stop-opacity:1"
         transform="translate(-247.64,-277.67)"
         d="m 249.9129,276.0634 c -1.3213,0.4596 -3.2747,1.4937 -3.9066,2.3555 -0.632,0.8618 -0.632,0.8618 -0.632,0.8618"
         stroke-linecap="round"
         id="path115983" />
    </g>
    <g
       transform="matrix(2.08,0,0,2.08,161.02,-96.86)"
       id="path988"
       style="font-variation-settings:normal;opacity:1;fill:#eeeeee;fill-opacity:1;stroke-width:0.480769;stroke-linecap:butt;stroke-linejoin:miter;stroke-miterlimit:4;stroke-dasharray:none;stroke-dashoffset:0;stroke-opacity:1;stop-color:#000000;stop-opacity:1">
      <path
         style="font-variation-settings:normal;opacity:1;fill:#eeeeee;fill-opacity:1;fill-rule:evenodd;stroke:#000000;stroke-width:0.480769;stroke-linecap:butt;stroke-linejoin:miter;stroke-miterlimit:4;stroke-dasharray:none;stroke-dashoffset:0;stroke-opacity:1;stop-color:#000000;stop-opacity:1"
         transform="translate(-234.96,-290.3)"
         d="m 233.9676,277.7643 c 2.8461,5.0023 1.9629,21.3469 1.3741,23.2082 -0.5889,1.8613 -0.5889,1.8613 -0.5889,1.8613"
         stroke-linecap="round"
         id="path115986" />
    </g>
    <g
       transform="matrix(2.08,0,0,2.08,135.7,-140.57)"
       id="path989"
       style="font-variation-settings:normal;opacity:1;fill:#eeeeee;fill-opacity:1;stroke-width:0.480769;stroke-linecap:butt;stroke-linejoin:miter;stroke-miterlimit:4;stroke-dasharray:none;stroke-dashoffset:0;stroke-opacity:1;stop-color:#000000;stop-opacity:1">
      <path
         style="font-variation-settings:normal;opacity:1;fill:#eeeeee;fill-opacity:1;fill-rule:evenodd;stroke:#000000;stroke-width:0.480769;stroke-linecap:butt;stroke-linejoin:miter;stroke-miterlimit:4;stroke-dasharray:none;stroke-dashoffset:0;stroke-opacity:1;stop-color:#000000;stop-opacity:1"
         transform="translate(-222.79,-269.31)"
         d="m 224.6875,267.6261 c -1.1719,0.3906 -3.5938,2.3047 -3.7891,3.3593"
         stroke-linecap="round"
         id="path115989" />
    </g>
    <g
       transform="matrix(2.08,0,0,2.08,139.6,-137.72)"
       id="path990"
       style="font-variation-settings:normal;opacity:1;fill:#eeeeee;fill-opacity:1;stroke-width:0.480769;stroke-linecap:butt;stroke-linejoin:miter;stroke-miterlimit:4;stroke-dasharray:none;stroke-dashoffset:0;stroke-opacity:1;stop-color:#000000;stop-opacity:1">
      <path
         style="font-variation-settings:normal;opacity:1;fill:#eeeeee;fill-opacity:1;fill-rule:evenodd;stroke:#000000;stroke-width:0.480769;stroke-linecap:butt;stroke-linejoin:miter;stroke-miterlimit:4;stroke-dasharray:none;stroke-dashoffset:0;stroke-opacity:1;stop-color:#000000;stop-opacity:1"
         transform="translate(-224.67,-270.67)"
         d="m 226.5625,268.9933 c -1.1719,0.3906 -3.5938,2.3047 -3.7891,3.3593"
         stroke-linecap="round"
         id="path115992" />
    </g>
    <g
       transform="matrix(2.08,0,0,2.08,-106.35,-26.1)"
       id="path1049"
       style="font-variation-settings:normal;opacity:1;fill:#eeeeee;fill-opacity:1;stroke-width:0.480769;stroke-linecap:butt;stroke-linejoin:miter;stroke-miterlimit:4;stroke-dasharray:none;stroke-dashoffset:0;stroke-opacity:1;stop-color:#000000;stop-opacity:1">
      <path
         style="font-variation-settings:normal;opacity:1;fill:#eeeeee;fill-opacity:1;fill-rule:evenodd;stroke:#feffff;stroke-width:0.480769;stroke-linecap:butt;stroke-linejoin:miter;stroke-miterlimit:4;stroke-dasharray:none;stroke-dashoffset:0;stroke-opacity:1;stop-color:#000000;stop-opacity:1"
         transform="translate(-129.04,-95.53)"
         d="m 129.6719,92.30886 c -2.3207,-0.12456 -2.509,6.60465 0.4816,6.44885"
         stroke-linecap="round"
         id="path115995" />
    </g>
    <g
       transform="matrix(2.08,0,0,2.08,-102.69,-26.1)"
       id="path1051"
       style="font-variation-settings:normal;opacity:1;fill:#eeeeee;fill-opacity:1;stroke-width:0.480769;stroke-linecap:butt;stroke-linejoin:miter;stroke-miterlimit:4;stroke-dasharray:none;stroke-dashoffset:0;stroke-opacity:1;stop-color:#000000;stop-opacity:1">
      <path
         style="font-variation-settings:normal;opacity:1;fill:#eeeeee;fill-opacity:1;fill-rule:evenodd;stroke:#feffff;stroke-width:0.480769;stroke-linecap:butt;stroke-linejoin:miter;stroke-miterlimit:4;stroke-dasharray:none;stroke-dashoffset:0;stroke-opacity:1;stop-color:#000000;stop-opacity:1"
         transform="translate(-130.79,-95.53)"
         d="m 130.1588,92.30883 c 2.3207,-0.12456 2.509,6.60465 -0.4816,6.44885"
         stroke-linecap="round"
         id="path115998" />
    </g>
    <g
       transform="matrix(2.08,0,0,2.08,-104.42,-26.67)"
       id="path1052"
       style="font-variation-settings:normal;opacity:1;fill:#eeeeee;fill-opacity:1;stroke-width:0.480769;stroke-linecap:butt;stroke-linejoin:miter;stroke-miterlimit:4;stroke-dasharray:none;stroke-dashoffset:0;stroke-opacity:1;stop-color:#000000;stop-opacity:1">
      <path
         style="font-variation-settings:normal;opacity:1;fill:#eeeeee;fill-opacity:1;fill-rule:evenodd;stroke:#feffff;stroke-width:0.480769;stroke-linecap:butt;stroke-linejoin:miter;stroke-miterlimit:4;stroke-dasharray:none;stroke-dashoffset:0;stroke-opacity:1;stop-color:#000000;stop-opacity:1"
         transform="translate(-129.96,-95.26)"
         d="m 130.0008,92.44317 -0.0797,5.63921 v 0"
         stroke-linecap="round"
         id="path116001" />
    </g>
  </g>
</svg>
