<?xml version="1.0" encoding="UTF-8" standalone="no"?>
<svg
   viewBox="0 0 36 36"
   version="1.1"
   id="svg61456"
   sodipodi:docname="daufinat.svg"
   inkscape:version="1.2.1 (9c6d41e410, 2022-07-14)"
   inkscape:export-filename="daufinat.png"
   inkscape:export-xdpi="96"
   inkscape:export-ydpi="96"
   xmlns:inkscape="http://www.inkscape.org/namespaces/inkscape"
   xmlns:sodipodi="http://sodipodi.sourceforge.net/DTD/sodipodi-0.dtd"
   xmlns="http://www.w3.org/2000/svg"
   xmlns:svg="http://www.w3.org/2000/svg">
  <defs
     id="defs61460" />
  <sodipodi:namedview
     id="namedview61458"
     pagecolor="#ffffff"
     bordercolor="#000000"
     borderopacity="0.25"
     inkscape:showpageshadow="2"
     inkscape:pageopacity="0.0"
     inkscape:pagecheckerboard="0"
     inkscape:deskcolor="#d1d1d1"
     showgrid="false"
     inkscape:zoom="23.25"
     inkscape:cx="17.956989"
     inkscape:cy="17.978495"
     inkscape:window-width="1536"
     inkscape:window-height="1039"
     inkscape:window-x="252"
     inkscape:window-y="0"
     inkscape:window-maximized="0"
     inkscape:current-layer="svg61456" />
  <path
     id="path61452"
     style="font-variation-settings:normal;opacity:1;vector-effect:none;fill:#ffd42a;fill-opacity:1;stroke-width:3.03051213;stroke-linecap:butt;stroke-linejoin:miter;stroke-miterlimit:4;stroke-dasharray:none;stroke-dashoffset:0;stroke-opacity:1;-inkscape-stroke:none;stop-color:#000000;stop-opacity:1;stroke:none;marker:none;marker-start:none;marker-mid:none;marker-end:none"
     d="M 4 5 C 1.7910022 5 0 6.7910022 0 9 L 0 18 L 0 27 C 0 29.208998 1.7910022 31 4 31 L 32 31 C 34.208998 31 36 29.208998 36 27 L 36 18 L 36 9 C 36 6.7910022 34.208998 5 32 5 L 4 5 z " />
  <g
     stroke="#000000"
     stroke-linecap="round"
     stroke-linejoin="round"
     stroke-width="1.47767"
     transform="matrix(0.08393608,0,0,0.08379958,10.025992,6.4781217)"
     id="g69822">
    <g
       stroke-width="1.47767"
       id="g69812">
      <path
         d="m 172.23749,124.44994 c -1.75129,-2.74527 -4.06329,-5.14529 -4.9646,-8.37247 -0.5985,-1.52895 -1.23857,-4.45783 -1.23522,-1.22981 -0.95395,9.68216 -3.93028,19.23581 -6.95264,28.51607 -1.04691,3.21457 -2.21088,6.2443 -3.28046,9.17391 3.19419,-0.93394 6.97837,-3.97069 9.40091,0.004 2.1474,1.99863 4.44466,4.34323 5.31492,6.82418 2.15807,-1.96506 2.1793,-5.56823 2.59425,-8.36285 -0.33498,-3.14803 1.05629,-5.9529 4.26156,-6.78581 3.07036,-2.49935 6.84632,0.27543 10.25882,0.52761 3.14164,0.23217 0.0195,-2.02956 -0.73013,-2.63706 -5.98758,-4.85262 -11.30225,-10.67453 -14.66741,-17.65795 z m -12.01962,123.25075 c -27.33433,-15.59749 -12.58641,-56.02003 -13.0664,-81.03655 -3.65451,5.73887 -8.71707,10.32585 -13.19293,15.41811 -1.98297,2.25607 -35.300705,30.41589 -27.0844,29.10682 15.34504,-5.21273 15.83235,8.72808 20.55696,9.90728 20.41683,-4.53718 11.03454,17.16736 28.0287,28.25573 0.89851,1.22562 10.26208,1.4893 4.75807,-1.65139 z"
         fill="#e20909"
         id="path69800" />
      <path
         d="m 17.109718,62.141803 c 11.886813,-0.56363 23.603172,2.020476 35.154305,4.481769 11.965243,8.193052 28.44921,7.385154 38.549791,19.09959 12.919216,14.983428 21.905746,34.454138 19.153586,54.407748 -1.44433,10.47165 -4.4052,20.68363 -7.42531,30.75047 -3.544132,11.81359 -34.469348,28.82034 -28.519144,29.85964 25.275294,-2.36342 50.064324,-25.38456 26.043904,11.30167 -2.448889,4.26031 -5.98743,10.22555 -0.213882,3.79858 15.682812,-15.16194 33.978132,-28.20287 46.481652,-46.18635 11.54494,-16.60479 18.84064,-36.34679 19.79672,-56.73416 0.9674,-20.628759 -8.93048,-38.179794 -21.47721,-53.371575 C 126.29054,37.31427 75.46209,3.7913588 44.672933,12.743846 c -7.803728,2.269073 -16.149647,8.507468 -13.4941,18.043555 3.335074,11.97627 -16.680439,7.546361 -24.069567,5.85796 -2.1444785,10.879249 14.671153,12.797353 22.645283,13.067645 6.808183,0.23077 21.641382,4.937747 20.868588,8.98696 -10.160104,-0.267992 -20.979435,-3.721947 -30.777925,-1.053212 -1.21518,1.293632 -2.059566,2.879399 -2.735494,4.495049 z"
         fill="#2b5df2"
         id="path69802" />
      <path
         d="m 110.14832,267.85945 c -32.960368,1.08385 -24.084097,-36.89 -9.81878,-50.12401 7.18815,-6.66848 18.55604,-41.58369 8.92248,-33.25359 -45.758833,39.5675 -68.242248,-17.97141 -103.5189033,-22.4904 -14.3766961,5.92007 8.3916693,2.08656 10.2473173,10.23747 9.662859,8.57595 -6.6885936,23.64995 8.776394,26.97071 4.095183,20.86871 46.588317,15.24768 47.900708,16.59334 -8.491223,7.4692 -19.818675,8.47065 -30.434926,10.34339 -13.326783,4.85933 11.499893,3.65869 15.163085,9.66324 7.306516,4.3725 7.571922,19.98519 18.665235,12.22491 8.415408,7.31047 10.923695,20.93144 22.767633,24.47072 3.651477,4.66799 22.715657,-2.97059 11.329757,-4.63578 z"
         fill="#e20909"
         id="path69804" />
      <path
         d="m 92.092146,181.12868 c 1.747205,6.37406 6.758344,-0.99579 8.960234,-3.35861 7.34207,-5.36141 13.85592,-35.12308 9.14846,-52.08865 -7.22526,30.65115 -8.43078,32.5656 -34.481898,45.61234 18.32851,1.34524 7.226308,2.53741 16.373204,9.83492 z M 84.433815,79.059269 C 76.811123,72.753592 65.406758,73.301162 56.31309,68.961696 65.696216,79.379112 73.457833,83.176341 67.977162,98.489889 79.531433,99.77637 73.403246,82.93063 77.404523,80.946121 84.818958,89.57152 85.561531,100.60928 81.970807,110.99606 97.960019,107.10222 93.69067,86.716775 84.433815,79.059269 Z M 75.264855,7.1315965 c 4.401164,0.030949 8.547378,-4.8571322 10.896506,-5.6941182 1.69722,3.6824244 -9.376235,8.6969057 -1.343554,9.2784677 10.05322,0.727848 20.605063,-2.4305532 27.691973,-9.71604242 9.42977,4.35222222 -15.708618,12.27769942 -7.4251,15.46515742 13.094,5.038509 26.51762,8.589222 37.85961,-2.123884 5.11456,9.709454 -16.5539,13.262122 -21.98752,14.797032 14.93826,12.999683 31.19622,39.809371 53.31341,25.20368 -6.94689,15.981673 -30.70685,7.830058 -40.37668,-1.013313 -3.85174,-3.522534 -4.1871,1.073496 -1.63416,3.844698 4.47187,4.854216 -4.61077,1.091637 -5.13904,-1.829972 -1.65309,-9.142688 -12.20666,2.639564 -9.16331,-2.992656 C 124.12824,40.929715 103.20587,30.410752 108.81355,38.735118 114.44511,47.094939 94.445216,59.376937 90.880322,53.59384 119.3566,21.919072 69.999186,14.750584 49.548053,11.693489 58.206489,10.91769 66.725423,8.6780077 75.264855,7.1315965 Z"
         fill="#e20909"
         id="path69806" />
      <path
         d="m 96.689771,63.553334 c 14.078659,9.708305 25.786639,23.915505 29.650629,40.937546 4.79657,21.13033 -2.66138,40.78908 -6.98192,60.97608 m 46.54466,-44.70531 c 6.71787,9.23204 3.48275,20.81278 3.57498,31.52474 M 18.385509,192.19091 c 15.974571,11.50659 39.598657,11.56933 58.820221,12.94008 m -14.575385,33.96459 c 5.533062,-9.2676 13.771218,-16.43128 21.045316,-24.26266 m -15.649349,27.50395 c 7.049266,-17.7738 32.176068,-32.44118 38.316588,-49.60645 m 20.47435,25.4013 c 0.46437,-12.8899 5.71157,-26.29945 13.49201,-36.66532"
         fill="none"
         id="path69808" />
      <path
         d="m 80.229981,35.855949 c 4.867664,9.289969 3.380322,19.530368 -7.969299,26.235666 5.119789,-1.273202 15.16275,-7.633448 15.83026,-14.943414 0.508926,-5.573374 -2.724649,-8.411159 -7.860961,-11.292252 z"
         fill="#e20909"
         fill-rule="evenodd"
         id="path69810" />
    </g>
    <g
       stroke-width="1.41231"
       transform="matrix(1.0466712,0,0,1.0458926,-265.72905,-204.06333)"
       id="g69820">
      <ellipse
         cx="308.56744"
         cy="228.85275"
         fill="#ffffff"
         rx="5.1568112"
         ry="4.6393938"
         id="ellipse69814" />
      <circle
         cx="306.76166"
         cy="227.56786"
         r="1.804016"
         id="circle69816" />
      <path
         d="m 293.72,226.99 c 11.406,-2.9415 28.796,-10.682 35.65,9.6866 -9.3816,-18.326 -20.979,-9.9945 -35.65,-9.6866 z"
         id="path69818" />
    </g>
  </g>
</svg>
