<?xml version="1.0" encoding="UTF-8" standalone="no"?>
<svg
   viewBox="0 0 36 36"
   version="1.1"
   id="svg61456"
   sodipodi:docname="draonier.svg"
   inkscape:version="1.2.1 (9c6d41e410, 2022-07-14)"
   inkscape:export-filename="draonier.png"
   inkscape:export-xdpi="96"
   inkscape:export-ydpi="96"
   xmlns:inkscape="http://www.inkscape.org/namespaces/inkscape"
   xmlns:sodipodi="http://sodipodi.sourceforge.net/DTD/sodipodi-0.dtd"
   xmlns="http://www.w3.org/2000/svg"
   xmlns:svg="http://www.w3.org/2000/svg"
   xmlns:i="http://ns.adobe.com/AdobeIllustrator/10.0/">
  <defs
     id="defs61460">
    <clipPath
       clipPathUnits="userSpaceOnUse"
       id="clipPath138009">
      <rect
         width="36"
         height="8.666667"
         x="0"
         y="4.999999"
         style="fill:#0042ff;fill-opacity:1;stroke:none;stroke-width:0.2498;stroke-miterlimit:4;stroke-dasharray:none;stroke-opacity:1"
         id="rect138011" />
    </clipPath>
  </defs>
  <sodipodi:namedview
     id="namedview61458"
     pagecolor="#ffffff"
     bordercolor="#000000"
     borderopacity="0.25"
     inkscape:showpageshadow="2"
     inkscape:pageopacity="0.0"
     inkscape:pagecheckerboard="0"
     inkscape:deskcolor="#d1d1d1"
     showgrid="false"
     inkscape:zoom="23.055556"
     inkscape:cx="17.978313"
     inkscape:cy="18"
     inkscape:window-width="1536"
     inkscape:window-height="1039"
     inkscape:window-x="252"
     inkscape:window-y="0"
     inkscape:window-maximized="0"
     inkscape:current-layer="svg61456" />
  <path
     id="path61452"
     style="font-variation-settings:normal;opacity:1;vector-effect:none;fill:#eeeeee;fill-opacity:1;stroke-width:1;stroke-linecap:butt;stroke-linejoin:miter;stroke-miterlimit:4;stroke-dasharray:none;stroke-dashoffset:0;stroke-opacity:1;-inkscape-stroke:none;stop-color:#000000;stop-opacity:1"
     d="M 4 5 C 1.7910022 5 0 6.7910022 0 9 L 0 18 L 0 27 C 0 29.208998 1.7910022 31 4 31 L 32 31 C 34.208998 31 36 29.208998 36 27 L 36 18 L 36 9 C 36 6.7910022 34.208998 5 32 5 L 4 5 z " />
  <path
     id="path61452-8"
     style="font-variation-settings:normal;vector-effect:none;fill:#313eca;fill-opacity:1;stroke:none;stroke-width:3.03051;stroke-linecap:butt;stroke-linejoin:miter;stroke-miterlimit:4;stroke-dasharray:none;stroke-dashoffset:0;stroke-opacity:1;-inkscape-stroke:none;marker:none;marker-start:none;marker-mid:none;marker-end:none;stop-color:#000000"
     d="M 4,5 C 1.7910022,5 0,6.7910022 0,9 v 9 9 c 0,2.208998 1.7910022,4 4,4 h 28 c 2.208998,0 4,-1.791002 4,-4 V 18 9 C 36,6.7910022 34.208998,5 32,5 Z"
     clip-path="url(#clipPath138009)" />
  <g
     style="display:inline;fill:#d40000"
     id="g7239"
     transform="matrix(-0.01483296,0,0,0.01483296,9.9867642,15.845209)"
     inkscape:transform-center-x="15.032467"
     inkscape:transform-center-y="-10.575954">
    <path
       id="path7241"
       d="m -386.86187,808.56708 -14.02945,18.86867 c 0,0 -12.47788,1.94279 -9.82714,24.39173 0,0 -21.20588,-3.83441 -21.20588,-30.66694 0,-14.78629 12.20013,-18.54485 12.20013,-18.54485 l 17.4877,-4.45536 z"
       i:knockout="Off"
       style="fill:#d40000;stroke:#000000;stroke-width:2.65211;stroke-linecap:round;stroke-linejoin:round;stroke-miterlimit:4;stroke-dasharray:none" />
    <path
       id="path7243"
       d="m -199.25678,812.46029 8.79578,7.59157 c 0,0 20.87396,0.29151 28.94384,25.08576 0,0 6.58761,-16.71487 3.80379,-28.20417 -1.81663,-7.50238 -9.13605,-13.91701 -9.13605,-13.91701 l -16.96632,-3.03063 -11.14484,3.62375 z"
       i:knockout="Off"
       style="fill:#d40000;stroke:#000000;stroke-width:2.65211;stroke-linecap:round;stroke-linejoin:round;stroke-miterlimit:4;stroke-dasharray:none" />
    <path
       id="path7245"
       d="m -211.44327,709.42851 10.8174,-2.01729 c 0,0 27.34829,-3.14536 42.63037,21.08034 0,0 -30.19129,-3.24375 -41.3237,5.93429 -11.1306,9.1771 -14.9983,1.33743 -14.9983,1.33743 l -1.69726,-17.62685 z"
       i:knockout="Off"
       style="fill:#d40000;stroke:#000000;stroke-width:2.6521;stroke-linecap:round;stroke-linejoin:round;stroke-miterlimit:4;stroke-dasharray:none" />
    <path
       id="path7247"
       d="m -142.35338,796.85365 c 0,0 -3.09668,-22.19114 -16.88379,-31.87902 -11.40518,-8.01441 -26.23031,-7.30722 -26.23031,-7.30722 l -11.34865,10.21046 3.63598,12.86654 4.04044,5.39257 6.04256,-1.6675 c 0.001,0 14.69612,-7.53649 40.74377,12.38417 z"
       i:knockout="Off"
       style="fill:#d40000;stroke:#000000;stroke-width:2.65211;stroke-linecap:round;stroke-linejoin:round;stroke-miterlimit:4;stroke-dasharray:none" />
    <path
       id="path7249"
       d="m -253.52739,-237.86796 c 0,0 -57.09595,-5.27512 -87.26988,-12.94595 -30.17195,-7.67084 -48.74097,-21.09633 -49.66952,-33.56271 -0.92855,-12.46639 -14.85285,-4.79555 -14.85285,-4.79555 l -9.74978,13.90506 15.78337,36.44002 66.38147,19.65767 57.56021,4.79555 20.89042,-12.46639 z"
       i:knockout="Off"
       style="fill:#d40000;stroke:#000000;stroke-width:2.65211;stroke-linecap:round;stroke-linejoin:round;stroke-miterlimit:4;stroke-dasharray:none" />
    <path
       id="path7251"
       d="m -254.28333,-235.20992 c 0,0 -2.24003,-21.70499 -15.41038,-25.75662 0,0 6.4443,21.12706 3.36303,32.70401 -2.85907,10.73671 2.52177,2.02684 2.52177,2.02684 z"
       i:knockout="Off"
       style="fill:#d40000;stroke:#000000;stroke-width:2.65211;stroke-linecap:round;stroke-linejoin:round;stroke-miterlimit:4;stroke-dasharray:none" />
    <path
       id="path7253"
       d="m -269.97346,-327.82144 c 0,0 12.3271,17.94233 11.48785,44.27892 0,0 -10.08709,-25.75866 -21.5769,-30.67718 z"
       i:knockout="Off"
       style="fill:#d40000;stroke:#000000;stroke-width:2.65211;stroke-linecap:round;stroke-linejoin:round;stroke-miterlimit:4;stroke-dasharray:none" />
    <path
       id="path7255"
       d="m -376.48895,-244.38911 c 18.72182,-32.2265 37.43965,-6.44529 56.16145,6.44531 18.71983,12.89061 36.39999,-8.05612 44.20141,-16.65123 7.80141,-8.59508 33.79884,-2.14773 57.71894,16.65123 23.9201,18.79897 38.4813,16.65122 49.9215,12.89061 18.41626,-6.05183 34.8405,3.75856 34.8405,3.75856 0,0 2.07931,-12.89061 -7.79943,-17.72509 -20.87454,-10.21207 -33.281,3.75857 -50.96315,-8.05611 -17.68015,-11.81673 -53.5603,-23.63552 -53.5603,-23.63552 23.40025,6.98225 52.52065,6.98225 65.00051,-4.83243 24.95977,-23.63141 45.24107,-12.89062 63.9589,-13.96244 30.154093,-1.72968 34.840493,-36.52611 34.840493,-36.52611 0,0 -22.880433,26.85714 -49.921503,18.26203 -27.03907,-8.59306 -56.35985,5.9514 -69.679,16.65122 -4.59912,3.69299 -12.23188,4.57012 -21.0293,4.26477 19.97576,-12.77381 33.7671,-40.53471 42.8681,-53.67945 14.10087,-20.36674 60.84189,-30.61774 56.16342,-50.49058 0,0 -10.92039,7.51917 -43.15974,16.65121 -13.04732,3.69504 -30.25727,11.98069 -38.74914,27.83264 -9.29741,17.34596 -26.56686,44.99006 -45.9077,56.78219 -9.46209,-1.03083 -18.1385,-1.53499 -24.02327,0.25208 -17.68016,5.37142 -21.32096,29.00283 -33.80083,31.68753 -12.4799,2.68469 -31.19971,-22.55755 -53.56033,-22.55755 -22.3606,0 -38.48126,23.09653 -38.48126,23.09653 l 7.31728,11.41506 14.97387,4.67052 z"
       i:knockout="Off"
       style="fill:#d40000;stroke:#000000;stroke-width:2.65211;stroke-linecap:round;stroke-linejoin:round;stroke-miterlimit:4;stroke-dasharray:none" />
    <path
       id="path7257"
       d="m -277.259,-224.50192 c 0,0 -1.40275,-26.91656 -13.17035,-31.83508 0,0 4.20229,21.41603 0,31.83508 l 10.36684,2.02684 z"
       i:knockout="Off"
       style="fill:#d40000;stroke:#000000;stroke-width:2.65211;stroke-linecap:round;stroke-linejoin:round;stroke-miterlimit:4;stroke-dasharray:none" />
    <path
       id="path7259"
       d="m -316.20654,-226.23773 c 0,0 -15.9699,-13.6038 -14.28938,-25.18075 0,0 -5.04354,0 -7.28357,6.36537 -3.30745,9.39437 -14.29134,9.84114 -14.29134,9.84114 l 5.88282,7.81429 z"
       i:knockout="Off"
       style="fill:#d40000;stroke:#000000;stroke-width:2.65211;stroke-linecap:round;stroke-linejoin:round;stroke-miterlimit:4;stroke-dasharray:none" />
    <path
       id="path7261"
       d="m -287.34608,-308.43225 c 0,0 10.08708,8.97219 8.1268,31.54817 0,0 -11.48982,-21.41808 -23.25544,-26.33863 l 6.16257,-4.62956 z"
       i:knockout="Off"
       style="fill:#d40000;stroke:#000000;stroke-width:2.65211;stroke-linecap:round;stroke-linejoin:round;stroke-miterlimit:4;stroke-dasharray:none" />
    <path
       id="path7263"
       d="m -316.12021,-297.9092 c 0,0 -7.64216,11.87287 -7.00242,22.78579 0,0 -4.98683,-16.03197 -12.40228,-17.65886 -8.0625,-1.77042 -9.47825,-15.19796 -9.47825,-15.19796 l 23.69887,1.34973 z"
       i:knockout="Off"
       style="fill:#d40000;stroke:#000000;stroke-width:2.65211;stroke-linecap:round;stroke-linejoin:round;stroke-miterlimit:4;stroke-dasharray:none" />
    <path
       sodipodi:nodetypes="cccccccccccccccsccscccscssccsscssccscscsccccscscsccccccccsccsccccccccccsccscccssccccccccccccsccccccccscsscsssccccsscccscc"
       id="path7265"
       d="m -1046.3584,-540.85517 c 193.93593,181.82021 394.37232,305.88152 420.09997,345.16611 25.7295,39.28459 -2.07376,75.98374 -24.54354,75.11481 -22.25744,-0.85869 -52.41398,-10.0911 -59.6937,3.87339 -8.42838,16.17166 7.06252,26.131196 31.67498,66.571623 24.60864,40.4383998 18.20861,122.174684 18.20849,122.174684 0,0 52.04191,-30.204681 110.69932,-24.072938 25.09875,2.621174 51.73612,12.869953 68.74368,22.190542 12.33705,0.717268 31.09339,0.742579 43.62088,-4.235389 2.36108,-73.3760279 -89.01557,-79.132995 -89.01557,-79.132995 2.66258,-66.026961 -62.77063,-82.137587 -62.77063,-82.137587 34.62425,-78.40724 -4.19919,-110.22871 -4.19919,-110.22871 41.28283,-27.5109 38.5891,-84.81638 38.5891,-84.81638 -23.17802,-4.1213 -33.872,-14.25875 -45.75669,-26.53454 -28.66604,-29.61151 -32.14551,-82.71678 -32.14551,-82.71678 34.30894,12.55052 56.23496,27.1024 77.8298,33.84691 21.59472,6.7445 45.86528,13.53877 45.86528,13.53877 3.71223,-9.2755 -0.12825,-2.13689 4.77839,-8.10878 -5.32725,-8.25286 -22.716,-11.05529 -38.6977,-15.45736 -42.32053,-11.65689 -45.86534,-67.65763 -45.86534,-67.65763 20.24368,14.30468 53.81657,15.30851 77.82985,29.14093 26.10259,3.39791 40.0009,24.03673 40.0009,24.03673 7.10499,-1.94689 13.79669,-2.1414 19.14975,-1.30319 15.10284,2.36292 32.14552,-0.5068 32.14552,-0.5068 6.47854,-7.29841 13.21648,-11.6062 19.5896,-13.76347 14.70433,-4.97736 27.46653,1.49331 30.61967,9.09368 4.51973,10.89452 26.13633,25.95533 26.13633,25.95533 0,0 7.64475,-10.42348 14.62476,-14.95056 12.97785,-8.41476 40.10306,-3.36679 45.68428,-6.37118 10.43034,-5.61528 27.46042,-1.37786 27.22233,8.43458 -0.35716,14.77603 -12.16317,23.20414 -12.16317,23.20414 13.05923,47.72803 -26.03132,65.21853 -44.30868,61.21404 -19.36268,-4.24222 -46.11128,-11.88877 -57.23205,-6.55218 -15.43022,7.40442 -35.25871,24.86933 -35.25871,24.86933 1e-5,0 -3.00668,9.02899 4.81459,20.59775 15.04531,22.25832 79.17144,34.13651 119.35109,34.13651 24.11453,0 24.40217,-18.37795 30.11832,-9.84638 9.04146,13.48903 -0.38469,41.2679 -27.00513,41.2679 -4.01781,0 -2.534,15.05916 -2.534,15.05916 -6.02767,0 -12.04575,-15.56596 -19.07735,-15.56596 -7.03157,0 -8.03638,11.40297 -8.03638,11.40297 -6.02763,-2.07602 -7.02844,-15.04748 -15.56596,-15.56596 -8.53753,-0.52055 -5.53858,13.50256 -5.53858,13.50256 -6.02563,-5.18903 -5.01572,-11.44083 -15.05916,-22.33534 -10.04542,-10.89246 -39.19653,-13.14056 -54.26366,-13.14056 -12.34892,0 -22.32144,-13.4641 -27.94633,-19.07735 -6.31729,14.27189 -21.8724,14.57468 -34.10031,-1.0498 -4.23998,-5.41858 -11.10877,-12.3482 -17.26736,-16.97776 -15.55321,76.50749 24.45363,117.51961 82.97019,115.2243 58.51657,-2.29531 70.37919,40.57101 82.97018,58.933452 13.37466,19.503965 65.9189,16.834068 85.17838,56.616653 16.083,33.2224902 -12.59756,81.08779 -12.59756,81.08779 3e-5,0 42.19312,10.016844 44.41728,62.806835 3.13991,28.04291 -15.61188,62.50276 -33.34011,62.33624 6.35473,21.62215 6.50202,52.09218 -23.81954,65.66663 -3.28962,5.48208 -1.71264,52.41524 -20.56155,59.51265 -31.11878,32.95157 -17.37339,31.94359 -67.33182,57.12345 22.98027,36.03193 34.55315,133.21162 -65.81143,216.33064 -26.86398,22.24797 74.93804,145.31769 96.36415,172.81835 14.05033,6.83734 18.6404,8.34612 39.4217,-6.40738 11.91376,-11.52561 15.19523,-19.29569 25.81053,-24.39874 13.84986,-6.658 27.62053,-8.76038 27.62053,-8.76038 24.08929,21.33164 6.69698,30.98712 6.69698,30.98712 -16.35311,0.26538 -12.37324,-8.01683 -30.73372,2.3168 -18.36049,10.33154 -21.97334,15.34876 -21.97334,15.34876 -0.16441,0.56603 -0.40178,1.07022 -0.6878,1.52039 21.48635,-5.14527 64.31845,-12.95886 78.69859,2.3892 11.3966,12.16512 -2.31679,22.15434 -2.31679,22.15434 -13.99967,-8.67493 -32.60723,-9.96887 -46.84268,-9.33958 10.92386,1.89321 46.96559,5.33728 48.18208,26.71554 1.29953,22.80547 -14.87816,15.60215 -14.87816,15.60215 -1.94835,-28.83888 -28.9013,-15.68702 -45.17749,-20.52534 -6.43204,-1.91201 -18.11056,-3.86056 -39.60269,3.25799 -21.49213,-12.07288 -41.96343,21.37745 -48.14588,-13.79216 -16.55951,3.0588 -25.325,0.36811 -31.16812,9.08617 -5.84315,8.71806 -29.24952,26.89653 -29.24952,26.89653 1.29757,-25.49019 -18.82395,-24.79693 -18.82395,-24.79693 48.56584,-28.76611 74.2822,-37.32211 74.2822,-37.32211 3e-5,-18.79898 -82.16937,-126.93824 -115.6587,-155.51479 -19.77688,-16.87574 35.96748,-97.87093 8.28978,-112.97991 -48.18824,-26.30541 -80.45623,-17.06504 -104.90733,-39.7113 -8.90205,-5.7853 -1.63206,-1.18308 -8.50703,-7.60198 -9.38464,5.93858 -10.62945,6.8321 -10.49798,6.80558 0.4578,-0.24309 1.43375,-0.88305 -6.87798,4.09059 24.49048,10.37812 1.92572,20.55847 47.85628,29.53913 6.59037,41.68836 12.87822,46.91807 41.73855,59.62124 -16.12917,30.0537 -0.91677,58.89856 5.24898,75.18721 -21.23632,38.8467 -13.56769,29.23316 -10.17217,66.24583 -32.75483,12.46014 -40.27909,3.49802 -60.9969,54.37225 -43.1584,-16.99051 -47.27928,-15.50696 -89.77577,19.40315 -29.47124,-33.0612 -36.61681,-33.98845 -80.68953,-16.47095 -20.56722,-34.26001 -13.72585,-48.77102 -78.1194,-26.89653 1.84579,-31.90585 -7.27612,-54.91526 -7.27624,-54.91526 -4.36704,3.76062 -9.79227,-11.6952 -44.85162,-12.85097 8.74057,-35.00752 7.71052,-51.04187 7.71052,-51.04187 0,0 11.80291,-17.05481 -33.48486,-48.14587 44.36719,-34.0709 42.93309,-49.63007 42.93309,-49.63007 1.2e-4,-1e-5 -6.4086,-44.52715 -27.65673,-51.58487 0,0 56.42958,-28.19798 27.3274,-80.69705 37.52673,-20.55833 52.43843,-9.13581 52.0228,-80.53733 32.52362,1.5649 50.39027,-26.02773 50.39027,-26.02773 -37.66586,-25.92265 -85.64041,-14.22315 -89.73963,-9.99118 -17.4202,17.98741 -20.13016,-3.46142 -21.24928,-12.70617 -15.52148,-128.42651 -96.20372,-146.747256 -114.10211,-144.437621 -17.89839,2.30967 -20.13838,-12.718388 -13.43022,-17.339755 6.71036,-4.623371 42.4988,-35.808252 42.49869,-109.758116 1.1e-4,-73.949858 -61.50312,-109.763208 -72.6894,-112.074908 -11.1842,-2.31171 -17.8947,-10.39956 -10.0636,-15.02296 7.8312,-4.62339 65.9925,-58.95173 65.9925,-123.65888 0,-64.70509 -96.9513,-213.34347 -109.0341,-244.16837 -18.8329,-4.4369 8.8689,-13.17677 8.8689,-13.17677 z m 392.95004,1028.65654 c -2.8127,-0.0718 -5.8133,1.11068 -11.98223,3.14939 -93.92699,50.30611 -32.92662,168.01996 18.53436,166.66437 94.27533,-2.48346 93.67122,-69.5932 78.30045,-98.89814 -6.26183,-11.93863 -16.10716,-33.25071 -49.84733,-53.97406 -24.93345,-12.09296 -29.6355,-16.80453 -35.00525,-16.94156 z m 366.74125,287.39106 c -0.30235,0.0247 -0.3008,0.19634 0.1086,0.57919 0.42292,0.3955 2.47809,0.64038 5.50239,0.7602 -2.8925,-0.77187 -4.97977,-1.39092 -5.61099,-1.33939 z"
       style="fill:#d40000;fill-opacity:1;stroke:#000000;stroke-width:2.65211;stroke-linecap:round;stroke-linejoin:round;stroke-miterlimit:4;stroke-dasharray:none" />
    <path
       id="path7267"
       d="m -437.54313,65.942467 c -26.63433,-86.660108 -99.88073,-64.6518165 -99.88073,-64.6518165 2.66269,-66.0269375 -63.92313,-85.2849755 -63.92313,-85.2849755 34.62623,-78.407255 -9.32127,-122.425905 -9.32127,-122.425905 41.28284,-27.50882 55.74288,-83.96108 55.74288,-83.96108 7.18229,1.27676 15.56109,1.97357 25.54103,1.97357 0,0 -34.75319,31.93958 -31.49728,88.28936 3.25788,56.35181 25.60057,126.20292 138.42548,180.827119 26.05694,12.6159861 49.66951,5.885815 59.44111,-5.045583 0,0 -25.24347,26.0722263 -17.1008,43.735823 8.14467,17.66362 39.66182,29.886133 39.66182,47.54564 -18.51348,-8.660685 -53.20715,-18.440325 -97.08911,-1.002152 z"
       i:knockout="Off"
       style="fill:#d40000;stroke:#000000;stroke-width:2.65211;stroke-linecap:round;stroke-linejoin:round;stroke-miterlimit:4;stroke-dasharray:none" />
    <path
       id="path7269"
       d="m -251.58497,-289.76034 c 9.48193,1.03083 19.75153,2.59041 28.78903,2.90396"
       i:knockout="Off"
       style="fill:#d40000;stroke:#000000;stroke-width:2.65211;stroke-linecap:round;stroke-linejoin:round;stroke-miterlimit:4;stroke-dasharray:none" />
    <path
       id="path7271"
       d="m -340.81177,359.03063 c -7.50504,-22.30165 -72.23536,-69.55013 -164.44646,-51.56193"
       i:knockout="Off"
       style="fill:#d40000;stroke:#000000;stroke-width:2.65211;stroke-linecap:round;stroke-linejoin:round;stroke-miterlimit:4;stroke-dasharray:none"
       sodipodi:nodetypes="cc" />
    <path
       id="path7273"
       d="m -559.56349,446.62492 c -45.8621,25.02089 -75.12471,32.58169 -97.04147,41.68239"
       i:knockout="Off"
       style="fill:#d40000;stroke:#000000;stroke-width:2.65211;stroke-linecap:round;stroke-linejoin:round;stroke-miterlimit:4;stroke-dasharray:none"
       sodipodi:nodetypes="cc" />
    <path
       id="path7275"
       d="m -325.67658,75.572522 c 0,0 -5.24392,-4.164356 -14.77744,-8.625852"
       i:knockout="Off"
       style="fill:#d40000;stroke:#000000;stroke-width:2.65211;stroke-linecap:round;stroke-linejoin:round;stroke-miterlimit:4;stroke-dasharray:none" />
    <path
       id="path7277"
       d="m -409.89493,153.92034 c 0,0 -16.14646,-53.52982 -71.26032,-83.741789"
       i:knockout="Off"
       style="fill:#d40000;stroke:#000000;stroke-width:2.65211;stroke-linecap:round;stroke-linejoin:round;stroke-miterlimit:4;stroke-dasharray:none" />
    <path
       id="path7279"
       d="m -525.34676,292.76383 c 0,0 -83.16283,-68.70958 -150.69899,16.54261 -6.5534,8.27129 -18.19205,10.28174 -22.93001,-2.37728 -8.36096,-21.59227 -20.70982,-36.02403 -34.42582,-45.46142"
       i:knockout="Off"
       style="fill:#d40000;stroke:#000000;stroke-width:2.65211;stroke-linecap:round;stroke-linejoin:round;stroke-miterlimit:4;stroke-dasharray:none" />
    <path
       sodipodi:nodetypes="ccc"
       id="path7281"
       d="m -578.56143,371.66136 c 0,0 -9.12458,28.71017 0.33952,45.39253 12.59502,28.16051 19.44265,27.42159 19.44265,27.42159"
       i:knockout="Off"
       style="fill:#d40000;stroke:#000000;stroke-width:2.65211;stroke-linecap:round;stroke-linejoin:round;stroke-miterlimit:4;stroke-dasharray:none" />
    <path
       id="path7283"
       d="m -425.62275,-240.52807 c -3.46421,-4.42462 -5.02371,-9.52346 -6.23003,-14.14687 -4.59116,-17.61852 13.10486,-40.60438 13.10486,-40.60438"
       i:knockout="Off"
       style="fill:#d40000;stroke:#000000;stroke-width:2.65211;stroke-linecap:round;stroke-linejoin:round;stroke-miterlimit:4;stroke-dasharray:none" />
    <path
       id="path7285"
       d="m -419.81335,-392.11257 c -5.5257,6.22603 -8.5395,12.44999 -8.5395,12.44999"
       i:knockout="Off"
       style="fill:#d40000;stroke:#000000;stroke-width:2.65211;stroke-linecap:round;stroke-linejoin:round;stroke-miterlimit:4;stroke-dasharray:none" />
    <path
       id="path7287"
       d="m -500.20839,-370.78671 c 9.02758,-10.98263 19.4718,-16.8705 29.1184,-19.5142"
       i:knockout="Off"
       style="fill:#d40000;stroke:#000000;stroke-width:2.65211;stroke-linecap:round;stroke-linejoin:round;stroke-miterlimit:4;stroke-dasharray:none" />
    <path
       sodipodi:nodetypes="ccccsc"
       id="path7289"
       d="m -358.53894,-349.19033 c -8.50576,1.162 -16.6901,-23.40803 -36.61425,-16.71476 -19.56703,6.57237 -19.83688,0.42914 -48.11207,4.535 0,0 33.01121,28.41495 48.11207,30.92955 11.04338,1.84034 24.35064,-2.5146 27.20573,-15.2802 0.80752,-3.6069 5.51178,-3.05153 9.40852,-3.46959 z"
       i:knockout="Off"
       style="fill:#d40000;stroke:#000000;stroke-width:2.65211;stroke-linecap:round;stroke-linejoin:round;stroke-miterlimit:4;stroke-dasharray:none" />
    <path
       sodipodi:nodetypes="ccccc"
       id="path7291"
       d="m -604.84905,-362.18658 c 17.38453,3.67248 59.33437,26.09785 84.98253,27.7517 0,0 -9.46825,19.97539 -9.46825,22.46131 0,0 -26.45177,7.44948 -42.4812,-9.93747 -13.68808,-14.84364 -21.0095,-33.65195 -33.03308,-40.27554 z"
       i:knockout="Off"
       style="fill:#d40000;stroke:#000000;stroke-width:2.65211;stroke-linecap:round;stroke-linejoin:round;stroke-miterlimit:4;stroke-dasharray:none" />
    <path
       id="path7293"
       d="m -380.55234,-365.16525 c 0.0694,0 0.13492,0.0123 0.20238,0.0143 3.60112,1.72763 6.66851,4.39797 9.3986,7.07241 1.35315,2.71748 2.15273,6.02723 2.15273,9.6075 0,3.52699 -0.77579,6.79165 -2.08727,9.48659 -2.3531,3.37736 -5.69429,5.75056 -9.47596,7.19127 -0.0635,0.002 -0.12499,0.0143 -0.18848,0.0143 -6.48995,0 -11.75173,-7.47411 -11.75173,-16.69426 0,-9.22017 5.25979,-16.6922 11.74973,-16.6922 z m -3.47213,12.93773 c 1.44043,0.52465 3.14873,-0.67425 3.81142,-2.67854 0.66267,-2.00429 0.0337,-4.05162 -1.40869,-4.57831 -1.44245,-0.5226 -3.14876,0.67425 -3.81342,2.67854 -0.66468,2.00429 -0.0318,4.05162 1.41069,4.57831 z"
       i:knockout="Off"
       style="fill:#f2f2f2" />
    <path
       id="path7295"
       d="m -344.97574,-334.2442 c 19.96184,-28.28965 54.31227,-26.37144 54.31227,-26.37144"
       i:knockout="Off"
       style="fill:#d40000;stroke:#000000;stroke-width:2.65211;stroke-linecap:round;stroke-linejoin:round;stroke-miterlimit:4;stroke-dasharray:none" />
    <path
       id="path7297"
       d="m -1050.2296,-547.1013 c 0,0 -24.7341,-31.21292 -56.1822,-1.16498 0,0 38.5845,-0.71927 49.062,17.72353 1.564,2.75297 12.5203,-10.88747 7.1202,-16.55855 z"
       i:knockout="Off"
       style="fill:#d40000;stroke:#000000;stroke-width:2.65211;stroke-linecap:round;stroke-linejoin:round;stroke-miterlimit:4;stroke-dasharray:none" />
    <path
       id="path7299"
       d="m -1005.7705,-166.94505 c 0,0 -24.8705,-2.15595 -37.6222,12.07495 -8.103,9.03982 -10.6188,21.45907 -5.7717,32.78804 0,0 14.3529,-32.86181 43.876,-23.71134 5.101,1.58008 7.17052,-20.09827 -0.4821,-21.15165 z"
       i:knockout="Off"
       style="fill:#d40000;stroke:#000000;stroke-width:2.65211;stroke-linecap:round;stroke-linejoin:round;stroke-miterlimit:4;stroke-dasharray:none" />
    <path
       id="path7301"
       d="m -958.49978,94.32229 c -43.64582,-1.393563 -38.65582,41.35037 -38.65582,41.35037 0,0 -23.436,-22.14561 -7.98,-44.289166 13.76156,-19.719137 38.88997,-19.053105 38.88997,-19.053105 0,0 -5.44829,13.599685 7.74585,21.991901 z"
       i:knockout="Off"
       style="fill:#d40000;stroke:#000000;stroke-width:2.65211;stroke-linecap:round;stroke-linejoin:round;stroke-miterlimit:4;stroke-dasharray:none" />
    <path
       id="path7303"
       d="m -823.14561,251.46472 c -17.15841,11.50932 -32.61038,26.36323 -16.62659,54.4254 0,0 -29.29701,-11.00109 -25.56894,-41.81351 2.02186,-16.70245 20.94196,-25.3201 20.94196,-25.3201 0,0 2.72617,12.20407 21.25357,12.70821 z"
       i:knockout="Off"
       style="fill:#d40000;stroke:#000000;stroke-width:2.65211;stroke-linecap:round;stroke-linejoin:round;stroke-miterlimit:4;stroke-dasharray:none" />
    <path
       id="path7305"
       d="m -676.04575,309.30644 c 0,0 -6.64665,27.43096 35.70156,50.34305 0,0 -37.35228,-2.33426 -50.41355,-16.24751 -12.9064,-13.74929 -7.66454,-34.16316 -7.66454,-34.16316 0,0 10.87283,8.46803 22.37653,0.0676 z"
       i:knockout="Off"
       style="fill:#d40000;stroke:#000000;stroke-width:2.65211;stroke-linecap:round;stroke-linejoin:round;stroke-miterlimit:4;stroke-dasharray:none" />
    <path
       id="path7307"
       d="m -497.10926,100.55242 c 0,0 -26.57277,-36.228964 -79.71446,-31.837121 -53.1417,4.391807 -60.58393,30.738643 -70.14731,96.609861 -9.56326,65.87119 -29.07275,143.98128 -29.07275,143.98128"
       i:knockout="Off"
       style="fill:#d40000;stroke:#000000;stroke-width:2.65211;stroke-linecap:round;stroke-linejoin:round;stroke-miterlimit:4;stroke-dasharray:none" />
    <path
       id="path7309"
       d="m -698.42228,309.24087 c 0,0 25.34075,-130.73614 27.75937,-163.23114 2.41861,-32.49498 4.03365,-49.138005 -3.22614,-49.158497 -9.3946,-0.02663 -22.59071,14.997357 -71.79397,66.654057 -49.20338,51.6567 -77.46259,87.95943 -77.46259,87.95943"
       i:knockout="Off"
       style="fill:#d40000;stroke:#000000;stroke-width:2.65211;stroke-linecap:round;stroke-linejoin:round;stroke-miterlimit:4;stroke-dasharray:none" />
    <path
       id="path7311"
       d="m -844.39918,238.75446 c 0,0 120.65805,-145.325688 143.8897,-176.896385 23.22969,-31.572771 11.72391,-85.641588 -36.57256,-67.3303662 C -785.37862,12.83893 -896.87213,64.665705 -958.50372,94.320251"
       i:knockout="Off"
       style="fill:#d40000;stroke:#000000;stroke-width:2.65211;stroke-linecap:round;stroke-linejoin:round;stroke-miterlimit:4;stroke-dasharray:none" />
    <path
       id="path7313"
       d="m -966.24957,72.32835 c 0,0 152.69306,-73.6363083 203.92201,-102.499785 51.22906,-28.863477 29.49545,-59.331623 -2.33128,-64.141508 -31.82464,-4.809907 -240.62956,-51.482507 -240.62956,-51.482507"
       i:knockout="Off"
       style="fill:#d40000;stroke:#000000;stroke-width:2.65211;stroke-linecap:round;stroke-linejoin:round;stroke-miterlimit:4;stroke-dasharray:none" />
    <path
       id="path7315"
       d="m -1004.2348,-167.12335 c 0,0 174.97425,22.77067 264.22816,37.92379 0,0 -3.18838,-28.4536 38.99326,-28.4536 42.18152,0 55.63364,-25.25657 29.95765,-59.35417 -34.02524,-25.75041 -184.90159,-124.88869 -359.88437,-283.52413"
       i:knockout="Off"
       style="fill:#d40000;stroke:#000000;stroke-width:2.65211;stroke-linecap:round;stroke-linejoin:round;stroke-miterlimit:4;stroke-dasharray:none"
       sodipodi:nodetypes="ccscc" />
    <path
       id="path7317"
       d="m -265.11841,-36.420002 c 0,0 28.85254,14.901051 19.67218,44.7031539"
       i:knockout="Off"
       style="fill:#d40000;stroke:#000000;stroke-width:2.65211;stroke-linecap:round;stroke-linejoin:round;stroke-miterlimit:4;stroke-dasharray:none" />
    <path
       id="path7319"
       d="m -233.64291,84.143027 c 0,0 22.29512,27.092813 -5.24592,56.894903"
       i:knockout="Off"
       style="fill:#d40000;stroke:#000000;stroke-width:2.65211;stroke-linecap:round;stroke-linejoin:round;stroke-miterlimit:4;stroke-dasharray:none" />
    <path
       sodipodi:nodetypes="cc"
       id="path7321"
       d="m -240.74541,182.49035 c 0,0 7.97761,27.31023 -27.74499,54.68115"
       i:knockout="Off"
       style="fill:#d40000;stroke:#000000;stroke-width:2.65211;stroke-linecap:round;stroke-linejoin:round;stroke-miterlimit:4;stroke-dasharray:none" />
    <path
       sodipodi:nodetypes="cscccccccccccc"
       id="path7323"
       d="m -589.60976,462.19269 c 37.37869,26.62586 54.29256,43.9568 65.50781,60.37383 11.6443,17.0449 22.12001,35.19195 24.24649,59.64639 4.17462,16.69847 1.04365,46.96444 -1.04366,65.75021 -2.08731,18.78577 -14.61126,37.57154 -40.7025,53.22636 -20.87315,16.69847 -33.39705,21.91675 -59.48832,21.91675 -22.96035,4.17462 -55.31369,5.21826 -76.18673,-1.04366 -20.87304,-6.26192 -46.96454,-15.65481 -59.48832,-21.91673 -12.52377,-6.26193 -45.92071,-26.09137 -59.4882,-49.05174 -14.61121,-18.78579 -26.09139,-35.48425 -29.2223,-67.83754 0,-16.69847 0.17897,-58.33973 2.26629,-83.38743 2.08731,-25.04769 7.12657,-60.63682 11.3012,-79.4226 3.92129,-21.99092 16.6983,-56.35733 32.35322,-79.31772 17.30981,-19.9036 38.61516,-45.92079 59.48832,-62.61925"
       style="fill:#d40000;fill-rule:evenodd;stroke:#000000;stroke-width:2.89321;stroke-linecap:butt;stroke-linejoin:miter;stroke-opacity:1" />
    <g
       style="fill:#d40000;fill-opacity:1"
       transform="matrix(0,1.158397,1.158397,0,-774.4452,516.7914)"
       id="g7325">
      <path
         style="display:inline;opacity:1;fill:#d40000;fill-opacity:1;stroke:#000000;stroke-width:2.28946;stroke-linecap:round;stroke-linejoin:round;stroke-miterlimit:4;stroke-dasharray:none"
         i:knockout="Off"
         d="m -240.63038,653.60404 12.11109,16.2886 c 0,0 10.77168,1.67714 8.4834,21.05645 0,0 18.30622,-3.3101 18.30622,-26.4736 0,-12.76444 -10.5319,-16.00906 -10.5319,-16.00906 l -15.09647,-3.84614 z"
         id="path7327" />
      <path
         style="display:inline;opacity:1;fill:#d40000;fill-opacity:1;stroke:#000000;stroke-width:2.28946;stroke-linecap:round;stroke-linejoin:round;stroke-miterlimit:4;stroke-dasharray:none"
         i:knockout="Off"
         d="m -402.58271,656.9649 -7.59306,6.55351 c 0,0 -18.01969,0.25165 -24.98611,21.65558 0,0 -5.68684,-14.42931 -3.28367,-24.34758 1.56823,-6.47652 7.8868,-12.01403 7.8868,-12.01403 l 14.64638,-2.61623 9.62092,3.12825 z"
         id="path7329" />
      <path
         style="display:inline;opacity:1;fill:#d40000;fill-opacity:1;stroke:#000000;stroke-width:2.28946;stroke-linecap:round;stroke-linejoin:round;stroke-miterlimit:4;stroke-dasharray:none"
         i:knockout="Off"
         d="m -392.06257,568.02149 -9.33825,-1.74145 c 0,0 -23.60874,-2.71527 -36.80118,18.19785 0,0 26.06299,-2.8002 35.67318,5.12285 9.60862,7.92224 12.94746,1.15455 12.94746,1.15455 l 1.46518,-15.21659 z"
         id="path7331" />
      <path
         style="display:inline;opacity:1;fill:#d40000;fill-opacity:1;stroke:#000000;stroke-width:2.28946;stroke-linecap:round;stroke-linejoin:round;stroke-miterlimit:4;stroke-dasharray:none"
         i:knockout="Off"
         d="m -451.70524,643.49228 c 0,0 2.67324,-19.15677 14.57513,-27.51994 9.84566,-6.91854 22.64363,-6.30805 22.64363,-6.30805 l 9.79685,8.8143 -3.1388,11.1072 -3.48796,4.6552 -5.21631,-1.43949 c -0.001,0 -12.6866,-6.50597 -35.17254,10.69078 z"
         id="path7333" />
      <path
         sodipodi:nodetypes="cccsccccccccscccsccscccsccc"
         style="display:inline;opacity:1;fill:#d40000;fill-opacity:1;stroke:#000000;stroke-width:2.28946;stroke-linecap:round;stroke-linejoin:round;stroke-miterlimit:4;stroke-dasharray:none"
         i:knockout="Off"
         d="m -192.59436,500.61469 c 23.19065,19.20582 -97.11642,78.6039 -115.61276,102.34417 -12.1291,5.90241 -16.09645,7.20757 -34.03615,-5.52857 -10.28472,-9.94961 -13.11565,-16.65673 -22.27943,-21.062 -11.95607,-5.7476 -23.84779,-7.57684 -23.84779,-7.57684 -20.79537,18.41478 -5.7876,26.75176 -5.7876,26.75176 14.11702,0.22909 10.67803,-6.9295 26.52793,1.99113 15.84994,8.91885 18.97981,13.26908 18.97981,13.26908 1.68195,5.79043 11.49192,4.17836 11.49192,4.17836 0,0 -62.01876,-18.74983 -78.83659,-0.80002 -9.83823,10.50169 1.98818,19.1052 1.98818,19.1052 22.42376,-13.89492 58.71392,-5.92353 58.71392,-5.92353 12.33204,4.0549 30.89225,-4.70964 28.06493,-2.06561 -1.98178,1.85331 -44.74482,-0.382 -44.74482,-0.382 -6.72756,1.61849 -42.06864,3.69976 -43.1888,23.38513 -1.12186,19.68712 12.85421,13.44557 12.85421,13.44557 1.68195,-24.89551 24.95204,-13.52844 39.00265,-17.70518 5.55254,-1.65058 15.63116,-3.34091 34.1845,2.80426 18.55334,-10.42208 36.23348,18.4513 41.57055,-11.90929 14.2952,2.64052 21.86196,0.32647 26.9061,7.85244 5.04415,7.52598 25.22759,23.23086 25.22759,23.23086 -1.12016,-22.00473 16.25601,-21.42443 16.25601,-21.42443 -41.92502,-24.8327 -64.11877,-32.21372 -64.11877,-32.21372 0,-16.22844 103.38072,-62.72091 132.29078,-87.38996 17.07265,-14.56817 0.98525,-92.97913 1.94398,-123.85998 -19.32993,17.03758 -39.47226,39.76689 -64.84798,47.25899 -1.53674,14.9003 12.14963,33.59382 21.29763,52.22418 z"
         id="path7335" />
    </g>
    <path
       sodipodi:nodetypes="csccscccccccscc"
       d="m -588.89874,643.84094 c 6.11043,-4.96504 11.65116,-10.03561 15.90792,-15.44948 5.0015,-6.36097 6.75438,-8.76801 7.05232,-16.4625 -24.31116,-5.53559 -98.05135,-1.56058 -173.3153,-18.93939 -13.56749,-6.26192 -57.68493,-7.91692 -95.25649,-30.87731 -13.56414,-8.28919 -37.82479,-27.38822 -47.21777,-35.73746 -16.0665,-12.67535 -22.76945,-30.15178 -17.05647,-54.30075 12.44976,-26.7769 20.09784,-35.18493 55.73048,-37.63036 14.02645,-15.72414 22.45495,-29.01994 12.01744,-56.78962 -40.9557,6.62004 -67.85287,12.97151 -96.03157,33.84459 -26.43902,22.41916 -40.84705,61.66675 -33.57591,92.06407 10.08837,40.96614 22.73771,45.23525 57.53654,74.02527 21.23515,11.47276 35.33644,19.812 48.72195,26.3875 22.39042,10.99906 42.77809,17.06313 91.20198,24.60323 54.66406,14.29441 124.73607,7.52781 174.28488,15.26221 z"
       style="fill:#d40000;fill-opacity:1;fill-rule:evenodd;stroke:#000000;stroke-width:2.89321;stroke-linecap:butt;stroke-linejoin:miter;stroke-opacity:1"
       id="path7337" />
    <path
       id="path7339"
       d="m -140.81769,550.49961 c 8.4565,0.13808 15.76077,1.57471 21.21315,4.77839 0,0 -54.70969,32.02814 -59.58505,67.04222 -19.3246,38.01711 -51.20294,61.82536 -89.23277,75.9474 0,0 20.68412,-20.71523 18.20856,-36.3809 -2.3945,-15.15653 5.32139,-30.44415 5.32138,-30.44412 0,0 -14.69094,11.5995 -58.28185,32.32651 -19.36501,7.29383 -41.0279,9.72902 -63.53083,9.59298 -1.0134,-1.44929 -2.039,-2.8901 -3.04079,-4.34399 -0.13309,-0.19336 -0.26537,-0.38579 -0.3982,-0.5792 -0.61807,-0.89883 -1.23371,-1.77927 -1.8462,-2.67879 -0.962,-1.41515 -1.91443,-2.82083 -2.85979,-4.23539 -0.75912,-1.13346 -1.49737,-2.27127 -2.24439,-3.40279 -0.7823,-1.18758 -1.54942,-2.36373 -2.3168,-3.54759 -0.88464,-1.36162 -1.74406,-2.70002 -2.60639,-4.05439 -1.60005,-2.51728 -3.15695,-5.01316 -4.66979,-7.49338 51.91345,4.18588 91.54986,-2.26752 123.58648,-29.21333 0,0 -44.71371,-14.71722 -36.7067,-57.01485 0,0 22.2754,33.73855 58.96964,19.14975 25.19201,-10.01552 69.81856,-25.94167 100.02034,-25.44853 z m -343.10271,76.0198 c 9.67038,1.88797 40.83977,8.17396 62.62584,12.01837 0.13582,0.15783 0.26213,0.3122 0.3982,0.4706 3.10321,3.61259 6.25217,7.39512 9.44817,11.25817 1.48338,1.79568 2.95944,3.59322 4.45259,5.42999 1.96821,2.41705 3.92799,4.84074 5.90059,7.31238 0.19279,0.24186 0.38643,0.4817 0.5792,0.72399 2.20977,2.77747 4.42788,5.5797 6.62458,8.39838 -34.67461,-2.73157 -69.91413,-9.1974 -100.74434,-11.43917 -0.024,-0.16658 -0.05,-0.34298 -0.0724,-0.5068 -0.0471,-2.20547 -0.2132,-3.93478 -0.3982,-5.28518 0.004,-0.38944 0.013,-0.76768 0.0362,-1.1584 0.0197,-0.33093 0.0384,-0.67919 0.0724,-1.0136 0.006,-0.0609 0.0296,-0.1199 0.0362,-0.181 0.0302,-0.27619 0.068,-0.5523 0.1086,-0.83259 0.0174,-0.12151 0.0168,-0.23958 0.0362,-0.362 0.0132,-0.0823 0.0221,-0.17062 0.0362,-0.2534 0.12449,-0.73153 0.30626,-1.46383 0.5068,-2.2444 0.0268,-0.10439 0.0441,-0.22029 0.0724,-0.3258 0.088,-0.33068 0.18702,-0.67093 0.2896,-1.01359 0.27405,-0.91008 0.59379,-1.88036 0.9774,-2.896 0.76719,-2.03126 1.77201,-4.31141 3.04079,-6.95038 0.004,-0.009 -0.004,-0.0272 0,-0.0362 0.62222,-1.29235 1.37704,-2.71463 2.13579,-4.19919 0.77564,-1.51778 1.60655,-3.14001 2.534,-4.88698 0.41223,-0.63596 0.77657,-1.23242 1.30319,-2.0272 z"
       style="display:inline;fill:#d40000;fill-opacity:1;stroke:#000000;stroke-width:2.65211;stroke-linecap:round;stroke-linejoin:round;stroke-miterlimit:4;stroke-dasharray:none" />
    <path
       style="fill:#d40000;fill-opacity:1;stroke:none;stroke-width:5.48496;stroke-linecap:round;stroke-linejoin:round;stroke-miterlimit:4;stroke-dasharray:none"
       d="m 78.78125,307.59375 0.5625,6.875 c 10.185053,18.18561 25.875,46.27142 25.875,60.84375 0,16.53402 -12.158903,30.89527 -17.90625,36.34375 0.659587,0.0856 54.5444,7.08282 82.21875,11.78125 1e-5,10e-6 -1.00307,-8.875 12.15625,-8.875 13.1593,10e-6 17.35384,-7.86264 9.34375,-18.5 -10.61477,-8.03329 -57.66097,-38.97957 -112.25,-88.46875 z m 8,110.6875 c 0.316647,0.1047 0.621327,0.20944 0.96875,0.28125 3.489761,0.72118 22.68753,11.89876 22.6875,34.96875 3e-5,19.16074 -7.69053,29.09911 -11.5,32.75 v 0.0312 c -2e-6,0 47.64321,-22.96427 63.625,-31.96875 15.98184,-9.00448 9.21017,-18.49947 -0.71875,-20 -9.92826,-1.50054 -75.0625,-16.0625 -75.0625,-16.0625 z m 88.78125,42.625 c -1.52594,0.0662 -3.24163,0.44219 -5.125,1.15625 -15.06698,5.7125 -49.83542,21.87373 -69.0625,31.125 5.58372,-0.72053 30.75154,4.99753 35.59375,45.0625 1e-5,0 37.62747,-45.33845 44.875,-55.1875 6.34107,-8.61849 4.40039,-22.61994 -6.28125,-22.15625 z m 47.84375,24.15625 c -0.47102,-0.003 -0.95129,0.013 -1.4375,0.0312 -0.50188,0.0188 -1.01317,0.0509 -1.53125,0.0937 -16.57849,1.37011 -18.89153,9.60654 -21.875,30.15625 -2.98342,20.54971 -9.09375,44.90625 -9.09375,44.90625 0,0 52.80917,-2.10161 80.16092,-3.5444 15.19313,-15.50707 -7.93722,-47.8398 -7.93722,-47.8398 -6.09445,-4.06296 -23.68449,-23.71051 -38.2862,-23.8033 z m -33.25,8.90625 c -2.93081,-0.008 -7.05641,4.69726 -22.40625,20.8125 -15.34987,16.11525 -24.15625,27.4375 -24.15625,27.4375 1.27883,-1.32024 16.24945,-4.96201 28,3.125 0,0 -2.60679,3.98297 -7.46875,6.375 l 18.375,8.5 c 0,0 7.90172,-40.76885 8.65625,-50.90625 0.75453,-10.1374 1.26482,-15.33736 -1,-15.34375 z"
       transform="matrix(3.205457,0,0,3.205457,-1283.422,-1486.554)"
       id="path3151"
       sodipodi:nodetypes="ccscsscccssccssccscssccssscccccsccccsc" />
  </g>
</svg>
