<?xml version="1.0" encoding="UTF-8" standalone="no"?>
<svg
   viewBox="0 0 36 36"
   version="1.1"
   id="svg61456"
   sodipodi:docname="gwenhadu.svg"
   inkscape:version="1.2.1 (9c6d41e410, 2022-07-14)"
   inkscape:export-filename="gwenhadu.png"
   inkscape:export-xdpi="96"
   inkscape:export-ydpi="96"
   xmlns:inkscape="http://www.inkscape.org/namespaces/inkscape"
   xmlns:sodipodi="http://sodipodi.sourceforge.net/DTD/sodipodi-0.dtd"
   xmlns:xlink="http://www.w3.org/1999/xlink"
   xmlns="http://www.w3.org/2000/svg"
   xmlns:svg="http://www.w3.org/2000/svg">
  <defs
     id="defs61460">
    <clipPath
       clipPathUnits="userSpaceOnUse"
       id="clipPath1475">
      <path
         id="path1477"
         style="font-variation-settings:normal;opacity:1;vector-effect:none;fill:#eeeeee;fill-opacity:1;stroke:none;stroke-width:109.186;stroke-linecap:butt;stroke-linejoin:miter;stroke-miterlimit:4;stroke-dasharray:none;stroke-dashoffset:0;stroke-opacity:1;-inkscape-stroke:none;marker:none;marker-start:none;marker-mid:none;marker-end:none;stop-color:#000000;stop-opacity:1"
         d="M 150.00007,1.7307692e-5 C 67.162658,1.7307692e-5 8.4374989e-5,61.996245 8.4374989e-5,138.46155 V 450 761.53845 C 8.4374989e-5,838.00376 67.162658,899.99998 150.00007,899.99998 H 1199.9999 c 82.8374,0 150,-61.99622 150,-138.46153 V 450 138.46155 c 0,-76.465305 -67.1626,-138.461532692308 -150,-138.461532692308 z" />
    </clipPath>
  </defs>
  <sodipodi:namedview
     id="namedview61458"
     pagecolor="#ffffff"
     bordercolor="#000000"
     borderopacity="0.25"
     inkscape:showpageshadow="2"
     inkscape:pageopacity="0.0"
     inkscape:pagecheckerboard="0"
     inkscape:deskcolor="#d1d1d1"
     showgrid="false"
     inkscape:zoom="23.25"
     inkscape:cx="18.043011"
     inkscape:cy="18.021505"
     inkscape:window-width="1920"
     inkscape:window-height="1021"
     inkscape:window-x="-8"
     inkscape:window-y="-8"
     inkscape:window-maximized="1"
     inkscape:current-layer="svg61456" />
  <g
     id="g1033"
     transform="matrix(0.02666667,0,0,0.02888889,-2.25e-6,4.9999995)"
     clip-path="url(#clipPath1475)">
    <rect
       width="1350"
       height="900"
       fill="#fff"
       id="rect178"
       style="fill:#eeeeee;fill-opacity:1"
       x="0"
       y="0" />
    <rect
       x="600"
       width="750"
       height="100"
       fill="#000000"
       id="rect180"
       y="0"
       style="stroke-width:0.745356" />
    <rect
       x="600"
       y="200"
       width="750"
       height="100"
       fill="#000000"
       id="rect182"
       style="stroke-width:0.745356" />
    <rect
       y="400"
       width="1350"
       height="100"
       fill="#000000"
       id="rect184"
       x="0" />
    <rect
       y="600"
       width="1350"
       height="100"
       fill="#000000"
       id="rect186"
       x="0" />
    <rect
       y="800"
       width="1350"
       height="100"
       fill="#000000"
       id="rect188"
       x="0" />
    <use
       xlink:href="#ermine"
       x="-225"
       y="-122.5"
       id="use190" />
    <use
       xlink:href="#ermine"
       x="-75"
       y="-122.5"
       id="use192" />
    <use
       xlink:href="#ermine"
       x="75"
       y="-122.5"
       id="use194" />
    <use
       xlink:href="#ermine"
       x="225"
       y="-122.5"
       id="use196" />
    <use
       xlink:href="#ermine"
       x="-150"
       id="use198" />
    <g
       id="ermine"
       fill="#000000">
      <use
         xlink:href="#s"
         transform="rotate(-90,300,167.5)"
         id="use200" />
      <path
         id="s"
         d="m 300,167.5 -9,-13.5 9,-22.5 9,22.5 z" />
      <use
         xlink:href="#s"
         transform="rotate(90,300,167.5)"
         id="use203" />
      <path
         d="m 300,167.5 40.5,99 -31.5,-13.5 -9,18 -9,-18 -31.5,13.5 z"
         id="path205" />
    </g>
    <use
       xlink:href="#ermine"
       x="150"
       id="use208" />
    <use
       xlink:href="#ermine"
       x="-225"
       y="122.5"
       id="use210" />
    <use
       xlink:href="#ermine"
       x="-75"
       y="122.5"
       id="use212" />
    <use
       xlink:href="#ermine"
       x="75"
       y="122.5"
       id="use214" />
    <use
       xlink:href="#ermine"
       x="225"
       y="122.5"
       id="use216" />
  </g>
</svg>
