<?xml version="1.0" encoding="UTF-8" standalone="no"?>
<svg
   viewBox="0 0 36 36"
   version="1.1"
   id="svg61456"
   sodipodi:docname="ikurrina.svg"
   inkscape:version="1.2.1 (9c6d41e410, 2022-07-14)"
   inkscape:export-filename="ikurrina.png"
   inkscape:export-xdpi="96"
   inkscape:export-ydpi="96"
   xmlns:inkscape="http://www.inkscape.org/namespaces/inkscape"
   xmlns:sodipodi="http://sodipodi.sourceforge.net/DTD/sodipodi-0.dtd"
   xmlns="http://www.w3.org/2000/svg"
   xmlns:svg="http://www.w3.org/2000/svg">
  <defs
     id="defs61460">
    <clipPath
       clipPathUnits="userSpaceOnUse"
       id="clipPath4521">
      <path
         id="path4523"
         style="font-variation-settings:normal;vector-effect:none;fill:#eeeeee;fill-opacity:1;stroke:none;stroke-width:3.70631;stroke-linecap:butt;stroke-linejoin:miter;stroke-miterlimit:4;stroke-dasharray:none;stroke-dashoffset:0;stroke-opacity:1;-inkscape-stroke:none;marker:none;marker-start:none;marker-mid:none;marker-end:none;stop-color:#000000"
         d="M 5.5555555,1.4999999e-7 C 2.4875033,1.4999999e-7 2e-7,1.9287718 2e-7,4.3076928 V 14 23.692308 C 2e-7,26.071229 2.4875033,28 5.5555555,28 H 44.444445 C 47.512497,28 50,26.071229 50,23.692308 V 14 4.3076928 C 50,1.9287718 47.512497,1.4999999e-7 44.444445,1.4999999e-7 Z" />
    </clipPath>
    <clipPath
       clipPathUnits="userSpaceOnUse"
       id="clipPath4517">
      <path
         id="path4519"
         style="font-variation-settings:normal;vector-effect:none;fill:#eeeeee;fill-opacity:1;stroke:none;stroke-width:3.70631;stroke-linecap:butt;stroke-linejoin:miter;stroke-miterlimit:4;stroke-dasharray:none;stroke-dashoffset:0;stroke-opacity:1;-inkscape-stroke:none;marker:none;marker-start:none;marker-mid:none;marker-end:none;stop-color:#000000"
         d="M 5.5555555,1.4999999e-7 C 2.4875033,1.4999999e-7 2e-7,1.9287718 2e-7,4.3076928 V 14 23.692308 C 2e-7,26.071229 2.4875033,28 5.5555555,28 H 44.444445 C 47.512497,28 50,26.071229 50,23.692308 V 14 4.3076928 C 50,1.9287718 47.512497,1.4999999e-7 44.444445,1.4999999e-7 Z" />
    </clipPath>
    <clipPath
       clipPathUnits="userSpaceOnUse"
       id="clipPath4513">
      <path
         id="path4515"
         style="font-variation-settings:normal;vector-effect:none;fill:#eeeeee;fill-opacity:1;stroke:none;stroke-width:3.70631;stroke-linecap:butt;stroke-linejoin:miter;stroke-miterlimit:4;stroke-dasharray:none;stroke-dashoffset:0;stroke-opacity:1;-inkscape-stroke:none;marker:none;marker-start:none;marker-mid:none;marker-end:none;stop-color:#000000"
         d="M 5.5555555,1.4999999e-7 C 2.4875033,1.4999999e-7 2e-7,1.9287718 2e-7,4.3076928 V 14 23.692308 C 2e-7,26.071229 2.4875033,28 5.5555555,28 H 44.444445 C 47.512497,28 50,26.071229 50,23.692308 V 14 4.3076928 C 50,1.9287718 47.512497,1.4999999e-7 44.444445,1.4999999e-7 Z" />
    </clipPath>
  </defs>
  <sodipodi:namedview
     id="namedview61458"
     pagecolor="#ffffff"
     bordercolor="#000000"
     borderopacity="0.25"
     inkscape:showpageshadow="2"
     inkscape:pageopacity="0.0"
     inkscape:pagecheckerboard="0"
     inkscape:deskcolor="#d1d1d1"
     showgrid="false"
     inkscape:zoom="25.027778"
     inkscape:cx="17.960044"
     inkscape:cy="18.019978"
     inkscape:window-width="1536"
     inkscape:window-height="1039"
     inkscape:window-x="84"
     inkscape:window-y="0"
     inkscape:window-maximized="0"
     inkscape:current-layer="svg61456" />
  <path
     id="path61452"
     style="font-variation-settings:normal;opacity:1;vector-effect:none;fill:#eeeeee;fill-opacity:1;stroke-width:3.03051213;stroke-linecap:butt;stroke-linejoin:miter;stroke-miterlimit:4;stroke-dasharray:none;stroke-dashoffset:0;stroke-opacity:1;-inkscape-stroke:none;stop-color:#000000;stop-opacity:1;stroke:none;marker:none;marker-start:none;marker-mid:none;marker-end:none"
     d="M 4 5 C 1.7910022 5 0 6.7910022 0 9 L 0 18 L 0 27 C 0 29.208998 1.7910022 31 4 31 L 32 31 C 34.208998 31 36 29.208998 36 27 L 36 18 L 36 9 C 36 6.7910022 34.208998 5 32 5 L 4 5 z " />
  <path
     d="M 0,0 V 28 H 50 V 0 Z"
     fill="#d52b1e"
     id="path2910"
     clip-path="url(#clipPath4521)"
     transform="matrix(0.72,0,0,0.9285714,-7.0179705e-8,5.0000003)" />
  <path
     d="M 0,0 50,28 M 50,0 0,28"
     stroke="#009b48"
     stroke-width="4.3"
     id="path2912"
     clip-path="url(#clipPath4517)"
     transform="matrix(0.72,0,0,0.9285714,-7.0179705e-8,5.0000003)" />
  <path
     d="M 25,0 V 28 M 0,14 h 50"
     stroke="#ffffff"
     stroke-width="4.3"
     id="path2914"
     clip-path="url(#clipPath4513)"
     transform="matrix(0.72,0,0,0.9285714,-7.0179705e-8,5.0000003)" />
</svg>
