<?xml version="1.0" encoding="UTF-8" standalone="no"?>
<svg
   viewBox="0 0 36 36"
   version="1.1"
   id="svg1349"
   sodipodi:docname="kurdistan.svg"
   inkscape:version="1.2.1 (9c6d41e410, 2022-07-14)"
   inkscape:export-filename="kurdistan.png"
   inkscape:export-xdpi="96"
   inkscape:export-ydpi="96"
   xmlns:inkscape="http://www.inkscape.org/namespaces/inkscape"
   xmlns:sodipodi="http://sodipodi.sourceforge.net/DTD/sodipodi-0.dtd"
   xmlns="http://www.w3.org/2000/svg"
   xmlns:svg="http://www.w3.org/2000/svg">
  <defs
     id="defs1353" />
  <sodipodi:namedview
     id="namedview1351"
     pagecolor="#ffffff"
     bordercolor="#000000"
     borderopacity="0.25"
     inkscape:showpageshadow="2"
     inkscape:pageopacity="0.0"
     inkscape:pagecheckerboard="0"
     inkscape:deskcolor="#d1d1d1"
     showgrid="false"
     inkscape:zoom="31.230769"
     inkscape:cx="18.011084"
     inkscape:cy="17.995074"
     inkscape:window-width="1920"
     inkscape:window-height="1021"
     inkscape:window-x="-8"
     inkscape:window-y="-8"
     inkscape:window-maximized="1"
     inkscape:current-layer="svg1349" />
  <path
     fill="#EEE"
     d="M0 14h36v8H0z"
     id="path1343" />
  <path
     fill="#CD2A3E"
     d="M32 5H4C1.791 5 0 6.791 0 9v5h36V9c0-2.209-1.791-4-4-4z"
     id="path1345"
     style="fill:#ed2024;fill-opacity:1" />
  <path
     fill="#436F4D"
     d="M4 31h28c2.209 0 4-1.791 4-4v-5H0v5c0 2.209 1.791 4 4 4z"
     id="path1347"
     style="fill:#278e43;fill-opacity:1" />
  <path
     d="m 17.99997,10.5 0.562,3.81321 1.661099,-3.47817 -0.586899,3.80952 2.612451,-2.83401 -1.683702,3.46719 3.331701,-1.93803 -2.630799,2.81688 3.754899,-0.86994 -3.34425,1.91634 3.8445,0.27552 -3.7605,0.84543 3.5925,1.39647 -3.842601,-0.30057 3.021252,2.39337 -3.583302,-1.41987 2.1816,3.17751 -3.005649,-2.41296 1.1481,3.67947 -2.160849,-3.1917 L 19.124031,25.5 17.99999,21.81321 16.87588,25.5 l 0.0126,-3.85434 -2.16085,3.1917 1.1481,-3.67947 -3.00564,2.41302 2.1816,-3.17757 -3.58332,1.41987 3.02127,-2.39337 -3.84261,0.30057 3.5925,-1.3965 -3.7605,-0.8454 3.8445,-0.27552 -3.34425,-1.91634 3.75489,0.86994 -2.63079,-2.81688 3.33171,1.938 -1.68372,-3.46716 2.61246,2.83401 -0.58689,-3.80952 1.66104,3.47817 z"
     fill="#febd11"
     fill-rule="evenodd"
     id="path268"
     style="stroke-width:0.0500001" />
</svg>
