<?xml version="1.0" encoding="UTF-8" standalone="no"?>
<svg
   viewBox="0 0 36 36"
   version="1.1"
   id="svg20172"
   sodipodi:docname="leibaus.svg"
   inkscape:version="1.2.1 (9c6d41e410, 2022-07-14)"
   inkscape:export-filename="leibaus.png"
   inkscape:export-xdpi="96"
   inkscape:export-ydpi="96"
   xmlns:inkscape="http://www.inkscape.org/namespaces/inkscape"
   xmlns:sodipodi="http://sodipodi.sourceforge.net/DTD/sodipodi-0.dtd"
   xmlns="http://www.w3.org/2000/svg"
   xmlns:svg="http://www.w3.org/2000/svg">
  <defs
     id="defs20176" />
  <sodipodi:namedview
     id="namedview20174"
     pagecolor="#ffffff"
     bordercolor="#000000"
     borderopacity="0.25"
     inkscape:showpageshadow="2"
     inkscape:pageopacity="0.0"
     inkscape:pagecheckerboard="0"
     inkscape:deskcolor="#d1d1d1"
     showgrid="false"
     inkscape:zoom="22.555556"
     inkscape:cx="17.977833"
     inkscape:cy="18"
     inkscape:window-width="1920"
     inkscape:window-height="1021"
     inkscape:window-x="-8"
     inkscape:window-y="-8"
     inkscape:window-maximized="1"
     inkscape:current-layer="svg20172" />
  <path
     fill="#E41E20"
     d="M32 5H4C1.791 5 0 6.791 0 9v18c0 2.209 1.791 4 4 4h28c2.209 0 4-1.791 4-4V9c0-2.209-1.791-4-4-4z"
     id="path20166" />
  <g
     id="g1269"
     transform="matrix(0.05912954,0,0,0.05912953,-44.492959,1.7972702)"
     style="display:inline">
    <path
       id="path1234"
       d="m 862.45452,274.02095 148.97418,-9.04158 -134.17434,-65.36201 141.09454,48.65633 -98.94857,-111.73462 111.73457,98.9486 -48.65628,-141.09457 65.36198,134.17431 9.0416,-148.974145 9.0416,148.974145 65.3624,-134.17431 -48.6572,141.09457 111.7342,-98.9486 -98.9477,111.73462 141.095,-48.65633 -134.1734,65.36201 148.9728,9.04158 -148.9728,9.04157 134.1734,65.36201 -141.095,-48.65633 98.9477,111.73462 -111.7342,-98.94859 48.6572,141.09456 -65.3624,-134.17431 -9.0416,148.97415 -9.0416,-148.97415 -65.36198,134.17431 48.65628,-141.09456 -111.73457,98.94859 98.94857,-111.73462 -141.09454,48.65633 134.17434,-65.36201 z"
       inkscape:connector-curvature="0"
       style="fill:#e6e6e6;fill-opacity:1;fill-rule:evenodd;stroke:#808080;stroke-width:2;stroke-miterlimit:4;stroke-dasharray:none;stroke-opacity:1" />
    <path
       id="path1236"
       d="M 892.19052,274.02095 1021.3234,266.9479 904.72676,210.99664 1026.7368,253.8787 940.42688,157.56563 1036.74,243.87551 993.8579,121.8655 l 55.9513,116.59668 7.073,-129.13292 7.0731,129.13292 55.9489,-116.59668 -42.8793,122.01001 96.3126,-86.30988 -86.3121,96.31307 122.0136,-42.88206 -116.5971,55.95126 129.132,7.07305 -129.132,7.07305 116.5971,55.95125 -122.0136,-42.88205 86.3121,96.31307 -96.3126,-86.30988 42.8793,122.01 -55.9489,-116.59668 -7.0731,129.13292 -7.073,-129.13292 -55.9513,116.59668 42.8821,-122.01 -96.31312,86.30988 86.30992,-96.31307 -122.01004,42.88205 116.59664,-55.95125 z"
       inkscape:connector-curvature="0"
       style="fill:#f2f2f2;fill-opacity:1;fill-rule:evenodd;stroke-width:0.457477" />
    <path
       id="path1238"
       d="m 921.46904,274.02095 109.11646,-5.23079 -98.80905,-46.58899 102.81245,36.92387 -73.4589,-80.8563 80.8563,73.4589 -36.9239,-102.81244 46.589,98.80906 5.2308,-109.11648 5.2308,109.11648 46.5876,-98.80906 -36.9225,102.81244 80.854,-73.4589 -73.457,80.8563 102.8133,-36.92387 -98.8104,46.58899 109.1174,5.23079 -109.1174,5.23079 98.8104,46.58899 -102.8133,-36.92388 73.457,80.8563 -80.854,-73.4589 36.9225,102.81245 -46.5876,-98.80907 -5.2308,109.11648 -5.2308,-109.11648 -46.589,98.80907 36.9239,-102.81245 -80.8563,73.4589 73.4589,-80.8563 -102.81245,36.92388 98.80905,-46.58899 z"
       inkscape:connector-curvature="0"
       style="fill:#ffffff;fill-rule:evenodd;stroke-width:0.457477" />
  </g>
</svg>
