<?xml version="1.0" encoding="UTF-8" standalone="no"?>
<svg
   viewBox="0 0 36 36"
   version="1.1"
   id="svg61456"
   sodipodi:docname="lorena.svg"
   inkscape:version="1.2.1 (9c6d41e410, 2022-07-14)"
   inkscape:export-filename="PNG\lorena.png"
   inkscape:export-xdpi="96"
   inkscape:export-ydpi="96"
   xmlns:inkscape="http://www.inkscape.org/namespaces/inkscape"
   xmlns:sodipodi="http://sodipodi.sourceforge.net/DTD/sodipodi-0.dtd"
   xmlns="http://www.w3.org/2000/svg"
   xmlns:svg="http://www.w3.org/2000/svg">
  <defs
     id="defs61460">
    <clipPath
       clipPathUnits="userSpaceOnUse"
       id="clipPath841">
      <path
         id="path843"
         style="font-variation-settings:normal;opacity:1;vector-effect:none;fill:#eeeeee;fill-opacity:1;stroke:none;stroke-width:3.03051;stroke-linecap:butt;stroke-linejoin:miter;stroke-miterlimit:4;stroke-dasharray:none;stroke-dashoffset:0;stroke-opacity:1;-inkscape-stroke:none;marker:none;marker-start:none;marker-mid:none;marker-end:none;stop-color:#000000;stop-opacity:1"
         d="m -16.172413,7.4827565 c -2.208998,0 -4,1.7910022 -4,4.0000005 v 8.999999 9 c 0,2.208999 1.791002,4 4,4 h 28 c 2.208998,0 4,-1.791001 4,-4 v -9 -8.999999 c 0,-2.2089983 -1.791002,-4.0000005 -4,-4.0000005 z" />
    </clipPath>
  </defs>
  <sodipodi:namedview
     id="namedview61458"
     pagecolor="#ffffff"
     bordercolor="#000000"
     borderopacity="0.25"
     inkscape:showpageshadow="2"
     inkscape:pageopacity="0.0"
     inkscape:pagecheckerboard="0"
     inkscape:deskcolor="#d1d1d1"
     showgrid="false"
     inkscape:zoom="22.555556"
     inkscape:cx="17.933498"
     inkscape:cy="18"
     inkscape:window-width="1920"
     inkscape:window-height="1021"
     inkscape:window-x="-8"
     inkscape:window-y="-8"
     inkscape:window-maximized="1"
     inkscape:current-layer="svg61456" />
  <g
     id="g839"
     transform="translate(20.172413,-2.4827565)"
     clip-path="url(#clipPath841)">
    <path
       id="Layer"
       class="shp0"
       d="M -20.172414,7.4827501 H 15.827587 V 33.482763 h -36.000001 z"
       style="fill:#ffd700;stroke-width:0.109713" />
    <path
       id="path173"
       class="shp1"
       d="M -20.172414,12.538322 V 7.4827501 h 6.999999 L 15.827587,28.427191 v 5.055572 H 8.8275878 Z"
       style="fill:#c4001a;stroke-width:0.109713" />
    <g
       id="bird"
       transform="matrix(0.09999999,0,0,0.12037036,-20.172414,7.4827501)">
      <path
         id="path175"
         fill-rule="evenodd"
         class="shp2"
         d="m 189.42,82.05 c 0.76,0.06 0.79,0.07 0.76,0.2 -0.04,0.15 -0.55,1.05 -0.84,1.47 -0.34,0.5 -0.88,1 -1.55,1.44 -0.96,0.62 -1.11,0.73 -1.17,0.84 -0.04,0.09 -0.03,0.12 0.05,0.18 0.17,0.14 1.45,0.39 2.54,0.48 1.37,0.13 2.54,-0.03 5.74,-0.75 1.05,-0.24 1.33,-0.29 1.36,-0.25 0.06,0.08 0,1.06 -0.08,1.47 -0.28,1.32 -1.12,2.4 -2.89,3.69 -0.29,0.21 -0.51,0.4 -0.49,0.42 0.05,0.04 2.71,0.57 3.41,0.68 0.91,0.13 1.45,0.16 3.03,0.16 1.48,0 2.28,-0.05 4.57,-0.26 0.2,-0.02 0.25,-0.02 0.25,0.03 0,0.08 -0.38,0.68 -0.83,1.32 -0.46,0.64 -1.34,1.54 -2,2.04 -1.42,1.06 -2.7,1.56 -5.01,1.95 -0.22,0.04 -0.4,0.09 -0.38,0.1 0.04,0.04 1.15,0.37 1.85,0.54 1.54,0.39 2.34,0.48 4.52,0.5 1.79,0.02 2.3,0 4.05,-0.16 0.52,-0.04 0.97,-0.07 0.98,-0.06 0.03,0.03 -0.3,0.45 -0.74,0.95 -1.07,1.2 -2.54,1.92 -4.83,2.39 -3.11,0.64 -8.13,0.9 -11.16,0.59 -1.01,-0.11 -1.77,-0.25 -2.85,-0.54 -0.33,-0.09 -0.62,-0.16 -0.64,-0.16 -0.11,0 0.56,0.75 0.93,1.05 0.32,0.26 2.04,1.52 2.12,1.55 0.04,0.01 0.04,0.03 0.02,0.06 -0.07,0.07 -0.55,0.12 -1.69,0.17 -2.27,0.1 -3.9,-0.16 -5.21,-0.81 -0.34,-0.17 -0.85,-0.5 -1.38,-0.9 -0.24,-0.17 -0.44,-0.32 -0.46,-0.32 -0.03,0 0.28,0.62 0.57,1.12 0.75,1.31 2.17,2.72 3.3,3.29 0.46,0.24 1.15,0.46 1.67,0.55 0.54,0.09 0.49,0.11 0.83,-0.35 0.36,-0.5 0.98,-1.15 1.32,-1.39 0.29,-0.21 0.69,-0.41 0.99,-0.49 0.3,-0.08 1.29,-0.07 1.78,0.01 0.76,0.13 1.62,0.48 2.08,0.86 0.29,0.23 0.52,0.53 0.74,0.93 l 0.17,0.31 -0.32,0.05 c -0.75,0.11 -1.1,0.47 -1.23,1.25 -0.07,0.4 0.12,1.13 0.35,1.38 0.12,0.14 0.39,0.26 0.93,0.45 0.62,0.21 0.73,0.27 0.75,0.45 0.01,0.12 -0.02,0.16 -0.26,0.39 -0.14,0.13 -0.44,0.37 -0.67,0.51 -0.39,0.26 -0.56,0.44 -0.62,0.66 -0.02,0.07 -0.01,0.1 0.05,0.13 0.09,0.05 0.08,0.05 2.45,0.24 1.61,0.13 2.04,0.15 3.16,0.15 1.46,0 1.83,-0.04 2.63,-0.24 0.99,-0.26 1.75,-0.56 2.45,-0.96 1.84,-1.08 3.04,-1.51 4.04,-1.43 1.82,0.15 3.9,1.65 4.34,3.14 0.04,0.12 0.08,0.37 0.09,0.56 0.03,0.35 -0.04,1.21 -0.1,1.27 -0.01,0.02 -0.1,-0.02 -0.19,-0.08 -1.44,-1 -2.16,-1.32 -3.17,-1.44 -0.82,-0.09 -1.14,0.01 -2.37,0.74 -1.37,0.82 -1.92,1.07 -2.87,1.31 -0.96,0.26 -2.15,0.43 -4,0.59 -0.56,0.05 -1.02,0.1 -1.03,0.11 -0.04,0.04 0.67,0.61 1.13,0.91 0.89,0.58 1.81,0.88 3.32,1.1 0.76,0.11 1.44,0.14 2.88,0.14 1.89,0 2.37,-0.04 4.09,-0.36 0.47,-0.09 0.85,-0.15 0.87,-0.15 0.03,0.05 -0.06,0.22 -0.37,0.69 -0.91,1.37 -1.55,1.98 -2.67,2.51 -1.29,0.62 -2.76,0.87 -5.47,0.94 -0.53,0.01 -1.01,0.03 -1.06,0.04 -0.09,0.02 -0.08,0.04 0.16,0.35 0.35,0.46 1.05,1.18 1.34,1.38 0.99,0.7 2.39,0.95 4.2,0.73 0.33,-0.03 0.63,-0.05 0.67,-0.04 0.11,0.04 0.04,0.61 -0.11,0.93 -0.24,0.5 -0.69,1 -1.12,1.24 l -0.21,0.12 0.3,0.35 c 0.34,0.39 0.65,0.97 0.86,1.56 0.13,0.39 0.21,0.94 0.21,1.59 v 0.37 l -0.46,0.09 c -0.65,0.12 -1.05,0.14 -1.51,0.08 -0.76,-0.09 -1.39,-0.36 -2.19,-0.92 -0.23,-0.16 -0.44,-0.29 -0.46,-0.28 -0.02,0.01 -0.14,0.15 -0.27,0.31 -0.43,0.56 -0.92,0.8 -1.69,0.84 l -0.45,0.02 -0.03,-0.44 c -0.01,-0.24 -0.06,-0.72 -0.1,-1.06 -0.19,-1.42 -0.37,-1.95 -0.93,-2.62 -0.25,-0.3 -1.45,-1.43 -1.52,-1.43 -0.03,0 -0.06,0.26 -0.1,0.72 -0.13,2.01 -0.31,3.06 -0.66,3.88 -0.43,1.02 -1.19,1.78 -2.18,2.2 -0.53,0.21 -1.97,0.58 -2.04,0.51 -0.02,-0.02 0.07,-0.2 0.2,-0.42 0.87,-1.55 1.13,-2.43 1.24,-4.2 0.07,-1.09 -0.05,-2.9 -0.27,-3.93 -0.19,-0.97 -0.52,-1.7 -0.97,-2.2 -0.22,-0.23 -0.26,-0.19 -0.26,0.29 0,0.38 -0.09,1.33 -0.16,1.63 -0.11,0.54 -0.57,1.26 -1.39,2.21 -0.9,1.05 -1.41,1.9 -1.58,2.68 -0.13,0.57 -0.02,1.47 0.26,2.12 0.26,0.63 0.75,1.3 1.09,1.52 l 0.1,0.06 -0.09,0.05 c -0.15,0.08 -0.49,0.13 -0.94,0.13 -0.38,0 -0.46,-0.02 -0.85,-0.15 -0.51,-0.18 -1.38,-0.6 -1.78,-0.85 -0.48,-0.31 -0.91,-0.67 -1.36,-1.12 -0.65,-0.66 -0.9,-1.03 -1.1,-1.63 -0.18,-0.53 -0.22,-0.92 -0.2,-1.81 0.02,-0.72 0.03,-0.8 0.13,-1.1 0.14,-0.41 0.25,-0.6 0.84,-1.48 0.95,-1.42 1.04,-1.71 1.08,-3.47 0.02,-1.17 -0.03,-2.11 -0.13,-2.66 -0.06,-0.33 -0.2,-0.62 -0.28,-0.62 -0.1,0 -0.36,0.27 -0.83,0.89 -0.5,0.65 -0.64,0.78 -0.76,0.7 -0.04,-0.02 -0.22,-0.28 -0.39,-0.56 -0.71,-1.19 -1.11,-1.56 -1.79,-1.69 -0.52,-0.09 -1.26,0.07 -1.92,0.42 -0.3,0.16 -1.15,0.75 -1.58,1.1 l -0.23,0.19 -0.25,-0.76 c -0.32,-1.01 -0.4,-1.32 -0.46,-1.85 -0.04,-0.38 -0.03,-0.51 0.02,-0.84 0.05,-0.23 0.12,-0.52 0.18,-0.67 0.14,-0.35 0.42,-0.78 0.63,-0.96 0.17,-0.14 0.69,-0.42 0.79,-0.42 0.02,0 0.09,-0.02 0.15,-0.04 0.1,-0.04 0.1,-0.05 0.06,-0.13 -0.09,-0.17 -0.33,-0.44 -0.48,-0.54 -0.08,-0.06 -0.62,-0.24 -1.34,-0.44 -2.7,-0.78 -4.6,-1.54 -6.8,-2.72 -2.52,-1.35 -4.3,-2.63 -5.23,-3.73 -0.77,-0.93 -1.15,-1.74 -1.6,-3.44 -0.05,-0.18 -0.1,-0.33 -0.12,-0.33 -0.02,0 -0.15,0.19 -0.28,0.43 -0.98,1.69 -2.31,2.7 -3.73,2.87 l -0.23,0.03 0.24,-0.63 c 0.58,-1.55 0.99,-2.99 1.11,-3.89 0.09,-0.66 0.06,-1.86 -0.06,-2.41 -0.12,-0.55 -0.76,-2.51 -0.94,-2.84 -0.03,-0.06 -0.07,-0.04 -0.38,0.14 -0.75,0.43 -1.42,0.62 -2.08,0.58 -0.21,-0.01 -0.44,-0.04 -0.51,-0.06 -0.11,-0.03 -0.12,-0.04 -0.12,-0.27 0.01,-0.13 0.03,-0.43 0.06,-0.66 0.07,-0.53 0.04,-1.06 -0.07,-1.31 -0.09,-0.2 -0.36,-0.45 -0.57,-0.54 -0.89,-0.38 -2.22,-0.3 -2.63,0.17 -0.12,0.13 -0.29,0.52 -0.29,0.66 0,0.1 -0.16,0.57 -0.31,0.9 -0.26,0.56 -0.7,0.85 -1.33,0.86 -0.75,0 -1.42,-0.33 -1.98,-0.98 -0.4,-0.47 -0.61,-0.84 -0.87,-1.54 -0.68,-1.8 -0.77,-2.84 -0.34,-3.88 0.31,-0.76 0.74,-1.31 1.37,-1.8 0.52,-0.41 0.84,-0.57 1.8,-0.93 0.49,-0.19 0.97,-0.39 1.06,-0.45 0.21,-0.14 0.38,-0.4 0.51,-0.81 0.1,-0.29 0.11,-0.39 0.11,-0.89 0,-0.48 -0.02,-0.61 -0.09,-0.83 -0.05,-0.15 -0.09,-0.3 -0.09,-0.36 0,-0.08 0.02,-0.09 0.09,-0.07 0.26,0.08 0.68,0.28 1.07,0.51 0.9,0.53 1.8,1.64 2.09,2.56 0.12,0.38 0.3,0.63 0.56,0.76 0.54,0.28 2.13,0.26 3.13,-0.03 0.69,-0.19 1.35,-0.56 2.01,-1.09 0.18,-0.15 0.33,-0.26 0.35,-0.26 0.05,0 0.14,0.4 0.21,0.88 0.06,0.41 0.02,0.69 -0.21,1.41 -0.19,0.61 -0.23,0.97 -0.1,1.11 0.27,0.29 2.29,1.22 3.56,1.63 0.85,0.27 1.85,0.49 2.75,0.61 0.24,0.03 0.46,0.08 0.48,0.1 0.06,0.06 -0.24,0.23 -1.14,0.68 -0.44,0.21 -0.87,0.42 -0.97,0.47 -0.27,0.13 -0.52,0.4 -0.55,0.58 -0.07,0.32 0.19,0.81 0.84,1.57 0.18,0.22 0.44,0.54 0.58,0.71 0.56,0.71 0.95,1.08 1.2,1.11 0.23,0.03 0.43,-0.04 0.86,-0.33 0.4,-0.27 1.71,-1.01 3.55,-2.04 l 1.2,-0.66 v -0.6 c 0,-0.73 -0.07,-1.1 -0.28,-1.55 -0.21,-0.42 -0.34,-0.57 -0.77,-0.86 -0.47,-0.32 -0.69,-0.39 -1.53,-0.53 -1.18,-0.2 -1.62,-0.34 -1.85,-0.62 -0.1,-0.12 -0.11,-0.15 -0.09,-0.38 0.04,-0.4 0.31,-0.93 0.69,-1.32 0.49,-0.51 0.49,-0.49 0.52,-1.83 0.01,-0.77 0.03,-1.17 0.07,-1.25 0.18,-0.43 0.6,-0.65 1.54,-0.81 0.34,-0.06 0.66,-0.06 2.77,-0.04 3.15,0.04 4.8,-0.02 6.01,-0.23 0.93,-0.15 1.19,-0.25 2.69,-1.04 0.61,-0.32 0.83,-0.38 1.5,-0.41 0.58,-0.02 1.19,-0.01 1.91,0.04 z m -34.5,7.12 c -0.01,-0.01 -0.13,0.06 -0.27,0.15 -0.33,0.22 -0.67,0.32 -1.25,0.38 -0.26,0.02 -0.68,0.06 -0.92,0.08 -0.44,0.04 -0.72,0.12 -0.83,0.25 -0.04,0.06 -0.05,0.25 -0.01,1.13 0.02,0.59 0.06,1.14 0.09,1.23 0.03,0.11 0.14,0.25 0.35,0.46 l 0.3,0.3 0.13,-0.14 c 0.07,-0.08 0.23,-0.26 0.35,-0.4 0.39,-0.45 0.75,-0.62 1.55,-0.75 0.28,-0.05 0.43,-0.09 0.42,-0.12 -0.01,-0.02 -0.05,-0.19 -0.09,-0.36 -0.1,-0.45 -0.07,-1.19 0.08,-1.76 0.06,-0.24 0.1,-0.43 0.1,-0.45 z"
         style="fill:#ffffff" />
      <path
         id="path177"
         class="shp2"
         d="m 153.75,91.56 c -0.1,0.35 -0.49,0.6 -0.85,0.54 -0.37,-0.06 -0.68,-0.45 -0.63,-0.8 0.03,-0.22 0.21,-0.47 0.43,-0.58 0.55,-0.29 1.21,0.25 1.05,0.84 z"
         style="fill:#ffffff" />
      <path
         id="path179"
         class="shp2"
         d="m 165.14,104.16 c 0.05,0.03 0.2,0.26 0.34,0.51 1,1.8 1.88,2.77 3.47,3.84 0.59,0.4 1.46,0.89 2.21,1.25 1.08,0.52 1.55,0.68 2.65,0.91 1.29,0.27 2,0.62 2.63,1.3 1.04,1.12 1.47,2.43 1.48,4.52 0,1.47 -0.17,2.05 -0.81,2.71 -0.12,0.13 -0.24,0.23 -0.27,0.22 -0.06,-0.02 -0.09,-0.11 -0.53,-1.21 -0.34,-0.87 -0.91,-2.04 -1.29,-2.61 -0.51,-0.78 -1.02,-1.33 -1.62,-1.76 -0.27,-0.19 -1.48,-0.82 -1.52,-0.79 0,0.01 0.22,0.48 0.5,1.05 0.27,0.57 0.59,1.25 0.7,1.5 0.86,1.97 1.33,3.96 1.55,6.6 0.07,0.82 0.07,4.42 0,5.13 -0.29,2.99 -0.88,4.7 -2.17,6.29 -0.35,0.44 -1.08,1.26 -1.12,1.26 -0.04,0 -0.07,-0.22 -0.16,-1.38 -0.31,-4.13 -0.78,-7.02 -1.41,-8.71 -0.23,-0.61 -0.41,-1.04 -0.45,-1.04 -0.01,0 -0.06,0.12 -0.1,0.26 -0.03,0.14 -0.2,0.67 -0.37,1.18 -0.89,2.71 -2.05,4.93 -3.19,6.07 -0.46,0.46 -0.74,0.66 -1.21,0.85 -0.29,0.12 -1.01,0.29 -1.05,0.26 -0.01,-0.01 0.02,-0.28 0.06,-0.61 0.26,-1.93 0.49,-4.36 0.55,-5.74 0.08,-2.16 -0.34,-4.02 -1.29,-5.67 -0.44,-0.78 -1.43,-2.21 -1.55,-2.25 -0.03,0 -0.1,0.28 -0.19,0.75 -0.67,3.37 -1.19,4.86 -2.18,6.26 -0.33,0.47 -1.25,1.39 -1.7,1.71 -0.44,0.3 -1.1,0.64 -1.59,0.82 -0.4,0.14 -1.37,0.4 -1.39,0.38 -0.01,-0.01 0.12,-0.26 0.29,-0.56 0.99,-1.73 1.4,-3.12 1.61,-5.46 0.07,-0.76 0.07,-3.06 0,-3.65 -0.09,-0.76 -0.32,-2 -0.35,-1.9 -0.01,0.02 -0.05,0.4 -0.1,0.83 -0.11,0.99 -0.21,1.51 -0.41,2.12 -0.38,1.17 -0.98,2.07 -2.06,3.13 -0.91,0.88 -2.05,1.69 -2.96,2.11 -0.85,0.39 -1.97,0.65 -2.83,0.65 H 147 l 0.36,-1.08 c 0.46,-1.33 0.74,-2.05 1.26,-3.15 1.2,-2.52 1.38,-2.94 1.59,-3.78 0.24,-0.95 0.33,-1.96 0.29,-3.52 -0.01,-0.61 -0.05,-1.38 -0.07,-1.71 -0.07,-0.92 0.04,-1.64 0.37,-2.31 0.49,-0.99 1.55,-1.93 2.53,-2.26 0.85,-0.28 2.14,-0.41 2.69,-0.27 0.56,0.13 1.19,0.57 1.52,1.04 0.19,0.28 0.3,0.58 0.44,1.2 0.16,0.74 0.47,1.22 0.92,1.44 0.42,0.2 0.86,0.25 1.63,0.16 0.97,-0.11 1.56,-0.43 1.87,-1 0.18,-0.34 0.24,-0.61 0.33,-1.52 0.15,-1.5 0.33,-2.18 0.79,-3.11 0.31,-0.61 0.76,-1.18 1.05,-1.31 0.14,-0.07 0.44,-0.04 0.57,0.05 z"
         style="fill:#ffffff" />
    </g>
    <g
       id="g188"
       transform="matrix(0.09999999,0,0,0.12037036,-20.172414,7.4827501)">
      <path
         id="path182"
         fill-rule="evenodd"
         class="shp2"
         d="m 286.42,141.05 c 0.76,0.06 0.79,0.07 0.76,0.2 -0.04,0.15 -0.55,1.05 -0.84,1.47 -0.34,0.5 -0.88,1 -1.55,1.44 -0.96,0.62 -1.11,0.73 -1.17,0.84 -0.04,0.09 -0.03,0.12 0.05,0.18 0.17,0.14 1.45,0.39 2.54,0.48 1.37,0.13 2.54,-0.03 5.74,-0.75 1.05,-0.24 1.33,-0.29 1.36,-0.25 0.06,0.08 0,1.06 -0.08,1.47 -0.28,1.32 -1.12,2.4 -2.89,3.69 -0.29,0.21 -0.51,0.4 -0.49,0.42 0.05,0.04 2.71,0.57 3.41,0.68 0.91,0.13 1.45,0.16 3.03,0.16 1.48,0 2.28,-0.05 4.57,-0.26 0.2,-0.02 0.25,-0.02 0.25,0.03 0,0.08 -0.38,0.68 -0.83,1.32 -0.46,0.64 -1.34,1.54 -2,2.04 -1.42,1.06 -2.7,1.56 -5.01,1.95 -0.22,0.04 -0.4,0.09 -0.38,0.1 0.04,0.04 1.15,0.37 1.85,0.54 1.54,0.39 2.34,0.48 4.52,0.5 1.79,0.02 2.3,0 4.05,-0.16 0.52,-0.04 0.97,-0.07 0.98,-0.06 0.03,0.03 -0.3,0.45 -0.74,0.95 -1.07,1.2 -2.54,1.92 -4.83,2.39 -3.11,0.64 -8.13,0.9 -11.16,0.59 -1.01,-0.11 -1.77,-0.25 -2.85,-0.54 -0.33,-0.09 -0.62,-0.16 -0.64,-0.16 -0.11,0 0.56,0.75 0.93,1.05 0.32,0.26 2.04,1.52 2.12,1.55 0.04,0.01 0.04,0.03 0.02,0.06 -0.07,0.07 -0.55,0.12 -1.69,0.17 -2.27,0.1 -3.9,-0.16 -5.21,-0.81 -0.34,-0.17 -0.85,-0.5 -1.38,-0.9 -0.24,-0.17 -0.44,-0.32 -0.46,-0.32 -0.03,0 0.28,0.62 0.57,1.12 0.75,1.31 2.17,2.72 3.3,3.29 0.46,0.24 1.15,0.46 1.67,0.55 0.54,0.09 0.49,0.11 0.83,-0.35 0.36,-0.5 0.98,-1.15 1.32,-1.39 0.29,-0.21 0.69,-0.41 0.99,-0.49 0.3,-0.08 1.29,-0.07 1.78,0.01 0.76,0.13 1.62,0.48 2.08,0.86 0.29,0.23 0.52,0.53 0.74,0.93 l 0.17,0.31 -0.32,0.05 c -0.75,0.11 -1.1,0.47 -1.23,1.25 -0.07,0.4 0.12,1.13 0.35,1.38 0.12,0.14 0.39,0.26 0.93,0.45 0.62,0.21 0.73,0.27 0.75,0.45 0.01,0.12 -0.02,0.16 -0.26,0.39 -0.14,0.13 -0.44,0.37 -0.67,0.51 -0.39,0.26 -0.56,0.44 -0.62,0.66 -0.02,0.07 -0.01,0.1 0.05,0.13 0.09,0.05 0.08,0.05 2.45,0.24 1.61,0.13 2.04,0.15 3.16,0.15 1.46,0 1.83,-0.04 2.63,-0.24 0.99,-0.26 1.75,-0.56 2.45,-0.96 1.84,-1.08 3.04,-1.51 4.04,-1.43 1.82,0.15 3.9,1.65 4.34,3.14 0.04,0.12 0.08,0.37 0.09,0.56 0.03,0.35 -0.04,1.21 -0.1,1.27 -0.01,0.02 -0.1,-0.02 -0.19,-0.08 -1.44,-1 -2.16,-1.32 -3.17,-1.44 -0.82,-0.09 -1.14,0.01 -2.37,0.74 -1.37,0.82 -1.92,1.07 -2.87,1.31 -0.96,0.26 -2.15,0.43 -4,0.59 -0.56,0.05 -1.02,0.1 -1.03,0.11 -0.04,0.04 0.67,0.61 1.13,0.91 0.89,0.58 1.81,0.88 3.32,1.1 0.76,0.11 1.44,0.14 2.88,0.14 1.89,0 2.37,-0.04 4.09,-0.36 0.47,-0.09 0.85,-0.15 0.87,-0.15 0.03,0.05 -0.06,0.22 -0.37,0.69 -0.91,1.37 -1.55,1.98 -2.67,2.51 -1.29,0.62 -2.76,0.87 -5.47,0.94 -0.53,0.01 -1.01,0.03 -1.06,0.04 -0.09,0.02 -0.08,0.04 0.16,0.35 0.35,0.46 1.05,1.18 1.34,1.38 0.99,0.7 2.39,0.95 4.2,0.73 0.33,-0.03 0.63,-0.05 0.67,-0.04 0.11,0.04 0.04,0.61 -0.11,0.93 -0.24,0.5 -0.69,1 -1.12,1.24 l -0.21,0.12 0.3,0.35 c 0.34,0.39 0.65,0.97 0.86,1.56 0.13,0.39 0.21,0.94 0.21,1.59 v 0.37 l -0.46,0.09 c -0.65,0.12 -1.05,0.14 -1.51,0.08 -0.76,-0.09 -1.39,-0.36 -2.19,-0.92 -0.23,-0.16 -0.44,-0.29 -0.46,-0.28 -0.02,0.01 -0.14,0.15 -0.27,0.31 -0.43,0.56 -0.92,0.8 -1.69,0.84 l -0.45,0.02 -0.03,-0.44 c -0.01,-0.24 -0.06,-0.72 -0.1,-1.06 -0.19,-1.42 -0.37,-1.95 -0.93,-2.62 -0.25,-0.3 -1.45,-1.43 -1.52,-1.43 -0.03,0 -0.06,0.26 -0.1,0.72 -0.13,2.01 -0.31,3.06 -0.66,3.88 -0.43,1.02 -1.19,1.78 -2.18,2.2 -0.53,0.21 -1.97,0.58 -2.04,0.51 -0.02,-0.02 0.07,-0.2 0.2,-0.42 0.87,-1.55 1.13,-2.43 1.24,-4.2 0.07,-1.09 -0.05,-2.9 -0.27,-3.93 -0.19,-0.97 -0.52,-1.7 -0.97,-2.2 -0.22,-0.23 -0.26,-0.19 -0.26,0.29 0,0.38 -0.09,1.33 -0.16,1.63 -0.11,0.54 -0.57,1.26 -1.39,2.21 -0.9,1.05 -1.41,1.9 -1.58,2.68 -0.13,0.57 -0.02,1.47 0.26,2.12 0.26,0.63 0.75,1.3 1.09,1.52 l 0.1,0.06 -0.09,0.05 c -0.15,0.08 -0.49,0.13 -0.94,0.13 -0.38,0 -0.46,-0.02 -0.85,-0.15 -0.51,-0.18 -1.38,-0.6 -1.78,-0.85 -0.48,-0.31 -0.91,-0.67 -1.36,-1.12 -0.65,-0.66 -0.9,-1.03 -1.1,-1.63 -0.18,-0.53 -0.22,-0.92 -0.2,-1.81 0.02,-0.72 0.03,-0.8 0.13,-1.1 0.14,-0.41 0.25,-0.6 0.84,-1.48 0.95,-1.42 1.04,-1.71 1.08,-3.47 0.02,-1.17 -0.03,-2.11 -0.13,-2.66 -0.06,-0.33 -0.2,-0.62 -0.28,-0.62 -0.1,0 -0.36,0.27 -0.83,0.89 -0.5,0.65 -0.64,0.78 -0.76,0.7 -0.04,-0.02 -0.22,-0.28 -0.39,-0.56 -0.71,-1.19 -1.11,-1.56 -1.79,-1.69 -0.52,-0.09 -1.26,0.07 -1.92,0.42 -0.3,0.16 -1.15,0.75 -1.58,1.1 l -0.23,0.19 -0.25,-0.76 c -0.32,-1.01 -0.4,-1.32 -0.46,-1.85 -0.04,-0.38 -0.03,-0.51 0.02,-0.84 0.05,-0.23 0.12,-0.52 0.18,-0.67 0.14,-0.35 0.42,-0.78 0.63,-0.96 0.17,-0.14 0.69,-0.42 0.79,-0.42 0.02,0 0.09,-0.02 0.15,-0.04 0.1,-0.04 0.1,-0.05 0.06,-0.13 -0.09,-0.17 -0.33,-0.44 -0.48,-0.54 -0.08,-0.06 -0.62,-0.24 -1.34,-0.44 -2.7,-0.78 -4.6,-1.54 -6.8,-2.72 -2.52,-1.35 -4.3,-2.63 -5.23,-3.73 -0.77,-0.93 -1.15,-1.74 -1.6,-3.44 -0.05,-0.18 -0.1,-0.33 -0.12,-0.33 -0.02,0 -0.15,0.19 -0.28,0.43 -0.98,1.69 -2.31,2.7 -3.73,2.87 l -0.23,0.03 0.24,-0.63 c 0.58,-1.55 0.99,-2.99 1.11,-3.89 0.09,-0.66 0.06,-1.86 -0.06,-2.41 -0.12,-0.55 -0.76,-2.51 -0.94,-2.84 -0.03,-0.06 -0.07,-0.04 -0.38,0.14 -0.75,0.43 -1.42,0.62 -2.08,0.58 -0.21,-0.01 -0.44,-0.04 -0.51,-0.06 -0.11,-0.03 -0.12,-0.04 -0.12,-0.27 0.01,-0.13 0.03,-0.43 0.06,-0.66 0.07,-0.53 0.04,-1.06 -0.07,-1.31 -0.09,-0.2 -0.36,-0.45 -0.57,-0.54 -0.89,-0.38 -2.22,-0.3 -2.63,0.17 -0.12,0.13 -0.29,0.52 -0.29,0.66 0,0.1 -0.16,0.57 -0.31,0.9 -0.26,0.56 -0.7,0.85 -1.33,0.86 -0.75,0 -1.42,-0.33 -1.98,-0.98 -0.4,-0.47 -0.61,-0.84 -0.87,-1.54 -0.68,-1.8 -0.77,-2.84 -0.34,-3.88 0.31,-0.76 0.74,-1.31 1.37,-1.8 0.52,-0.41 0.84,-0.57 1.8,-0.93 0.49,-0.19 0.97,-0.39 1.06,-0.45 0.21,-0.14 0.38,-0.4 0.51,-0.81 0.1,-0.29 0.11,-0.39 0.11,-0.89 0,-0.48 -0.02,-0.61 -0.09,-0.83 -0.05,-0.15 -0.09,-0.3 -0.09,-0.36 0,-0.08 0.02,-0.09 0.09,-0.07 0.26,0.08 0.68,0.28 1.07,0.51 0.9,0.53 1.8,1.64 2.09,2.56 0.12,0.38 0.3,0.63 0.56,0.76 0.54,0.28 2.13,0.26 3.13,-0.03 0.69,-0.19 1.35,-0.56 2.01,-1.09 0.18,-0.15 0.33,-0.26 0.35,-0.26 0.05,0 0.14,0.4 0.21,0.88 0.06,0.41 0.02,0.69 -0.21,1.41 -0.19,0.61 -0.23,0.97 -0.1,1.11 0.27,0.29 2.29,1.22 3.56,1.63 0.85,0.27 1.85,0.49 2.75,0.61 0.24,0.03 0.46,0.08 0.48,0.1 0.06,0.06 -0.24,0.23 -1.14,0.68 -0.44,0.21 -0.87,0.42 -0.97,0.47 -0.27,0.13 -0.52,0.4 -0.55,0.58 -0.07,0.32 0.19,0.81 0.84,1.57 0.18,0.22 0.44,0.54 0.58,0.71 0.56,0.71 0.95,1.08 1.2,1.11 0.23,0.03 0.43,-0.04 0.86,-0.33 0.4,-0.27 1.71,-1.01 3.55,-2.04 l 1.2,-0.66 v -0.6 c 0,-0.73 -0.07,-1.1 -0.28,-1.55 -0.21,-0.42 -0.34,-0.57 -0.77,-0.86 -0.47,-0.32 -0.69,-0.39 -1.53,-0.53 -1.18,-0.2 -1.62,-0.34 -1.85,-0.62 -0.1,-0.12 -0.11,-0.15 -0.09,-0.38 0.04,-0.4 0.31,-0.93 0.69,-1.32 0.49,-0.51 0.49,-0.49 0.52,-1.83 0.01,-0.77 0.03,-1.17 0.07,-1.25 0.18,-0.43 0.6,-0.65 1.54,-0.81 0.34,-0.06 0.66,-0.06 2.77,-0.04 3.15,0.04 4.8,-0.02 6.01,-0.23 0.93,-0.15 1.19,-0.25 2.69,-1.04 0.61,-0.32 0.83,-0.38 1.5,-0.41 0.58,-0.02 1.19,-0.01 1.91,0.04 z m -34.5,7.12 c -0.01,-0.01 -0.13,0.06 -0.27,0.15 -0.33,0.22 -0.67,0.32 -1.25,0.38 -0.26,0.02 -0.68,0.06 -0.92,0.08 -0.44,0.04 -0.72,0.12 -0.83,0.25 -0.04,0.06 -0.05,0.25 -0.01,1.13 0.02,0.59 0.06,1.14 0.09,1.23 0.03,0.11 0.14,0.25 0.35,0.46 l 0.3,0.3 0.13,-0.14 c 0.07,-0.08 0.23,-0.26 0.35,-0.4 0.39,-0.45 0.75,-0.62 1.55,-0.75 0.28,-0.05 0.43,-0.09 0.42,-0.12 -0.01,-0.02 -0.05,-0.19 -0.09,-0.36 -0.1,-0.45 -0.07,-1.19 0.08,-1.76 0.06,-0.24 0.1,-0.43 0.1,-0.45 z"
         style="fill:#ffffff" />
      <path
         id="path184"
         class="shp2"
         d="m 250.75,150.56 c -0.1,0.35 -0.49,0.6 -0.85,0.54 -0.37,-0.06 -0.68,-0.45 -0.63,-0.8 0.03,-0.22 0.21,-0.47 0.43,-0.58 0.55,-0.29 1.21,0.25 1.05,0.84 z"
         style="fill:#ffffff" />
      <path
         id="path186"
         class="shp2"
         d="m 262.14,163.16 c 0.05,0.03 0.2,0.26 0.34,0.51 1,1.8 1.88,2.77 3.47,3.84 0.59,0.4 1.46,0.89 2.21,1.25 1.08,0.52 1.55,0.68 2.65,0.91 1.29,0.27 2,0.62 2.63,1.3 1.04,1.12 1.47,2.43 1.48,4.52 0,1.47 -0.17,2.05 -0.81,2.71 -0.12,0.13 -0.24,0.23 -0.27,0.22 -0.06,-0.02 -0.09,-0.11 -0.53,-1.21 -0.34,-0.87 -0.91,-2.04 -1.29,-2.61 -0.51,-0.78 -1.02,-1.33 -1.62,-1.76 -0.27,-0.19 -1.48,-0.82 -1.52,-0.79 0,0.01 0.22,0.48 0.5,1.05 0.27,0.57 0.59,1.25 0.7,1.5 0.86,1.97 1.33,3.96 1.55,6.6 0.07,0.82 0.07,4.42 0,5.13 -0.29,2.99 -0.88,4.7 -2.17,6.29 -0.35,0.44 -1.08,1.26 -1.12,1.26 -0.04,0 -0.07,-0.22 -0.16,-1.38 -0.31,-4.13 -0.78,-7.02 -1.41,-8.71 -0.23,-0.61 -0.41,-1.04 -0.45,-1.04 -0.01,0 -0.06,0.12 -0.1,0.26 -0.03,0.14 -0.2,0.67 -0.37,1.18 -0.89,2.71 -2.05,4.93 -3.19,6.07 -0.46,0.46 -0.74,0.66 -1.21,0.85 -0.29,0.12 -1.01,0.29 -1.05,0.26 -0.01,-0.01 0.02,-0.28 0.06,-0.61 0.26,-1.93 0.49,-4.36 0.55,-5.74 0.08,-2.16 -0.34,-4.02 -1.29,-5.67 -0.44,-0.78 -1.43,-2.21 -1.55,-2.25 -0.03,0 -0.1,0.28 -0.19,0.75 -0.67,3.37 -1.19,4.86 -2.18,6.26 -0.33,0.47 -1.25,1.39 -1.7,1.71 -0.44,0.3 -1.1,0.64 -1.59,0.82 -0.4,0.14 -1.37,0.4 -1.39,0.38 -0.01,-0.01 0.12,-0.26 0.29,-0.56 0.99,-1.73 1.4,-3.12 1.61,-5.46 0.07,-0.76 0.07,-3.06 0,-3.65 -0.09,-0.76 -0.32,-2 -0.35,-1.9 -0.01,0.02 -0.05,0.4 -0.1,0.83 -0.11,0.99 -0.21,1.51 -0.41,2.12 -0.38,1.17 -0.98,2.07 -2.06,3.13 -0.91,0.88 -2.05,1.69 -2.96,2.11 -0.85,0.39 -1.97,0.65 -2.83,0.65 H 244 l 0.36,-1.08 c 0.46,-1.33 0.74,-2.05 1.26,-3.15 1.2,-2.52 1.38,-2.94 1.59,-3.78 0.24,-0.95 0.33,-1.96 0.29,-3.52 -0.01,-0.61 -0.05,-1.38 -0.07,-1.71 -0.07,-0.92 0.04,-1.64 0.37,-2.31 0.49,-0.99 1.55,-1.93 2.53,-2.26 0.85,-0.28 2.14,-0.41 2.69,-0.27 0.56,0.13 1.19,0.57 1.52,1.04 0.19,0.28 0.3,0.58 0.44,1.2 0.16,0.74 0.47,1.22 0.92,1.44 0.42,0.2 0.86,0.25 1.63,0.16 0.97,-0.11 1.56,-0.43 1.87,-1 0.18,-0.34 0.24,-0.61 0.33,-1.52 0.15,-1.5 0.33,-2.18 0.79,-3.11 0.31,-0.61 0.76,-1.18 1.05,-1.31 0.14,-0.07 0.44,-0.04 0.57,0.05 z"
         style="fill:#ffffff" />
    </g>
    <g
       id="g196"
       transform="matrix(0.09999999,0,0,0.12037036,-20.172414,7.4827501)">
      <path
         id="path190"
         fill-rule="evenodd"
         class="shp2"
         d="m 92.42,24.05 c 0.76,0.06 0.79,0.07 0.76,0.2 -0.04,0.15 -0.55,1.05 -0.84,1.47 -0.34,0.5 -0.88,1 -1.55,1.44 -0.96,0.62 -1.11,0.73 -1.17,0.84 -0.04,0.09 -0.03,0.12 0.05,0.18 0.17,0.14 1.45,0.39 2.54,0.48 1.37,0.13 2.54,-0.03 5.74,-0.75 1.05,-0.24 1.33,-0.29 1.36,-0.25 0.06,0.08 0,1.06 -0.08,1.47 -0.28,1.32 -1.12,2.4 -2.89,3.69 -0.29,0.21 -0.51,0.4 -0.49,0.42 0.05,0.04 2.71,0.57 3.41,0.68 0.91,0.13 1.45,0.16 3.03,0.16 1.48,0 2.28,-0.05 4.57,-0.26 0.2,-0.02 0.25,-0.02 0.25,0.03 0,0.08 -0.38,0.68 -0.83,1.32 -0.46,0.64 -1.34,1.54 -2,2.04 -1.42,1.06 -2.7,1.56 -5.01,1.95 -0.22,0.04 -0.4,0.09 -0.38,0.1 0.04,0.04 1.15,0.37 1.85,0.54 1.54,0.39 2.34,0.48 4.52,0.5 1.79,0.02 2.3,0 4.05,-0.16 0.52,-0.04 0.97,-0.07 0.98,-0.06 0.03,0.03 -0.3,0.45 -0.74,0.95 -1.07,1.2 -2.54,1.92 -4.83,2.39 -3.11,0.64 -8.13,0.9 -11.16,0.59 -1.01,-0.11 -1.77,-0.25 -2.85,-0.54 -0.33,-0.09 -0.62,-0.16 -0.64,-0.16 -0.11,0 0.56,0.75 0.93,1.05 0.32,0.26 2.04,1.52 2.12,1.55 0.04,0.01 0.04,0.03 0.02,0.06 -0.07,0.07 -0.55,0.12 -1.69,0.17 -2.27,0.1 -3.9,-0.16 -5.21,-0.81 -0.34,-0.17 -0.85,-0.5 -1.38,-0.9 -0.24,-0.17 -0.44,-0.32 -0.46,-0.32 -0.03,0 0.28,0.62 0.57,1.12 0.75,1.31 2.17,2.72 3.3,3.29 0.46,0.24 1.15,0.46 1.67,0.55 0.54,0.09 0.49,0.11 0.83,-0.35 0.36,-0.5 0.98,-1.15 1.32,-1.39 0.29,-0.21 0.69,-0.41 0.99,-0.49 0.3,-0.08 1.29,-0.07 1.78,0.01 0.76,0.13 1.62,0.48 2.08,0.86 0.29,0.23 0.52,0.53 0.74,0.93 l 0.17,0.31 -0.32,0.05 c -0.75,0.11 -1.1,0.47 -1.23,1.25 -0.07,0.4 0.12,1.13 0.35,1.38 0.12,0.14 0.39,0.26 0.93,0.45 0.62,0.21 0.73,0.27 0.75,0.45 0.01,0.12 -0.02,0.16 -0.26,0.39 -0.14,0.13 -0.44,0.37 -0.67,0.51 -0.39,0.26 -0.56,0.44 -0.62,0.66 -0.02,0.07 -0.01,0.1 0.05,0.13 0.09,0.05 0.08,0.05 2.45,0.24 1.61,0.13 2.04,0.15 3.16,0.15 1.46,0 1.83,-0.04 2.63,-0.24 0.99,-0.26 1.75,-0.56 2.45,-0.96 1.84,-1.08 3.04,-1.51 4.04,-1.43 1.82,0.15 3.9,1.65 4.34,3.14 0.04,0.12 0.08,0.37 0.09,0.56 0.03,0.35 -0.04,1.21 -0.1,1.27 -0.01,0.02 -0.1,-0.02 -0.19,-0.08 -1.44,-1 -2.16,-1.32 -3.17,-1.44 -0.82,-0.09 -1.14,0.01 -2.37,0.74 -1.37,0.82 -1.92,1.07 -2.87,1.31 -0.96,0.26 -2.15,0.43 -4,0.59 -0.56,0.05 -1.02,0.1 -1.03,0.11 -0.04,0.04 0.67,0.61 1.13,0.91 0.89,0.58 1.81,0.88 3.32,1.1 0.76,0.11 1.44,0.14 2.88,0.14 1.89,0 2.37,-0.04 4.09,-0.36 0.47,-0.09 0.85,-0.15 0.87,-0.15 0.03,0.05 -0.06,0.22 -0.37,0.69 -0.91,1.37 -1.55,1.98 -2.67,2.51 -1.29,0.62 -2.76,0.87 -5.47,0.94 -0.53,0.01 -1.01,0.03 -1.06,0.04 -0.09,0.02 -0.08,0.04 0.16,0.35 0.35,0.46 1.05,1.18 1.34,1.38 0.99,0.7 2.39,0.95 4.2,0.73 0.33,-0.03 0.63,-0.05 0.67,-0.04 0.11,0.04 0.04,0.61 -0.11,0.93 -0.24,0.5 -0.69,1 -1.12,1.24 l -0.21,0.12 0.3,0.35 c 0.34,0.39 0.65,0.97 0.86,1.56 0.13,0.39 0.21,0.94 0.21,1.59 v 0.37 l -0.46,0.09 c -0.65,0.12 -1.05,0.14 -1.51,0.08 -0.76,-0.09 -1.39,-0.36 -2.19,-0.92 -0.23,-0.16 -0.44,-0.29 -0.46,-0.28 -0.02,0.01 -0.14,0.15 -0.27,0.31 -0.43,0.56 -0.92,0.8 -1.69,0.84 l -0.45,0.02 -0.03,-0.44 c -0.01,-0.24 -0.06,-0.72 -0.1,-1.06 -0.19,-1.42 -0.37,-1.95 -0.93,-2.62 -0.25,-0.3 -1.45,-1.43 -1.52,-1.43 -0.03,0 -0.06,0.26 -0.1,0.72 -0.13,2.01 -0.31,3.06 -0.66,3.88 -0.43,1.02 -1.19,1.78 -2.18,2.2 -0.53,0.21 -1.97,0.58 -2.04,0.51 -0.02,-0.02 0.07,-0.2 0.2,-0.42 0.87,-1.55 1.13,-2.43 1.24,-4.2 0.07,-1.09 -0.05,-2.9 -0.27,-3.93 -0.19,-0.97 -0.52,-1.7 -0.97,-2.2 -0.22,-0.23 -0.26,-0.19 -0.26,0.29 0,0.38 -0.09,1.33 -0.16,1.63 -0.11,0.54 -0.57,1.26 -1.39,2.21 -0.9,1.05 -1.41,1.9 -1.58,2.68 -0.13,0.57 -0.02,1.47 0.26,2.12 0.26,0.63 0.75,1.3 1.09,1.52 l 0.1,0.06 -0.09,0.05 c -0.15,0.08 -0.49,0.13 -0.94,0.13 -0.38,0 -0.46,-0.02 -0.85,-0.15 -0.51,-0.18 -1.38,-0.6 -1.78,-0.85 -0.48,-0.31 -0.91,-0.67 -1.36,-1.12 -0.65,-0.66 -0.9,-1.03 -1.1,-1.63 -0.18,-0.53 -0.22,-0.92 -0.2,-1.81 0.02,-0.72 0.03,-0.8 0.13,-1.1 0.14,-0.41 0.25,-0.6 0.84,-1.48 0.95,-1.42 1.04,-1.71 1.08,-3.47 0.02,-1.17 -0.03,-2.11 -0.13,-2.66 -0.06,-0.33 -0.2,-0.62 -0.28,-0.62 -0.1,0 -0.36,0.27 -0.83,0.89 -0.5,0.65 -0.64,0.78 -0.76,0.7 C 88.64,61.1 88.46,60.84 88.29,60.56 87.58,59.37 87.18,59 86.5,58.87 c -0.52,-0.09 -1.26,0.07 -1.92,0.42 -0.3,0.16 -1.15,0.75 -1.58,1.1 l -0.23,0.19 -0.25,-0.76 c -0.32,-1.01 -0.4,-1.32 -0.46,-1.85 -0.04,-0.38 -0.03,-0.51 0.02,-0.84 0.05,-0.23 0.12,-0.52 0.18,-0.67 0.14,-0.35 0.42,-0.78 0.63,-0.96 0.17,-0.14 0.69,-0.42 0.79,-0.42 0.02,0 0.09,-0.02 0.15,-0.04 0.1,-0.04 0.1,-0.05 0.06,-0.13 -0.09,-0.17 -0.33,-0.44 -0.48,-0.54 -0.08,-0.06 -0.62,-0.24 -1.34,-0.44 -2.7,-0.78 -4.6,-1.54 -6.8,-2.72 -2.52,-1.35 -4.3,-2.63 -5.23,-3.73 -0.77,-0.93 -1.15,-1.74 -1.6,-3.44 -0.05,-0.18 -0.1,-0.33 -0.12,-0.33 -0.02,0 -0.15,0.19 -0.28,0.43 -0.98,1.69 -2.31,2.7 -3.73,2.87 l -0.23,0.03 0.24,-0.63 c 0.58,-1.55 0.99,-2.99 1.11,-3.89 0.09,-0.66 0.06,-1.86 -0.06,-2.41 -0.12,-0.55 -0.76,-2.51 -0.94,-2.84 -0.03,-0.06 -0.07,-0.04 -0.38,0.14 -0.75,0.43 -1.42,0.62 -2.08,0.58 -0.21,-0.01 -0.44,-0.04 -0.51,-0.06 -0.11,-0.03 -0.12,-0.04 -0.12,-0.27 0.01,-0.13 0.03,-0.43 0.06,-0.66 0.07,-0.53 0.04,-1.06 -0.07,-1.31 -0.09,-0.2 -0.36,-0.45 -0.57,-0.54 -0.89,-0.38 -2.22,-0.3 -2.63,0.17 -0.12,0.13 -0.29,0.52 -0.29,0.66 0,0.1 -0.16,0.57 -0.31,0.9 -0.26,0.56 -0.7,0.85 -1.33,0.86 -0.75,0 -1.42,-0.33 -1.98,-0.98 -0.4,-0.47 -0.61,-0.84 -0.87,-1.54 -0.68,-1.8 -0.77,-2.84 -0.34,-3.88 0.31,-0.76 0.74,-1.31 1.37,-1.8 0.52,-0.41 0.84,-0.57 1.8,-0.93 0.49,-0.19 0.97,-0.39 1.06,-0.45 0.21,-0.14 0.38,-0.4 0.51,-0.81 0.1,-0.29 0.11,-0.39 0.11,-0.89 0,-0.48 -0.02,-0.61 -0.09,-0.83 -0.05,-0.15 -0.09,-0.3 -0.09,-0.36 0,-0.08 0.02,-0.09 0.09,-0.07 0.26,0.08 0.68,0.28 1.07,0.51 0.9,0.53 1.8,1.64 2.09,2.56 0.12,0.38 0.3,0.63 0.56,0.76 0.54,0.28 2.13,0.26 3.13,-0.03 0.69,-0.19 1.35,-0.56 2.01,-1.09 0.18,-0.15 0.33,-0.26 0.35,-0.26 0.05,0 0.14,0.4 0.21,0.88 0.06,0.41 0.02,0.69 -0.21,1.41 -0.19,0.61 -0.23,0.97 -0.1,1.11 0.27,0.29 2.29,1.22 3.56,1.63 0.85,0.27 1.85,0.49 2.75,0.61 0.24,0.03 0.46,0.08 0.48,0.1 0.06,0.06 -0.24,0.23 -1.14,0.68 -0.44,0.21 -0.87,0.42 -0.97,0.47 -0.27,0.13 -0.52,0.4 -0.55,0.58 -0.07,0.32 0.19,0.81 0.84,1.57 0.18,0.22 0.44,0.54 0.58,0.71 0.56,0.71 0.95,1.08 1.2,1.11 0.23,0.03 0.43,-0.04 0.86,-0.33 0.4,-0.27 1.71,-1.01 3.55,-2.04 l 1.2,-0.66 v -0.6 c 0,-0.73 -0.07,-1.1 -0.28,-1.55 -0.21,-0.42 -0.34,-0.57 -0.77,-0.86 -0.47,-0.32 -0.69,-0.39 -1.53,-0.53 -1.18,-0.2 -1.62,-0.34 -1.85,-0.62 -0.1,-0.12 -0.11,-0.15 -0.09,-0.38 0.04,-0.4 0.31,-0.93 0.69,-1.32 0.49,-0.51 0.49,-0.49 0.52,-1.83 0.01,-0.77 0.03,-1.17 0.07,-1.25 0.18,-0.43 0.6,-0.65 1.54,-0.81 0.34,-0.06 0.66,-0.06 2.77,-0.04 3.15,0.04 4.8,-0.02 6.01,-0.23 0.93,-0.15 1.19,-0.25 2.69,-1.04 0.61,-0.32 0.83,-0.38 1.5,-0.41 0.58,-0.02 1.19,-0.01 1.91,0.04 z m -34.5,7.12 c -0.01,-0.01 -0.13,0.06 -0.27,0.15 -0.33,0.22 -0.67,0.32 -1.25,0.38 -0.26,0.02 -0.68,0.06 -0.92,0.08 -0.44,0.04 -0.72,0.12 -0.83,0.25 -0.04,0.06 -0.05,0.25 -0.01,1.13 0.02,0.59 0.06,1.14 0.09,1.23 0.03,0.11 0.14,0.25 0.35,0.46 l 0.3,0.3 0.13,-0.14 c 0.07,-0.08 0.23,-0.26 0.35,-0.4 0.39,-0.45 0.75,-0.62 1.55,-0.75 0.28,-0.05 0.43,-0.09 0.42,-0.12 -0.01,-0.02 -0.05,-0.19 -0.09,-0.36 -0.1,-0.45 -0.07,-1.19 0.08,-1.76 0.06,-0.24 0.1,-0.43 0.1,-0.45 z"
         style="fill:#ffffff" />
      <path
         id="path192"
         class="shp2"
         d="m 56.75,33.56 c -0.1,0.35 -0.49,0.6 -0.85,0.54 -0.37,-0.06 -0.68,-0.45 -0.63,-0.8 0.03,-0.22 0.21,-0.47 0.43,-0.58 0.55,-0.29 1.21,0.25 1.05,0.84 z"
         style="fill:#ffffff" />
      <path
         id="path194"
         class="shp2"
         d="m 68.14,46.16 c 0.05,0.03 0.2,0.26 0.34,0.51 1,1.8 1.88,2.77 3.47,3.84 0.59,0.4 1.46,0.89 2.21,1.25 1.08,0.52 1.55,0.68 2.65,0.91 1.29,0.27 2,0.62 2.63,1.3 1.04,1.12 1.47,2.43 1.48,4.52 0,1.47 -0.17,2.05 -0.81,2.71 -0.12,0.13 -0.24,0.23 -0.27,0.22 C 79.78,61.4 79.75,61.31 79.31,60.21 78.97,59.34 78.4,58.17 78.02,57.6 77.51,56.82 77,56.27 76.4,55.84 c -0.27,-0.19 -1.48,-0.82 -1.52,-0.79 0,0.01 0.22,0.48 0.5,1.05 0.27,0.57 0.59,1.25 0.7,1.5 0.86,1.97 1.33,3.96 1.55,6.6 0.07,0.82 0.07,4.42 0,5.13 -0.29,2.99 -0.88,4.7 -2.17,6.29 -0.35,0.44 -1.08,1.26 -1.12,1.26 -0.04,0 -0.07,-0.22 -0.16,-1.38 -0.31,-4.13 -0.78,-7.02 -1.41,-8.71 -0.23,-0.61 -0.41,-1.04 -0.45,-1.04 -0.01,0 -0.06,0.12 -0.1,0.26 -0.03,0.14 -0.2,0.67 -0.37,1.18 -0.89,2.71 -2.05,4.93 -3.19,6.07 -0.46,0.46 -0.74,0.66 -1.21,0.85 -0.29,0.12 -1.01,0.29 -1.05,0.26 -0.01,-0.01 0.02,-0.28 0.06,-0.61 0.26,-1.93 0.49,-4.36 0.55,-5.74 0.08,-2.16 -0.34,-4.02 -1.29,-5.67 -0.44,-0.78 -1.43,-2.21 -1.55,-2.25 -0.03,0 -0.1,0.28 -0.19,0.75 -0.67,3.37 -1.19,4.86 -2.18,6.26 -0.33,0.47 -1.25,1.39 -1.7,1.71 -0.44,0.3 -1.1,0.64 -1.59,0.82 -0.4,0.14 -1.37,0.4 -1.39,0.38 -0.01,-0.01 0.12,-0.26 0.29,-0.56 0.99,-1.73 1.4,-3.12 1.61,-5.46 0.07,-0.76 0.07,-3.06 0,-3.65 -0.09,-0.76 -0.32,-2 -0.35,-1.9 -0.01,0.02 -0.05,0.4 -0.1,0.83 -0.11,0.99 -0.21,1.51 -0.41,2.12 -0.38,1.17 -0.98,2.07 -2.06,3.13 -0.91,0.88 -2.05,1.69 -2.96,2.11 -0.85,0.39 -1.97,0.65 -2.83,0.65 H 50 l 0.36,-1.08 c 0.46,-1.33 0.74,-2.05 1.26,-3.15 1.2,-2.52 1.38,-2.94 1.59,-3.78 0.24,-0.95 0.33,-1.96 0.29,-3.52 -0.01,-0.61 -0.05,-1.38 -0.07,-1.71 -0.07,-0.92 0.04,-1.64 0.37,-2.31 0.49,-0.99 1.55,-1.93 2.53,-2.26 0.85,-0.28 2.14,-0.41 2.69,-0.27 0.56,0.13 1.19,0.57 1.52,1.04 0.19,0.28 0.3,0.58 0.44,1.2 0.16,0.74 0.47,1.22 0.92,1.44 0.42,0.2 0.86,0.25 1.63,0.16 0.97,-0.11 1.56,-0.43 1.87,-1 0.18,-0.34 0.24,-0.61 0.33,-1.52 0.15,-1.5 0.33,-2.18 0.79,-3.11 0.31,-0.61 0.76,-1.18 1.05,-1.31 0.14,-0.07 0.44,-0.04 0.57,0.05 z"
         style="fill:#ffffff" />
    </g>
  </g>
</svg>
