<?xml version="1.0" encoding="UTF-8" standalone="no"?>
<svg
   viewBox="0 0 36 36"
   version="1.1"
   id="svg61456"
   sodipodi:docname="marcha.svg"
   inkscape:version="1.2.1 (9c6d41e410, 2022-07-14)"
   inkscape:export-filename="marcha.png"
   inkscape:export-xdpi="96"
   inkscape:export-ydpi="96"
   xmlns:inkscape="http://www.inkscape.org/namespaces/inkscape"
   xmlns:sodipodi="http://sodipodi.sourceforge.net/DTD/sodipodi-0.dtd"
   xmlns="http://www.w3.org/2000/svg"
   xmlns:svg="http://www.w3.org/2000/svg">
  <defs
     id="defs61460">
    <clipPath
       clipPathUnits="userSpaceOnUse"
       id="clipPath5974">
      <path
         id="path5976"
         style="font-variation-settings:normal;opacity:1;vector-effect:none;fill:#eeeeee;fill-opacity:1;stroke-width:1;stroke-linecap:butt;stroke-linejoin:miter;stroke-miterlimit:4;stroke-dasharray:none;stroke-dashoffset:0;stroke-opacity:1;-inkscape-stroke:none;stop-color:#000000;stop-opacity:1"
         d="m -8.0215052,-4.9139786 c -2.2089978,0 -3.9999998,1.7910022 -3.9999998,4.00000002 V 8.0860214 17.086021 c 0,2.208998 1.791002,4 3.9999998,4 H 19.978495 c 2.208998,0 4,-1.791002 4,-4 V 8.0860214 -0.91397858 c 0,-2.20899782 -1.791002,-4.00000002 -4,-4.00000002 z" />
    </clipPath>
  </defs>
  <sodipodi:namedview
     id="namedview61458"
     pagecolor="#ffffff"
     bordercolor="#000000"
     borderopacity="0.25"
     inkscape:showpageshadow="2"
     inkscape:pageopacity="0.0"
     inkscape:pagecheckerboard="0"
     inkscape:deskcolor="#d1d1d1"
     showgrid="false"
     inkscape:zoom="23.055556"
     inkscape:cx="17.978313"
     inkscape:cy="18"
     inkscape:window-width="1536"
     inkscape:window-height="1039"
     inkscape:window-x="252"
     inkscape:window-y="0"
     inkscape:window-maximized="0"
     inkscape:current-layer="svg61456" />
  <path
     id="path61452"
     style="font-variation-settings:normal;opacity:1;vector-effect:none;fill:#eeeeee;fill-opacity:1;stroke-width:1;stroke-linecap:butt;stroke-linejoin:miter;stroke-miterlimit:4;stroke-dasharray:none;stroke-dashoffset:0;stroke-opacity:1;-inkscape-stroke:none;stop-color:#000000;stop-opacity:1"
     d="M 4 5 C 1.7910022 5 0 6.7910022 0 9 L 0 18 L 0 27 C 0 29.208998 1.7910022 31 4 31 L 32 31 C 34.208998 31 36 29.208998 36 27 L 36 18 L 36 9 C 36 6.7910022 34.208998 5 32 5 L 4 5 z " />
  <g
     id="g5972"
     transform="translate(3.3763437,0.12595044)">
    <g
       id="g5967"
       transform="translate(8.6451613,9.9139786)">
      <path
         stroke="#da121a"
         stroke-width="2.94551"
         d="m -12.021505,-0.0337195 h 36 m 0,6.507012 h -36 m 0,6.5070115 h 36 m 0,6.507012 h -36"
         id="path144"
         style="stroke:#313eca;stroke-opacity:1"
         clip-path="url(#clipPath5974)" />
    </g>
  </g>
</svg>
