<?xml version="1.0" encoding="UTF-8" standalone="no"?>
<svg
   viewBox="0 0 36 36"
   version="1.1"
   id="svg61456"
   sodipodi:docname="milhusa.svg"
   inkscape:version="1.2.1 (9c6d41e410, 2022-07-14)"
   xmlns:inkscape="http://www.inkscape.org/namespaces/inkscape"
   xmlns:sodipodi="http://sodipodi.sourceforge.net/DTD/sodipodi-0.dtd"
   xmlns="http://www.w3.org/2000/svg"
   xmlns:svg="http://www.w3.org/2000/svg">
  <defs
     id="defs61460">
    <clipPath
       clipPathUnits="userSpaceOnUse"
       id="clipPath108753">
      <path
         id="path108755"
         style="font-variation-settings:normal;opacity:1;vector-effect:none;fill:#eeeeee;fill-opacity:1;stroke-width:20.987;stroke-linecap:butt;stroke-linejoin:miter;stroke-miterlimit:4;stroke-dasharray:none;stroke-dashoffset:0;stroke-opacity:1;-inkscape-stroke:none;stop-color:#000000;stop-opacity:1"
         d="m 85.995088,-0.56996321 c -47.950485,0 -86.82758315,36.34130221 -86.82758315,81.16417021 V 263.21359 445.83297 c 0,44.82288 38.87709815,81.16417 86.82758315,81.16417 H 693.78817 c 47.95049,0 86.82758,-36.34129 86.82758,-81.16417 V 263.21359 80.594207 c 0,-44.822868 -38.87709,-81.16417021 -86.82758,-81.16417021 z" />
    </clipPath>
  </defs>
  <sodipodi:namedview
     id="namedview61458"
     pagecolor="#ffffff"
     bordercolor="#000000"
     borderopacity="0.25"
     inkscape:showpageshadow="2"
     inkscape:pageopacity="0.0"
     inkscape:pagecheckerboard="0"
     inkscape:deskcolor="#d1d1d1"
     showgrid="false"
     inkscape:zoom="23.25"
     inkscape:cx="17.956989"
     inkscape:cy="17.978495"
     inkscape:window-width="1536"
     inkscape:window-height="1039"
     inkscape:window-x="252"
     inkscape:window-y="0"
     inkscape:window-maximized="0"
     inkscape:current-layer="svg61456" />
  <path
     id="path61452"
     style="font-variation-settings:normal;opacity:1;vector-effect:none;fill:#eeeeee;fill-opacity:1;stroke-width:1;stroke-linecap:butt;stroke-linejoin:miter;stroke-miterlimit:4;stroke-dasharray:none;stroke-dashoffset:0;stroke-opacity:1;-inkscape-stroke:none;stop-color:#000000;stop-opacity:1"
     d="M 4 5 C 1.7910022 5 0 6.7910022 0 9 L 0 18 L 0 27 C 0 29.208998 1.7910022 31 4 31 L 32 31 C 34.208998 31 36 29.208998 36 27 L 36 18 L 36 9 C 36 6.7910022 34.208998 5 32 5 L 4 5 z " />
  <g
     id="g108209"
     transform="matrix(0.04606831,0,0,0.04928283,0.03835164,5.0280895)"
     clip-path="url(#clipPath108753)">
    <g
       id="g107957">
      <rect
         style="opacity:1;fill:#ffffff;fill-opacity:1;fill-rule:nonzero;stroke:none;stroke-width:0;stroke-miterlimit:4;stroke-dasharray:none;stroke-opacity:1"
         id="rectFondBlanc"
         width="780"
         height="525"
         x="0"
         y="0" />
      <path
         style="fill:#ff0000;fill-opacity:1;fill-rule:evenodd;stroke:none;stroke-width:0;stroke-linecap:butt;stroke-linejoin:miter;stroke-miterlimit:4;stroke-dasharray:none;stroke-opacity:1;marker-start:none"
         d="m 465.0359,0.12255051 c -59.26766,-1.09856429 -95.4345,-0.29168497 -146.73931,1.21320389 22.49439,17.8868796 25.10355,19.8923706 26.23423,38.8016646 1.19086,19.915751 -20.02068,39.559682 -13.62219,68.442721 6.61162,29.84514 37.31646,36.06938 52.95866,48.36837 9.43048,9.43047 15.29588,22.06592 15.29588,37.128 0,20.87257 -22.56038,47.91315 -12.61205,72.81509 7.3937,-30.10924 27.38321,-37.16717 38.32633,-47.92278 10.94311,-10.75562 19.06666,-22.54856 16.60805,-39.00472 -2.38479,-15.96194 -24.30455,-39.38744 -22.30747,-64.01087 2.11682,-26.099821 8.93399,-24.322828 19.1483,-35.627628 9.62353,-10.650938 17.12553,-9.540749 29.40827,-26.219362 12.70134,-17.247029 5.80386,-42.646937 -2.6987,-53.98368949 z"
         id="path1"
         sodipodi:nodetypes="cczzcsczzsszc" />
      <path
         style="fill:#ff0000;fill-opacity:1;fill-rule:evenodd;stroke:none;stroke-width:0;stroke-linecap:butt;stroke-linejoin:miter;stroke-miterlimit:4;stroke-dasharray:none;stroke-opacity:1"
         d="M 192.09855,0.44131795 C 132.83089,-0.65724205 98.092624,0.14963795 46.787814,1.6545279 67.853633,25.96998 82.530212,49.868349 99.450616,65.456188 c 16.190864,14.91575 49.405074,36.115832 66.377814,54.157002 17.3259,18.41657 83.32423,26.4106 123.67294,52.65409 39.70845,25.82706 41.8303,40.00703 52.43874,50.69943 20,20.15828 28.1539,25.77029 45.24509,44.24366 -17.18788,-23.71657 -19.46658,-40.39628 -25.66352,-58.96883 -6.12914,-18.36935 -6.20642,-18.65182 -25.11639,-37.95867 -19.96297,-20.38196 -62.84955,-29.41795 -83.02175,-46.86802 -8.1612,-7.05988 -19.49058,-19.12889 -22.99456,-27.056196 C 221.75063,76.815504 219.93875,70.349923 216.94011,55.85358 214.04879,41.876054 205.60111,18.206649 192.09855,0.44131795 Z"
         id="path2"
         sodipodi:nodetypes="cczzzsczzsszc" />
      <path
         style="fill:#ff0000;fill-opacity:1;fill-rule:evenodd;stroke:none;stroke-width:0;stroke-linecap:butt;stroke-linejoin:miter;stroke-miterlimit:4;stroke-dasharray:none;stroke-opacity:1"
         d="m 1.5772841,105.89181 c 0.89575,25.62587 -0.5764904,51.25943 -0.59567615,101.85568 41.81341805,-12.12181 69.37377505,-5.02356 86.95827805,3.33611 16.999714,8.08166 49.813424,30.15407 75.711744,29.73494 25.89661,-0.4191 48.78445,-5.4573 69.24396,-10.86372 19.19257,-5.07164 33.40529,-4.44365 56.628,-2.88208 36.07808,2.42601 55.93426,31.38233 97.50902,39.09634 -48.99459,-21.5396 -35.73424,-30.26758 -81.89157,-56.94596 -45.85098,-26.50133 -91.92361,-18.72623 -142.70921,-19.36984 -50.78285,-0.64357 -33.33055,-21.19683 -46.6643,-35.38197 C 102.43378,140.28617 86.314936,130.32315 70.120687,122.71509 52.675424,114.51929 41.939102,108.66092 1.5772841,105.89181 Z"
         id="path3"
         sodipodi:nodetypes="cczzssczzzzc" />
      <path
         style="fill:#ff0000;fill-opacity:1;fill-rule:evenodd;stroke:none;stroke-width:0;stroke-linecap:butt;stroke-linejoin:miter;stroke-miterlimit:4;stroke-dasharray:none;stroke-opacity:1"
         d="M -0.37559685,311.94295 C 0.52014876,337.56882 -1.3705071,363.20239 -0.67540758,413.79864 27.010743,385.78922 62.335896,377.74108 85.691133,375.82872 c 23.428277,-1.91834 49.490687,-3.03907 82.941257,-18.33141 33.72584,-15.41819 42.0426,-31.43567 55.46333,-44.22594 19.46145,-18.54722 40.70083,-25.97809 63.43909,-30.94842 34.64951,-7.57399 59.83745,-6.9799 99.98364,-16.40875 -41.13745,2.74611 -56.4275,-7.75707 -91.21318,-9.5939 -34.81591,-1.83842 -46.97478,0.13466 -61.16369,7.86644 -14.1889,7.73179 -22.78493,17.35121 -33.16228,24.24307 -10.02956,6.66087 -29.57093,14.02723 -55.81259,14.75543 -26.74674,0.7282 -43.34033,-8.87576 -77.565623,-9.33236 -35.653863,-0.4566 -50.354179,1.53757 -68.97668385,18.09007 z"
         id="path4"
         sodipodi:nodetypes="cczzssczszzzc" />
      <path
         style="fill:#ff0000;fill-opacity:1;fill-rule:evenodd;stroke:none;stroke-width:0;stroke-linecap:butt;stroke-linejoin:miter;stroke-miterlimit:4;stroke-dasharray:none;stroke-opacity:1"
         d="m -0.51289205,525.65428 c 25.18146005,-0.0884 95.43365705,0.54515 150.41446205,0.42712 -2.31385,-20.86657 12.25821,-40.83279 22.88178,-49.36259 11.28542,-9.0612 16.1136,-11.09056 54.56417,-33.52576 38.75779,-22.61446 44.66154,-39.23332 46.01916,-59.76691 1.21699,-18.40642 1.89152,-33.0838 20.37646,-54.36512 26.04657,-29.98686 64.11573,-33.91356 93.09333,-63.04654 -28.28031,24.17468 -80.90385,34.05776 -117.77546,55.23652 -37.184,21.35818 -57.54858,50.28462 -65.1987,63.95649 -7.34771,13.13143 -20.46866,24.60808 -38.79228,37.90844 -17.93581,13.01886 -60.2381,27.76202 -91.606242,42.30542 -30.781443,14.27138 -66.4720171,35.1449 -73.97668005,60.23293 z"
         id="path5"
         sodipodi:nodetypes="cczzssczzzzc" />
      <path
         style="fill:#ff0000;fill-opacity:1;fill-rule:evenodd;stroke:none;stroke-width:0;stroke-linecap:butt;stroke-linejoin:miter;stroke-miterlimit:4;stroke-dasharray:none;stroke-opacity:1"
         d="m 306.30454,526.55532 c 25.18146,-0.0884 95.43366,0.54516 150.41447,0.42713 -25.88528,-18.00943 -27.77602,-31.05159 -27.91917,-44.3985 -0.14315,-14.0612 7.73325,-19.88764 10.79839,-36.18856 3.04351,-16.18589 7.92136,-35.94798 -4.53666,-47.08308 -12.45803,-11.1351 -31.83144,-16.34575 -54.41806,-41.6627 -21.88611,-24.53176 11.89365,-58.9965 6.32556,-91.99677 -16.13746,38.46039 -53.50473,38.17758 -54.66206,68.64205 -1.18365,31.15746 15.47794,45.76982 20.51559,61.09935 5.24902,15.97272 1.66094,24.74076 -9.50656,40.0513 -10.82467,14.84052 -36.56712,25.42268 -43.03482,48.73399 -6.65152,23.97381 0.67084,25.85919 6.02332,42.37579 z"
         id="path6"
         sodipodi:nodetypes="cczzzzczzzzc" />
      <path
         style="fill:#ff0000;fill-opacity:1;fill-rule:evenodd;stroke:none;stroke-width:0;stroke-linecap:butt;stroke-linejoin:miter;stroke-miterlimit:4;stroke-dasharray:none;stroke-opacity:1"
         d="m 613.05548,526.17152 c 25.18146,-0.0884 96.14794,-0.16913 151.12875,-0.28716 -42.31385,-15.15229 -47.38849,-23.44263 -67.20488,-37.96993 -19.57831,-14.35276 -35.88032,-42.16195 -57.05875,-58.33141 -22.30434,-17.02907 -41.35593,-29.70496 -69.9228,-40.96886 -29.12192,-11.48275 -37.55672,-10.05473 -53.89958,-18.25708 -16.94756,-8.50584 -45.40287,-20.63147 -65.13234,-44.51984 -19.52623,-23.64228 -42.93676,-44.95961 -64.21913,-60.10273 28.86253,34.88896 16.19253,34.86766 28.02549,62.46229 11.6226,27.10407 35.16217,38.42508 70.51558,53.95649 33.10616,14.54415 44.892,23.40372 57.6363,45.76559 12.40284,21.76273 6.57746,26.65561 16.96518,49.44828 10.47284,22.97943 28.52799,33.71633 53.16618,48.80436 z"
         id="path7"
         sodipodi:nodetypes="cczzzzzczzzzc" />
      <path
         style="fill:#ff0000;fill-opacity:1;fill-rule:evenodd;stroke:none;stroke-width:0;stroke-linecap:butt;stroke-linejoin:miter;stroke-miterlimit:4;stroke-dasharray:none;stroke-opacity:1"
         d="m 779.4831,424.08334 c 0.93778,-23.827 1.19357,-72.90012 1.12107,-104.83795 -22.11077,4.54568 -44.28807,8.38588 -59.62874,6.47678 -15.2707,-1.90039 -36.70549,-6.67149 -54.53337,-18.93546 -17.14868,-11.79675 -30.24425,-17.58313 -60.32635,-18.7455 -29.57703,-1.16237 -38.78213,3.28325 -57.43511,8.51196 -17.46689,4.89624 -45.40287,9.16803 -73.21356,3.46241 -28.78073,-5.90462 -46.09349,-27.78702 -88.58906,-33.83877 42.75956,14.98177 62.31692,48.85161 103.9132,62.96737 40.24018,13.65556 71.92781,5.19918 107.38615,13.04531 36.78724,8.14019 44.59149,17.65868 66.22259,35.66406 22.50437,18.73228 18.90661,17.76926 44.2393,31.26554 25.12005,13.38298 40.14475,11.49297 70.84388,14.96425 z"
         id="path8"
         sodipodi:nodetypes="cczzzzzczzzzc" />
      <path
         style="fill:#ff0000;fill-opacity:1;fill-rule:evenodd;stroke:none;stroke-width:0;stroke-linecap:butt;stroke-linejoin:miter;stroke-miterlimit:4;stroke-dasharray:none;stroke-opacity:1"
         d="m 779.0535,214.0641 c -1.58758,-23.827 0.68853,-72.90012 0.61605,-104.83795 -21.6057,15.15229 -44.16202,35.55549 -86.39778,41.32705 -41.53467,5.67575 -50.84763,3.93511 -76.25165,11.87419 -25.07886,7.83746 -48.427,30.90419 -62.85174,46.40934 -13.96517,15.01115 -22.36798,19.58772 -36.2219,26.18963 -10.71404,5.10563 -40.71602,12.24897 -55.53589,14.57409 -23.0066,3.60954 -41.32563,-1.03785 -75.49488,16.71642 30.62722,-11.9265 77.35803,3.37497 96.80995,4.06047 19.96667,0.70363 39.09493,2.50579 60.29405,-11.65882 21.03271,-14.05343 32.84034,-34.57274 77.01918,-34.82074 44.53598,-0.248 65.06959,10.78325 92.22155,9.04218 32.1795,0.72784 46.20566,-7.19485 65.79306,-18.87586 z"
         id="path9"
         sodipodi:nodetypes="cczzzssczzzcc" />
      <path
         style="fill:#ff0000;fill-opacity:1;fill-rule:evenodd;stroke:none;stroke-width:0;stroke-linecap:butt;stroke-linejoin:miter;stroke-miterlimit:4;stroke-dasharray:none;stroke-opacity:1"
         d="M 777.65421,0.94085803 C 742.22652,-0.157706 677.34416,-1.3711321 625.86414,0.13375687 618.40057,18.316504 616.718,29.085704 605.63135,43.986184 581.63226,67.925071 546.56969,76.516075 521.29848,98.791853 509.26128,112.30142 500.79861,118.5231 498.4957,148.67546 c -2.2262,29.14797 -11.47316,41.25881 -19.55438,50.76505 -6.75949,7.95144 -23.89007,18.16196 -44.33756,29.30796 -20.44748,11.146 -43.83307,22.21733 -47.69774,37.9513 8.90893,-13.44173 39.44962,-27.49783 52.59475,-32.7705 12.96341,-5.19978 46.84565,-17.90072 73.17658,-32.43873 26.74699,-14.76771 46.0399,-45.31884 61.48436,-65.27325 7.90757,-10.21667 29.36057,-30.30414 53.07941,-43.633686 23.71885,-13.329546 34.26697,-15.81927 55.05775,-23.289229 20.62525,-7.410483 69.02974,-28.561063 95.35534,-68.35351697 z"
         id="path10"
         sodipodi:nodetypes="cccczssczzzszc" />
      <rect
         style="opacity:1;fill:#ffffff;fill-opacity:1;fill-rule:nonzero;stroke:#ff0000;stroke-width:3;stroke-miterlimit:4;stroke-dasharray:none;stroke-opacity:1"
         id="rectRoue"
         width="189.5"
         height="189.5"
         x="1.5"
         y="1.5" />
      <path
         d="M 71.418561,14.265549 85.188019,27.548093 C 72.228347,29.11785 63.648538,31.837095 53.899712,39.722958 L 54.078991,20.579776 C 39.927454,28.540471 25.333772,40.491378 20.084294,53.94618 l 18.479817,0.150127 C 32.132651,62.837761 27.784532,67.953056 24.994242,86.308448 L 11.305572,72.459569 C 5.6712625,89.975372 7.9427447,106.52154 11.053034,120.69345 l 12.931055,-12.61057 c 1.527653,13.30623 5.3702,21.97548 13.064794,31.98398 l -18.479818,0.0149 c 9.03755,13.95989 18.728403,24.0997 33.385017,32.81801 l -0.163961,-18.09613 c 9.034553,8.0686 17.953545,12.72262 30.913217,14.29351 l -11.629229,11.11169 c 14.42143,4.32113 34.571851,5.58061 47.846851,0.59437 l -12.19981,-12.33106 c 12.95603,-1.56597 22.46085,-6.54945 32.20653,-14.43239 l 0.14986,18.07802 c 12.11636,-7.45291 24.80403,-21.68337 32.06792,-34.11497 l -17.26733,0.0591 c 7.68589,-10.00247 9.09875,-17.16285 10.62871,-30.4597 l 12.93105,12.83873 c 6.35214,-12.39854 4.37787,-33.57417 0,-48.258261 l -13.43613,13.848887 c -1.5299,-13.295247 -4.62174,-20.990103 -12.30719,-30.988211 l 17.61999,-0.01937 C 162.30321,40.824589 149.22141,28.677562 137.10505,21.224668 l -0.11474,20.178543 c -9.74568,-7.878774 -17.70091,-10.77505 -31.41456,-13.60258 l 13.49314,-13.535082 c -15.17112,-3.247644 -29.896755,-5.0946043 -47.650329,0 z m 16.606323,32.054434 0.175943,31.71604 -13.234416,0.009 0.0325,12.083407 -32.666405,0.06313 C 47.798678,68.068296 65.231786,50.121025 88.024884,46.319983 Z m 13.941066,-0.326504 c 22.54806,5.055105 38.87849,21.940655 44.59503,43.819251 l -32.67454,0.126269 0.12627,-11.918295 -12.08112,0.163252 z m -12.915182,46.167112 11.338262,-0.147934 -0.0217,11.161553 -11.442862,-0.0108 z m -46.970805,11.684769 32.982079,0.0631 -0.126269,12.068 h 13.138785 l 0.126269,35.04507 C 63.142598,147.47086 45.786783,127.22359 42.079963,103.84536 Z m 71.932747,0 h 32.43522 c -3.92656,26.1207 -18.62535,38.11526 -44.64261,47.80756 l 0.31568,-35.67642 11.70231,-0.0631 z"
         style="opacity:1;fill:#ff0000;fill-opacity:1;fill-rule:nonzero;stroke:#000000;stroke-width:0.1;stroke-linecap:square;stroke-linejoin:miter;stroke-miterlimit:1;stroke-dasharray:none;stroke-dashoffset:0;stroke-opacity:1"
         id="pathRoue"
         sodipodi:nodetypes="cccccccccccccccccccccccccccccccccccccccccccccccccccccccccccccc" />
    </g>
  </g>
</svg>
