<?xml version="1.0" encoding="UTF-8" standalone="no"?>
<svg
   viewBox="0 0 36 36"
   version="1.1"
   id="svg20172"
   sodipodi:docname="mompelgard.svg"
   inkscape:version="1.2.1 (9c6d41e410, 2022-07-14)"
   inkscape:export-filename="aguiana.png"
   inkscape:export-xdpi="96"
   inkscape:export-ydpi="96"
   xmlns:inkscape="http://www.inkscape.org/namespaces/inkscape"
   xmlns:sodipodi="http://sodipodi.sourceforge.net/DTD/sodipodi-0.dtd"
   xmlns:xlink="http://www.w3.org/1999/xlink"
   xmlns="http://www.w3.org/2000/svg"
   xmlns:svg="http://www.w3.org/2000/svg">
  <defs
     id="defs20176" />
  <sodipodi:namedview
     id="namedview20174"
     pagecolor="#ffffff"
     bordercolor="#000000"
     borderopacity="0.25"
     inkscape:showpageshadow="2"
     inkscape:pageopacity="0.0"
     inkscape:pagecheckerboard="0"
     inkscape:deskcolor="#d1d1d1"
     showgrid="false"
     inkscape:zoom="10.192566"
     inkscape:cx="20.554197"
     inkscape:cy="9.5167403"
     inkscape:window-width="1920"
     inkscape:window-height="1021"
     inkscape:window-x="-8"
     inkscape:window-y="-8"
     inkscape:window-maximized="1"
     inkscape:current-layer="svg20172" />
  <path
     fill="#E41E20"
     d="M32 5H4C1.791 5 0 6.791 0 9v18c0 2.209 1.791 4 4 4h28c2.209 0 4-1.791 4-4V9c0-2.209-1.791-4-4-4z"
     id="path20166" />
  <path
     fill-rule="evenodd"
     clip-rule="evenodd"
     fill="#E41E20"
     d="M20.308 10.618c.086-.053.183-.059.28-.059.09 0 .18.008.261.055.097.055.099.133.008.198-.124.089-.427.092-.556.005-.089-.06-.086-.143.007-.199zm-4.732.204c-.175.085-.355.083-.531-.004-.043-.021-.079-.056-.078-.108.002-.054.042-.082.084-.103.08-.04.167-.05.221-.048.128 0 .221.006.305.055.102.06.105.157-.001.208z"
     id="path20170" />
  <g
     transform="matrix(0.04457746,0,0,0.04457746,4.6267622,4.5366216)"
     id="g35793">
    <g
       id="b">
      <path
         d="m 255.12197,456.08768 c -16.49959,-5.84386 -18.97267,-16.199 -21.57366,-26.07746 -8.42252,18.28635 -18.30697,35.37146 -29.01297,52.1908 -6.33401,38.84516 17.22876,54.64101 33.31293,76.29988 -27.0628,-7.79826 -52.94104,-16.71831 -56.34411,-46.9224 -32.57925,10.86936 -52.93003,7.35507 -69.50476,-26.52134 20.27814,15.17432 42.12146,15.75197 67.85968,-19.99303 17.60359,-30.19352 15.66846,-60.38705 16.45082,-90.58061 -16.21654,17.92333 -25.5171,9.54483 -35.36923,3.26419 18.85959,-17.20984 20.83962,-41.12087 24.97221,-64.54112 1.72236,-9.76097 1.4483,-17.98553 1.24172,-26.82517 -0.52568,-22.49438 2.43384,-50.605 -8.94061,-55.5212 -16.11105,11.67665 -23.71523,7.52879 -31.25658,3.26417 23.42474,-26.3229 18.78507,-50.75893 15.52603,-75.34769 -1.22378,-9.23311 -2.22895,-16.70802 -5.95941,-24.64068 -3.731,-7.93383 -7.47442,-13.49275 -11.21162,-16.70556 -0.61413,8.71007 0.47875,18.00296 -2.05641,22.84917 -7.8228,14.95409 -13.96188,6.40472 -14.39451,5.30427 -6.68304,10.81164 -13.34955,8.11791 -16.45084,-3.26417 -4.04177,-14.83376 2.23704,-26.82899 4.59494,-40.01079 -7.52216,3.14211 -18.895324,13.2934 -17.34428,0.43277 C 94.855617,96.632378 94.647977,83.61498 95.137341,68.875985 L 86.500695,59.08348 C 111.6813,45.535563 156.28469,31.115032 202.47896,75.404316 c 37.03123,35.504104 62.48028,78.345094 81.02032,125.670404 -8.17519,1.11469 -13.40485,6.45039 -30.84533,-5.7123 8.01588,44.9283 13.34756,89.80932 8.94819,134.91987 -3.86738,39.65567 -8.18964,75.09751 -6.48017,125.80539 z"
         fill="#fcef3c"
         stroke="#000000"
         stroke-linecap="round"
         stroke-linejoin="round"
         stroke-width="2.99998"
         transform="matrix(1.0000079,0,0,1.0000079,-0.001466,-0.005195)"
         id="path35782" />
      <path
         d="m 204.53534,482.20102 -24.67626,-17.13689 m 24.67665,-26.52134 c 14.48646,-42.1457 9.22053,-98.12412 11.92679,-148.51955 M 165.05369,122.3267 c 36.66122,62.5114 30.16667,165.25969 31.25621,252.15682 m -39.78587,-240.3475 c 20.00647,28.61733 17.96764,61.865 21.68996,96.7242 m 23.44283,-92.62071 c 13.22271,41.34619 23.47352,83.70591 19.32966,130.97467 M 159.4057,89.161777 c -3.30022,8.370845 -8.26089,17.910123 -15.40544,20.566133 M 124.36104,86.116947 c -1.45308,6.586331 -3.96397,11.913328 -7.35545,16.191993 m 13.09011,-0.79129 -1.23421,44.06625 m 32.90206,-76.299887 c 12.06136,19.425891 7.76021,36.146257 -12.74936,50.186547 M 107.88713,63.571716 c 26.23308,-2.146447 35.85086,9.617945 49.76376,4.896263 m 44.82844,6.936337 c 20.47288,37.600884 40.25527,72.437464 50.17462,119.958104 m 8.95803,134.78485 c -0.69967,6.48233 -1.62096,12.96468 -2.78898,19.447 -4.66639,28.90278 -13.60795,55.41973 -25.27469,80.41595 M 95.137341,68.875985 c 15.383699,11.500182 17.562249,27.010881 4.523969,33.865725 m 43.64495,-6.627331 c -1.15877,7.067591 0.19772,14.616481 2.00615,21.316081"
         fill="none"
         stroke="#000000"
         stroke-linecap="round"
         stroke-linejoin="round"
         stroke-width="3"
         id="path35784" />
      <path
         d="m 145.5041,73.123134 c -1.26483,-4.011752 -5.44802,-6.207884 -9.34336,-4.905203 -3.89534,1.30268 -6.02715,5.613303 -4.76302,9.622624 1.26413,4.009322 5.43734,6.207684 9.33748,4.907225 3.90013,-1.30046 6.03373,-5.612894 4.7689,-9.624646 z"
         fill="none"
         stroke="#000000"
         stroke-linecap="round"
         stroke-linejoin="round"
         stroke-width="3"
         id="path35786" />
      <path
         d="m 143.79382,71.141066 c -0.76399,-2.423199 -3.2907,-3.74972 -5.6436,-2.96286 -2.35289,0.786861 -3.64057,3.390559 -2.87703,5.812288 0.76354,2.421729 3.28426,3.749611 5.64002,2.9641 2.35576,-0.785511 3.64459,-3.390329 2.88061,-5.813528 z"
         stroke="#000000"
         stroke-linecap="round"
         stroke-linejoin="round"
         stroke-width="3"
         id="path35788" />
    </g>
    <use
       height="100%"
       transform="matrix(-1,0,0,1,599.99999,0)"
       width="100%"
       xlink:href="#b"
       id="use35791" />
  </g>
</svg>
