<?xml version="1.0" encoding="UTF-8" standalone="no"?>
<svg
   viewBox="0 0 36 36"
   version="1.1"
   id="svg61456"
   sodipodi:docname="morningstar.svg"
   inkscape:version="1.2.1 (9c6d41e410, 2022-07-14)"
   xmlns:inkscape="http://www.inkscape.org/namespaces/inkscape"
   xmlns:sodipodi="http://sodipodi.sourceforge.net/DTD/sodipodi-0.dtd"
   xmlns:xlink="http://www.w3.org/1999/xlink"
   xmlns="http://www.w3.org/2000/svg"
   xmlns:svg="http://www.w3.org/2000/svg">
  <defs
     id="defs61460">
    <clipPath
       clipPathUnits="userSpaceOnUse"
       id="clipPath138984">
      <path
         id="path138986"
         style="font-variation-settings:normal;opacity:1;vector-effect:none;fill:#eeeeee;fill-opacity:1;stroke-width:20.8167;stroke-linecap:butt;stroke-linejoin:miter;stroke-miterlimit:4;stroke-dasharray:none;stroke-dashoffset:0;stroke-opacity:1;-inkscape-stroke:none;stop-color:#000000;stop-opacity:1"
         d="M 86.666626,0 C 38.805001,0 -5.2000007e-5,35.820044 -5.2000007e-5,80 v 180 180 c 0,44.17996 38.805053000007,80 86.666678000007,80 H 693.33337 c 47.86163,0 86.66668,-35.82004 86.66668,-80 V 260 80 c 0,-44.179956 -38.80505,-80 -86.66668,-80 z" />
    </clipPath>
  </defs>
  <sodipodi:namedview
     id="namedview61458"
     pagecolor="#ffffff"
     bordercolor="#000000"
     borderopacity="0.25"
     inkscape:showpageshadow="2"
     inkscape:pageopacity="0.0"
     inkscape:pagecheckerboard="0"
     inkscape:deskcolor="#d1d1d1"
     showgrid="false"
     inkscape:zoom="23.25"
     inkscape:cx="17.956989"
     inkscape:cy="17.978495"
     inkscape:window-width="1536"
     inkscape:window-height="1039"
     inkscape:window-x="252"
     inkscape:window-y="0"
     inkscape:window-maximized="0"
     inkscape:current-layer="svg61456" />
  <g
     id="g138696"
     transform="matrix(0.04615384,0,0,0.05,2.4e-6,5)"
     clip-path="url(#clipPath138984)">
    <rect
       width="780"
       height="520"
       fill="#006699"
       id="rect138542"
       x="0"
       y="0" />
    <path
       stroke="#ffffff"
       stroke-width="40"
       d="M 0,60 H 780 M 0,140 H 780 M 0,220 H 780 M 0,300 H 780 M 0,380 H 780 M 0,460 h 780"
       id="path138544" />
    <rect
       width="208"
       height="520"
       fill="#dd0000"
       id="rect138546"
       x="0"
       y="0" />
    <g
       fill="#ffffff"
       transform="matrix(91,0,0,91,104,260)"
       id="g138560">
      <g
         id="cone">
        <polygon
           id="triang"
           points="0,1 0.5,1 0,0 "
           transform="rotate(18,3.1568758,-0.5)" />
        <use
           xlink:href="#triang"
           transform="scale(-1,1)"
           id="use138549" />
      </g>
      <use
         xlink:href="#cone"
         transform="rotate(72)"
         id="use138552" />
      <use
         xlink:href="#cone"
         transform="rotate(-72)"
         id="use138554" />
      <use
         xlink:href="#cone"
         transform="rotate(144)"
         id="use138556" />
      <use
         xlink:href="#cone"
         transform="rotate(-144)"
         id="use138558" />
    </g>
  </g>
</svg>
