<?xml version="1.0" encoding="UTF-8" standalone="no"?>
<svg
   viewBox="0 0 36 36"
   version="1.1"
   id="svg20172"
   sodipodi:docname="occitania-damb-estela.svg"
   inkscape:version="1.2.1 (9c6d41e410, 2022-07-14)"
   inkscape:export-filename="aguiana.png"
   inkscape:export-xdpi="96"
   inkscape:export-ydpi="96"
   xmlns:inkscape="http://www.inkscape.org/namespaces/inkscape"
   xmlns:sodipodi="http://sodipodi.sourceforge.net/DTD/sodipodi-0.dtd"
   xmlns="http://www.w3.org/2000/svg"
   xmlns:svg="http://www.w3.org/2000/svg">
  <defs
     id="defs20176" />
  <sodipodi:namedview
     id="namedview20174"
     pagecolor="#ffffff"
     bordercolor="#000000"
     borderopacity="0.25"
     inkscape:showpageshadow="2"
     inkscape:pageopacity="0.0"
     inkscape:pagecheckerboard="0"
     inkscape:deskcolor="#d1d1d1"
     showgrid="false"
     inkscape:zoom="6.3663344"
     inkscape:cx="-20.341376"
     inkscape:cy="-3.4556777"
     inkscape:window-width="1920"
     inkscape:window-height="1021"
     inkscape:window-x="-8"
     inkscape:window-y="-8"
     inkscape:window-maximized="1"
     inkscape:current-layer="svg20172" />
  <path
     fill="#E41E20"
     d="M32 5H4C1.791 5 0 6.791 0 9v18c0 2.209 1.791 4 4 4h28c2.209 0 4-1.791 4-4V9c0-2.209-1.791-4-4-4z"
     id="path20166" />
  <g
     id="g56608"
     transform="translate(2.6459556)">
    <path
       fill-rule="evenodd"
       clip-rule="evenodd"
       fill="#e41e20"
       d="m 20.308,10.618 c 0.086,-0.053 0.183,-0.059 0.28,-0.059 0.09,0 0.18,0.008 0.261,0.055 0.097,0.055 0.099,0.133 0.008,0.198 -0.124,0.089 -0.427,0.092 -0.556,0.005 -0.089,-0.06 -0.086,-0.143 0.007,-0.199 z m -4.732,0.204 c -0.175,0.085 -0.355,0.083 -0.531,-0.004 -0.043,-0.021 -0.079,-0.056 -0.078,-0.108 0.002,-0.054 0.042,-0.082 0.084,-0.103 0.08,-0.04 0.167,-0.05 0.221,-0.048 0.128,0 0.221,0.006 0.305,0.055 0.102,0.06 0.105,0.157 -10e-4,0.208 z"
       id="path20170" />
    <path
       d="m 5.0659115,17.99999 0.4350654,0.340291 c 0.6975538,0.545524 1.8354647,1.711896 2.1460077,3.685136 l 0.082046,0.520782 0.3985953,-0.348586 c 0.669236,-0.585284 2.6579691,-2.11831 5.5661761,-2.537357 -0.419143,2.908206 -1.952121,4.896893 -2.537357,5.566129 l -0.348634,0.398595 0.520782,0.08205 c 1.973288,0.31059 3.139612,1.448453 3.685184,2.146007 l 0.340243,0.435066 0.340291,-0.435066 c 0.545524,-0.697554 1.711848,-1.835417 3.685136,-2.146007 l 0.520782,-0.08205 -0.348634,-0.398595 c -0.585236,-0.669236 -2.118214,-2.657923 -2.537357,-5.566129 2.908207,0.419047 4.89694,1.952073 5.566176,2.537357 l 0.398596,0.348586 0.082,-0.520782 c 0.31059,-1.97324 1.448501,-3.139612 2.146007,-3.685136 L 25.64213,17.99999 25.207017,17.659699 C 24.509511,17.114175 23.3716,15.947851 23.06101,13.974611 l -0.082,-0.52083 -0.398596,0.348587 c -0.669236,0.585283 -2.657969,2.118309 -5.566176,2.537404 0.419143,-2.908206 1.952121,-4.89694 2.537357,-5.566129 L 19.900229,10.375 19.379447,10.293 C 17.406159,9.9823784 16.239835,8.8445057 15.694311,8.1469614 L 15.35402,7.711896 15.013777,8.1469614 c -0.545572,0.6975443 -1.711896,1.835417 -3.685184,2.1460416 l -0.520782,0.082 0.348634,0.398643 c 0.585236,0.669189 2.118214,2.657923 2.537357,5.566129 C 10.785595,15.92068 8.7968615,14.387654 8.1276255,13.802371 l -0.3985953,-0.348587 -0.082046,0.52083 c -0.310543,1.97324 -1.4484539,3.139564 -2.1460077,3.685088 z m 1.6745678,0 c 1.3266967,-1.229872 1.6330445,-2.594612 1.6330445,-2.594612 1.9367702,1.632425 4.9573422,2.000366 6.4675802,2.081697 -0.08138,-1.510239 -0.449272,-4.530811 -2.081696,-6.467629 0,0 1.364692,-0.3063 2.594612,-1.6330299 1.22992,1.3267299 2.594612,1.6330299 2.594612,1.6330299 -1.632424,1.936818 -2.000318,4.95739 -2.081696,6.467629 1.510238,-0.08133 4.53081,-0.449272 6.46758,-2.081697 0,0 0.306348,1.36474 1.633045,2.594612 -1.326697,1.22992 -1.633045,2.594612 -1.633045,2.594612 -1.93677,-1.632424 -4.957342,-2.000366 -6.46758,-2.081696 0.08138,1.510238 0.449272,4.53081 2.081696,6.467628 0,0 -1.364692,0.3063 -2.594612,1.633045 -1.22992,-1.326745 -2.594612,-1.633045 -2.594612,-1.633045 1.632424,-1.936818 2.000318,-4.95739 2.081696,-6.467628 -1.510238,0.08133 -4.53081,0.449272 -6.4675802,2.081696 0,0 -0.3063478,-1.364692 -1.6330445,-2.594612 z"
       id="path56330"
       style="fill:#fddd00;stroke-width:0.0476732" />
    <circle
       cx="4.7121763"
       cy="17.99999"
       r="0.85811704"
       id="circle56332"
       style="fill:#fddd00;stroke-width:0.0476732" />
    <circle
       cx="7.6107054"
       cy="13.117114"
       r="0.85811704"
       id="circle56334"
       style="fill:#fddd00;stroke-width:0.0476732" />
    <circle
       cx="7.6107054"
       cy="22.882914"
       r="0.85811704"
       id="circle56336"
       style="fill:#fddd00;stroke-width:0.0476732" />
    <circle
       cx="10.471143"
       cy="10.256676"
       r="0.85811704"
       id="circle56338"
       style="fill:#fddd00;stroke-width:0.0476732" />
    <circle
       cx="10.471143"
       cy="25.743353"
       r="0.85811704"
       id="circle56340"
       style="fill:#fddd00;stroke-width:0.0476732" />
    <circle
       cx="15.35402"
       cy="7.3581181"
       r="0.85811704"
       id="circle56342"
       style="fill:#fddd00;stroke-width:0.0476732" />
    <circle
       cx="15.35402"
       cy="28.641882"
       r="0.85811704"
       id="circle56344"
       style="fill:#fddd00;stroke-width:0.0476732" />
    <circle
       cx="20.236897"
       cy="10.256676"
       r="0.85811704"
       id="circle56346"
       style="fill:#fddd00;stroke-width:0.0476732" />
    <circle
       cx="20.236897"
       cy="25.743353"
       r="0.85811704"
       id="circle56348"
       style="fill:#fddd00;stroke-width:0.0476732" />
    <circle
       cx="23.097334"
       cy="13.117114"
       r="0.85811704"
       id="circle56350"
       style="fill:#fddd00;stroke-width:0.0476732" />
    <circle
       cx="23.097334"
       cy="22.882914"
       r="0.85811704"
       id="circle56352"
       style="fill:#fddd00;stroke-width:0.0476732" />
    <circle
       cx="25.995913"
       cy="17.99999"
       r="0.85811704"
       id="circle56354"
       style="fill:#fddd00;stroke-width:0.0476732" />
  </g>
  <polygon
     points="650.472,61.412 684.611,74.315 695.39,39.035 706.169,74.315 740.308,61.412 720.707,91.956 752.23,111.065 716.132,113.679 720.871,150.756 695.39,124.132 669.91,150.756 674.648,113.679 638.55,111.065 670.074,91.956 "
     id="polygon56356"
     transform="matrix(0.04767317,0,0,0.04767317,-1.715248,5.2712538)"
     style="fill:#fddd00" />
</svg>
