<?xml version="1.0" encoding="UTF-8" standalone="no"?>
<svg
   viewBox="0 0 36 36"
   version="1.1"
   id="svg20172"
   sodipodi:docname="peiregord.svg"
   inkscape:version="1.2.1 (9c6d41e410, 2022-07-14)"
   inkscape:export-filename="peiregord.png"
   inkscape:export-xdpi="96"
   inkscape:export-ydpi="96"
   xmlns:inkscape="http://www.inkscape.org/namespaces/inkscape"
   xmlns:sodipodi="http://sodipodi.sourceforge.net/DTD/sodipodi-0.dtd"
   xmlns:xlink="http://www.w3.org/1999/xlink"
   xmlns="http://www.w3.org/2000/svg"
   xmlns:svg="http://www.w3.org/2000/svg">
  <defs
     id="defs20176" />
  <sodipodi:namedview
     id="namedview20174"
     pagecolor="#ffffff"
     bordercolor="#000000"
     borderopacity="0.25"
     inkscape:showpageshadow="2"
     inkscape:pageopacity="0.0"
     inkscape:pagecheckerboard="0"
     inkscape:deskcolor="#d1d1d1"
     showgrid="false"
     inkscape:zoom="22.555556"
     inkscape:cx="17.977833"
     inkscape:cy="18"
     inkscape:window-width="1920"
     inkscape:window-height="1021"
     inkscape:window-x="-8"
     inkscape:window-y="-8"
     inkscape:window-maximized="1"
     inkscape:current-layer="svg20172" />
  <path
     fill="#E41E20"
     d="M32 5H4C1.791 5 0 6.791 0 9v18c0 2.209 1.791 4 4 4h28c2.209 0 4-1.791 4-4V9c0-2.209-1.791-4-4-4z"
     id="path20166" />
  <g
     id="g58170"
     transform="matrix(0.03954839,0,0,0.03954839,6.135483,5.5732243)">
    <g
       id="b"
       stroke="#000000"
       stroke-linecap="round"
       stroke-linejoin="round"
       stroke-width="4.58638"
       transform="matrix(0.49032558,0,0,0.49084092,25.410897,22.974393)">
      <path
         d="m 46.888115,258.05508 c -7.078585,0.0646 -13.598783,6.95176 -15.109881,11.05493 7.645878,-3.03609 12.880464,-1.62303 17.316429,3.02401 l 11.340704,-7.97521 c 0,0 -6.040259,-5.27696 -12.123905,-6.03575 -0.475458,-0.0593 -0.95144,-0.0723 -1.423348,-0.0679 z m -21.2881,32.76195 c -3.850928,0.0207 -9.908703,0.66602 -14.834717,3.93657 -7.7215562,5.1266 -9.87834751,16.77145 -9.1252361,19.10711 7.6051657,-7.90033 13.3558621,-10.24069 27.4522781,-7.28084 l 0.324575,-15.57023 c 0,0 -1.506343,-0.20503 -3.816901,-0.19256 z m 3.564266,28.42812 c 0,0 -12.373666,3.95288 -15.372072,13.76892 -3.198208,10.47015 3.475552,18.71842 6.551806,20.3412 1.364655,-7.32571 2.97891,-17.82305 17.359459,-20.7149 z m 18.090712,19.982 c -2.202972,4.26871 -6.228992,10.67123 -3.761987,18.33437 3.005181,9.33483 14.729675,11.55934 18.036547,11.78663 -5.708727,-9.73982 -3.891994,-16.53446 0.713853,-25.95687 z M 328.13851,502.97256 c -1.04761,-0.022 -2.09758,0.0446 -3.18008,0.24436 -7.88176,1.45498 -12.92997,10.75698 -13.48017,14.52877 7.62034,-4.89308 12.73638,-5.26133 20.87601,3.14535 2.59709,-3.0538 6.46741,-7.25248 10.35997,-11.49759 -1.02649,-1.28396 -7.2425,-6.26649 -14.57573,-6.42089 z m -17.04707,22.47166 c -2.32566,-0.11339 -4.97914,0.33958 -7.65565,1.78422 -9.97766,5.38545 -8.90659,18.20226 -8.39774,19.80545 8.85172,-10.46833 14.74473,-10.38623 22.30181,-2.06576 l 1.51403,-16.51211 c -0.88203,-1.09285 -3.88634,-2.82289 -7.76245,-3.0118 z m 10.43914,25.49082 c 0,0 -10.01042,1.21433 -12.92831,13.1823 -2.91472,11.95494 5.02302,17.38979 7.11586,18.5092 0.31687,-9.18995 4.88382,-16.8439 15.83328,-19.26328 z m 22.35839,13.80549 c -2.40272,1.73589 -7.35815,4.31094 -7.13297,13.26244 0.24221,9.6277 8.59192,14.26216 12.23232,14.65347 -3.36073,-9.01279 -0.0913,-15.69134 5.80593,-19.77309 z M 88.099337,428.09853 c -7.418292,0.0293 -12.699231,5.55177 -13.315073,6.63037 13.627801,0.89189 14.274404,6.256 17.936216,15.80011 5.195912,-3.7759 9.78201,-7.01237 12.78507,-8.7488 0.26331,-2.20256 -3.0216,-8.70164 -10.739389,-12.1871 -2.360109,-1.06585 -4.589698,-1.50278 -6.666824,-1.49458 z m -16.613352,21.96432 c -1.514323,-0.0285 -3.057165,0.1181 -4.612318,0.53242 -11.379938,3.03184 -11.21406,11.6985 -11.376306,14.58137 12.600077,-6.12654 17.230346,10e-4 24.527834,6.05437 l 6.128772,-15.84614 c -2.24941,-1.57029 -8.105895,-5.19645 -14.667982,-5.32202 z m 15.724586,31.59761 c 0,0 -9.97129,-4.10173 -17.259566,0.0539 -7.85754,4.48022 -7.252313,15.02232 -5.761472,18.6437 6.678642,-9.77466 15.414038,-7.89484 21.938119,-3.30139 z m 27.964459,20.27824 c 2.05152,12.8118 -3.03088,14.86184 -11.88286,15.41078 3.00395,2.75658 13.06423,7.34644 19.72536,3.82911 7.31884,-3.8646 9.18263,-15.33456 8.45517,-15.62604 z M 46.777797,34.514266 c -10.480195,-0.06305 -16.358119,7.963615 -17.923402,10.887406 18.684547,-2.35428 16.930902,3.076244 20.080524,14.234403 L 65.255305,53.275211 C 63.937788,47.419177 61.609507,37.908296 53.069974,35.448907 50.81039,34.798146 48.718575,34.525942 46.777797,34.514266 Z m 39.250068,1.434913 c -3.519069,-0.157468 -6.993249,0.765481 -9.520016,2.514873 7.230892,2.786102 11.175722,5.985715 7.226676,17.961408 l 13.590927,9.537884 c 3.550998,-4.08398 7.410348,-13.527457 0.717884,-23.527708 -2.864555,-4.28038 -7.490958,-6.284005 -12.015471,-6.486457 z M 23.584123,59.293639 C 17.334175,58.94894 9.7370033,62.785961 6.2748448,78.001771 22.865628,66.115068 22.634572,77.969534 30.58984,86.091288 L 42.063312,67.625875 c 0,0 -6.141039,-4.590812 -14.41873,-7.518176 -1.231108,-0.435375 -2.618164,-0.734514 -4.060459,-0.81406 z m 32.306946,61.501901 c -7.093572,10.85924 -16.20678,11.33612 -27.922404,5.35822 7.015166,22.30567 24.173656,22.50563 40.026829,10.52282 z"
         style="fill:#2b5df2;fill-rule:evenodd;stroke:#000000;stroke-width:4.58638;stroke-linecap:round;stroke-linejoin:round"
         id="path57970" />
      <path
         d="m 382.33141,373.30069 c 7.44178,-0.31418 15.48357,-8.5507 28.25933,5.76503 2.65795,-5.35981 2.39143,-12.27186 -3.50558,-16.42049 8.67772,-5.63218 17.99338,-20.17639 20.6105,-28.9045 3.41002,-11.37244 5.56748,-24.66605 14.58985,-27.95596 4.78675,-1.74548 9.26813,1.69463 8.85606,7.57927 -0.89447,12.77349 -5.32241,10.02586 -10.01454,27.26987 -1.76179,6.47475 1.71644,16.63251 16.69407,14.39093 -6.33998,-2.92583 -6.67509,-6.7902 -5.99075,-11.89758 1.1881,-8.86717 16.61773,-19.25156 18.23136,-33.81778 1.89806,-17.13365 -12.10051,-24.84308 -19.04675,-25.5053 -9.30094,-0.88671 -20.63428,4.96871 -27.48325,16.58892 -3.61897,-16.92251 8.21935,-33.38198 21.05557,-41.254 10.75545,-6.59597 22.97091,-12.36926 28.95655,-21.87147 6.74863,-10.71352 5.39091,-24.19448 -1.53251,-30.83599 -0.35355,6.40809 -4.84112,17.17118 -18.27866,24.06171 -16.31202,8.36462 -32.08182,13.16456 -45.2538,37.00218 -2.76393,-42.64828 42.96851,-59.27094 61.96887,-72.47447 23.58219,-16.38756 15.87991,-52.09645 8.72205,-56.97138 0.41431,5.97983 0.66186,15.34189 -6.4631,26.41451 -8.24138,12.80773 -22.65155,18.61379 -40.03945,28.18159 -17.29236,9.51526 -31.64803,24.71613 -38.45632,40.66719 -1.87709,-10.76557 6.09491,-26.35977 16.13609,-37.28036 10.40033,-11.31115 22.82493,-21.22726 29.89086,-27.21748 14.07384,-11.93133 34.57669,-28.44665 36.7047,-64.66093 1.50178,-25.46925 -11.17136,-43.30419 -28.93824,-50.74816 -10.41978,-4.36556 -25.69505,-5.01936 -36.21395,-2.66055 -5.27752,1.18344 -10.53867,3.00398 -15.47873,5.97313 -3.47827,2.09055 -9.47957,0.80402 -8.8759,-5.26669 0.71134,-7.15379 10.92547,-7.68136 12.01335,-16.06494 0.89742,-6.91594 -4.3595,-12.47604 -9.92251,-15.2266 1.39234,4.23625 -0.11741,9.15148 -3.03635,14.05438 -3.80445,6.39032 -12.42016,5.70973 -13.54203,17.80092 -0.55593,6.04755 3.47731,12.8652 9.20015,14.55762 0.67842,0.4149 1.81624,1.32915 1.33266,1.99276 -6.3161,8.6678 -7.45819,20.13495 -6.8184,28.08741 1.06856,13.28013 5.6613,17.96105 5.72057,30.25952 0.0186,3.83334 0.0132,14.8871 -4.59827,22.17358 -5.68453,8.98203 -10.55054,12.54123 -15.96783,15.37081 7.643,0.47959 15.81348,-1.29359 21.53229,-3.51267 10.57067,-4.10171 19.54133,-17.16129 21.3252,-25.81949 1.18781,-5.76506 0.9201,-11.1544 0.16274,-16.40466 5.17446,1.75032 14.18531,2.00002 20.48892,-2.17585 6.47284,-4.28797 10.05703,-13.55229 5.2966,-21.63188 -1.64412,8.1883 -7.11614,11.15854 -15.33057,11.48449 -7.81695,0.31019 -14.06495,-4.57279 -14.74735,-13.06258 -1.00585,-12.51308 9.6323,-21.62964 24.25544,-21.80341 19.37149,-0.23021 29.89592,13.99524 28.86799,32.60918 -1.03033,18.65773 -10.27015,32.39101 -23.33416,43.49622 -11.22378,9.54089 -23.03466,18.80896 -34.71486,30.40316 -9.10976,9.04269 -27.05546,28.21263 -27.65722,53.63025 -0.44628,18.83526 5.0321,34.06611 13.60335,47.78861 8.57119,13.72258 13.64843,25.15507 17.30492,35.79589 4.39492,12.79026 2.33555,30.24448 -10.05154,35.13943 -12.83058,5.07025 -30.24839,-2.61161 -36.43087,-19.35145 -2.19915,12.23261 -5.19869,37.53404 7.18678,36.58644 7.49976,2.58311 14.25528,6.03057 22.75669,5.67162 z"
         style="fill:#fff03c;fill-rule:evenodd;stroke:#000000;stroke-width:4.58638;stroke-linecap:round;stroke-linejoin:round"
         id="path57972" />
      <path
         d="m 196.10277,331.94571 c -23.28256,-0.009 -37.71561,15.53662 -40.6994,32.88207 -1.28064,7.44469 -2.49078,12.53923 -5.971,15.46939 -8.53659,7.18737 -22.25816,8.70876 -23.53675,8.22974 8.19927,9.76956 15.45244,13.04041 26.38867,10.66832 -2.27819,12.02671 8.78654,26.94649 14.50151,39.26194 1.92952,4.15804 -7.76546,7.08864 -19.41769,9.08881 -3.79197,0.65094 -11.23,5.32146 -14.87405,6.33728 -3.77416,1.05208 -9.47386,0.68495 -11.66268,-0.66792 -2.26255,-1.39845 -10.42493,-10.6004 -16.62592,-12.63747 -5.77037,-1.89562 -12.99472,-0.80906 -14.33667,3.8912 -2.13753,7.49966 7.83299,10.49934 9.16243,13.15089 1.28572,2.56441 -0.92492,4.61652 -2.79441,3.5406 -2.218,-1.27648 -9.36882,-9.22104 -13.7878,-7.81768 -3.32975,1.05742 -6.07142,4.04424 -6.90959,12.31734 -0.71044,7.01234 10.76284,9.1539 15.10162,9.48539 3.53233,0.26987 3.07213,3.76712 0.94363,4.43157 -2.29,0.71489 -12.29567,-5.27899 -12.86444,-0.52744 -0.56876,4.75156 -1.31345,15.1074 4.96408,18.7424 4.93549,2.85786 23.49026,-2.56915 25.61552,-3.10462 2.53054,-0.63759 5.00133,-1.38092 5.82466,-0.61954 5.59649,5.17535 -5.85374,7.02313 -1.97663,11.82846 4.11998,5.10636 10.07517,5.57637 15.56656,6.48103 11.28327,1.85879 5.55909,-19.52362 8.05427,-19.65459 5.38451,-0.74811 7.49285,-1.57138 11.83332,1.93213 4.34047,3.50352 10.86126,14.3362 19.99976,17.1604 -0.79661,-8.28214 -0.14074,-15.73145 2.65769,-21.2978 3.17439,9.5057 14.61636,14.21669 26.23636,17.24508 -5.8156,-6.79702 -7.40448,-19.13005 -5.54343,-21.01175 7.63832,8.50866 14.82049,11.60632 29.24895,11.19335 -4.29519,-3.1898 -6.49132,-12.49805 -5.54264,-15.1163 1.45534,-4.01652 4.60325,2.97771 8.47202,-5.18283 2.43883,-5.14425 -1.49573,-11.34471 -3.12637,-14.55059 -7.47826,-14.70252 -8.60907,-48.74557 25.93179,-56.78479 18.78561,-4.37227 47.17369,-15.28759 49.63102,-18.37807 19.58438,-24.63052 1.50447,-45.44216 -8.59998,-57.38372 -25.5632,12.19957 -62.48074,1.80842 -91.86441,1.39772 z"
         style="fill:#fcef3c;fill-rule:evenodd;stroke:#000000;stroke-width:4.58638;stroke-linecap:round;stroke-linejoin:round"
         id="path57974" />
      <path
         d="m 83.903697,147.10958 c 0.545438,6.22628 4.571012,15.21612 2.840498,22.6677 4.485999,-4.24165 8.604474,-9.60198 9.113838,-15.38385 6.781467,11.93371 -1.856997,28.58357 -1.200466,41.57503 3.467995,-4.50448 11.874323,-11.13835 13.765633,-17.13395 6.82008,14.75683 -8.732093,18.09672 -0.65349,47.27045 2.8109,-10.53374 9.94833,-19.24496 12.95076,-26.46709 2.30269,20.05073 21.56613,33.29032 32.42108,29.9681 24.89082,32.45692 54.86381,19.81968 53.41606,-15.48501 0,0 -23.52795,-52.04821 -29.61244,-56.53895 -6.60696,-4.87635 -15.01239,-9.27852 -24.59801,-15.39716 -10.81886,-6.90584 -19.69811,-12.45034 -28.08821,-20.21171 -8.3901,-7.7614 -12.42864,-14.72472 -17.92367,-20.17459 C 98.599286,94.126124 93.46124,85.605911 93.296702,81.649485 93.095371,76.808294 97.783821,75.510769 99.522644,67.823053 101.59166,58.67551 92.190635,48.86517 83.446973,50.224557 c -4.984678,0.774974 -5.519977,10.051293 -8.210798,11.917928 -0.634263,0.439991 -1.394297,0.592361 -2.369436,0.307223 -5.112103,-1.494818 -0.905128,-16.352425 -9.164554,-16.939927 -8.259437,-0.587507 -14.84269,1.92477 -19.307197,10.025416 -3.58883,6.511769 8.849235,10.953728 9.31768,14.779372 0.104998,0.857486 -1.697729,2.100796 -2.570642,2.079473 -0.576255,-0.01408 -9.467137,-9.600393 -16.42364,-7.281073 -5.420977,1.807372 -11.300313,8.161928 -9.446545,16.975789 1.602953,7.621348 11.692715,8.164978 16.537408,8.682803 5.744296,0.613979 18.587384,17.010789 17.551168,24.397869 -0.317411,5.95456 -9.166107,3.6112 -11.027571,10.43897 -2.387053,8.75561 4.462176,18.56802 12.167631,17.40198 5.765157,-0.87243 11.956328,-8.378 14.578222,-8.62385 6.355779,-0.0353 8.22098,5.80997 8.824998,12.72305 z"
         style="fill:#fcef3c;fill-rule:evenodd;stroke:#000000;stroke-width:4.58638;stroke-linecap:round;stroke-linejoin:round"
         id="path57976" />
      <path
         d="m 237.0441,320.23703 c 15.17041,5.69924 28.03896,19.75064 29.70305,29.84924 -8.74164,17.42545 -2.97443,25.21626 9.51898,23.13147 10.19595,-1.69622 10.2128,-9.837 7.52724,-19.22928 -2.39599,-8.37952 -6.04209,-14.04004 -13.80464,-20.03355 -10.13587,-7.82599 -28.58771,-14.48447 -32.94463,-13.71788 z"
         style="fill:#fcef3c;fill-rule:evenodd;stroke:#000000;stroke-width:4.58638;stroke-linecap:round;stroke-linejoin:round"
         id="path57978" />
      <path
         d="m 375.92248,546.08868 c 5.57959,-18.31752 25.27069,-5.71075 35.48774,-20.63388 -6.20825,-0.40291 -13.61889,-4.89916 -15.69674,-11.56905 16.19384,0.48409 23.5066,-4.59036 31.82926,-11.65927 -6.5203,0.0385 -16.14326,-1.58827 -17.50881,-11.004 7.79732,-0.15487 24.12809,-0.22222 33.10275,-14.12018 -15.8339,2.64276 -23.53791,-2.61595 -22.80832,-7.16337 2.1566,-13.44199 10.01303,-12.71879 -0.64443,-22.55448 -2.99449,-2.76359 -15.7134,-5.22967 -14.67705,-12.07315 0.54964,-3.62949 11.06268,-10.12979 16.1846,-12.95927 -3.27955,-0.36039 -11.59365,-4.68273 -19.18435,-2.56233 -7.5907,2.12041 -14.35669,3.06423 -25.69271,-8.74253 -5.21236,-5.45194 -7.78018,-6.89191 -14.02763,-19.67755 -1.25584,-2.57012 -7.76857,-24.2848 -5.59192,-23.88781 7.41792,-10.16624 0.50453,-25.85202 -4.21887,-37.51653 -4.59906,-12.44295 -8.66962,-25.01533 -17.65673,-38.04297 -6.90327,-10.00692 -25.29795,-27.11166 -26.28584,-40.50653 -1.29164,-17.36215 -1.61972,-35.89657 -0.54643,-44.92719 2.94094,-24.74493 3.97729,-29.44587 -19.4588,-37.41198 -13.85462,-4.70927 -61.97863,-17.06553 -84.7589,8.1367 -11.63948,12.87695 -24.16832,12.01357 -34.29254,29.20975 -10.12421,17.19618 -10.35321,11.72369 -19.12153,19.92872 -8.76832,8.20503 -16.70744,14.57234 -19.2186,16.2 -5.02233,3.25532 -6.79144,3.90547 -15.24264,10.32588 -8.4512,6.4204 -15.998969,12.42078 -17.407569,13.99608 -2.817199,3.15058 -17.899026,9.07261 -21.260151,8.68862 -2.073807,-0.23693 -7.977765,-10.42379 -12.405492,-11.24773 -5.549882,-1.03277 -18.6207,2.88153 -18.774635,9.93457 -0.08246,3.77802 10.073771,7.36462 8.467369,11.60076 -1.09346,2.88348 -9.094149,5.73704 -12.643155,4.92053 -2.028488,-0.4667 -7.881682,-3.86847 -12.687447,-2.57805 -8.979281,2.41108 -11.717322,15.37674 -6.395568,20.42909 2.705097,2.56815 13.234968,-0.58314 14.816529,0.33676 1.792408,1.04255 2.940223,1.86273 1.979019,3.88953 -1.042705,2.19871 -14.077561,1.61189 -15.721727,4.47568 -5.59818,9.75086 2.368907,23.65464 12.560733,19.2234 3.423315,-1.48841 6.697199,-3.98676 8.988738,-5.65251 2.033495,-1.47798 3.926899,0.37699 4.132399,1.49242 0.467818,2.53912 -8.933368,8.47738 -7.675679,12.32909 2.419005,7.4083 18.165015,9.34093 21.993928,3.15599 2.97136,-4.79971 9.017485,-16.18217 10.154532,-17.72748 0.568534,-0.77266 1.451254,-2.50388 8.496147,-4.38818 17.577449,-4.23013 23.447039,3.42305 29.831399,18.28724 5.72142,-4.83465 14.74934,-19.11248 10.1332,-26.92995 6.53276,6.90996 17.52392,14.78029 26.9712,15.76964 -3.80518,-10.48099 1.09715,-19.30565 2.60746,-22.89489 6.03646,6.25891 22.33659,12.92707 34.00639,10.4348 -10.03795,-6.28478 -15.7656,-17.63603 -4.52652,-22.93392 11.23909,-5.29788 14.10321,-8.35164 16.68373,-18.30575 2.58051,-9.95411 15.50567,-6.83703 20.40988,0.19309 4.9042,7.03013 6.87001,9.6283 12.5607,16.0325 6.12286,6.89057 14.35784,13.66897 19.74311,17.83606 6.08528,4.70874 11.74829,9.86708 16.8617,17.31215 6.55009,9.53687 9.63556,20.32958 9.29369,33.45234 -1.49392,12.64507 4.15094,23.82648 2.25836,36.14519 -1.13486,4.67846 -7.4665,11.44965 -1.34832,23.44151 6.11818,11.99186 7.83555,36.76053 -0.36941,45.52915 21.61465,-1.07899 30.63038,-19.65886 27.17675,-35.8946 8.24864,7.00782 13.86557,8.8756 20.55821,14.89739 2.53522,2.28109 14.02293,13.06978 16.8949,15.32677 5.85424,5.71954 5.06211,4.72034 14.09874,11.78368 0.64835,1.27805 2.29328,10.00348 2.2859,12.25244 -0.002,0.65051 0.35602,5.85018 -1.48929,11.81912 -1.6328,5.28155 -4.65781,11.19381 -7.75967,13.10842 -3.19284,1.97078 -4.08637,-5.84543 -7.761,-5.21555 -4.86086,0.83322 -14.75715,8.12097 -13.43694,12.81041 1.2843,4.56188 12.62054,2.84065 8.44532,5.15052 l -5.33859,2.9535 c -3.28181,1.8156 -4.35814,-2.61619 -11.30273,-1.54592 -8.53447,1.31527 -10.82332,11.84997 -6.16076,17.55562 3.06736,3.75358 9.62749,1.38319 9.62749,1.38319 7.28841,-1.68211 9.7887,0.93558 0.5954,3.32108 0,0 -8.87263,2.4843 -7.76469,9.51939 0.75573,4.79868 7.39842,9.86757 11.01468,9.25608 4.79923,-0.81154 10.17432,-3.85179 11.73817,-6.58428 2.93313,-5.12503 5.35865,-2.04501 3.29529,2.03451 -1.17228,2.31771 -3.19247,7.26746 0.10769,9.77566 4.02219,3.05696 13.67689,1.31167 16.68837,-1.60212 4.61104,-4.46143 3.94627,-11.59525 2.81815,-13.63542 7.64528,-2.36032 11.70502,-7.11896 13.96256,-11.5066 z"
         style="fill:#fcef3c;fill-rule:evenodd;stroke:#000000;stroke-width:4.58638;stroke-linecap:round;stroke-linejoin:round"
         id="path57980" />
      <path
         d="m 100.92877,310.30778 c 0,0 61.87951,-19.78687 101.21665,-61.47879 m 192.89355,200.66862 c 0,0 10.04425,0.70486 14.03077,10.89496 4.157,10.6259 -6.58864,16.28535 -6.58864,16.28535 M 203.34783,451.745 c 0,0 6.2763,8.74934 1.51199,17.9677 -4.96807,9.61261 -16.37799,3.97068 -16.37799,3.97068"
         fill="none"
         stroke="#000000"
         stroke-linecap="round"
         stroke-linejoin="round"
         stroke-width="4.58638"
         id="path57982" />
      <path
         d="m 273.65948,136.90589 c -8.24938,-2.0706 -16.2079,-4.05302 -22.75516,-8.23092 -6.09882,-3.89175 -15.29659,-5.36354 -22.74402,-3.85575 -11.98097,2.42564 -19.72216,4.49651 -31.89549,1.30299 -10.25121,-2.68927 -13.30803,-9.4145 -11.36487,-20.78577 2.13747,6.62311 5.75427,9.82206 9.21097,10.81899 4.44707,1.28255 12.38617,1.29489 18.593,-0.90923 32.13317,-11.41092 53.15519,-1.79786 60.95557,21.65969 z"
         style="fill:#2b5df2;fill-rule:evenodd;stroke:#000000;stroke-width:4.58638;stroke-linecap:round;stroke-linejoin:round"
         id="path57984" />
      <path
         d="m 199.11808,91.338857 c -1.31901,3.182594 -1.09938,13.083563 5.22095,16.229333 1.00178,-5.62124 3.73377,-12.132802 5.76311,-15.454523 z m 9.59682,36.751993 c -0.80296,3.45569 0.18176,7.85327 1.76815,10.5475 l 7.60857,-1.74786 c -3.87719,-2.12648 -7.32502,-5.27597 -9.37672,-8.79964 z"
         style="fill:#fcef3c;fill-rule:evenodd;stroke:#000000;stroke-width:4.58638;stroke-linecap:round;stroke-linejoin:round"
         id="path57986" />
      <path
         d="m 309.88808,270.58568 c -3.19485,-4.78147 -2.70367,-11.99686 -0.84181,-17.94639 2.5388,-8.11267 8.44621,-14.73346 10.35714,-23.73614 2.2254,-10.53179 -3.08613,-13.07654 -2.25564,-18.2688 4.39238,7.82066 17.05834,8.41912 20.86902,-1.41543 -5.63528,-0.79713 -10.72666,-4.54018 -12.5428,-9.81747 -3.27068,-9.5038 4.79775,-12.7896 6.1018,-21.99516 1.53999,-10.8595 -4.89568,-15.59129 -5.30652,-20.18905 5.39918,1.64806 11.9552,-1.38184 12.73763,-7.05936 -2.86688,1.06302 -5.80587,0.32367 -7.61389,-2.83411 -2.16818,-3.78682 -0.43221,-8.7714 -1.16086,-12.88801 -1.35305,-7.64388 -7.19393,-8.5817 -7.94268,-13.34217 5.69296,2.88107 13.27598,-1.26303 13.41375,-8.5705 -2.11013,1.37006 -4.84643,1.55334 -7.11941,0.13709 -4.08803,-2.54716 -1.90766,-7.43314 -3.43253,-11.90959 -1.10438,-3.242062 -7.63432,-6.981315 -7.99915,-10.522496 4.9206,1.340027 9.61112,-1.548226 9.69812,-7.597819 -2.56495,1.14111 -8.3699,0.312493 -10.28937,-1.958426 -8.9835,-10.628396 -15.3047,-19.424153 -25.89436,-26.902477 -8.58503,-6.062677 -30.77957,-10.19315 -47.97888,-11.225829 -12.67573,-0.761074 -23.44201,4.718091 -31.21888,8.704303 -6.77793,3.474176 -2.54746,6.991361 -0.78612,10.309432 -5.79383,-0.713511 -10.7425,-1.707509 -16.22285,0.423991 -3.16153,1.229625 -7.28469,3.911913 -6.95085,5.69044 0.19292,1.02787 2.44371,4.369636 4.36601,3.147538 -0.12466,3.986855 -0.91788,6.251231 -0.79912,10.387525 0.15616,5.440051 3.26797,10.422435 7.69605,11.551083 11.74228,2.992926 22.51693,2.377883 33.33351,-1.751344 14.64475,-5.590628 19.25698,2.699332 20.42524,11.641109 1.17782,9.01512 -1.78797,20.18424 -9.89742,27.17133 -4.21006,3.62738 -11.93404,7.2066 -19.445,6.87168 -4.21587,-0.188 -8.28635,-2.2867 -11.98133,-0.66611 -1.8839,0.82626 -2.37314,7.02782 -2.94055,10.4227 -0.44304,2.64999 1.59372,4.10486 4.40821,4.78886 6.52397,1.58555 4.83304,8.39631 8.72507,9.48106 0.26023,-1.78076 1.98902,-8.9364 3.59125,-8.98249 6.43978,-0.18523 21.24089,-2.01732 20.78386,0.41686 -1.15341,6.12264 -8.15259,9.12327 -24.06334,12.00207 -12.34306,2.23328 -36.22073,-4.95333 -32.74771,-33.22908 -16.13914,8.80815 -21.25871,35.3211 -8.1359,43.4811 -4.72128,-0.6436 -9.94384,-0.28695 -15.66251,0.65042 -8.49723,1.39281 -17.55025,-5.50307 -23.02984,-12.23667 -2.527,20.12961 1.09287,31.52306 11.25921,38.12796 12.08111,7.84888 20.47752,6.46428 28.67191,7.9416 -6.89229,3.50492 -11.84924,9.9406 -18.15889,15.72041 -7.08957,6.49421 -17.34848,11.68837 -28.61308,10.18525 4.71268,9.71397 13.79644,15.68028 24.86215,17.57616 14.93099,2.56086 27.36363,-1.49061 37.73033,-8.93542 -1.77466,9.56848 -11.65824,12.91994 -13.61117,24.48553 -1.74515,10.33517 2.89416,19.64361 13.27388,22.12784 -2.80145,-16.57851 13.84224,-21.13832 23.67362,-24.56372 9.304,-3.24163 17.41298,-7.82884 24.1455,-15.50685 0.95781,9.79756 -12.11974,16.55881 -6.2142,30.97224 3.97115,9.69218 13.86984,14.00938 24.67709,14.09953 -6.88615,-4.72018 -8.44512,-14.34977 -3.58895,-22.88192 6.97344,-12.25219 15.56794,-12.82756 24.67579,-27.06119 2.4162,-3.77599 4.13178,-10.0548 5.51335,-16.06205 3.7024,6.85748 1.43691,13.03868 0.0599,18.48207 -2.58689,10.22585 5.49718,23.98065 19.39625,23.05889 z"
         style="fill:#fff03c;fill-rule:evenodd;stroke:#000000;stroke-width:4.58638;stroke-linecap:round;stroke-linejoin:round"
         id="path57988" />
      <path
         d="m 213.2957,49.694717 c 24.83738,-3.611208 49.57038,-3.047562 74.19481,1.854783 0.40241,-3.897135 1.87686,-9.133165 3.86287,-13.395685 3.46492,-7.436549 7.87636,-15.231952 12.34201,-21.869013 -3.27392,-0.219725 -7.64958,2.353711 -10.95026,7.672044 -1.20625,-2.44428 -6.40858,-4.389938 -9.86017,-1.260884 2.76803,3.169352 6.88915,7.080367 3.94758,11.35009 -2.10644,3.05755 -5.89213,2.426516 -8.40578,0.798858 -2.25507,-1.460285 -4.29257,-4.752852 -4.92158,-9.571116 -3.25647,5.233841 -6.88589,7.591974 -10.10452,7.592863 -5.37494,0.0015 -7.98836,-1.861451 -7.9158,-4.814583 0.12747,-5.183628 6.0503,-6.98302 10.09487,-8.142842 -1.20143,-4.50159 -6.62688,-5.690852 -8.96623,-4.292437 0.11315,-6.2585885 -2.16599,-10.7950128 -5.03537,-12.3873438 -2.94537,1.4469689 -5.44833,5.8638464 -5.64815,12.1202678 -2.26662,-1.513558 -7.74464,-0.596871 -9.16962,3.839062 3.98155,1.360466 9.80731,3.453559 9.67539,8.637076 -0.0749,2.953073 -2.77845,4.683096 -8.14652,4.413044 -3.21456,-0.16171 -6.72169,-2.69825 -9.71243,-8.088264 -0.86911,4.780813 -3.06853,7.967461 -5.39384,9.313242 -2.59178,1.500029 -6.40436,1.941115 -8.35537,-1.217866 -2.72451,-4.411369 1.58701,-8.111578 4.50989,-11.138664 -3.29082,-3.297606 -8.58398,-1.614323 -9.91086,0.766631 -3.03078,-5.476611 -7.27236,-8.265468 -10.55308,-8.209602 4.12838,6.851902 8.14472,14.85799 11.23366,22.458378 1.77051,4.356428 2.98136,9.659588 3.1885,13.571961 z"
         style="fill:#2b5df2;fill-rule:evenodd;stroke:#000000;stroke-width:4.58638;stroke-linecap:round;stroke-linejoin:round"
         id="path57990" />
      <path
         d="m 273.27707,53.09609 c -1.55555,-16.24839 13.46218,-17.45627 24.88158,-21.92966 -1.87333,10.35614 -1.41422,23.93744 -8.51761,27.06175"
         style="fill:#fff03c;fill-rule:evenodd;stroke:#000000;stroke-width:4.58638;stroke-linecap:round;stroke-linejoin:round"
         id="path57992" />
      <path
         d="m 296.41288,41.89166 c 0,0 -13.88716,-2.79663 -16.07225,12.7402 m -87.68064,14.649749 c 0,0 1.76183,4.164338 4.64484,1.761835 m 13.37781,-9.486166 c 4.78105,6.825992 8.26432,2.472551 12.49155,0.43929 14.90499,-8.340841 18.08618,-2.264282 25.57688,2.212118 m -2.97635,87.942824 c 17.46552,1.10666 24.7078,-20.37059 24.7078,-20.37059 0,0 7.90245,10.32513 3.33442,18.74416 9.80362,-6.8894 15.18842,-20.65394 5.98986,-39.20038 5.70077,0.87138 11.35181,6.8408 12.28693,10.26593 3.70875,-13.3728 0.46185,-31.657451 -12.23585,-41.621468"
         fill="none"
         stroke="#000000"
         stroke-linecap="round"
         stroke-linejoin="round"
         stroke-width="4.58638"
         id="path57994" />
      <path
         d="m 216.20891,65.947309 c 4.66241,3.095517 8.18291,4.850739 12.57505,3.622242 7.13802,-1.76843 9.43959,-5.7979 12.7246,-5.415123 -0.70806,-7.91465 -9.45045,-7.319973 -14.4114,-3.621218 -0.59021,0.352976 0.95152,4.00922 2.25888,7.084267 -1.18139,-0.06185 -4.62959,-1.756757 -4.93114,-5.303545 -1.90616,1.337781 -4.67195,2.220351 -8.21599,3.633377 z"
         style="fill:#fcef3c;fill-rule:evenodd;stroke:#000000;stroke-width:4.58638;stroke-linecap:round;stroke-linejoin:round"
         id="path57996" />
    </g>
    <use
       height="100%"
       stroke="#000000"
       stroke-width="0.90957"
       transform="translate(310)"
       width="100%"
       xlink:href="#b"
       id="use57999" />
    <use
       height="100%"
       stroke="#000000"
       stroke-width="0.90957"
       transform="translate(155,290)"
       width="100%"
       xlink:href="#b"
       id="use58001" />
  </g>
</svg>
