<?xml version="1.0" encoding="UTF-8" standalone="no"?>
<svg
   viewBox="0 0 36 36"
   version="1.1"
   id="svg61456"
   sodipodi:docname="provença.svg"
   inkscape:version="1.2.1 (9c6d41e410, 2022-07-14)"
   inkscape:export-filename="provença.png"
   inkscape:export-xdpi="96"
   inkscape:export-ydpi="96"
   xmlns:inkscape="http://www.inkscape.org/namespaces/inkscape"
   xmlns:sodipodi="http://sodipodi.sourceforge.net/DTD/sodipodi-0.dtd"
   xmlns="http://www.w3.org/2000/svg"
   xmlns:svg="http://www.w3.org/2000/svg">
  <defs
     id="defs61460">
    <clipPath
       clipPathUnits="userSpaceOnUse"
       id="clipPath71861">
      <g
         id="g71871"
         transform="translate(422.37633)">
        <rect
           x="-419.543"
           width="4.3333335"
           height="26"
           fill="#d4001c"
           id="rect71863"
           y="5"
           style="stroke-width:0.0346667" />
        <rect
           x="-410.87634"
           width="4.3333335"
           height="26"
           fill="#d4001c"
           id="rect71865"
           y="5"
           style="stroke-width:0.0346667" />
        <rect
           x="-402.20966"
           width="4.3333335"
           height="26"
           fill="#d4001c"
           id="rect71867"
           y="5"
           style="stroke-width:0.0346667" />
        <rect
           x="-393.543"
           width="4.3333335"
           height="26"
           fill="#d4001c"
           id="rect71869"
           y="5"
           style="stroke-width:0.0346667" />
      </g>
    </clipPath>
  </defs>
  <sodipodi:namedview
     id="namedview61458"
     pagecolor="#ffffff"
     bordercolor="#000000"
     borderopacity="0.25"
     inkscape:showpageshadow="2"
     inkscape:pageopacity="0.0"
     inkscape:pagecheckerboard="0"
     inkscape:deskcolor="#d1d1d1"
     showgrid="false"
     inkscape:zoom="23.25"
     inkscape:cx="17.956989"
     inkscape:cy="17.978495"
     inkscape:window-width="1536"
     inkscape:window-height="1039"
     inkscape:window-x="252"
     inkscape:window-y="0"
     inkscape:window-maximized="0"
     inkscape:current-layer="svg61456" />
  <path
     id="path61452"
     style="font-variation-settings:normal;opacity:1;vector-effect:none;fill:#ffd42a;fill-opacity:1;stroke-width:3.03051213;stroke-linecap:butt;stroke-linejoin:miter;stroke-miterlimit:4;stroke-dasharray:none;stroke-dashoffset:0;stroke-opacity:1;-inkscape-stroke:none;stop-color:#000000;stop-opacity:1;stroke:none;marker:none;marker-start:none;marker-mid:none;marker-end:none"
     d="M 4 5 C 1.7910022 5 0 6.7910022 0 9 L 0 18 L 0 27 C 0 29.208998 1.7910022 31 4 31 L 32 31 C 34.208998 31 36 29.208998 36 27 L 36 18 L 36 9 C 36 6.7910022 34.208998 5 32 5 L 4 5 z " />
  <path
     id="path61452-3"
     style="font-variation-settings:normal;vector-effect:none;fill:#d40000;fill-opacity:1;stroke:none;stroke-width:3.03051;stroke-linecap:butt;stroke-linejoin:miter;stroke-miterlimit:4;stroke-dasharray:none;stroke-dashoffset:0;stroke-opacity:1;-inkscape-stroke:none;marker:none;marker-start:none;marker-mid:none;marker-end:none;stop-color:#000000"
     d="M 4,5 C 1.7910022,5 0,6.7910022 0,9 v 9 9 c 0,2.208998 1.7910022,4 4,4 h 28 c 2.208998,0 4,-1.791002 4,-4 V 18 9 C 36,6.7910022 34.208998,5 32,5 Z"
     clip-path="url(#clipPath71861)" />
</svg>
