<?xml version="1.0" encoding="UTF-8" standalone="no"?>
<svg
   viewBox="0 0 36 36"
   version="1.1"
   id="svg61456"
   sodipodi:docname="tibet.svg"
   inkscape:version="1.2.1 (9c6d41e410, 2022-07-14)"
   inkscape:export-filename="tibet.png"
   inkscape:export-xdpi="96"
   inkscape:export-ydpi="96"
   xmlns:inkscape="http://www.inkscape.org/namespaces/inkscape"
   xmlns:sodipodi="http://sodipodi.sourceforge.net/DTD/sodipodi-0.dtd"
   xmlns:xlink="http://www.w3.org/1999/xlink"
   xmlns="http://www.w3.org/2000/svg"
   xmlns:svg="http://www.w3.org/2000/svg">
  <defs
     id="defs61460">
    <linearGradient
       inkscape:collect="always"
       xlink:href="#grad"
       id="linearGradient20298"
       gradientTransform="scale(1.2214624,0.81869076)"
       x1="247.15173"
       y1="562.51703"
       x2="465.66263"
       y2="562.51703"
       gradientUnits="userSpaceOnUse" />
    <linearGradient
       id="grad">
      <stop
         stop-color="#84be86"
         offset="0"
         id="stop19517" />
      <stop
         stop-color="#328c4e"
         offset="1"
         id="stop19519" />
    </linearGradient>
    <linearGradient
       inkscape:collect="always"
       xlink:href="#grad"
       id="linearGradient20270"
       gradientTransform="scale(0.80168486,1.2473729)"
       x1="467.4624"
       y1="432.68497"
       x2="489.81909"
       y2="432.68497"
       gradientUnits="userSpaceOnUse" />
    <linearGradient
       inkscape:collect="always"
       xlink:href="#grad"
       id="linearGradient20272"
       gradientTransform="scale(1.4795633,0.6758751)"
       x1="204.03761"
       y1="796.05188"
       x2="258.58676"
       y2="796.05188"
       gradientUnits="userSpaceOnUse" />
    <linearGradient
       inkscape:collect="always"
       xlink:href="#grad"
       id="linearGradient20274"
       gradientTransform="scale(1.35918,0.73573774)"
       x1="225.85429"
       y1="747.73529"
       x2="273.14084"
       y2="747.73529"
       gradientUnits="userSpaceOnUse" />
    <linearGradient
       inkscape:collect="always"
       xlink:href="#grad"
       id="linearGradient20276"
       gradientTransform="scale(1.4854802,0.67318299)"
       x1="203.83751"
       y1="846.12878"
       x2="254.07703"
       y2="846.12878"
       gradientUnits="userSpaceOnUse" />
    <linearGradient
       inkscape:collect="always"
       xlink:href="#grad"
       id="linearGradient20278"
       gradientTransform="scale(1.5919435,0.62816298)"
       x1="250.55696"
       y1="987.25549"
       x2="281.2225"
       y2="987.25549"
       gradientUnits="userSpaceOnUse" />
    <linearGradient
       inkscape:collect="always"
       xlink:href="#grad"
       id="linearGradient20280"
       gradientTransform="scale(0.95044278,1.0521412)"
       x1="542.72125"
       y1="493.48828"
       x2="598.44678"
       y2="493.48828"
       gradientUnits="userSpaceOnUse" />
    <linearGradient
       inkscape:collect="always"
       xlink:href="#grad"
       id="linearGradient20282"
       gradientTransform="scale(0.99308091,1.0069673)"
       x1="538.01245"
       y1="524.45587"
       x2="550.28558"
       y2="524.45587"
       gradientUnits="userSpaceOnUse" />
    <linearGradient
       inkscape:collect="always"
       xlink:href="#grad"
       id="linearGradient20284"
       gradientTransform="scale(0.95622942,1.0457741)"
       x1="542.51483"
       y1="509.18451"
       x2="555.98859"
       y2="509.18451"
       gradientUnits="userSpaceOnUse" />
    <linearGradient
       inkscape:collect="always"
       xlink:href="#grad"
       id="linearGradient20286"
       gradientTransform="scale(1.2520326,0.79870126)"
       x1="338.71338"
       y1="760.71936"
       x2="354.00333"
       y2="760.71936"
       gradientUnits="userSpaceOnUse" />
    <linearGradient
       inkscape:collect="always"
       xlink:href="#grad"
       id="linearGradient20288"
       gradientTransform="scale(1.0690802,0.93538349)"
       x1="467.10471"
       y1="492.34082"
       x2="484.13718"
       y2="492.34082"
       gradientUnits="userSpaceOnUse" />
    <linearGradient
       inkscape:collect="always"
       xlink:href="#grad"
       id="linearGradient20290"
       gradientTransform="scale(1.8445513,0.54213726)"
       x1="236.9826"
       y1="855.46564"
       x2="274.09537"
       y2="855.46564"
       gradientUnits="userSpaceOnUse" />
    <linearGradient
       inkscape:collect="always"
       xlink:href="#grad"
       id="linearGradient20292"
       gradientTransform="scale(1.5892989,0.62920825)"
       x1="269.23608"
       y1="751.11133"
       x2="308.17142"
       y2="751.11133"
       gradientUnits="userSpaceOnUse" />
    <linearGradient
       inkscape:collect="always"
       xlink:href="#grad"
       id="linearGradient20294"
       gradientTransform="scale(1.2148941,0.82311698)"
       x1="341.61545"
       y1="586.71191"
       x2="396.74606"
       y2="586.71191"
       gradientUnits="userSpaceOnUse" />
    <linearGradient
       inkscape:collect="always"
       xlink:href="#grad"
       id="linearGradient20296"
       gradientTransform="scale(1.2595407,0.79394021)"
       x1="321.9798"
       y1="627.19397"
       x2="381.3306"
       y2="627.19397"
       gradientUnits="userSpaceOnUse" />
    <linearGradient
       inkscape:collect="always"
       xlink:href="#grad"
       id="linearGradient20328"
       gradientTransform="scale(1.0516156,0.95091781)"
       x1="329.17117"
       y1="496.80151"
       x2="518.72418"
       y2="496.80151"
       gradientUnits="userSpaceOnUse" />
    <linearGradient
       inkscape:collect="always"
       xlink:href="#grad"
       id="linearGradient20300"
       gradientTransform="scale(1.2765914,0.78333602)"
       x1="394.29407"
       y1="603.08398"
       x2="406.34738"
       y2="603.08398"
       gradientUnits="userSpaceOnUse" />
    <linearGradient
       inkscape:collect="always"
       xlink:href="#grad"
       id="linearGradient20302"
       gradientTransform="scale(1.1075061,0.90292955)"
       x1="430.83063"
       y1="537.65607"
       x2="454.86789"
       y2="537.65607"
       gradientUnits="userSpaceOnUse" />
    <linearGradient
       inkscape:collect="always"
       xlink:href="#grad"
       id="linearGradient20304"
       gradientTransform="scale(1.0572592,0.94584183)"
       x1="381.47403"
       y1="587.19757"
       x2="400.59256"
       y2="587.19757"
       gradientUnits="userSpaceOnUse" />
    <linearGradient
       inkscape:collect="always"
       xlink:href="#grad"
       id="linearGradient20306"
       gradientTransform="scale(1.0037814,0.99623288)"
       x1="424.50888"
       y1="556.37146"
       x2="443.92947"
       y2="556.37146"
       gradientUnits="userSpaceOnUse" />
    <linearGradient
       inkscape:collect="always"
       xlink:href="#grad"
       id="linearGradient20308"
       gradientTransform="scale(1.3982873,0.71516064)"
       x1="274.17422"
       y1="867.48413"
       x2="292.0582"
       y2="867.48413"
       gradientUnits="userSpaceOnUse" />
    <linearGradient
       inkscape:collect="always"
       xlink:href="#grad"
       id="linearGradient20310"
       gradientTransform="scale(1.2923847,0.77376339)"
       x1="305.90234"
       y1="789.10883"
       x2="324.81619"
       y2="789.10883"
       gradientUnits="userSpaceOnUse" />
    <linearGradient
       inkscape:collect="always"
       xlink:href="#grad"
       id="linearGradient20312"
       gradientTransform="scale(0.92582902,1.080113)"
       x1="373.89359"
       y1="550.57166"
       x2="427.57974"
       y2="550.57166"
       gradientUnits="userSpaceOnUse" />
    <linearGradient
       inkscape:collect="always"
       xlink:href="#grad"
       id="linearGradient20314"
       gradientTransform="scale(0.90422209,1.105923)"
       x1="565.69489"
       y1="528.37903"
       x2="580.7608"
       y2="528.37903"
       gradientUnits="userSpaceOnUse" />
    <linearGradient
       inkscape:collect="always"
       xlink:href="#grad"
       id="linearGradient20316"
       gradientTransform="scale(0.96334643,1.0380482)"
       x1="513.23541"
       y1="556.0791"
       x2="530.2381"
       y2="556.0791"
       gradientUnits="userSpaceOnUse" />
    <linearGradient
       inkscape:collect="always"
       xlink:href="#grad"
       id="linearGradient20318"
       gradientTransform="scale(0.93021522,1.07502)"
       x1="510.78467"
       y1="523.84564"
       x2="533.17133"
       y2="523.84564"
       gradientUnits="userSpaceOnUse" />
    <linearGradient
       inkscape:collect="always"
       xlink:href="#grad"
       id="linearGradient20320"
       gradientTransform="scale(1.4672404,0.68155155)"
       x1="311.41327"
       y1="855.24945"
       x2="371.78534"
       y2="855.24945"
       gradientUnits="userSpaceOnUse" />
    <linearGradient
       inkscape:collect="always"
       xlink:href="#grad"
       id="linearGradient20322"
       gradientTransform="scale(1.2770099,0.78307928)"
       x1="321.75833"
       y1="661.22583"
       x2="372.04681"
       y2="661.22583"
       gradientUnits="userSpaceOnUse" />
    <linearGradient
       inkscape:collect="always"
       xlink:href="#grad"
       id="linearGradient20324"
       gradientTransform="scale(1.2963158,0.77141698)"
       x1="346.95224"
       y1="674.42853"
       x2="388.89838"
       y2="674.42853"
       gradientUnits="userSpaceOnUse" />
    <linearGradient
       inkscape:collect="always"
       xlink:href="#grad"
       id="linearGradient20326"
       gradientTransform="scale(1.100635,0.90856646)"
       x1="366.57736"
       y1="655.54205"
       x2="383.35547"
       y2="655.54205"
       gradientUnits="userSpaceOnUse" />
    <clipPath
       clipPathUnits="userSpaceOnUse"
       id="clipPath22958">
      <path
         id="path22960"
         style="font-variation-settings:normal;opacity:1;vector-effect:none;fill:#eeeeee;fill-opacity:1;stroke-width:29.7683;stroke-linecap:butt;stroke-linejoin:miter;stroke-miterlimit:4;stroke-dasharray:none;stroke-dashoffset:0;stroke-opacity:1;-inkscape-stroke:none;stop-color:#000000;stop-opacity:1"
         d="M 128,-1.1076923e-5 C 57.31207,-1.1076923e-5 0,49.596974 0,110.76922 V 360 609.23078 c 0,61.17225 57.31207,110.76923 128,110.76923 h 896 c 70.6879,0 128,-49.59698 128,-110.76923 V 360 110.76922 C 1152,49.596974 1094.6879,-1.1076923e-5 1024,-1.1076923e-5 Z" />
    </clipPath>
  </defs>
  <sodipodi:namedview
     id="namedview61458"
     pagecolor="#ffffff"
     bordercolor="#000000"
     borderopacity="0.25"
     inkscape:showpageshadow="2"
     inkscape:pageopacity="0.0"
     inkscape:pagecheckerboard="0"
     inkscape:deskcolor="#d1d1d1"
     showgrid="false"
     inkscape:zoom="23.25"
     inkscape:cx="18"
     inkscape:cy="17.978495"
     inkscape:window-width="1920"
     inkscape:window-height="1021"
     inkscape:window-x="-8"
     inkscape:window-y="-8"
     inkscape:window-maximized="1"
     inkscape:current-layer="svg61456" />
  <g
     id="g20268"
     transform="matrix(0.03125,0,0,0.03611111,0,5.0000004)"
     clip-path="url(#clipPath22958)">
    <path
       fill="#f4e109"
       d="M 0,0 V 720 H 1152 V 0 Z"
       id="path19524" />
    <path
       fill="#da251c"
       d="M 596.99,620 1152,676.187 V 41.907 H 42 v 634.28"
       id="path19526" />
    <g
       fill="#29166f"
       id="g19536">
      <path
         d="M 597,359.06 V 41.9 H 319.31 Z"
         id="path19528" />
      <path
         d="M 597,359.06 1152,41.9 H 873.97 Z"
         id="path19530" />
      <path
         d="M 1152,200.47 V 359.06 H 42 v 158.56 z"
         id="path19532" />
      <path
         d="M 1152,676.14 V 517.63 L 42,200.47 V 41.91 Z"
         id="path19534" />
    </g>
    <path
       fill="#f4e109"
       d="m 392.87,329.97 102.05,17.726 c -0.408,3.732 -0.632,7.516 -0.632,11.355 0,3.868 0.225,7.685 0.64,11.441 l -102.04,17.813 102.92,-11.563 c 1.158,6.703 2.963,13.182 5.344,19.374 l -94.205,43.224 96.647,-37.403 c 1.266,2.774 2.643,5.487 4.14,8.123 l 178.54,10e-4 c 1.495,-2.636 2.874,-5.349 4.14,-8.123 l 96.646,37.403 -94.206,-43.224 c 2.382,-6.192 4.187,-12.671 5.345,-19.374 l 102.92,11.563 -102.04,-17.813 c 0.414,-3.757 0.641,-7.573 0.641,-11.441 0,-3.839 -0.227,-7.623 -0.632,-11.355 l 102.05,-17.726 -102.94,11.476 c -1.148,-6.719 -2.944,-13.211 -5.321,-19.419 l 94.22,-43.177 -96.657,37.357 c -3.226,-7.082 -7.215,-13.735 -11.879,-19.849 l 78.264,-68.147 -82.245,63.261 c -10.31,-11.931 -23.281,-21.47 -38.01,-27.65 l 33.979,-98.248 -39.859,96.01 c -10.556,-3.681 -21.882,-5.707 -33.686,-5.707 -11.803,0 -23.128,2.026 -33.684,5.707 l -39.86,-96.01 33.98,98.248 c -14.729,6.181 -27.701,15.719 -38.01,27.65 l -82.246,-63.261 78.266,68.147 c -4.665,6.114 -8.654,12.768 -11.878,19.849 l -96.659,-37.357 94.22,43.177 c -2.378,6.208 -4.171,12.7 -5.321,19.419 z"
       id="path19538" />
    <path
       fill="#ffffff"
       d="M 596.99,359.05 1152,676.19 H 42 Z"
       id="path19540" />
    <g
       fill="#da251c"
       stroke="#000000"
       stroke-width="0.476"
       id="g19578">
      <path
         fill="#f1c700"
         d="m 629.96,593.89 c 0,18.271 -14.811,33.082 -33.081,33.082 -18.268,0 -33.082,-14.812 -33.082,-33.082 0,-18.269 14.814,-33.079 33.082,-33.079 18.27,0 33.081,14.81 33.081,33.079 z"
         id="path19542" />
      <path
         d="m 624.99,593.89 c 0,15.526 -12.586,28.112 -28.112,28.112 -15.526,0 -28.112,-12.586 -28.112,-28.112 0,-15.526 12.586,-28.112 28.112,-28.112 15.526,0 28.112,12.586 28.112,28.112 z"
         id="path19544" />
      <path
         fill="#e87817"
         d="m 620.54,593.89 c 0,13.069 -10.594,23.663 -23.663,23.663 -13.069,0 -23.663,-10.594 -23.663,-23.663 0,-13.069 10.594,-23.663 23.663,-23.663 13.069,0 23.663,10.594 23.663,23.663 z"
         id="path19546" />
      <path
         fill="#29166f"
         d="m 620.54,593.9 c 0,13.065 -10.594,23.661 -23.663,23.661 -13.069,0 -23.702,-10.596 -23.702,-23.661 0,-6.541 5.301,-11.858 11.848,-11.858 6.552,0 11.836,5.317 11.836,11.858 0,6.542 5.296,11.849 11.85,11.849 6.542,-10e-4 11.831,-5.307 11.831,-11.849 z"
         id="path19548" />
      <path
         fill="#e87817"
         d="m 588.41,593.89 c 0,1.868 -1.509,3.382 -3.38,3.382 -1.871,0 -3.382,-1.514 -3.382,-3.382 0,-1.864 1.511,-3.384 3.382,-3.384 1.871,0 3.38,1.519 3.38,3.384 z"
         id="path19550" />
      <path
         fill="#29166f"
         d="m 612.11,593.89 c 0,1.868 -1.508,3.382 -3.38,3.382 -1.871,0 -3.385,-1.514 -3.385,-3.382 0,-1.864 1.514,-3.384 3.385,-3.384 1.873,0 3.38,1.519 3.38,3.384 z"
         id="path19552" />
      <path
         d="m 596.87,556.27 c -1.38,0 -2.501,-1.117 -2.501,-2.5 0,-1.385 1.121,-2.507 2.501,-2.507 1.384,0 2.502,1.122 2.502,2.507 0,1.382 -1.118,2.5 -2.502,2.5 z"
         id="path19554" />
      <path
         d="m 596.81,558.2 c 0,1.385 -1.117,2.506 -2.502,2.506 -1.385,0 -2.501,-1.121 -2.501,-2.506 0,-1.378 1.116,-2.502 2.501,-2.502 1.385,0 2.502,1.124 2.502,2.502 z"
         id="path19556" />
      <path
         d="m 601.94,558.2 c 0,1.385 -1.116,2.506 -2.5,2.506 -1.386,0 -2.506,-1.121 -2.506,-2.506 0,-1.378 1.12,-2.502 2.506,-2.502 1.384,0 2.5,1.124 2.5,2.502 z"
         id="path19558" />
      <path
         d="m 596.87,631.52 c 1.379,0 2.506,1.12 2.506,2.5 0,1.384 -1.127,2.502 -2.506,2.502 -1.384,0 -2.5,-1.118 -2.5,-2.502 0,-1.38 1.116,-2.5 2.5,-2.5 z"
         id="path19560" />
      <path
         d="m 596.94,629.58 c 0,-1.38 1.118,-2.5 2.502,-2.5 1.382,0 2.504,1.12 2.504,2.5 0,1.386 -1.122,2.506 -2.504,2.506 -1.384,0 -2.502,-1.12 -2.502,-2.506 z"
         id="path19562" />
      <path
         d="m 591.81,629.58 c 0,-1.38 1.116,-2.5 2.5,-2.5 1.384,0 2.505,1.12 2.505,2.5 0,1.386 -1.121,2.506 -2.505,2.506 -1.384,0 -2.5,-1.12 -2.5,-2.506 z"
         id="path19564" />
      <path
         d="m 639.5,593.89 c 0,1.3813 -1.1197,2.501 -2.501,2.501 -1.3813,0 -2.501,-1.1197 -2.501,-2.501 0,-1.3813 1.1197,-2.501 2.501,-2.501 1.3813,0 2.501,1.1197 2.501,2.501 z"
         id="path19566" />
      <path
         d="m 635.07,596.46 c 0,1.3824 -1.1206,2.503 -2.503,2.503 -1.3824,0 -2.503,-1.1206 -2.503,-2.503 0,-1.3824 1.1206,-2.503 2.503,-2.503 1.3824,0 2.503,1.1206 2.503,2.503 z"
         id="path19568" />
      <path
         d="m 632.57,588.83 c -1.381,0 -2.502,1.115 -2.502,2.5 0,1.385 1.121,2.504 2.502,2.504 1.382,0 2.502,-1.119 2.502,-2.504 0,-1.385 -1.12,-2.5 -2.502,-2.5 z"
         id="path19570" />
      <path
         d="m 559.25,593.89 c 0,-1.378 -1.115,-2.504 -2.5,-2.504 -1.384,0 -2.501,1.126 -2.501,2.504 0,1.383 1.117,2.5 2.501,2.5 1.385,0 2.5,-1.118 2.5,-2.5 z"
         id="path19572" />
      <path
         d="m 563.68,591.33 c 0,1.3824 -1.1206,2.503 -2.503,2.503 -1.3824,0 -2.503,-1.1206 -2.503,-2.503 0,-1.3824 1.1206,-2.503 2.503,-2.503 1.3824,0 2.503,1.1206 2.503,2.503 z"
         id="path19574" />
      <path
         d="m 563.68,596.45 c 0,1.3818 -1.1202,2.502 -2.502,2.502 -1.3818,0 -2.502,-1.1202 -2.502,-2.502 0,-1.3818 1.1202,-2.502 2.502,-2.502 1.3818,0 2.502,1.1202 2.502,2.502 z"
         id="path19576" />
    </g>
    <g
       stroke-width="0.476"
       id="g19662">
      <g
         fill="#e0609b"
         stroke="#000000"
         id="g19596">
        <path
           fill="#e87817"
           d="m 600.33,516.36 c 0,1.84 -1.487,3.326 -3.325,3.326 -1.84,0 -3.326,-1.486 -3.326,-3.326 0,-1.838 1.486,-3.324 3.326,-3.324 1.838,0 3.325,1.486 3.325,3.324 z"
           id="path19580" />
        <path
           fill="#e12211"
           d="m 622.04,486.76 c -1.398,5.898 -12.077,10.491 -25.054,10.491 -13.008,0 -23.717,-4.616 -25.07,-10.542 -4.437,2.376 -7.1,5.4 -7.1,8.691 0,7.66 14.382,13.867 32.124,13.867 17.74,0 32.118,-6.207 32.118,-13.867 0,-3.268 -2.629,-6.274 -7.018,-8.64 z"
           id="path19582" />
        <path
           d="m 597.44,497.25 c -2.56,0 -5.03,-0.179 -7.36,-0.514 -0.354,0.997 -2.361,8.101 7.313,12.53 7.429,-2.847 7.275,-10.72 6.511,-12.41 -2.063,0.254 -4.228,0.394 -6.464,0.394 z"
           id="path19584" />
        <path
           d="m 571.8,485.93 c -1.184,0.502 -7.366,2.488 -5.974,13.064 9.224,2.535 10.25,-5.694 10.28,-6.938 -2.553,-1.761 -4.104,-3.864 -4.306,-6.126 z"
           id="path19586" />
        <path
           d="m 588.87,496.54 c 0.079,1.021 0.6,9.042 -9.55,10.257 -7.443,-6.215 -2.961,-13.113 -1.307,-13.851 2.84,1.615 6.58,2.866 10.857,3.594 z"
           id="path19588" />
        <path
           d="m 617.82,492.06 c 0.027,1.243 1.056,9.473 10.279,6.938 1.392,-10.576 -4.792,-12.563 -5.976,-13.064 -0.198,2.261 -1.752,4.364 -4.303,6.126 z"
           id="path19590" />
        <path
           d="m 615.91,492.95 c 1.654,0.737 6.138,7.636 -1.308,13.851 -10.149,-1.215 -9.625,-9.235 -9.55,-10.257 4.278,-0.728 8.019,-1.979 10.858,-3.594 z"
           id="path19592" />
        <path
           fill="#f1c700"
           d="m 627.78,491.52 c 0.831,1.236 1.284,2.536 1.284,3.881 0,7.66 -14.378,13.867 -32.118,13.867 -17.741,0 -32.124,-6.207 -32.124,-13.867 0,-1.237 0.381,-2.438 1.089,-3.585 -3.936,2.409 -6.231,5.296 -6.231,8.405 0,8.402 16.749,15.207 37.411,15.207 20.669,0 37.421,-6.805 37.421,-15.207 0.001,-3.238 -2.495,-6.233 -6.732,-8.701 z"
           id="path19594" />
      </g>
      <g
         fill="#ffffff"
         id="g19608">
        <path
           d="m 597.12,504.23 c -1.458,-2.815 -0.844,-5.285 -0.803,-6.996 0.16,0.004 0.317,0.005 0.478,0.005 -0.06,0.894 -0.052,3.593 0.325,6.991 z"
           id="path19598" />
        <path
           d="m 572.84,488.82 c -0.661,0.648 -2.937,3.078 -4.184,6.476 2.1,-2.619 4.031,-5.024 4.688,-5.757 -0.181,-0.236 -0.351,-0.477 -0.504,-0.719 z"
           id="path19600" />
        <path
           d="m 582.4,494.9 c -0.296,0.59 -1.664,3.014 -1.664,6.553 1.033,-3.603 2.047,-5.626 2.423,-6.3 -0.261,-0.084 -0.511,-0.164 -0.759,-0.253 z"
           id="path19602" />
        <path
           d="m 620.59,489.54 c 0.657,0.732 2.588,3.138 4.688,5.757 -1.247,-3.397 -3.522,-5.827 -4.184,-6.476 -0.154,0.242 -0.321,0.483 -0.504,0.719 z"
           id="path19604" />
        <path
           d="m 610.77,495.16 c 0.373,0.674 1.387,2.697 2.419,6.3 0,-3.539 -1.367,-5.963 -1.664,-6.553 -0.247,0.089 -0.496,0.169 -0.755,0.253 z"
           id="path19606" />
      </g>
      <g
         stroke="#000000"
         id="g19634">
        <path
           fill="#e12211"
           stroke-linejoin="round"
           stroke-linecap="round"
           d="m 576.26,461.85 c 0,0 -2.332,-2.805 -5.756,-4.99 -3.421,-2.194 -5.785,-0.894 -9.277,-1.612 -3.316,-0.688 -10.426,-2.966 -8.386,-15.539 2.053,11.032 7.61,7.926 8.077,6.467 0.581,-1.814 -0.708,-4.537 -2.603,-5.753 -2.393,-1.538 -6.708,-5.063 -6.708,-10.131 0,-1.56 0.377,-3.218 0.901,-4.756 0.566,-1.675 3.003,-3.86 2.557,-6.782 1.879,4.552 -2.285,4.675 2.022,11.125 1.16,1.736 2.86,0.363 3.148,-0.958 0.442,-2.052 -0.822,-4.79 -1.779,-6.984 -0.962,-2.188 -1.82,-5.789 -0.962,-8.896 1.235,-4.453 3.868,-5.447 4.794,-8.768 0.561,-2.009 -2.656,-6.852 2.054,-10.679 -2.584,5.996 0.959,7.939 1.779,9.723 0.822,1.78 -0.417,5.209 -0.547,6.435 -0.171,1.612 2.178,2.282 3.695,1.265 1.955,-1.3 1.678,-5.234 1.819,-7.422 0.136,-2.197 1.985,-3.532 4.311,-4.627 2.329,-1.094 6.149,-5.379 3.219,-11.946 7.264,5.734 5.718,11.09 5.029,13.282 -0.683,2.191 -2.052,6.301 -1.771,9.035 0.27,2.742 2.184,2.602 2.868,1.508 0.688,-1.095 -0.373,-4.674 -0.138,-6.573 0.4,-3.227 5.537,-3.862 5.804,-6.267 0.222,-2.001 -4.978,-6.153 -4.694,-9.609 0.445,-5.436 4.978,-3.62 3.275,-9.52 3.697,3.697 1.232,6.499 0.959,7.867 -0.273,1.371 0.055,3.479 1.78,3.291 1.233,-0.141 2.381,-1.729 3.149,-4.795 2.085,-8.319 -4.873,-6.527 -4.146,-12.84 2.566,4.148 5.99,1.523 9.867,7.603 1.874,2.938 0.988,5.373 0.579,7.425 -0.411,2.058 1.371,4.114 2.603,2.195 2.794,-4.354 -1.274,-5.243 1.916,-10.888 -1.149,8.436 3.851,5.978 3.147,14.858 -0.291,3.675 -4.79,6.982 -5.206,10 -0.347,2.572 0.449,5.575 1.406,6.533 1.584,1.586 3.188,1.326 3.699,-0.549 0.407,-1.503 -0.413,-3.114 -0.962,-4.759 -0.621,-1.868 0.601,-3.651 2.979,-4.243 1.821,-0.453 3.977,-3.488 3.56,-6.16 -0.426,-2.792 -4.774,-4.581 -0.408,-11.643 -2.45,7.937 4.134,6.937 4.962,12.396 0.353,2.322 -0.43,3.844 -0.648,5.063 -0.282,1.556 4.211,3.806 2.811,-2.258 4.718,3.862 5.063,8.629 4.517,10.407 -0.551,1.78 -2.056,3.968 -1.098,5.886 0.958,1.918 3.249,2.671 4.52,0.822 1.059,-1.541 1.366,-3.745 0.582,-6.299 -0.844,-2.749 -4.469,-3.581 -0.513,-9.793 0,6.212 4.919,8.503 5.714,11.504 0.393,1.481 -0.442,3.219 0.242,4.176 0.685,0.962 4.938,0.58 1.645,-6.843 5.86,4.789 2.737,10.437 0.82,11.948 -1.914,1.506 -5.339,5.441 -5.339,8.867 0,3.422 3.704,6.521 4.929,3.559 1.353,-3.271 -1.383,-6.007 1.507,-10.547 -0.765,4.582 0.693,9.567 2.872,9.859 1.819,0.244 2.356,-2.655 2.982,-4.622 1.839,5.22 -2.16,7.878 -2.982,9.109 -0.822,1.229 -1.197,4.484 -2.738,5.342 -1.29,0.713 -4.38,1.406 -6.296,2.769 -1.916,1.368 -4.174,4.275 -0.683,4.799 3.212,0.479 5.377,-0.508 7.391,-5.48 2.98,9.223 -5.41,12.905 -9.586,13.423 -3.398,0.415 -9.174,0.544 -10.818,1.776 -1.643,1.231 -1.643,3.214 -1.643,3.214 0,0 -2.602,4.729 -7.805,5.824 -5.201,1.097 -19.718,1.917 -23.962,0.273 -4.244,-1.644 -7.4,-3.84 -9.036,-6.097 z m 66.648,-45.118 c -5.9,5.665 -0.803,12.679 0.446,8.628 1.39,-4.507 -2.096,-3.241 -0.446,-8.628 z m -16.259,21.773 c -1.02,1.02 -0.98,2.195 -0.445,2.808 0.445,0.512 1.472,0.037 2.156,-0.475 0.687,-0.517 1.664,-1.645 1.715,-3.082 0.09,-2.557 -2.178,-2.633 -2.433,-5.856 -1.2,2.4 2.089,3.523 -0.993,6.605 z m -5.342,-23.107 c -1.089,3.51 1.18,4.697 1.493,6.006 0.308,1.287 -0.256,1.855 0.151,2.93 0.411,1.075 1.594,2.105 2.26,0.769 0.75,-1.494 0.432,-2.606 -0.099,-3.952 -0.686,-1.743 -3.805,-1.993 -3.805,-5.753 z m -6.11,-12.98 c 1.332,2.896 0.14,3.552 0.716,6.829 0.206,1.17 1.912,3.409 2.519,1.591 0.512,-1.535 0.41,-3.078 -0.617,-4.105 -2.288,-2.287 -0.356,-2.552 -2.618,-4.315 z m -6.574,11.655 c 4.591,5.847 -0.048,11.04 -1.026,11.864 -0.977,0.821 -1.542,1.692 -1.797,2.513 -0.255,0.826 -0.052,2.363 1.384,2.004 1.439,-0.361 2.673,-1.848 3.339,-3.081 0.668,-1.229 1.598,-4.002 1.696,-6.265 0.15,-3.439 -1.505,-6.773 -3.596,-7.035 z m -6.832,-1.077 c -1.868,2.38 0.052,3.88 -0.203,5.494 -0.149,0.946 -0.924,1.438 -0.768,2.206 0.15,0.773 1.229,1.593 1.949,0.976 0.716,-0.614 1.334,-2.668 0.82,-3.539 -0.511,-0.875 -2.979,-2.11 -1.798,-5.137 z m -10.214,-6.161 c -4.343,5.054 -1.492,10.216 -0.927,10.889 0.566,0.664 2.617,0.929 2.72,-0.98 0.208,-3.886 -3.511,-3.886 -1.793,-9.909 z m -5.958,9.653 c -2.987,8.139 0.14,8.804 0.716,8.42 0.772,-0.511 1.334,-1.54 0.979,-2.258 -0.361,-0.72 -2.432,-0.107 -1.695,-6.162 z m -6.676,-3.597 c 0.979,4.318 -1.437,4.527 -2.058,9.865 -0.236,2.036 0.67,4.361 1.079,5.182 0.409,0.826 1.596,1.42 2.314,0.46 0.77,-1.025 0.973,-2.206 0.408,-3.337 -0.463,-0.928 -2.241,-1.436 -2.211,-3.542 0.033,-2.143 2.449,-6.185 0.468,-8.628 z m -10.94,0.363 c -2.247,4.872 2.253,5.163 2.93,6.979 0.414,1.11 1.229,2.056 1.897,0.98 0.67,-1.079 0.413,-3.081 -0.465,-3.906 -0.871,-0.819 -4.362,-1.265 -4.362,-4.053 z m -4.108,8.473 c -1.598,2.482 1.319,3.732 0.512,6.723 -0.445,1.646 -0.615,2.771 -0.308,3.393 0.308,0.615 1.695,0.924 2.313,-0.258 0.615,-1.178 0.702,-2.16 0.511,-3.135 -0.357,-1.824 -3.028,-3.174 -3.028,-6.723 z m 11.4,-17.44 c -0.453,0.623 -0.874,2.411 -0.566,3.54 0.311,1.131 1.802,0.835 2.107,0.257 0.463,-0.871 -0.183,-1.63 -0.053,-2.613 0.253,-1.906 2.894,-1.781 2.208,-5.139 -0.553,3.096 -3.03,3.029 -3.696,3.955 z m 18.637,-2.621 c -0.215,2.016 0.618,5.6 1.899,6.776 1.285,1.182 2.946,-0.305 3.028,-1.744 0.104,-1.831 -1.932,-2.553 -2.253,-4.616 -0.617,-3.965 4.399,-5.675 0.409,-10.788 1.866,5.655 -2.465,4.573 -3.083,10.372 z"
           id="path19610" />
        <path
           fill="#f1c700"
           d="m 615.28,477.31 c 1.009,1.263 1.566,2.65 1.566,4.11 0,5.835 -8.932,10.569 -19.953,10.569 -11.018,0 -19.952,-4.734 -19.952,-10.569 0,-1.4 0.521,-2.734 1.455,-3.958 -4.11,2.104 -6.614,4.901 -6.614,7.977 0,6.521 11.282,11.808 25.208,11.808 13.924,0 25.213,-5.286 25.213,-11.808 0,-3.154 -2.634,-6.012 -6.923,-8.129 z"
           id="path19612" />
        <path
           fill="#e12211"
           d="m 615.59,477.73 c -0.229,0.014 -0.333,0.168 -0.563,-0.064 -0.336,-0.343 -1.774,-5.841 -2.258,-7.72 -3.385,1.708 -9.229,2.841 -15.875,2.841 -6.458,0 -12.236,-1.075 -15.655,-2.727 -0.51,1.98 -1.901,7.273 -2.233,7.605 -0.296,0.305 -0.373,-0.063 -0.834,0.111 -0.788,1.137 -1.228,2.361 -1.228,3.644 0,5.835 8.935,10.569 19.952,10.569 11.021,0 19.953,-4.734 19.953,-10.569 0,-1.299 -0.451,-2.542 -1.259,-3.69 z"
           id="path19614" />
        <path
           fill="#e87817"
           d="m 579.67,467.35 c 1.768,4.648 -2.587,10.577 -1.52,13.252 1.063,2.667 3.491,4.079 5.861,4.878 5.991,2.019 7.075,-3.606 8.075,-14.169 -3.69,0 -9.599,-1.144 -12.416,-3.961 z"
           id="path19616" />
        <path
           fill="#29166f"
           d="m 614.32,467.35 c -1.768,4.648 2.587,10.577 1.52,13.252 -1.063,2.667 -3.491,4.079 -5.861,4.878 -5.991,2.019 -7.075,-3.606 -8.075,-14.169 3.691,0 9.599,-1.144 12.416,-3.961 z"
           id="path19618" />
        <path
           fill="#ffffff"
           d="m 602.32,471.78 c 0.75,2.538 2.585,11.549 1.657,13.4 -1.125,2.239 -4.041,3.375 -6.981,3.406 -2.94,0.031 -5.856,-1.167 -6.981,-3.406 -0.928,-1.852 0.907,-10.862 1.657,-13.4 z"
           id="path19620" />
        <path
           fill="#e87817"
           d="m 579.97,432 c -5.032,-3.902 -7.604,-3.569 -7.604,-3.569 0,0 -2.019,1.635 -2.66,7.97 -0.405,4.006 -0.633,10.451 2.174,16.628 2.774,6.112 7.654,12.183 9.485,14.039 1.834,1.854 3.345,3.692 3.345,3.692 l 10.187,-4.366 c 0,0 -0.293,-2.36 -0.374,-4.969 -0.077,-2.607 -1.494,-10.163 -4.002,-16.389 -2.543,-6.29 -7.373,-10.568 -10.551,-13.036 z"
           id="path19622" />
        <path
           fill="#29166f"
           d="m 613.86,432 c 5.032,-3.902 7.604,-3.569 7.604,-3.569 0,0 2.02,1.635 2.66,7.97 0.406,4.006 0.633,10.451 -2.173,16.628 -2.774,6.112 -7.654,12.183 -9.485,14.039 -1.834,1.854 -3.345,3.692 -3.345,3.692 l -10.187,-4.366 c 0,0 0.293,-2.36 0.374,-4.969 0.077,-2.607 1.494,-10.163 4.002,-16.389 2.542,-6.29 7.372,-10.568 10.55,-13.036 z"
           id="path19624" />
        <path
           fill="#ffffff"
           d="m 602.57,430.27 c -3.088,-5.569 -5.582,-6.276 -5.582,-6.276 0,0 -2.5,0.707 -5.586,6.276 -1.951,3.521 -4.7,9.355 -4.556,16.139 0.142,6.711 2.234,14.213 3.185,16.641 0.956,2.428 1.62,4.713 1.62,4.713 h 11.083 c 0,0 0.66,-2.285 1.614,-4.713 0.956,-2.428 2.632,-9.93 2.779,-16.641 0.143,-6.783 -2.609,-12.617 -4.557,-16.139 z"
           id="path19626" />
        <path
           fill="#f4e109"
           d="m 596.59,470.93 c -9.241,0 -17.013,-2.043 -19.26,-4.805 -0.03,0.133 -0.047,0.266 -0.047,0.404 0,3.451 8.643,6.256 19.307,6.256 10.662,0 19.308,-2.805 19.308,-6.256 0,-0.139 -0.019,-0.271 -0.048,-0.404 -2.251,2.762 -10.023,4.805 -19.26,4.805 z"
           id="path19628" />
        <path
           fill="#e87817"
           d="m 596.59,468.84 c -9.572,0 -17.604,-2.131 -19.827,-5.008 -0.063,0.21 -0.099,0.432 -0.099,0.646 0,3.564 8.917,6.457 19.926,6.457 11.001,0 19.924,-2.893 19.924,-6.457 0,-0.215 -0.036,-0.437 -0.099,-0.646 -2.226,2.877 -10.255,5.008 -19.825,5.008 z"
           id="path19630" />
        <path
           fill="#f4e109"
           d="m 596.59,466.98 c -9.833,0 -18.088,-2.182 -20.402,-5.132 -0.021,0.121 -0.037,0.248 -0.037,0.369 0,3.654 9.148,6.62 20.439,6.62 11.283,0 20.435,-2.966 20.435,-6.62 0,-0.121 -0.013,-0.248 -0.033,-0.369 -2.314,2.95 -10.573,5.132 -20.402,5.132 z"
           id="path19632" />
      </g>
      <g
         fill="#000000"
         id="g19660">
        <path
           d="m 577.27,430.13 c 0.364,0.851 -0.835,2.477 -2.762,3.303 -1.927,0.826 -3.931,0.573 -4.296,-0.277 l -0.109,0.557 c 0.364,0.851 2.463,1.506 4.75,0.524 2.288,-0.98 3.261,-2.951 2.896,-3.803 z"
           id="path19636" />
        <path
           d="m 581.32,433.08 c 0.569,1.327 -1.313,4.192 -4.564,5.585 -3.25,1.395 -6.623,0.784 -7.192,-0.545 l -0.042,0.734 c 0.568,1.328 4.137,2.432 7.703,0.902 3.565,-1.528 5.226,-4.873 4.656,-6.202 z"
           id="path19638" />
        <path
           d="m 584.63,436.13 c 0.718,1.674 -1.6,5.621 -5.78,7.415 -4.183,1.793 -8.64,0.749 -9.357,-0.924 l 0.065,0.862 c 0.718,1.674 5.294,3.135 9.784,1.21 4.489,-1.925 6.586,-6.248 5.867,-7.921 z"
           id="path19640" />
        <path
           d="m 586.84,446.47 c -1.25,1.38 -3.02,2.7 -5.18,3.62 -5.01,2.15 -10.19,1.29 -11.04,-0.68 l 0.16,0.68 c 0.85,1.98 6.07,3.49 11.38,1.22 1.98,-0.85 3.6,-2.09 4.78,-3.37 -0.03,-0.5 -0.09,-0.98 -0.1,-1.47 z"
           id="path19642" />
        <path
           d="m 616.56,430.13 c -0.364,0.851 0.834,2.477 2.762,3.303 1.927,0.826 3.931,0.573 4.295,-0.277 l 0.11,0.557 c -0.364,0.851 -2.463,1.506 -4.751,0.524 -2.287,-0.98 -3.26,-2.951 -2.895,-3.803 z"
           id="path19644" />
        <path
           d="m 612.52,433.08 c -0.569,1.327 1.313,4.192 4.563,5.585 3.251,1.395 6.623,0.784 7.193,-0.545 l 0.041,0.734 c -0.568,1.328 -4.137,2.432 -7.702,0.902 -3.565,-1.528 -5.226,-4.873 -4.656,-6.202 z"
           id="path19646" />
        <path
           d="m 609.21,436.13 c -0.718,1.674 1.6,5.621 5.78,7.415 4.182,1.793 8.64,0.749 9.357,-0.924 l -0.066,0.862 c -0.717,1.674 -5.293,3.135 -9.783,1.21 -4.489,-1.925 -6.586,-6.248 -5.867,-7.921 z"
           id="path19648" />
        <path
           d="m 607.12,446.59 c -0.01,0.5 -0.06,1 -0.09,1.5 1.17,1.24 2.71,2.4 4.63,3.22 5.3,2.27 10.56,0.76 11.4,-1.22 l 0.16,-0.68 c -0.85,1.97 -6.02,2.83 -11.03,0.68 -2.09,-0.89 -3.82,-2.17 -5.07,-3.5 z"
           id="path19650" />
        <path
           d="m 600.83,427.49 c 0,0.926 -1.742,1.948 -3.839,1.948 -2.097,0 -3.839,-1.022 -3.839,-1.948 l -0.32,0.469 c 0,0.926 1.67,2.354 4.159,2.354 2.489,0 4.159,-1.429 4.159,-2.354 z"
           id="path19652" />
        <path
           d="m 603.39,431.79 c 0,1.445 -2.858,3.336 -6.396,3.336 -3.538,0 -6.396,-1.891 -6.396,-3.336 l -0.328,0.658 c 0,1.445 2.844,3.865 6.724,3.865 3.88,0 6.724,-2.42 6.724,-3.865 z"
           id="path19654" />
        <path
           d="m 605.23,435.9 c 0,1.821 -3.686,4.536 -8.235,4.536 -4.549,0 -8.235,-2.715 -8.235,-4.536 l -0.279,0.818 c 0,1.821 3.63,4.968 8.515,4.968 4.885,0 8.515,-3.146 8.515,-4.968 l -0.29,-0.82 z"
           id="path19656" />
        <path
           d="m 607,443.28 c 0,2.152 -4.238,5.593 -10.007,5.593 -5.769,0 -10.007,-3.44 -10.007,-5.593 l 0.143,-0.714 c 0,2.152 4.412,4.994 9.864,4.994 5.452,0 9.864,-2.842 9.864,-4.994 l 0.16,0.71 z"
           id="path19658" />
      </g>
    </g>
    <g
       id="lion"
       stroke="#000000"
       stroke-width="0.476"
       stroke-linejoin="round"
       stroke-linecap="round">
      <path
         fill="#f4e109"
         d="m 578.1,509.26 c 6.627,6.627 -0.549,11.553 -4.858,8.988 0.618,-1.141 1.062,-3.734 1.062,-3.734 0,0 4.872,0.986 3.796,-5.254 z"
         id="path19664" />
      <g
         fill="#ffffff"
         stroke-width="1.429"
         id="g19670">
        <path
           d="m 445.45,607.5 c 0,0 -4.234,8.459 -7.507,10.099 -0.995,0.498 -1.821,0.36 -1.821,0.36 0,0 4.128,3.283 6.071,4.015 1.943,0.726 5.344,2.427 6.436,2.061 1.095,-0.362 4.86,-2.188 7.652,-3.037 2.795,-0.849 4.738,-0.728 5.952,0.122 1.216,0.854 3.28,3.768 2.552,4.982 -0.729,1.213 -2.309,2.064 -2.309,2.064 0,0 0.242,1.094 -0.608,2.063 -0.849,0.972 -2.914,1.334 -2.914,1.334 l -0.972,2.554 c -0.484,1.335 -2.064,1.455 -2.064,1.455 0,0 -0.122,3.16 -1.215,4.735 -1.093,1.583 -2.793,1.945 -4.857,1.703 -2.065,-0.242 -5.345,-1.818 -6.316,-1.942 -0.971,-0.121 -2.672,-1.094 -3.157,-2.309 -0.488,-1.214 -2.065,-2.915 -3.766,-4.009 -1.701,-1.092 -11.173,-5.1 -14.453,-5.584 -3.279,-0.489 -13.117,-3.158 -13.117,-3.158 0,0 8.381,-6.803 9.109,-12.756 0.729,-5.948 2.309,-9.105 9.717,-7.404 7.406,1.7 17.587,2.652 17.587,2.652 z"
           id="path19666" />
        <path
           d="m 513.73,538.17 c 0,0 2.722,-2.971 6.152,-4.2 6.747,-2.421 9.257,-0.081 9.257,-0.081 0,0 0.136,-2.521 5.48,-4.223 5.344,-1.703 8.259,-0.727 8.259,-0.727 0,0 0.972,-3.403 3.888,-4.617 2.914,-1.215 5.829,-1.945 6.315,-3.885 0.484,-1.943 -0.73,-5.83 0.241,-8.018 0.973,-2.188 3.771,-4.163 6.406,-2.825 2.277,1.155 2.127,-0.121 3.826,0.362 1.699,0.49 2.458,1.367 2.458,1.367 0,0 1.398,-1.182 3.828,-0.451 2.427,0.725 3.399,1.547 3.399,1.547 0,0 2.429,1.457 2.188,3.156 -0.246,1.704 -0.974,4.132 -3.887,4.617 -2.915,0.485 -5.584,-0.243 -7.53,0.727 -1.942,0.976 -4.372,4.616 -5.102,6.56 -0.728,1.945 -5.828,15.304 -13.115,20.647 -7.288,5.342 -18.219,16.518 -21.133,17.245 -2.916,0.731 -7.287,1.7 -7.287,1.7 0,0 1.214,-16.518 -0.729,-21.375 -1.944,-4.855 -2.914,-7.526 -2.914,-7.526 z"
           id="path19668" />
      </g>
      <g
         fill="url(#grad)"
         stroke-width="0.667"
         id="g19700"
         style="fill:url(#linearGradient20298)">
        <path
           d="m 375.46,542.44 c 0,0 6.964,-6.071 13.295,1.129 6.426,7.311 2.914,15.123 -0.366,18.218 -3.278,3.098 -7.604,6.334 -13.298,5.285 1.856,-2.311 1.032,-3.699 0.785,-4.513 -0.547,-1.786 1.408,-1.575 3.362,-4.122 1.434,-1.861 2.518,-5.51 1.625,-8.188 -1.856,-5.57 -5.403,-7.809 -5.403,-7.809 z"
           id="path19672"
           style="fill:url(#linearGradient20270)" />
        <path
           d="m 302.22,567.26 c 5.333,-4.255 8.208,3.433 15.121,0.731 3.417,-1.335 6.922,-8.2 11.295,-8.932 4.373,-0.727 9.525,2.734 12.752,0.551 5.647,-3.826 0.911,-13.302 13.117,-18.765 8.628,-3.862 18.4,-3.101 22.956,1.639 4.554,4.733 5.647,11.476 4.19,14.211 -1.458,2.731 -5.466,6.011 -5.466,6.011 l -6.377,1.092 c 0,0 -2.186,-4.738 -6.739,-5.465 -4.554,-0.729 -6.922,2.369 -9.109,5.83 -2.62,4.148 -9.11,9.475 -19.312,7.469 -3.77,-0.739 -7.834,4.918 -17.672,2.187 -4.889,-1.357 -7.986,-6.626 -14.756,-6.559 z"
           id="path19674"
           style="fill:url(#linearGradient20272)" />
        <path
           d="m 307.31,581.61 c 4.309,-3.92 8.75,0.238 10.765,0.221 3.659,-0.029 6.921,-2.55 8.015,-5.827 1.092,-3.281 4.19,-6.194 8.015,-6.558 3.826,-0.367 10.02,0.543 12.752,-3.101 2.734,-3.642 7.652,-14.209 14.028,-15.485 6.377,-1.272 9.11,0.729 9.838,3.826 0.729,3.1 -0.912,9.84 -0.912,9.84 l -2.549,5.463 -8.564,2.918 c 0,0 -0.18,4.371 -4.007,5.827 -3.825,1.46 -12.752,-0.543 -17.854,0.729 -5.1,1.275 -4.653,3.521 -11.295,4.737 -11.548,2.116 -12.173,-5.009 -18.232,-2.59 z"
           id="path19676"
           style="fill:url(#linearGradient20274)" />
        <path
           d="m 303.13,600.59 c 5.109,-6.156 10.974,2.27 17.296,-1.594 3.454,-2.11 4.564,-10.246 8.754,-11.705 4.191,-1.457 9.473,1.277 12.388,-2.55 2.915,-3.826 0.547,-9.841 6.558,-12.572 6.014,-2.729 10.932,-0.728 10.932,-0.728 0,0 5.283,-1.821 8.199,-1.459 2.914,0.365 9.656,4.012 9.656,4.012 0,0 1.456,8.377 -4.01,13.297 -5.465,4.921 -10.565,7.471 -15.303,5.83 -3.05,-1.055 -4.917,-1.641 -7.285,0 -2.37,1.641 -2.37,4.373 -6.924,4.373 -4.554,0 -8.198,-2.914 -10.93,-1.094 -2.733,1.819 -4.158,5.658 -8.928,6.377 -12.231,1.844 -13.419,-5.218 -20.403,-2.187 z"
           id="path19678"
           style="fill:url(#linearGradient20276)" />
        <path
           d="m 411.96,622.09 c 0,0 -3.158,2.917 -5.102,3.767 -1.944,0.851 -6.804,2.913 -6.804,2.913 0,0 4.374,0.489 4.982,1.823 0.606,1.338 -1.104,4.906 -5.83,2.308 1.976,4.849 9.664,2.724 11.779,1.823 1.767,-0.752 4.858,-1.336 5.588,-0.364 0.728,0.971 -0.266,4.265 -5.344,3.033 8.016,4.294 11.66,-0.729 14.089,-2.185 2.43,-1.459 4.615,-2.551 5.345,-1.459 0.729,1.094 1.207,4.313 -4.617,4.373 4.886,1.564 8.016,-0.485 9.596,-2.064 1.577,-1.577 2.269,-2.009 3.728,-2.496 1.457,-0.486 6.594,-2.361 7.444,-5.032 0.852,-2.673 0.729,-4.616 -0.485,-6.194 -1.215,-1.58 -2.672,-1.945 -3.644,-1.824 -0.972,0.123 -1.578,0.73 -1.578,1.462 0,0.726 0.848,3.034 -1.579,3.884 -2.429,0.851 -4.98,1.7 -7.41,0.973 -2.429,-0.729 -5.586,-1.46 -7.894,-1.336 -2.307,0.12 -3.886,1.821 -5.83,0.849 -1.941,-0.975 -6.434,-4.254 -6.434,-4.254 z"
           id="path19680"
           style="fill:url(#linearGradient20278)" />
        <path
           d="m 547.98,521.16 c 1.943,-1.212 4.13,-2.668 7.044,-0.483 2.916,2.187 5.155,6.253 8.258,8.987 7.825,6.896 5.394,11.146 1.7,16.516 2.193,-9.182 -4.856,-11.494 -4.126,-7.041 0.563,3.434 3.069,5.672 -1.946,15.06 0.391,-3.2 0.244,-5.831 -0.484,-7.531 -0.729,-1.698 -2.672,-1.942 -2.672,0.245 0,2.182 3.234,10.336 -6.073,17.971 7.12,-10.635 -0.428,-14.188 -1.944,-9.957 -2.623,7.322 -0.748,14.635 -11.173,16.03 8.362,-6.896 4.658,-12.913 1.215,-9.47 -4.158,4.158 -1.54,11.074 -9.961,16.03 4.636,-7.661 -0.893,-7.363 -3.155,-6.073 -1.702,0.971 -8.504,5.341 -8.504,5.341 0,0 0.972,-4.37 1.217,-8.256 0.24,-3.886 1.456,-4.614 1.456,-4.614 0,0 6.315,-0.728 8.258,-4.617 1.944,-3.887 3.158,-9.231 7.531,-11.172 4.372,-1.945 12.631,-3.645 14.817,-7.771 2.186,-4.13 1.701,-6.076 -0.242,-8.988 -1.944,-2.919 -4.131,-4.854 -3.888,-6.559 0.243,-1.703 1.186,-2.718 2.672,-3.648 z"
           id="path19682"
           style="fill:url(#linearGradient20280)" />
        <path
           d="m 543.61,529.36 c -2.599,-2.209 -8.987,0.305 -8.987,0.305 0,0 4.978,-1.125 6.618,1.246 0.909,1.307 0.092,2.912 -0.273,2.912 0,0 -10e-4,0.004 -0.003,0.004 -0.602,-0.506 -1.366,-0.822 -2.213,-0.822 -1.911,0 -3.46,1.55 -3.46,3.461 0,1.864 1.467,3.346 3.295,3.593 2.319,0.313 4.523,-0.357 5.842,-1.771 2.023,-2.171 2.825,-5.83 -0.819,-8.928 z"
           id="path19684"
           style="fill:url(#linearGradient20282)" />
        <path
           d="m 527.3,533.01 c -2.945,-0.79 -8.198,1.273 -8.198,1.273 0,0 5.968,-0.32 7.378,1.457 1.167,1.472 0.584,2.716 0.376,3.006 -0.519,-0.248 -1.098,-0.393 -1.712,-0.393 -2.181,0 -3.948,1.766 -3.948,3.949 0,2.179 1.768,3.947 3.948,3.947 0.183,0 1.249,-0.166 1.609,-0.344 0.58,-0.287 1.353,-0.709 1.829,-1.141 1.935,-1.756 2.5,-3.363 2.726,-6.291 0.14,-1.814 -1.063,-4.67 -4.008,-5.463 z"
           id="path19686"
           style="fill:url(#linearGradient20284)" />
        <path
           d="m 442.89,610.35 c 0,0 -0.639,3.826 -5.102,5.559 -2.21,0.857 -4.357,0.055 -5.591,-0.609 0.699,-0.781 1.127,-1.812 1.127,-2.945 0,-2.449 -1.982,-4.434 -4.432,-4.434 -2.239,0 -4.089,1.661 -4.389,3.817 -0.093,0.667 -0.15,1.32 0.017,2.058 0.495,2.16 2.297,4.455 5.524,5.301 3.826,1 8.157,-0.08 10.475,-2.825 2.46,-2.917 2.371,-5.922 2.371,-5.922 z"
           id="path19688"
           style="fill:url(#linearGradient20286)" />
        <path
           d="m 502.07,460.92 c 19.043,-1.048 17.543,12.202 9.716,15.062 0,0 -3.765,-0.242 -8.016,0.123 -4.801,0.409 -5.969,-5.17 -0.094,-5.92 5.737,-0.733 9.562,-5.813 -1.606,-9.265 z"
           id="path19690"
           style="fill:url(#linearGradient20288)" />
        <path
           d="m 437.46,479.14 c 7.594,-9.643 15.844,0.732 22.349,-3.158 3.758,-2.248 7.529,-7.775 13.36,-7.047 5.83,0.729 9.23,1.943 12.145,0.242 2.914,-1.697 7.775,-6.557 14.333,-4.613 3.462,1.029 4.989,3.785 5.28,5.225 0.417,2.055 0.306,6.435 0.306,6.435 l -10.201,1.7 c -3.888,1.701 -7.774,4.375 -7.774,4.375 0,0 -4.129,-5.831 -7.773,-6.075 -3.644,-0.241 -9.472,0.244 -12.146,2.429 -2.672,2.188 -6.779,6.01 -11.174,4.616 -4.798,-1.522 -8.798,-8.334 -18.705,-4.129 z"
           id="path19692"
           style="fill:url(#linearGradient20290)" />
        <path
           d="m 428.23,491.77 c 11.636,-9.71 11.386,3.228 21.761,-6.71 4.08,-3.907 8.063,-1.188 13.46,-4.463 5.13,-3.113 9.715,-9.23 16.031,-7.287 6.316,1.939 9.961,7.529 9.961,7.529 0,0 -8.017,5.586 -9.717,8.984 -1.701,3.402 -10.033,-1.645 -14.575,-1.214 -5.101,0.489 -7.685,3.819 -12.389,6.075 -14.333,6.877 -13.583,-5.686 -24.532,-2.914 z"
           id="path19694"
           style="fill:url(#linearGradient20292)" />
        <path
           d="m 415.36,520.92 c 9.572,5.393 15.879,2.891 17.973,0 2.939,-4.056 3.144,-9.014 7.287,-10.928 4.055,-1.873 8.56,0.189 10.689,-2.432 3.157,-3.885 -0.703,-16.087 6.072,-20.648 12.631,-8.5 24.29,0.488 24.29,0.488 0,0 -5.708,5.828 -6.558,13.848 -0.718,6.766 2.187,10.442 2.187,10.442 0,0 -3.479,6.896 -13.118,5.59 -11.751,-1.593 -13.053,-0.324 -18.751,4.907 -6.874,6.313 -20.595,9.499 -30.071,-1.267 z"
           id="path19696"
           style="fill:url(#linearGradient20294)" />
        <path
           d="m 405.88,539.38 c 8.234,-5.445 10.359,1.742 19.433,1.214 4.143,-0.241 7.289,-2.185 9.959,-6.798 2.672,-4.617 4.616,-7.047 9.959,-7.286 5.344,-0.245 9.716,-0.977 11.902,-4.378 2.187,-3.398 -1.699,-12.875 3.887,-19.187 5.588,-6.317 14.333,-4.376 14.333,-4.376 0,0 -1.194,5.555 0.122,9.594 1.7,5.223 4.493,5.469 4.493,5.469 0,0 -5.068,2.232 -6.314,8.621 -0.96,4.917 0.97,9.355 0.97,9.355 0,0 -6.316,6.559 -16.76,5.102 -10.445,-1.458 -11.417,-1.945 -15.061,0.728 -3.644,2.671 -6.719,6.966 -15.059,7.286 -12.005,0.461 -11.505,-7.977 -21.864,-5.344 z"
           id="path19698"
           style="fill:url(#linearGradient20296)" />
      </g>
      <g
         stroke-width="1.429"
         fill="#ffffff"
         id="g19712">
        <path
           d="m 387.91,572.9 c -9.666,7.408 -12.791,1.471 -20.041,-1.459 -1.994,-0.806 -5.344,-0.242 -5.344,-0.242 l -1.699,-3.888 c 0,0 -0.85,-2.671 0.606,-3.886 1.458,-1.217 5.952,-0.85 6.802,0.363 0.851,1.217 3.399,5.104 4.857,6.014 1.458,0.906 4.858,1.883 7.409,1.032 2.55,-0.853 8.017,-5.222 13.846,-9.351 5.83,-4.131 10.808,-6.317 16.031,-6.196 5.223,0.12 9.961,2.184 13.967,2.429 4.01,0.246 8.988,-1.822 12.997,-4.127 4.007,-2.311 15.008,-4.386 24.776,-12.025 3.811,-2.98 12.631,-12.995 14.938,-15.787 2.309,-2.798 12.631,1.943 14.576,3.4 1.944,1.458 10.444,0.484 10.444,0.484 0,0 4.979,-2.063 6.679,-2.309 1.701,-0.242 2.186,0.729 2.186,0.729 0,0 6.195,8.627 8.138,15.428 1.946,6.797 1.946,21.252 1.095,26.473 -0.851,5.227 -1.823,14.456 -8.624,18.828 -6.803,4.371 -28.056,14.087 -38.986,16.517 -10.932,2.429 -17.611,6.317 -22.592,6.071 -4.98,-0.24 -16.762,-3.396 -21.01,-3.884 -4.25,-0.487 -8.501,-0.606 -8.501,-0.606 0,0 -0.487,6.68 -2.309,10.808 -1.822,4.127 -8.859,10.615 -14.204,12.071 -5.342,1.459 -13.245,2.016 -13.729,2.621 -0.488,0.61 -0.73,2.432 0,3.766 0.727,1.34 4.613,8.383 5.951,9.355 1.552,1.129 5.886,2.124 7.771,1.821 1.815,-0.292 4.25,0 5.102,1.335 0.85,1.336 0.851,4.372 0.364,4.979 -0.486,0.61 -1.578,1.096 -1.578,1.096 0,0 -0.244,2.188 -1.215,2.796 -0.972,0.604 -2.673,1.092 -2.673,1.092 0,0 -0.122,0.847 -1.215,1.696 -1.093,0.853 -1.785,0.725 -1.785,0.725 0,0 -1.369,0.237 -2.464,0.978 -1.805,1.221 -7.742,-0.242 -10.082,-2.43 -1.821,-1.701 -2.188,-5.342 -2.671,-6.559 -0.486,-1.212 -2.066,-2.79 -3.402,-3.765 -1.336,-0.973 -21.618,-25.263 -21.618,-27.811 0,-2.552 2.31,-9.476 5.346,-10.809 3.034,-1.338 8.621,-3.159 9.351,-5.103 0.729,-1.942 -1.848,-11.221 0.242,-17.734 2.977,-9.277 4.29,-9.465 12.268,-14.936 z"
           id="path19702" />
        <path
           d="m 363.62,573.09 c 4.938,1.414 1.375,8.039 -3.461,5.828 -2.339,-1.069 -4.281,-4.279 -3.279,-6.833 1.001,-2.546 2.825,-3.277 4.098,-3.005 1.275,0.271 3.644,1.824 3.644,1.824 l -3.735,1.91 c -0.762,1.458 -0.364,2.732 1.094,3.464 1.305,0.651 3.077,-0.711 1.639,-3.188 z"
           id="path19704" />
        <path
           d="m 474.02,563.19 c 0,0 13.489,1.655 17.775,5.622 4.885,4.523 3.845,8.465 3.845,8.465 0,0 7.59,-0.119 10.687,3.039 2.536,2.587 4.07,4.248 4.07,4.248 l 9.534,2.672 c 3.28,2.673 4.676,5.223 4.676,5.223 0,0 2.246,-0.119 6.132,1.336 3.887,1.459 6.559,2.916 8.744,2.55 2.187,-0.362 6.802,-1.577 7.774,-3.767 0.973,-2.186 -0.607,-7.526 1.82,-9.957 2.43,-2.428 3.887,-3.034 5.587,-2.549 1.703,0.484 3.279,4.492 3.279,4.492 l 4.253,2.917 c 0.713,1.906 0,4.005 0,4.005 0,0 0.363,0.731 0.971,2.794 0.607,2.063 -0.304,2.978 -0.304,2.978 0,0 0.061,2.488 -1.274,3.461 -1.338,0.973 -3.158,1.216 -3.158,1.216 0,0 0.561,2.091 -0.168,3.425 -0.729,1.333 -1.429,1.785 -2.5,2.262 -0.831,0.368 -2.434,0.141 -3.405,1.116 -0.973,0.967 -1.94,3.396 -5.101,2.913 -3.159,-0.486 -4.131,-2.428 -8.26,-3.279 -4.128,-0.849 -18.581,-2.065 -27.083,-3.648 -8.502,-1.574 -15.302,-1.574 -23.563,-1.695 -8.26,-0.121 -20.282,-1.459 -20.769,-5.224 -0.486,-3.764 2.552,-7.53 2.186,-9.472 -0.364,-1.944 -2.307,-8.016 -2.307,-10.203 0,-2.187 -1.568,-10.701 0.849,-13.848 1.216,-1.579 4.008,-1.579 5.71,-1.092 z"
           id="path19706" />
        <path
           d="m 364.89,565.07 c -0.399,3.365 -3.587,1.303 -2.824,-0.64 0.581,-1.479 3.279,-1.641 4.646,-1.003 1.366,0.639 3.644,3.464 3.825,4.372 0.183,0.911 0.51,-3.675 -1.183,-5.555 -1.641,-1.825 -5.193,-2.825 -8.018,-1.367 -2.445,1.261 -3.279,3.188 -2.915,5.919 0.313,2.352 2.565,3.931 4.646,4.192 3.548,0.448 6.298,-3.177 1.823,-5.918 z"
           id="path19708" />
        <path
           d="m 375.09,567.07 c 5.21,-2.135 0.96,-7.26 -1.458,-6.922 -2.263,0.316 -3.593,2.115 -3.828,3.643 -0.24,1.564 0.296,3.826 1.185,4.826 0.684,0.771 2.445,1.321 2.445,1.321 0,0 -1.904,-2.741 -0.714,-4.597 1.142,-1.78 3.58,-2.093 2.37,1.729 z"
           id="path19710" />
      </g>
      <path
         fill="#ffffff"
         stroke="none"
         d="m 463.89,559 c 8.617,3.146 9.46,3.168 15.442,4.337 3.271,0.64 2.942,4.616 0.585,7.446 -2.357,2.83 -0.472,10.842 -2.357,13.199 -1.885,2.357 -6.579,5.318 -6.579,5.318 -4.263,-3.434 -8.504,-4.848 -8.976,-11.918 -0.47,-7.08 1.89,-18.39 1.89,-18.39 z"
         id="path19714" />
      <g
         fill="#f4e109"
         id="g19740">
        <path
           d="m 399.81,658.08 c 0,0 -2.623,-1.095 -3.349,0.82 -0.728,1.916 0.488,2.89 0.488,2.89 0,0 4.104,0.651 1.55,5.729 6.804,-3.952 1.311,-9.439 1.311,-9.439 z"
           id="path19716" />
        <path
           d="m 403.26,655.94 c 0,0 -2.242,-0.728 -2.632,1.055 -0.389,1.783 0.772,3.008 0.772,3.008 0,0 2.961,0.75 1.796,4.503 5.353,-4.504 0.064,-8.566 0.064,-8.566 z"
           id="path19718" />
        <path
           d="m 409.39,649.88 c 0,0 -0.831,-0.381 -1.438,0.833 -0.606,1.218 -0.005,2.833 -0.005,2.833 0,0 3.294,0.391 3.339,4.549 4.642,-6.596 -1.896,-8.215 -1.896,-8.215 z"
           id="path19720" />
        <path
           d="m 454.1,634.6 c 0,0 -2.087,-0.613 -2.574,2.422 -0.403,2.519 1.482,2.802 1.482,2.802 0,0 3.485,-1.263 3.643,2.913 5.405,-4.739 -2.551,-8.137 -2.551,-8.137 z"
           id="path19722" />
        <path
           d="m 457.37,630.71 c 0,0 -1.765,-0.27 -1.817,2.491 -0.043,2.289 1.474,2.295 1.474,2.295 0,0 3.4,-1.688 4.208,2.357 4.254,-4.857 -3.865,-7.143 -3.865,-7.143 z"
           id="path19724" />
        <path
           d="m 460.86,626.5 c 0,0 -1.787,-0.321 -1.936,2.442 -0.12,2.287 1.423,2.34 1.423,2.34 0,0 3.335,-1.66 4.01,2.123 4.826,-4.158 -3.497,-6.905 -3.497,-6.905 z"
           id="path19726" />
        <path
           d="m 462.88,622.32 c -3.01,0.739 -1.323,4.302 0.489,4.599 0.376,-0.734 2.376,-1.797 2.976,1.16 3.9,-2.957 -1.975,-5.832 -3.465,-5.759 z"
           id="path19728" />
        <path
           d="m 562.31,583.1 c -2.323,-6.604 -8.684,-2.368 -8.684,-2.368 0,0 -1.115,0.997 0.061,2.368 1.457,1.702 3.08,1.122 3.08,1.122 0,0 1.845,-3.101 5.543,-1.122 z"
           id="path19730" />
        <path
           d="m 558.91,586.26 c -0.521,0.43 -0.938,1.363 -0.087,2.702 0.852,1.335 2.886,1.629 2.886,1.629 0,0 1.029,-2.596 5.46,0.161 -1.431,-7.194 -7.248,-5.323 -8.259,-4.492 z"
           id="path19732" />
        <path
           d="m 560.92,591.54 c 0.679,-0.157 9.385,1.83 6.981,8.688 -2.159,-5.232 -5.821,-2.613 -5.821,-2.613 0,0 -2.06,-0.681 -2.56,-2.246 -0.813,-2.547 0.883,-3.708 1.4,-3.829 z"
           id="path19734" />
        <path
           d="m 556.24,600.95 c 0,0 -1.865,0.224 -2.202,1.786 -0.654,3.035 1.459,3.452 1.459,3.452 0,0 4.749,-0.003 3.421,5.82 6.578,-7.01 -0.297,-10.885 -2.678,-11.058 z"
           id="path19736" />
        <path
           d="m 407.02,653.28 c 0,0 -2.299,-0.463 -2.476,1.347 -0.178,1.813 1.029,2.87 1.029,2.87 0,0 3.419,-0.25 2.373,4.299 4.546,-5.174 -0.926,-8.516 -0.926,-8.516 z"
           id="path19738" />
      </g>
      <g
         fill="#93aa5e"
         id="g19756">
        <path
           d="m 497.22,473.99 c 1.696,-0.357 3.396,-0.557 4.492,0.66 1.092,1.213 1.49,2.167 1.49,2.167 0,0 -3.185,0.208 -5.595,0.923 -1.358,0.401 -3.304,1.31 -3.304,1.31 0,0 -1.58,-2.093 -0.365,-3.306 1.214,-1.217 2.443,-1.577 3.282,-1.754 z"
           id="path19742" />
        <path
           d="m 485.68,484.36 c 0,0 -3.522,-2.063 -1.7,-4.737 1.821,-2.672 3.522,-3.885 5.466,-4.008 1.943,-0.122 4.857,3.429 4.857,3.429 0,0 -3.334,1.524 -4.791,2.5 -1.458,0.971 -3.832,2.816 -3.832,2.816 z"
           id="path19744" />
        <path
           d="m 478.59,492.89 c 0,0 -2.99,-1.479 -2.749,-4.151 0.245,-2.673 2.794,-6.317 5.831,-6.071 3.037,0.241 4.009,1.7 4.009,1.7 0,0 -2.448,1.797 -4.502,4.475 -1.421,1.853 -2.589,4.047 -2.589,4.047 z"
           id="path19746" />
        <path
           d="m 476.03,499.05 c 0,0 -2.131,-1.324 -3.346,0.013 -1.214,1.334 -3.037,4.128 -2.429,6.071 0.608,1.944 2.915,3.764 4.008,3.646 1.094,-0.124 2.005,-0.505 2.005,-0.505 0,0 -0.765,-2.732 -0.833,-4.553 -0.089,-2.351 0.595,-4.672 0.595,-4.672 z"
           id="path19748" />
        <path
           d="m 474.96,519.79 c 0,0 -3.731,-0.935 -4.218,-3.85 -0.487,-2.915 -0.121,-5.467 1.215,-6.682 1.335,-1.213 4.104,-1.492 4.104,-1.492 0,0 0.923,3.081 2.381,3.93 1.458,0.852 2.351,2.142 2.351,2.142 0,0 -1.339,0.565 -2.916,2.263 -1.474,1.584 -2.917,3.689 -2.917,3.689 z"
           id="path19750" />
        <path
           d="m 474.9,530 c 0,0 -2.094,1.001 -3.672,-1.061 -1.578,-2.066 -1.943,-5.956 -0.365,-7.777 1.58,-1.82 4.096,-1.371 4.096,-1.371 0,0 -0.833,3.365 -0.833,4.703 0.001,1.336 0.774,5.506 0.774,5.506 z"
           id="path19752" />
        <path
           d="m 478.59,492.89 c 0,0 -2.26,-2.449 -3.961,-0.87 -1.702,1.577 -3.037,3.402 -2.187,4.858 0.849,1.456 3.588,2.173 3.588,2.173 0,0 0.805,-2.155 1.19,-3.334 0.596,-1.816 1.37,-2.827 1.37,-2.827 z"
           id="path19754" />
      </g>
      <path
         fill="#f1c700"
         stroke-width="1.429"
         d="m 512.7,506.16 c 0,0 -3.979,1.037 -3.582,3.945 0.547,4.011 5.709,3.343 5.709,3.343 0,0 -7.045,3.096 -8.442,4.615 -1.395,1.518 -3.037,4.128 -3.037,4.128 0,0 -2.308,-2.975 -1.942,-5.586 0.183,-1.318 2.613,-2.064 2.613,-3.342 0,-1.273 -0.063,-5.948 1.881,-6.982 1.941,-1.032 6.8,-0.121 6.8,-0.121 z"
         id="path19758" />
      <path
         fill="#ffffff"
         stroke-width="1.429"
         d="m 532.8,485.58 c 0,0 1.44,-5.214 -0.552,-7.602 -1.991,-2.389 -4.646,-3.453 -6.504,-2.921 -1.857,0.532 -6.636,3.187 -6.636,3.187 0,0 -1.503,-2.522 -7.321,-2.256 -5.818,0.266 -11.259,-0.267 -17.232,2.256 -5.973,2.522 -9.821,5.84 -12.608,8.493 -2.788,2.655 -5.709,8.738 -6.594,11.839 -1.3,4.553 -0.925,8.053 0.355,10.725 1.034,2.157 4.26,4.338 4.26,4.338 0,0 -3.665,1.99 -5.586,6.148 -1.646,3.562 -0.847,8.418 -0.349,10.961 0.176,0.896 0.695,2.035 0.695,2.035 0,0 3.883,-0.602 5.476,-2.857 1.593,-2.256 1.687,-5.074 3.81,-6.666 2.123,-1.594 7.064,-1.508 7.064,-1.508 0,0 -1.331,-3.469 1.508,-6.588 1.647,-1.811 2.645,-3.275 2.778,-4.603 0.133,-1.325 0.372,-2.905 2.703,-4.272 2.33,-1.367 5.398,-2.014 7.138,-5.649 0.51,-1.065 0.7,-2.099 2.094,-3.417 1.394,-1.318 4.513,-1.326 6.769,-1.326 2.257,0 5.708,0 7.035,-0.664 1.328,-0.664 3.359,-1.411 4.533,-3.095 1.174,-1.684 1.307,-3.011 2.236,-4.47 0.929,-1.461 0.928,-2.123 2.388,-2.389 1.457,-0.265 2.54,0.301 2.54,0.301 z"
         id="path19760" />
      <g
         fill="url(#grad)"
         stroke-width="0.667"
         id="g19790"
         style="fill:url(#linearGradient20328)">
        <path
           d="m 509.6,473.43 c -1.567,-1.176 -4.979,-0.85 -5.71,1.217 -0.728,2.061 0.608,4.542 2.222,5.649 1.518,1.041 3.274,1.429 4.613,1.13 1.499,-0.332 5.51,-2.425 6.845,-3.154 1.335,-0.729 1.138,-2.048 -1.048,-2.531 -2.186,-0.49 -4.994,0.448 -4.994,0.448 0,0 -0.957,-2.029 -1.928,-2.759 z"
           id="path19762"
           style="fill:url(#linearGradient20300)" />
        <path
           d="m 497.7,489.65 c 0,0 0.367,2.37 -1.639,2.549 -2.003,0.182 -3.644,-1.457 -2.732,-3.641 0.913,-2.188 3.159,-2.916 4.981,-2.732 1.82,0.18 4.858,1.639 5.039,3.641 0.182,2.007 0.182,5.648 -1.091,6.925 -1.276,1.274 -3.825,3.095 -6.376,4.372 -2.552,1.277 -4.737,0.184 -7.469,1.822 -2.733,1.641 -2.309,4.25 -6.135,4.25 -3.825,0 -4.797,-1.338 -4.797,-1.338 0,0 4.068,1.338 6.135,-0.85 1.566,-1.658 0.787,-7.895 4.25,-9.17 3.461,-1.274 9.474,0 10.203,-2.004 0.725,-2 -0.369,-3.824 -0.369,-3.824 z"
           id="path19764"
           style="fill:url(#linearGradient20302)" />
        <path
           d="m 413.15,563.24 c -1.605,0 -3.025,0.777 -3.917,1.973 0,0 -1.458,-1.73 -0.639,-4.098 0.82,-2.369 4.564,-4.152 7.106,-4.372 3.188,-0.276 7.497,1.114 7.497,1.114 0,0 -4.399,-2.3 -8.954,-2.117 -4.555,0.18 -9.109,2.734 -10.201,6.195 -1.096,3.465 0.087,8.383 3.917,10.203 2.482,1.182 4.648,1.145 6.089,0.791 2.27,-0.422 3.993,-2.407 3.993,-4.801 0,-2.698 -2.191,-4.888 -4.891,-4.888 z"
           id="path19766"
           style="fill:url(#linearGradient20304)" />
        <path
           d="m 445.22,565.81 c -0.146,-1.402 -0.676,-2.449 -1.301,-3.136 -0.974,-1.069 -2.414,-1.733 -3.971,-1.733 -2.753,0 -5.014,2.105 -5.259,4.797 -0.336,-0.01 -2.914,-0.189 -3.518,-2.639 -0.547,-2.222 0.242,-4.8 1.184,-5.738 1.188,-1.186 3.979,-2.752 3.979,-2.752 0,0 -6.803,0.927 -8.989,5.024 -1.611,3.022 -1.093,7.653 2.004,10.385 3.097,2.737 7.014,4.102 10.749,2.737 3.164,-1.16 4.506,-3.121 4.843,-4.129 0.337,-1.008 0.4,-1.656 0.279,-2.816 z"
           id="path19768"
           style="fill:url(#linearGradient20306)" />
        <path
           d="m 397.05,629.74 c -3.644,-0.315 -5.913,-1.403 -6.308,-1.605 0.957,-0.76 1.572,-1.936 1.572,-3.252 0,-2.295 -1.863,-4.159 -4.16,-4.159 -1.895,0 -3.307,1.374 -3.994,3.002 -0.687,1.628 -0.6,3.473 0.305,5.158 1.429,2.66 6.198,4.096 9.031,3.953 7.621,-0.382 12.996,-3.749 14.553,-4.843 -1.128,0.728 -4.401,2.315 -10.999,1.746 z"
           id="path19770"
           style="fill:url(#linearGradient20308)" />
        <path
           d="m 416.63,617.9 c -2.299,2.417 -6.649,3.096 -9.929,2.55 -1.579,-0.262 -2.995,-1.254 -3.604,-2.096 0.887,-0.773 1.449,-1.912 1.449,-3.186 0,-2.348 -1.904,-4.251 -4.251,-4.251 -1.155,0 -2.1,0.251 -3.159,1.333 -1.06,1.083 -1.912,3.555 -1.182,6.379 0.728,2.822 4.19,5.191 8.925,6.104 4.736,0.908 9.656,-2.461 11.935,-4.922 2.276,-2.458 2.64,-7.106 2.64,-7.106 0,0 -0.814,3.083 -2.824,5.195 z"
           id="path19772"
           style="fill:url(#linearGradient20310)" />
        <path
           d="m 358.7,597.13 c 11.171,-6.693 18.584,4.285 19.95,7.195 1.384,2.954 2.641,10.48 0.546,13.121 -2.094,2.645 -6.468,2.456 -8.288,3.28 -1.822,0.817 -2.004,3.183 -1.185,4.915 0.819,1.734 3.188,4.01 4.556,5.192 1.364,1.186 4.827,4.464 6.101,6.104 1.276,1.641 4.009,4.645 6.104,4.464 2.096,-0.181 3.007,-1.186 4.463,-1.641 1.459,-0.454 3.371,0 4.1,1.549 0.729,1.551 1.003,5.012 -1.913,6.926 -2.914,1.912 -4.281,3.461 -8.38,4.008 -3.256,0.433 -6.369,-0.756 -9.201,-2.281 -2.336,-1.26 -6.931,-4.4 -11.932,-1.363 2.813,-5.662 8.949,-2.293 10.417,-2.35 1.548,-0.06 1.605,-1.385 -1.4,-2.934 -3.005,-1.549 -10.829,-2.191 -15.301,-8.107 8.535,3.666 9.29,-0.273 8.471,-1.82 -1.049,-1.982 -4.389,-3.329 -7.016,-4.102 -2.331,-0.684 -7.608,-1.787 -11.021,0.184 2.288,-4.846 8.788,-1.346 9.928,-3.369 0.952,-1.688 -0.948,-4.01 -2.641,-5.104 -1.549,-1.003 -4.312,-2.185 -8.563,0.642 2.126,-5.326 9.188,-1.826 11.66,-5.104 0.943,-1.251 0.807,-3.606 -0.364,-4.826 -0.896,-0.935 -2.919,-1.648 -4.19,-0.912 -0.963,0.558 -2.792,1.829 -5.921,0.456 4.629,0.623 5.629,-4.252 10.112,-4.188 1.642,0.023 3.331,-1.112 3.461,-2.098 0.167,-1.27 -1.002,-2.915 -2.915,-2.824 -1.7,0.08 -3.278,2.482 -8.744,0.273 4.841,0.709 6.778,-2.791 10.566,-3.46 2.359,-0.417 3.825,0.361 5.466,1.366 1.64,1.002 3.279,-1.096 1.64,-2.371 -1.08,-0.841 -2.77,-2.514 -8.566,-0.821 z"
           id="path19774"
           style="fill:url(#linearGradient20312)" />
        <path
           d="m 519.56,586.44 c -2.446,-1.602 -7.713,-1.76 -7.713,-1.76 0,0 6.072,1.274 7.713,5.465 1.337,3.416 0.242,3.949 0.242,3.949 0,0 0.005,0.022 0.015,0.058 -0.635,-0.521 -1.436,-0.849 -2.323,-0.849 -2.028,0 -3.672,1.644 -3.672,3.678 0,2.029 1.644,3.672 3.672,3.672 0,0 3.827,0.424 5.951,-2.488 4.036,-5.537 -1.942,-10.448 -3.885,-11.725 z"
           id="path19776"
           style="fill:url(#linearGradient20314)" />
        <path
           d="m 505.96,579.34 c -3.269,-1.963 -7.954,-1.762 -7.954,-1.762 0,0 3.343,2.087 4.068,3.398 0.724,1.309 0.704,2.246 0.552,2.813 -0.69,-0.301 -1.45,-0.473 -2.25,-0.473 -3.103,0 -5.619,2.513 -5.619,5.613 0,3.104 2.516,5.624 5.619,5.624 0.054,0 0.105,-0.011 0.16,-0.015 1.61,0.05 7.628,-0.187 9.555,-6.153 1.275,-3.945 -0.791,-7.041 -4.131,-9.045 z"
           id="path19778"
           style="fill:url(#linearGradient20316)" />
        <path
           d="m 491.14,568.04 c -6.728,-4.924 -15.667,-4.555 -15.667,-4.555 0,0 10.261,3.037 11.78,9.596 0.899,3.888 -0.725,4.961 -0.947,5.088 -0.599,-1.893 -2.369,-3.267 -4.459,-3.267 -2.58,0 -4.674,2.096 -4.674,4.678 0,0.813 0.21,1.579 0.577,2.247 1.105,2.482 4.084,5.249 9.686,5.039 3.599,-0.138 6.802,-3.58 7.53,-5.952 0.728,-2.366 2.063,-8.558 -3.826,-12.874 z"
           id="path19780"
           style="fill:url(#linearGradient20318)" />
        <path
           d="m 468.43,583.23 c 0,0 2.55,4.007 2.55,6.071 0,2.064 -0.728,8.379 3.28,10.325 4.009,1.942 14.212,0.97 17.611,0.24 3.4,-0.728 11.717,-0.263 14.816,0.61 2.671,0.751 10.201,4.246 13.726,4.008 3.522,-0.243 10.444,-1.457 11.538,-4.133 1.092,-2.672 0.849,-5.222 1.214,-5.95 0.363,-0.726 2.064,-1.455 4.615,-0.849 2.55,0.608 4.979,1.215 6.072,2.551 1.092,1.334 2.308,4.856 0,7.652 -2.307,2.794 -6.68,5.223 -8.259,6.801 -1.579,1.576 -3.888,5.709 -5.346,7.65 -1.457,1.943 -5.758,7.17 -12.871,4.98 11.551,-1.373 8.738,-10.373 5.585,-10.689 -2.563,-0.257 -5.708,0.854 -7.043,3.281 -1.338,2.428 -5.116,9.473 -14.21,5.828 5.781,0.457 8.299,-2.714 8.38,-4.617 0.074,-1.75 -2.824,-5.273 -6.681,-3.52 -4.605,2.094 -4.543,7.594 -12.024,5.83 4.231,-0.361 6.314,-3.645 5.708,-4.859 -0.606,-1.215 -2.792,-2.791 -5.586,-1.822 -2.794,0.975 -6.32,4.322 -7.534,5.775 -1.214,1.459 -4.857,5.795 -10.319,1.996 5.774,0.986 7.408,-2.063 6.801,-3.52 -0.607,-1.457 -3.645,-2.793 -6.56,-1.943 -2.916,0.852 -4.251,2.673 -5.952,3.4 -1.699,0.727 -7.14,1.486 -9.836,-3.156 8.446,3.393 6.195,-2.918 4.858,-4.251 -1.337,-1.338 -5.83,-3.159 -5.709,-7.772 0.121,-4.617 2.915,-8.987 6.073,-11.297 3.158,-2.308 4.493,-3.401 4.857,-4.736 0.369,-1.337 0.246,-3.884 0.246,-3.884 z"
           id="path19782"
           style="fill:url(#linearGradient20320)" />
        <path
           d="m 471.22,528.94 c -1.578,-2.066 -1.943,-5.956 -0.365,-7.777 0.882,-1.017 2.359,-1.269 3.501,-1.298 0.007,-0.026 0.013,-0.058 0.021,-0.081 0.094,-0.297 0.235,-0.596 0.397,-0.896 -0.333,-0.091 -1.001,-0.273 -2.34,-0.64 -2.674,-0.727 -7.531,1.945 -11.902,6.318 -4.374,4.373 -8.018,15.302 -11.661,19.436 -3.643,4.125 -8.986,1.456 -14.573,3.156 -5.588,1.694 -10.187,10.342 -23.076,3.883 5.452,7.146 18.202,6.334 22.104,4.615 4.087,-1.801 7.846,-4.164 13.62,-2.955 4.921,1.03 9.744,-0.456 13.587,-3.849 4.128,-3.637 6.072,-10.683 8.744,-13.598 2.225,-2.428 4.426,-3.327 5.107,-3.565 l -0.526,-1.522 c -0.965,-0.069 -1.98,-0.365 -2.638,-1.227 z"
           id="path19784"
           style="fill:url(#linearGradient20322)" />
        <path
           d="m 489.93,520.68 c 0,0 -5.345,-0.729 -7.773,2.187 -2.429,2.916 -1.215,5.344 -4.373,7.042 -3.159,1.704 -5.83,0.489 -9.23,4.131 -3.401,3.644 -4.13,10.933 -6.802,13.12 -2.672,2.182 -11.659,1.454 -11.659,1.454 0,0 5.958,2.473 11.659,1.218 7.178,-1.58 10.928,-13.83 26.234,-15.551 -14.807,3.221 -10.307,10.221 -18.22,15.061 -3.04,1.859 -8.258,2.671 -8.258,2.671 0,0 5.979,1.501 12.875,-2.426 4.452,-2.535 6.315,-4.127 8.987,-3.647 2.673,0.487 10.643,0.592 14.09,-1.7 3.598,-2.392 6.039,-4.535 6.313,-8.012 0.288,-3.634 -1.7,-6.56 -1.7,-6.56 0,0 -5.586,0.974 -8.744,-3.153 -3.155,-4.137 -3.399,-5.835 -3.399,-5.835 z"
           id="path19786"
           style="fill:url(#linearGradient20324)" />
        <path
           d="m 418.87,606.41 c -1.629,1.242 -4.191,0.913 -5.83,-0.092 -1.077,-0.656 -1.986,-1.791 -2.233,-2.546 1.227,-0.739 2.052,-2.079 2.052,-3.618 0,-2.328 -1.889,-4.217 -4.221,-4.217 -1.08,0 -2.065,0.408 -2.812,1.076 -0.58,0.52 -1.427,1.816 -1.766,3.168 -0.357,1.43 -0.77,4.574 1.873,7.047 2.917,2.736 8.478,3.59 10.658,3.19 1.934,-0.355 3.154,-1.397 3.825,-2.915 0.862,-1.947 1.185,-6.375 1.185,-6.375 0,0 -0.458,3.549 -2.731,5.282 z"
           id="path19788"
           style="fill:url(#linearGradient20326)" />
      </g>
      <g
         fill="#93aa5e"
         id="g19812">
        <path
           d="m 531.95,522.38 c 0,0 1.152,7.048 -3.463,6.5 -4.615,-0.547 -4.633,-5.692 -4.633,-5.692 z"
           id="path19792" />
        <path
           d="m 515.04,526.19 c 0,0 0.863,4.583 5.731,3.476 4.028,-0.918 3.019,-6.393 3.019,-6.393 z"
           id="path19794" />
        <path
           d="m 515.04,526.19 c 0,0 0.816,2.929 -1.859,4.206 -4.778,2.281 -7.531,-1.703 -7.531,-1.703 0,0 3.246,-1.827 4.523,-2.318 1.626,-0.625 4.867,-0.185 4.867,-0.185 z"
           id="path19796" />
        <path
           d="m 496.12,528.51 c 0,0 -0.625,4.252 2.678,5.061 3.78,0.922 7.054,-2.471 6.816,-4.763 -1.39,-0.341 -3.001,-0.074 -4.753,0.004 -2.612,0.125 -4.741,-0.302 -4.741,-0.302 z"
           id="path19798" />
        <path
           d="m 491.03,522.98 c 0,0 -2.375,1.285 -2.314,3.291 0.06,2 1.109,3.478 2.125,4.004 3.157,1.641 5.487,-1.61 5.487,-1.61 0,0 -1.727,-1.102 -3.065,-2.589 -1.106,-1.229 -2.233,-3.096 -2.233,-3.096 z"
           id="path19800" />
        <path
           d="m 490.7,516.7 c 0,0 -3.75,-0.953 -4.72,0.583 -1.365,2.162 -1.033,4.189 -0.122,5.279 0.912,1.092 4.247,1.339 5.169,0.417 -0.789,-1.399 -0.835,-2.51 -0.773,-3.602 0.06,-1.095 0.446,-2.677 0.446,-2.677 z"
           id="path19802" />
        <path
           d="m 493.97,511.85 c 0,0 -3.095,-2.59 -5.14,-1.978 -2.006,0.601 -3.157,2.552 -2.916,4.009 0.249,1.489 2.243,2.303 3.71,2.551 1.577,0.27 1.131,0.149 1.131,0.149 0,0 1.116,-1.708 1.845,-2.5 0.73,-0.785 1.37,-2.231 1.37,-2.231 z"
           id="path19804" />
        <path
           d="m 497.1,506.13 c 0,0 -1.183,-1.018 -3.006,-2.292 -1.821,-1.274 -4.73,-1.423 -5.337,0.155 -0.606,1.578 -0.393,3.608 0.456,4.637 0.851,1.035 1.28,1.31 2.887,2.113 1.616,0.808 1.905,0.982 1.905,0.982 0,0 0.732,-2.508 1.339,-3.721 0.606,-1.214 1.756,-1.874 1.756,-1.874 z"
           id="path19806" />
        <path
           d="m 501.06,503.93 c 0,0 -1.193,-3.747 -3.393,-4.195 -2.154,-0.439 -3.273,0.179 -3.546,1.875 -0.271,1.685 0.614,2.668 1.463,3.304 0.902,0.675 1.756,1.041 1.756,1.041 z"
           id="path19808" />
        <path
           d="m 505.08,499.32 c 0,0 -1.788,-1.957 -3.365,-2.017 -1.581,-0.063 -2.319,0.499 -2.613,1.578 -0.273,1.004 0.183,2.128 0.852,2.974 0.666,0.854 1.317,1.78 1.317,1.78 0,0 1.95,-0.672 2.56,-1.398 0.606,-0.73 1.249,-2.917 1.249,-2.917 z"
           id="path19810" />
      </g>
      <g
         fill="#da251c"
         id="g19818">
        <path
           d="m 502.53,521.07 c 0,0 3.471,-5.986 10.567,-7.924 5.583,-1.524 15.958,2.726 14.939,-4.647 -0.291,-2.106 -1.668,-9.689 7.923,-10.111 -5.55,1.604 -3.278,6.377 -3.278,6.377 0,0 1.821,-2.278 3.917,-2.641 2.095,-0.365 6.103,0.623 6.103,-3.828 1.948,8.67 -6.146,4.951 -7.833,10.387 -0.709,2.285 1.395,8.229 -4.86,10.777 -4.217,1.72 -10.261,-2.065 -13.783,-2.065 -2.912,0 -6.711,4.463 -8.26,5.468 -1.549,1.001 -5.435,-1.793 -5.435,-1.793 z"
           id="path19814" />
        <path
           d="m 523.08,492.86 c 0.134,-0.014 0.27,-0.035 0.406,-0.061 1.172,-0.823 2.143,-1.857 2.631,-3.158 1.091,-2.917 1.091,-4.008 3.461,-5.102 1.452,-0.67 2.76,-0.105 3.519,0.723 0.499,-0.569 1.429,-1.898 1.159,-3.697 -0.366,-2.428 -2.674,-6.073 -5.345,-6.318 -2.673,-0.242 -4.979,0.49 -5.346,1.946 -0.362,1.456 -0.728,3.032 -1.82,3.519 -1.094,0.488 -2.914,-0.359 -4.616,1.947 -1.701,2.308 -1.701,4.736 -0.484,6.071 1.213,1.335 5.221,4.251 6.435,4.13 z"
           id="path19816" />
      </g>
      <g
         fill="#ffffff"
         id="g19832">
        <path
           d="m 518.38,496.48 c 1.612,1.084 7.362,6.271 0.363,11.388 1.562,-5.741 -2.938,-5.366 -4.099,-5.739 -1.23,-2.288 0.494,-5.068 3.736,-5.649 z"
           id="path19820" />
        <path
           d="m 531.08,487.54 c 1.299,0.839 6.669,3.338 1.806,8.201 0.545,-4.057 -2.955,-3.604 -3.749,-3.604 -1.042,-1.515 -0.363,-4.046 1.943,-4.597 z"
           id="path19822" />
        <path
           d="m 511.2,482.14 c 1.491,-1.247 3.063,-2.273 3.993,-2.508 0.388,-0.098 0.81,-0.238 1.242,-0.406 -0.338,-1.273 -1.08,-2.938 -2.759,-3.113 -2.317,-0.244 -3.567,1.481 -3.776,3.029 -0.139,1.03 0.364,2.213 1.3,2.998 z"
           id="path19824" />
        <path
           d="m 508.69,495.9 c 0,0 -1.094,-4.25 -3.887,-4.615 -2.051,-0.268 -3.4,1.457 -3.706,3.158 -0.266,1.5 0.243,3.521 2.188,4.191 1.944,0.668 2.394,0.301 2.394,0.301 0,0 0.098,-0.786 1.129,-1.82 1.03,-1.031 1.882,-1.215 1.882,-1.215 z"
           id="path19826" />
        <path
           d="m 527.31,486.73 c 0,0 -1.488,-3.334 -3.928,-2.977 -1.58,0.23 -1.963,1.886 -1.607,2.798 0.952,2.44 4.643,2.618 4.643,2.618 0,0 0.191,-0.672 0.436,-1.402 0.241,-0.729 0.456,-1.037 0.456,-1.037 z"
           id="path19828" />
        <path
           d="m 529.58,484.54 c 0,0 -2.609,-2.244 -2.246,-3.945 0.365,-1.703 2.412,-1.73 3.126,-1.136 2.36,1.968 1.25,4.94 1.25,4.94 z"
           id="path19830" />
      </g>
      <path
         d="m 528.12,493.65 c -1.641,0.908 -5.648,1.64 -8.563,3.096 -2.916,1.459 -2.612,7.288 -5.709,9.294 -3.096,2.003 -6.68,-1.117 -8.441,2.122 -1.608,2.959 0.032,3.508 -0.424,5.164 -0.487,1.762 -2.611,2.004 -2.794,4.006 -0.182,2.006 0.608,3.279 2.065,4.191 1.458,0.912 3.644,0.912 4.918,-0.182 1.276,-1.094 4.374,-4.191 6.924,-4.463 2.551,-0.273 6.011,2.096 9.655,2.278 3.644,0.181 6.923,-1.458 7.834,-3.462 0.91,-2.006 1.64,-1.279 2.005,0.179 0.363,1.458 0.183,5.284 -1.823,6.378 -2.003,1.096 -7.834,0.549 -9.655,1.641 -1.821,1.094 -4.555,2.914 -8.199,2.73 -3.644,-0.18 -5.101,0.184 -7.47,1.459 -2.368,1.275 -7.02,3.039 -10.018,2.186 -2.509,-0.715 -6.561,-3.645 -7.835,-7.104 -1.276,-3.46 -1.094,-6.559 1.274,-8.928 2.37,-2.365 2.37,-6.559 4.373,-8.196 2.002,-1.641 6.013,-2.915 7.286,-4.193 1.276,-1.271 0.547,-4.735 4.191,-6.376 3.645,-1.639 8.015,0.182 10.932,-0.545 2.914,-0.729 6.375,-2.369 7.469,-5.283 1.091,-2.917 1.091,-4.008 3.461,-5.102 2.37,-1.094 4.372,1.094 4.19,2.367 -0.182,1.276 -2.187,1.094 -3.825,2.734 -1.638,1.64 -0.18,3.097 -1.821,4.009 z"
         stroke-width="1.429"
         fill="#ffffff"
         id="path19834" />
      <path
         d="m 506.2,495.17 c 0,0.67048 -0.54353,1.214 -1.214,1.214 -0.67047,0 -1.214,-0.54352 -1.214,-1.214 0,-0.67047 0.54353,-1.214 1.214,-1.214 0.67047,0 1.214,0.54353 1.214,1.214 z"
         id="path19836" />
      <path
         d="m 514.08,479.37 c 0,0.536 -0.435,0.97 -0.973,0.97 -0.537,0 -0.973,-0.434 -0.973,-0.97 0,-0.541 0.436,-0.977 0.973,-0.977 0.538,0.001 0.973,0.436 0.973,0.977 z"
         id="path19838" />
      <g
         fill="#f4e109"
         stroke="none"
         id="g19900">
        <path
           d="m 433.42,635.22 c 0,0 2.084,-1.242 2.354,-3.189 0.182,-1.314 -1.591,-0.895 -1.289,0.393 0.396,1.702 -1.065,2.796 -1.065,2.796 z"
           id="path19840" />
        <path
           d="m 420.52,635.05 c 0,0 2.486,-1.757 2.702,-4.148 0.144,-1.617 -2.005,-0.886 -1.56,0.641 0.588,2.002 -1.142,3.507 -1.142,3.507 z"
           id="path19842" />
        <path
           d="m 408.81,632.71 c 0,0 3.462,-0.695 4.811,-3.133 0.911,-1.648 -1.712,-1.887 -1.95,-0.059 -0.32,2.412 -2.861,3.192 -2.861,3.192 z"
           id="path19844" />
        <path
           d="m 526.36,542.3 c 0,0.67047 -0.54352,1.214 -1.214,1.214 -0.67047,0 -1.214,-0.54353 -1.214,-1.214 0,-0.67048 0.54353,-1.214 1.214,-1.214 0.67048,0 1.214,0.54352 1.214,1.214 z"
           id="path19846" />
        <path
           d="m 540.21,536.47 c 0,0.807 -0.654,1.461 -1.458,1.461 -0.805,0 -1.456,-0.654 -1.456,-1.461 0,-0.803 0.651,-1.456 1.456,-1.456 0.804,0 1.458,0.653 1.458,1.456 z"
           id="path19848" />
        <path
           d="m 531.4,568.56 c 0,0 1.2,-2.843 -0.578,-5.158 -1.201,-1.561 -2.902,0.163 -1.144,1.35 2.323,1.567 1.722,3.808 1.722,3.808 z"
           id="path19850" />
        <path
           d="m 543.04,557.68 c 0,0 0.333,-2.755 -2.042,-4.288 -1.598,-1.035 -2.732,0.898 -0.705,1.459 2.68,0.749 2.747,2.829 2.747,2.829 z"
           id="path19852" />
        <path
           d="m 553.42,551.52 c 0,0 0.263,-2.697 -1.84,-4.172 -1.418,-0.996 -2.392,0.9 -0.604,1.434 2.36,0.703 2.444,2.738 2.444,2.738 z"
           id="path19854" />
        <path
           d="m 558.65,542.2 c 0,0 -0.28,-2.276 -2.282,-3.106 -1.354,-0.562 -1.81,1.18 -0.237,1.295 2.076,0.145 2.519,1.811 2.519,1.811 z"
           id="path19856" />
        <path
           d="m 561.46,532.61 c 0,0 -1.275,-1.903 -3.438,-1.743 -1.461,0.109 -1.084,1.869 0.373,1.261 1.918,-0.804 3.065,0.482 3.065,0.482 z"
           id="path19858" />
        <path
           d="m 441.41,566.22 c 0,0.80523 -0.65277,1.458 -1.458,1.458 -0.80523,0 -1.458,-0.65277 -1.458,-1.458 0,-0.80523 0.65277,-1.458 1.458,-1.458 0.80523,0 1.458,0.65277 1.458,1.458 z"
           id="path19860" />
        <path
           d="m 414.85,568.13 c 0,0.93944 -0.76156,1.701 -1.701,1.701 -0.93943,0 -1.701,-0.76156 -1.701,-1.701 0,-0.93943 0.76157,-1.701 1.701,-1.701 0.93944,0 1.701,0.76157 1.701,1.701 z"
           id="path19862" />
        <path
           d="m 430.59,612.35 c 0,0.93888 -0.76111,1.7 -1.7,1.7 -0.93888,0 -1.7,-0.76112 -1.7,-1.7 0,-0.93889 0.76112,-1.7 1.7,-1.7 0.93889,0 1.7,0.76111 1.7,1.7 z"
           id="path19864" />
        <path
           d="m 402,615.17 c 0,0.941 -0.762,1.699 -1.701,1.699 -0.939,0 -1.7,-0.758 -1.7,-1.699 0,-0.94 0.76,-1.701 1.7,-1.701 0.939,0 1.701,0.76 1.701,1.701 z"
           id="path19866" />
        <path
           d="m 389.85,624.89 c 0,0.941 -0.762,1.697 -1.701,1.697 -0.938,0 -1.7,-0.756 -1.7,-1.697 0,-0.941 0.762,-1.701 1.7,-1.701 0.939,0 1.701,0.759 1.701,1.701 z"
           id="path19868" />
        <path
           d="m 366.02,603.81 c 0,0 3.807,0.92 4.793,4.117 0.663,2.154 -2.399,2.461 -2.252,0.07 0.191,-3.156 -2.541,-4.187 -2.541,-4.187 z"
           id="path19870" />
        <path
           d="m 361.46,610.43 c 0,0 3.752,-0.008 5.407,3.076 1.117,2.082 -1.655,3.176 -2.076,0.647 -0.554,-3.345 -3.331,-3.723 -3.331,-3.723 z"
           id="path19872" />
        <path
           d="m 358.49,619.6 c 0,0 3.2,-1.451 5.949,0.826 1.854,1.543 -0.041,3.641 -1.495,1.41 -1.915,-2.946 -4.454,-2.236 -4.454,-2.236 z"
           id="path19874" />
        <path
           d="m 362.78,627.77 c 0,0 2.614,-1.264 4.927,0.564 1.561,1.23 0.038,3.001 -1.205,1.188 -1.64,-2.386 -3.722,-1.752 -3.722,-1.752 z"
           id="path19876" />
        <path
           d="m 369.1,638.17 c 0,0 3.222,2.059 6.354,0.553 2.115,-1.02 0.339,-3.394 -1.426,-1.643 -2.329,2.312 -4.928,1.09 -4.928,1.09 z"
           id="path19878" />
        <path
           d="m 378.67,647.87 c 0,0 2.688,1.257 4.971,-0.345 1.544,-1.077 -0.059,-2.769 -1.258,-1.14 -1.584,2.146 -3.713,1.485 -3.713,1.485 z"
           id="path19880" />
        <path
           d="m 502.07,588.93 c 0,0.941 -0.761,1.704 -1.698,1.704 -0.94,0 -1.7,-0.763 -1.7,-1.704 0,-0.935 0.76,-1.697 1.7,-1.697 0.937,-10e-4 1.698,0.762 1.698,1.697 z"
           id="path19882" />
        <path
           d="m 518.71,596.98 c 0,0.668 -0.545,1.211 -1.216,1.211 -0.669,0 -1.214,-0.543 -1.214,-1.211 0,-0.675 0.545,-1.221 1.214,-1.221 0.671,10e-4 1.216,0.547 1.216,1.221 z"
           id="path19884" />
        <path
           d="m 483.79,579.59 c 0,1.0736 -0.87036,1.944 -1.944,1.944 -1.07364,0 -1.944,-0.87036 -1.944,-1.944 0,-1.07364 0.87035,-1.944 1.944,-1.944 1.07365,0 1.944,0.87036 1.944,1.944 z"
           id="path19886" />
        <path
           d="m 468.3,614.26 c 0,0 3.01,-2.115 2.855,-5.416 -0.104,-2.227 -2.854,-1.496 -1.975,0.68 1.164,2.874 -0.88,4.736 -0.88,4.736 z"
           id="path19888" />
        <path
           d="m 483.7,614.57 c 0,0 2.28,-2.28 1.406,-5.26 -0.591,-2.017 -2.94,-1.027 -1.653,0.85 1.701,2.475 0.247,4.41 0.247,4.41 z"
           id="path19890" />
        <path
           d="m 499.33,613.41 c 0,0 1.765,-1.642 0.932,-4.059 -0.561,-1.634 -2.437,-1.017 -1.311,0.557 1.485,2.073 0.379,3.502 0.379,3.502 z"
           id="path19892" />
        <path
           d="m 513.06,614.13 c 0,0 1.412,-2.064 0.307,-4.213 -0.744,-1.448 -2.393,-0.354 -1.137,0.886 1.659,1.643 0.83,3.327 0.83,3.327 z"
           id="path19894" />
        <path
           d="m 528.87,613.77 c 0,0 1.27,-2.398 -0.112,-4.561 -0.93,-1.462 -2.554,-0.08 -1.104,1.094 1.913,1.553 1.216,3.467 1.216,3.467 z"
           id="path19896" />
        <path
           d="m 410.58,600.15 c 0,1.075 -0.872,1.944 -1.944,1.944 -1.074,0 -1.943,-0.869 -1.943,-1.944 0,-1.067 0.869,-1.938 1.943,-1.938 1.073,10e-4 1.944,0.871 1.944,1.938 z"
           id="path19898" />
      </g>
      <g
         fill="#000000"
         id="g19934">
        <path
           d="m 435.88,585.17 c -13.827,1.076 -15.424,21.738 -15.424,21.738 h 0.969 c 0,0 0.378,-17.412 14.455,-21.738 z"
           id="path19902" />
        <path
           d="m 560.55,515.24 c 1.627,-3.12 4.814,-2.058 6.469,-1.095 -2.467,-0.587 -4.53,-0.4 -6.469,1.095 z"
           id="path19904" />
        <path
           d="m 568.57,513.78 c 1.86,-1.973 4.798,-2.223 6.286,0.092 -2.3,-0.939 -3.863,-0.877 -6.286,-0.092 z"
           id="path19906" />
        <path
           d="m 503.71,546.22 c 7.591,10.035 4.091,18.16 0.455,28.601 4.761,-5.691 8.636,-20.941 -0.455,-28.601 z"
           id="path19908" />
        <path
           d="m 508.9,540.2 c -2.542,10.982 0.376,29.04 5.739,35.074 -3.287,-7.189 -6.655,-17.096 -5.739,-35.074 z"
           id="path19910" />
        <path
           d="m 394.83,655.49 c 4.851,-0.303 5.345,3.039 5.345,3.039 l -0.729,-0.61 c -0.001,0 0.172,-1.669 -4.616,-2.429 z"
           id="path19912" />
        <path
           d="m 399.96,653.92 c 4.53,-0.987 4.42,3.218 4.42,3.218 l -1.116,-1.205 c 0,0 0.414,-1.875 -3.304,-2.013 z"
           id="path19914" />
        <path
           d="m 403.56,651.11 c 4.058,-0.857 3.963,2.684 3.963,2.684 l -0.658,-0.677 c -0.001,0 0.44,-1.864 -3.305,-2.007 z"
           id="path19916" />
        <path
           d="m 455.92,635.57 c 0,0 -0.116,-4.321 -5.055,-2.585 4.188,-0.736 4.358,2.073 4.358,2.073 z"
           id="path19918" />
        <path
           d="m 459.33,631.37 c 0,0 0.285,-4.182 -4.786,-2.383 4.571,-0.799 4.191,2.145 4.191,2.145 z"
           id="path19920" />
        <path
           d="m 463.07,627.38 c 0,0 -0.706,-4.006 -5.261,-2.266 4.18,-0.553 4.281,1.823 4.281,1.823 z"
           id="path19922" />
        <path
           d="m 552.35,590.39 c 0.824,-5.703 5.405,-6.254 5.405,-6.254 l 1.81,0.744 c 0,0 -4.89,-0.381 -7.215,5.51 z"
           id="path19924" />
        <path
           d="m 554.3,594.52 c 3.193,-6.396 7.408,-3.037 7.408,-3.037 l -0.485,0.245 c 0,0 -3.105,-2.416 -6.923,2.792 z"
           id="path19926" />
        <path
           d="m 550.16,601.19 c 6.577,-6.065 8.453,0.596 8.453,0.596 l -0.953,-0.298 c 0,0 -1.36,-4.363 -7.5,-0.298 z"
           id="path19928" />
        <path
           d="m 507.18,489.71 c 1.066,-7.208 6.619,-9.527 8.014,-10.081 2.059,-0.817 3.401,-1.335 4.616,-2.063 1.216,-0.728 3.322,-2.354 5.002,-2.712 1.399,-0.299 2.936,-0.004 4.108,0.4 1.428,0.492 0,0.49 0,0.49 0,0 -2.798,-0.713 -4.979,0.119 -2.581,0.984 -3.295,2.175 -4.396,2.868 -1.495,0.943 -3.84,1.093 -5.685,2.232 -1.47,0.91 -4.551,2.289 -6.68,8.747 z"
           id="path19930" />
        <path
           d="m 513,520.19 c 3.426,0 5.051,4.188 8.624,3.52 1.53,-0.286 1.762,-0.848 2.854,-0.969 1.093,-0.123 4.697,0.193 4.697,0.193 l -3.968,0.472 c 0,0 -0.488,-0.118 -1.642,0.304 -1.153,0.428 -1.612,0.784 -3.703,0.428 -1.686,-0.288 -4.436,-3.391 -6.862,-3.948 z"
           id="path19932" />
      </g>
    </g>
    <use
       xlink:href="#lion"
       transform="matrix(-1,0,0,1,1193.9797,0)"
       id="use19937" />
  </g>
</svg>
