<?xml version="1.0" encoding="UTF-8" standalone="no"?>
<svg
   viewBox="0 0 36 36"
   version="1.1"
   id="svg20172"
   sodipodi:docname="tolosa-e-provensa.svg"
   inkscape:version="1.2.1 (9c6d41e410, 2022-07-14)"
   inkscape:export-filename="tolosa-e-provensa.png"
   inkscape:export-xdpi="96"
   inkscape:export-ydpi="96"
   xmlns:inkscape="http://www.inkscape.org/namespaces/inkscape"
   xmlns:sodipodi="http://sodipodi.sourceforge.net/DTD/sodipodi-0.dtd"
   xmlns="http://www.w3.org/2000/svg"
   xmlns:svg="http://www.w3.org/2000/svg">
  <defs
     id="defs20176" />
  <sodipodi:namedview
     id="namedview20174"
     pagecolor="#ffffff"
     bordercolor="#000000"
     borderopacity="0.25"
     inkscape:showpageshadow="2"
     inkscape:pageopacity="0.0"
     inkscape:pagecheckerboard="0"
     inkscape:deskcolor="#d1d1d1"
     showgrid="false"
     inkscape:zoom="23.055556"
     inkscape:cx="17.978313"
     inkscape:cy="18"
     inkscape:window-width="1536"
     inkscape:window-height="1039"
     inkscape:window-x="168"
     inkscape:window-y="0"
     inkscape:window-maximized="0"
     inkscape:current-layer="svg20172" />
  <path
     fill="#E41E20"
     d="M32 5H4C1.791 5 0 6.791 0 9v18c0 2.209 1.791 4 4 4h28c2.209 0 4-1.791 4-4V9c0-2.209-1.791-4-4-4z"
     id="path20166" />
  <g
     id="g1575"
     style="display:inline;fill:#fee46e;fill-opacity:1;stroke:#000000;stroke-width:3;stroke-miterlimit:4;stroke-dasharray:none;stroke-opacity:1"
     transform="matrix(0.14437432,0,0,0.16505271,39.740722,-14.414464)">
    <path
       d="m -150.58581,133.6378 c -2.09414,0 -4.15735,0.12249 -6.19901,0.32326 -0.12659,5.72916 -4.81334,10.34438 -10.57255,10.34436 -2.25517,-3e-5 -4.35153,-0.73225 -6.06591,-1.93956 -0.97351,-1.08242 -1.97429,-2.12606 -3.00443,-3.15656 -2.41975,1.09604 -4.75318,2.32548 -6.99766,3.708 0.79961,0.74714 1.57433,1.52034 2.33889,2.30086 0.41274,0.49323 0.84941,0.94203 1.31206,1.38812 0.0301,0.029 0.0648,0.0662 0.0951,0.0951 9.87816,10.66201 16.61155,24.25784 18.74916,39.34283 -16.92025,-2.39663 -31.95808,-10.58696 -43.08885,-22.49521 -1.38183,2.24283 -2.65025,4.57977 -3.74603,6.99766 0.88308,0.88226 1.77884,1.74452 2.70019,2.5861 1.48998,1.82329 2.39589,4.15966 2.39594,6.69342 -5e-5,5.76866 -4.64045,10.44186 -10.3824,10.55353 -0.18759,1.97446 -0.26626,3.98557 -0.26622,6.00886 0,2.15996 0.0908,4.30421 0.30425,6.40818 5.72262,0.13396 10.34432,4.81792 10.34437,10.57256 -5e-5,2.0577 -0.59539,3.96801 -1.61631,5.59052 -1.18909,1.05892 -2.35186,2.1478 -3.47982,3.27064 1.13356,2.50125 2.43988,4.9123 3.87914,7.22584 11.10666,-11.81676 26.06902,-19.94656 42.8987,-22.34307 -2.46724,16.76918 -10.60987,31.69979 -22.43815,42.74657 2.24797,1.38468 4.59286,2.61071 7.01668,3.708 0.89953,-0.89527 1.76867,-1.79982 2.62412,-2.73821 1.81523,-1.46405 4.10831,-2.33885 6.61735,-2.3389 5.76389,6e-5 10.45355,4.62772 10.57255,10.36339 1.97895,0.18842 3.98079,0.28523 6.00886,0.28523 2.1599,0 4.28523,-0.12887 6.38917,-0.34227 -1e-5,-1.4e-4 0.019,1.3e-4 0.019,0 0.14137,-5.71609 4.82279,-10.30635 10.57255,-10.30635 2.06541,6e-5 3.98318,0.60739 5.60954,1.63534 1.05279,1.18142 2.13449,2.32445 3.25163,3.44178 2.50525,-1.13482 4.92791,-2.41868 7.24486,-3.86012 -11.72601,-11.02096 -19.82024,-25.86793 -22.28602,-42.53741 16.66495,2.46723 31.50057,10.56343 42.518387,22.28603 1.43956,-2.31562 2.72673,-4.7413 3.86012,-7.24486 -1.02517,-1.02648 -2.07658,-2.03313 -3.15656,-3.00443 -1.20339,-1.7169 -1.92055,-3.79559 -1.92055,-6.04689 4e-5,-5.75459 4.60273,-10.43899 10.325349,-10.57255 0.20074,-2.04168 0.30425,-4.10485 0.30425,-6.19902 0,-2.0895 -0.10439,-4.16175 -0.30425,-6.19901 -5.722669,-0.13393 -10.325349,-4.8179 -10.325349,-10.57255 4e-5,-2.26211 0.72545,-4.34855 1.93957,-6.06591 1.07273,-0.96537 2.11829,-1.96528 3.13754,-2.98541 -1.09728,-2.42382 -2.34236,-4.76866 -3.72702,-7.01668 -0.77983,0.83661 -1.57686,1.65438 -2.395927,2.45299 -0.48455,0.41396 -0.95027,0.84944 -1.38813,1.31206 -10.56181,9.77609 -24.01045,16.47654 -38.92448,18.6731 2.39807,-16.82966 10.54153,-31.81534 22.36209,-42.91771 -2.31647,-1.44174 -4.74005,-2.72495 -7.24486,-3.86012 -1.0192,1.02252 -2.01874,2.06408 -2.98542,3.13753 -1.7263,1.2249 -3.83072,1.95855 -6.10393,1.95859 -5.75922,-8e-5 -10.44628,-4.61521 -10.57256,-10.34437 -2.04163,-0.20077 -4.10488,-0.32326 -6.19898,-0.32326 z m -6.08492,17.11384 h 12.16984 v 39.55198 h 39.55199 v 12.16985 h -39.55199 v 39.55199 h -12.16984 v -39.55199 h -39.55199 v -12.16985 h 39.55199 z"
       style="fill:#f2d207;fill-opacity:1;fill-rule:evenodd;stroke:#000000;stroke-width:1.82548;stroke-linecap:butt;stroke-linejoin:miter;stroke-miterlimit:4;stroke-dasharray:none;stroke-opacity:1"
       id="path14367-1" />
    <g
       id="g1559">
      <path
         d="m -143.5672,134.64145 a 7.01477,7.0148631 0 1 1 -14.02954,0 7.01477,7.0148631 0 1 1 14.02954,0 z"
         style="fill:#f2d207;fill-opacity:1;fill-rule:evenodd;stroke:#000000;stroke-width:1.82548;stroke-linecap:butt;stroke-linejoin:miter;stroke-miterlimit:4;stroke-dasharray:none;stroke-opacity:1"
         id="path14388-0" />
      <path
         d="m -175.37921,139.40567 a 7.0147693,7.0148533 2.5343266 1 1 -12.14994,7.01486 7.0147693,7.0148533 2.5343266 1 1 12.14994,-7.01486 z"
         style="fill:#f2d207;fill-opacity:1;fill-rule:evenodd;stroke:#000000;stroke-width:1.82548;stroke-linecap:butt;stroke-linejoin:miter;stroke-miterlimit:4;stroke-dasharray:none;stroke-opacity:1"
         id="path14390-3" />
      <path
         d="m -187.52964,246.35123 a 7.0148556,7.0147716 87.465673 1 1 12.14994,7.01487 7.0148556,7.0147716 87.465673 1 1 -12.14994,-7.01487 z"
         style="fill:#f2d207;fill-opacity:1;fill-rule:evenodd;stroke:#000000;stroke-width:1.82548;stroke-linecap:butt;stroke-linejoin:miter;stroke-miterlimit:4;stroke-dasharray:none;stroke-opacity:1"
         id="path14392-5" />
      <path
         d="m -157.59774,258.13092 a 7.0147766,7.0148709 9.8673559e-7 1 1 14.02955,2e-5 7.0147766,7.0148709 9.8673559e-7 1 1 -14.02955,-2e-5 z"
         style="fill:#f2d207;fill-opacity:1;fill-rule:evenodd;stroke:#000000;stroke-width:1.82548;stroke-linecap:butt;stroke-linejoin:miter;stroke-miterlimit:4;stroke-dasharray:none;stroke-opacity:1"
         id="path14394-1" />
      <path
         d="m -125.78564,253.36627 a 7.0147699,7.0148606 1.0271183 1 1 12.14994,-7.01486 7.0147699,7.0148606 1.0271183 1 1 -12.14994,7.01486 z"
         style="fill:#f2d207;fill-opacity:1;fill-rule:evenodd;stroke:#000000;stroke-width:1.82548;stroke-linecap:butt;stroke-linejoin:miter;stroke-miterlimit:4;stroke-dasharray:none;stroke-opacity:1"
         id="path14396-4" />
      <path
         d="m -100.61815,233.33335 a 7.0147742,7.0148612 3.3980995 1 1 7.0148,-12.15009 7.0147742,7.0148612 3.3980995 1 1 -7.0148,12.15009 z"
         style="fill:#f2d207;fill-opacity:1;fill-rule:evenodd;stroke:#000000;stroke-width:1.82548;stroke-linecap:butt;stroke-linejoin:miter;stroke-miterlimit:4;stroke-dasharray:none;stroke-opacity:1"
         id="path14398-5" />
      <path
         d="m -88.83734,203.40079 a 7.014875,7.0147868 89.999999 1 1 1e-5,-14.02975 7.014875,7.0147868 89.999999 1 1 -1e-5,14.02975 z"
         style="fill:#f2d207;fill-opacity:1;fill-rule:evenodd;stroke:#000000;stroke-width:1.82548;stroke-linecap:butt;stroke-linejoin:miter;stroke-miterlimit:4;stroke-dasharray:none;stroke-opacity:1"
         id="path14400-1" />
      <path
         d="m -93.60235,171.58786 a 7.0148618,7.0147705 89.136719 1 1 -7.01477,-12.15009 7.0148618,7.0147705 89.136719 1 1 7.01477,12.15009 z"
         style="fill:#f2d207;fill-opacity:1;fill-rule:evenodd;stroke:#000000;stroke-width:1.82548;stroke-linecap:butt;stroke-linejoin:miter;stroke-miterlimit:4;stroke-dasharray:none;stroke-opacity:1"
         id="path14402-9" />
      <path
         d="m -113.63476,146.42084 a 7.0148671,7.0147703 86.456596 1 1 -12.14994,-7.01488 7.0148671,7.0147703 86.456596 1 1 12.14994,7.01488 z"
         style="fill:#f2d207;fill-opacity:1;fill-rule:evenodd;stroke:#000000;stroke-width:1.82548;stroke-linecap:butt;stroke-linejoin:miter;stroke-miterlimit:4;stroke-dasharray:none;stroke-opacity:1"
         id="path14404-1" />
      <path
         d="m -200.54662,159.43871 a 7.014762,7.0148612 2.1611549 1 1 -7.01477,12.15009 7.014762,7.0148612 2.1611549 1 1 7.01477,-12.15009 z"
         style="fill:#f2d207;fill-opacity:1;fill-rule:evenodd;stroke:#000000;stroke-width:1.82548;stroke-linecap:butt;stroke-linejoin:miter;stroke-miterlimit:4;stroke-dasharray:none;stroke-opacity:1"
         id="path14406-5" />
      <path
         d="m -212.32697,189.37118 a 7.0148588,7.0147723 89.999999 1 1 0,14.02971 7.0148588,7.0147723 89.999999 1 1 0,-14.02971 z"
         style="fill:#f2d207;fill-opacity:1;fill-rule:evenodd;stroke:#000000;stroke-width:1.82548;stroke-linecap:butt;stroke-linejoin:miter;stroke-miterlimit:4;stroke-dasharray:none;stroke-opacity:1"
         id="path14408-3" />
      <path
         d="m -207.5618,221.18304 a 7.0148612,7.014762 87.838845 1 1 7.01478,12.15009 7.0148612,7.014762 87.838845 1 1 -7.01478,-12.15009 z"
         style="fill:#f2d207;fill-opacity:1;fill-rule:evenodd;stroke:#000000;stroke-width:1.82548;stroke-linecap:butt;stroke-linejoin:miter;stroke-miterlimit:4;stroke-dasharray:none;stroke-opacity:1"
         id="path14410-4" />
    </g>
  </g>
</svg>
